<?xml version="1.0" encoding="utf-8"?>
<!-- Generator: Adobe Illustrator 24.0.1, SVG Export Plug-In . SVG Version: 6.00 Build 0)  -->
<svg version="1.1" id="Layer_1" xmlns="http://www.w3.org/2000/svg" xmlns:xlink="http://www.w3.org/1999/xlink" x="0px" y="0px"
	 viewBox="0 0 40 18.9" style="enable-background:new 0 0 40 18.9;" xml:space="preserve">
<style type="text/css">
	.st0{fill:#FFFFFF;}
	.st1{fill:#F48120;}
	.st2{fill:#FAAD3F;}
</style>
<g>
	<path class="st0" d="M36.1,9.1L31.5,8l-0.8-0.3L9.6,7.9v10.2l26.5,0.1V9.1z"/>
	<path class="st1" d="M27.5,17.2c0.3-0.7,0.2-1.5-0.2-2.1c-0.4-0.5-1.1-0.8-1.7-0.9L11.3,14c-0.1,0-0.2-0.1-0.2-0.1
		c-0.1-0.1-0.1-0.1,0-0.2l0,0c0.1-0.2,0.2-0.2,0.3-0.2l14.3-0.3c1.9-0.2,3.5-1.4,4.2-3.1L30.7,8c0-0.1,0.1-0.2,0-0.2
		c-1.1-5.1-6.2-8.2-11.2-7.1c-3.2,0.7-5.8,3-6.8,6.1c-0.9-0.6-1.9-0.9-3-0.8c-2,0.2-3.6,1.8-3.8,3.8c-0.1,0.5,0,1,0.1,1.5
		c-3.3,0.1-5.8,2.8-5.8,6c0,0.3,0,0.6,0.1,0.9c0,0.1,0.1,0.2,0.2,0.2h26.4c0.2,0,0.3-0.1,0.3-0.2L27.5,17.2z"/>
	<path class="st2" d="M32,8h-0.4c-0.1,0-0.2,0.1-0.2,0.2l-0.6,2c-0.3,0.7-0.2,1.5,0.2,2.1c0.4,0.5,1.1,0.8,1.7,0.9l3,0.2
		c0.1,0,0.2,0.1,0.2,0.1c0.1,0.1,0.1,0.1,0,0.2l0,0c-0.1,0.2-0.2,0.2-0.3,0.2l-3.1,0.2c-1.9,0.2-3.5,1.4-4.2,3.1l-0.2,0.7
		c-0.1,0.1,0,0.2,0.2,0.2h10.9c0.1,0,0.2-0.1,0.2-0.2c0,0,0,0,0-0.1c0.2-0.7,0.3-1.4,0.3-2.1C39.8,11.5,36.3,8,32,8"/>
</g>
</svg>
