<svg id="Layer_1" data-name="Layer 1" xmlns="http://www.w3.org/2000/svg" viewBox="0 0 72.209 53.617"><defs><style>.cls-1,.cls-10{fill:#150d53;isolation:isolate;}.cls-1{opacity:0.1;}.cls-2{fill:#508ebc;}.cls-3{fill:#599ed1;}.cls-4{fill:#c1ebff;}.cls-5{fill:#fff;}.cls-6{fill:#dce6f4;}.cls-7{fill:#67c1ef;}.cls-8{fill:#ff7f8e;}.cls-9{fill:#a0d2ef;}.cls-10{opacity:0.2;}.cls-11{fill:none;stroke:#67c1ef;stroke-linecap:round;stroke-linejoin:round;stroke-width:0.157px;}</style></defs><title>fullWeb2</title><ellipse class="cls-1" cx="43.335" cy="43.844" rx="28.29" ry="1.756"/><ellipse class="cls-1" cx="11.234" cy="48.788" rx="10.796" ry="1.155"/><ellipse class="cls-1" cx="22.913" cy="52.162" rx="6.572" ry="0.898"/><g id="monitor"><path class="cls-2" d="M51.952,41.761H35.774s3.181-3.121,2.732-5.4H49.22A5.578,5.578,0,0,0,51.952,41.761Z"/><path class="cls-3" d="M69.843,36.362H17.883A1.783,1.783,0,0,1,16.1,34.579V2.3A1.783,1.783,0,0,1,17.883.521H69.842A1.783,1.783,0,0,1,71.625,2.3V34.579A1.782,1.782,0,0,1,69.843,36.362Z"/><path class="cls-3" d="M51.952,43.778H35.774a.357.357,0,0,1-.357-.357v-1.3a.357.357,0,0,1,.357-.357H51.952a.357.357,0,0,1,.357.357v1.3A.358.358,0,0,1,51.952,43.778Z"/><path class="cls-4" d="M69.321,33.776H18.405a.178.178,0,0,1-.178-.178V3.285a.178.178,0,0,1,.178-.178H69.321a.178.178,0,0,1,.178.178V33.6A.177.177,0,0,1,69.321,33.776Z"/><path class="cls-5" d="M65.972,7.426h-44.4a.355.355,0,0,1-.355-.355V4.434a.355.355,0,0,1,.355-.355h44.4a.355.355,0,0,1,.355.355V7.071A.354.354,0,0,1,65.972,7.426Z"/><path class="cls-6" d="M41.475,6.224h-4.92a.372.372,0,0,1-.372-.372h0a.372.372,0,0,1,.372-.372h4.92a.372.372,0,0,1,.372.372h0A.371.371,0,0,1,41.475,6.224Z"/><path class="cls-6" d="M49.316,6.239H44.4a.372.372,0,0,1-.372-.372h0A.372.372,0,0,1,44.4,5.5h4.92a.372.372,0,0,1,.372.372h0A.372.372,0,0,1,49.316,6.239Z"/><path class="cls-7" d="M33.635,6.239h-4.92a.372.372,0,0,1-.372-.372h0a.372.372,0,0,1,.372-.372h4.92a.372.372,0,0,1,.372.372h0A.373.373,0,0,1,33.635,6.239Z"/><path class="cls-6" d="M57.157,6.239h-4.92a.372.372,0,0,1-.372-.372h0a.372.372,0,0,1,.372-.372h4.92a.372.372,0,0,1,.372.372h0A.373.373,0,0,1,57.157,6.239Z"/><path class="cls-6" d="M65,6.167h-4.92a.372.372,0,0,1-.372-.372h0a.372.372,0,0,1,.372-.372H65a.372.372,0,0,1,.372.372h0A.372.372,0,0,1,65,6.167Z"/><path class="cls-8" d="M23.18,6.777h0a1.024,1.024,0,0,1-1.024-1.024h0A1.024,1.024,0,0,1,23.18,4.729h0A1.024,1.024,0,0,1,24.2,5.753h0A1.025,1.025,0,0,1,23.18,6.777Z"/><path class="cls-5" d="M35.005,32.815h-13.4a.447.447,0,0,1-.447-.447V20.006a.447.447,0,0,1,.447-.447H35a.447.447,0,0,1,.447.447V32.369A.446.446,0,0,1,35.005,32.815Z"/><path class="cls-6" d="M34.352,29.053H22.375a.28.28,0,0,1-.279-.279v-.081a.28.28,0,0,1,.279-.279H34.352a.28.28,0,0,1,.279.279v.081A.28.28,0,0,1,34.352,29.053Z"/><path class="cls-6" d="M34.352,30.309H22.375a.28.28,0,0,1-.279-.279v-.081a.28.28,0,0,1,.279-.279H34.352a.28.28,0,0,1,.279.279v.08A.28.28,0,0,1,34.352,30.309Z"/><path class="cls-6" d="M27.542,31.564H22.376a.28.28,0,0,1-.279-.279V31.2a.28.28,0,0,1,.279-.279h5.166a.28.28,0,0,1,.279.279v.081A.28.28,0,0,1,27.542,31.564Z"/><path class="cls-7" d="M34.183,27.242H22.543A.448.448,0,0,1,22.1,26.8V21.186a.448.448,0,0,1,.447-.447H34.184a.448.448,0,0,1,.447.447V26.8A.45.45,0,0,1,34.183,27.242Z"/><path class="cls-5" d="M50.288,32.815H37.018a.511.511,0,0,1-.511-.511V20.071a.511.511,0,0,1,.511-.511h13.27a.511.511,0,0,1,.511.511V32.305A.509.509,0,0,1,50.288,32.815Z"/><path class="cls-6" d="M49.7,29.053H37.724a.28.28,0,0,1-.279-.279v-.081a.28.28,0,0,1,.279-.279H49.7a.28.28,0,0,1,.279.279v.081A.28.28,0,0,1,49.7,29.053Z"/><path class="cls-6" d="M49.7,30.309H37.724a.28.28,0,0,1-.279-.279v-.081a.28.28,0,0,1,.279-.279H49.7a.28.28,0,0,1,.279.279v.08A.281.281,0,0,1,49.7,30.309Z"/><path class="cls-6" d="M42.89,31.564H37.724a.28.28,0,0,1-.279-.279V31.2a.28.28,0,0,1,.279-.279H42.89a.28.28,0,0,1,.279.279v.081A.279.279,0,0,1,42.89,31.564Z"/><path class="cls-8" d="M49.532,27.242H37.891a.448.448,0,0,1-.447-.447V21.186a.448.448,0,0,1,.447-.447H49.532a.448.448,0,0,1,.447.447V26.8A.449.449,0,0,1,49.532,27.242Z"/><path class="cls-5" d="M65.76,32.815H52.49a.511.511,0,0,1-.511-.511V20.071a.511.511,0,0,1,.511-.511H65.76a.511.511,0,0,1,.511.511V32.305A.509.509,0,0,1,65.76,32.815Z"/><path class="cls-6" d="M65.173,29.053H53.2a.28.28,0,0,1-.279-.279v-.081a.28.28,0,0,1,.279-.279H65.173a.28.28,0,0,1,.279.279v.081A.28.28,0,0,1,65.173,29.053Z"/><path class="cls-6" d="M65.173,30.309H53.2a.28.28,0,0,1-.279-.279v-.081a.28.28,0,0,1,.279-.279H65.173a.28.28,0,0,1,.279.279v.08A.281.281,0,0,1,65.173,30.309Z"/><path class="cls-6" d="M58.362,31.564H53.2a.28.28,0,0,1-.279-.279V31.2a.28.28,0,0,1,.279-.279h5.166a.28.28,0,0,1,.279.279v.081A.279.279,0,0,1,58.362,31.564Z"/><path class="cls-9" d="M65,27.242H53.363a.448.448,0,0,1-.447-.447V21.186a.448.448,0,0,1,.447-.447H65a.448.448,0,0,1,.447.447V26.8A.449.449,0,0,1,65,27.242Z"/><path class="cls-5" d="M65.847,18.441h-44.2a.425.425,0,0,1-.425-.425V8.86a.425.425,0,0,1,.425-.425H65.847a.425.425,0,0,1,.425.425v9.156A.425.425,0,0,1,65.847,18.441Z"/><path class="cls-6" d="M64.356,13.093h-16.7a.245.245,0,0,1-.245-.245h0a.245.245,0,0,1,.245-.245h16.7a.245.245,0,0,1,.245.245h0A.245.245,0,0,1,64.356,13.093Z"/><path class="cls-6" d="M61.908,14.287H47.651a.245.245,0,0,1-.245-.245h0a.245.245,0,0,1,.245-.245H61.908a.245.245,0,0,1,.245.245h0A.245.245,0,0,1,61.908,14.287Z"/><path class="cls-7" d="M61.328,11.369H50.68a.47.47,0,0,1-.47-.47h0a.47.47,0,0,1,.47-.47H61.328a.47.47,0,0,1,.47.47h0A.47.47,0,0,1,61.328,11.369Z"/><path class="cls-8" d="M57.961,17.185H54.046a.785.785,0,0,1-.783-.783h0a.785.785,0,0,1,.783-.783h3.915a.785.785,0,0,1,.783.783h0A.785.785,0,0,1,57.961,17.185Z"/><path class="cls-9" d="M43.382,17.3H22.876a.644.644,0,0,1-.642-.642V10.218a.644.644,0,0,1,.642-.642H43.382a.644.644,0,0,1,.642.642V16.66A.644.644,0,0,1,43.382,17.3Z"/><path class="cls-10" d="M49.193,37.324H38.513s.036-.345.036-.461a3.038,3.038,0,0,0-.043-.5H49.22s-.034.386-.034.5S49.193,37.324,49.193,37.324Z"/></g><g id="tablet"><path class="cls-3" d="M19.812,48.856H1.947a.893.893,0,0,1-.893-.893V22.207a.893.893,0,0,1,.893-.893H19.813a.893.893,0,0,1,.893.893V47.963A.893.893,0,0,1,19.812,48.856Z"/><path class="cls-4" d="M19.068,47.665H2.691a.6.6,0,0,1-.6-.6V23.1a.6.6,0,0,1,.6-.6H19.068a.6.6,0,0,1,.6.6v23.97A.6.6,0,0,1,19.068,47.665Z"/><circle class="cls-5" cx="11.011" cy="21.924" r="0.223"/><path class="cls-5" d="M10.593,47.665H2.836v-6.03a.258.258,0,0,1,.258-.258h7.241a.258.258,0,0,1,.258.258Z"/><path class="cls-6" d="M9.985,47.359H3.508a.163.163,0,0,1-.163-.163v-.077a.163.163,0,0,1,.163-.163H9.985a.163.163,0,0,1,.163.163V47.2A.164.164,0,0,1,9.985,47.359Z"/><path class="cls-9" d="M9.552,46.218H3.94a.6.6,0,0,1-.6-.6V42.716a.6.6,0,0,1,.6-.6H9.552a.6.6,0,0,1,.6.6v2.906A.6.6,0,0,1,9.552,46.218Z"/><path class="cls-5" d="M18.924,47.665H11.166v-6.03a.258.258,0,0,1,.258-.258h7.241a.258.258,0,0,1,.258.258v6.03Z"/><path class="cls-6" d="M18.315,47.359H11.838a.163.163,0,0,1-.163-.163v-.077a.163.163,0,0,1,.163-.163h6.477a.163.163,0,0,1,.163.163V47.2A.163.163,0,0,1,18.315,47.359Z"/><path class="cls-6" d="M17.882,46.218H12.27a.6.6,0,0,1-.6-.6V42.716a.6.6,0,0,1,.6-.6h5.612a.6.6,0,0,1,.6.6v2.906A.6.6,0,0,1,17.882,46.218Z"/><path class="cls-5" d="M18.621,31.729H3.138a.3.3,0,0,1-.3-.3V26.855a.3.3,0,0,1,.3-.3H18.622a.3.3,0,0,1,.3.3v4.576A.3.3,0,0,1,18.621,31.729Z"/><path class="cls-6" d="M18.11,28.885H11.979a.09.09,0,0,1-.09-.09h0a.09.09,0,0,1,.09-.09H18.11a.09.09,0,0,1,.09.09h0A.09.09,0,0,1,18.11,28.885Z"/><path class="cls-6" d="M17.212,29.323H11.98a.09.09,0,0,1-.09-.09h0a.09.09,0,0,1,.09-.09h5.232a.09.09,0,0,1,.09.09h0A.09.09,0,0,1,17.212,29.323Z"/><path class="cls-7" d="M17,28.252H13.091a.172.172,0,0,1-.172-.172h0a.172.172,0,0,1,.172-.172H17a.172.172,0,0,1,.172.172h0A.172.172,0,0,1,17,28.252Z"/><path class="cls-8" d="M15.763,30.386H14.326a.288.288,0,0,1-.287-.287h0a.288.288,0,0,1,.287-.287h1.437a.288.288,0,0,1,.287.287h0A.287.287,0,0,1,15.763,30.386Z"/><path class="cls-9" d="M10.158,31.112H3.892a.55.55,0,0,1-.548-.548V27.79a.55.55,0,0,1,.548-.548h6.266a.55.55,0,0,1,.548.548v2.774A.55.55,0,0,1,10.158,31.112Z"/><path class="cls-5" d="M10.3,40.749H3.133a.3.3,0,0,1-.3-.3V32.694a.3.3,0,0,1,.3-.3H10.3a.3.3,0,0,1,.3.3v7.757A.3.3,0,0,1,10.3,40.749Z"/><path class="cls-6" d="M9.985,38.378H3.508a.163.163,0,0,1-.163-.163v-.076a.163.163,0,0,1,.163-.163H9.985a.163.163,0,0,1,.163.163v.076A.163.163,0,0,1,9.985,38.378Z"/><path class="cls-6" d="M9.985,39.17H3.508a.163.163,0,0,1-.163-.163v-.076a.163.163,0,0,1,.163-.163H9.985a.163.163,0,0,1,.163.163v.076A.164.164,0,0,1,9.985,39.17Z"/><path class="cls-6" d="M6.288,39.961H3.508a.163.163,0,0,1-.163-.163v-.076a.163.163,0,0,1,.163-.163H6.289a.163.163,0,0,1,.163.163V39.8A.165.165,0,0,1,6.288,39.961Z"/><path class="cls-7" d="M9.552,37.237H3.94a.6.6,0,0,1-.6-.6V33.735a.6.6,0,0,1,.6-.6H9.552a.6.6,0,0,1,.6.6v2.906A.6.6,0,0,1,9.552,37.237Z"/><path class="cls-5" d="M18.626,40.749H11.464a.3.3,0,0,1-.3-.3V32.694a.3.3,0,0,1,.3-.3h7.162a.3.3,0,0,1,.3.3v7.757A.3.3,0,0,1,18.626,40.749Z"/><path class="cls-6" d="M18.315,38.378H11.838a.163.163,0,0,1-.163-.163v-.076a.163.163,0,0,1,.163-.163h6.477a.163.163,0,0,1,.163.163v.076A.162.162,0,0,1,18.315,38.378Z"/><path class="cls-6" d="M18.315,39.17H11.838a.163.163,0,0,1-.163-.163v-.076a.163.163,0,0,1,.163-.163h6.477a.163.163,0,0,1,.163.163v.076A.163.163,0,0,1,18.315,39.17Z"/><path class="cls-6" d="M14.619,39.961H11.838a.163.163,0,0,1-.163-.163v-.076a.163.163,0,0,1,.163-.163h2.781a.163.163,0,0,1,.163.163V39.8A.164.164,0,0,1,14.619,39.961Z"/><path class="cls-8" d="M17.882,37.237H12.27a.6.6,0,0,1-.6-.6V33.735a.6.6,0,0,1,.6-.6h5.612a.6.6,0,0,1,.6.6v2.906A.6.6,0,0,1,17.882,37.237Z"/><path class="cls-5" d="M18.621,25.962H3.129a.3.3,0,0,1-.3-.3V23.6a.3.3,0,0,1,.3-.3H18.622a.3.3,0,0,1,.3.3v2.066A.3.3,0,0,1,18.621,25.962Z"/><path class="cls-8" d="M4.323,25.432h0a.8.8,0,0,1-.8-.8h0a.8.8,0,0,1,.8-.8h0a.8.8,0,0,1,.8.8h0A.8.8,0,0,1,4.323,25.432Z"/><line class="cls-11" x1="16.582" y1="25.131" x2="18.078" y2="25.131"/><line class="cls-11" x1="16.582" y1="24.133" x2="18.078" y2="24.133"/><line class="cls-11" x1="16.582" y1="24.632" x2="18.078" y2="24.632"/></g><g id="smartphone"><g id="phone"><path class="cls-3" d="M27.872,52.162H18.488a.949.949,0,0,1-.949-.949v-20.1a.949.949,0,0,1,.949-.949h9.384a.949.949,0,0,1,.949.949v20.1A.95.95,0,0,1,27.872,52.162Z"/><path class="cls-4" d="M27.662,50.874H18.694a.44.44,0,0,1-.439-.439V31.759a.44.44,0,0,1,.439-.439h8.968a.44.44,0,0,1,.439.439V50.435A.44.44,0,0,1,27.662,50.874Z"/><path class="cls-5" d="M24.006,30.859H22.35a.116.116,0,0,1-.115-.115h0a.116.116,0,0,1,.115-.115h1.656a.116.116,0,0,1,.115.115h0A.115.115,0,0,1,24.006,30.859Z"/></g><path class="cls-5" d="M27.327,50.874H19v-8.3a.218.218,0,0,1,.218-.218h7.9a.218.218,0,0,1,.218.218v8.3Z"/><path class="cls-6" d="M26.674,48.78H19.717a.176.176,0,0,1-.175-.175v-.082a.176.176,0,0,1,.175-.175h6.957a.176.176,0,0,1,.175.175v.082A.176.176,0,0,1,26.674,48.78Z"/><path class="cls-6" d="M26.674,49.63H19.717a.176.176,0,0,1-.175-.175v-.082a.176.176,0,0,1,.175-.175h6.957a.176.176,0,0,1,.175.175v.082A.176.176,0,0,1,26.674,49.63Z"/><path class="cls-6" d="M22.7,50.48H19.716a.176.176,0,0,1-.175-.175v-.082a.176.176,0,0,1,.175-.175H22.7a.176.176,0,0,1,.175.175v.082A.175.175,0,0,1,22.7,50.48Z"/><path class="cls-7" d="M26.253,47.555H20.137a.6.6,0,0,1-.6-.6v-3.21a.6.6,0,0,1,.6-.6h6.116a.6.6,0,0,1,.6.6v3.21A.6.6,0,0,1,26.253,47.555Z"/><path class="cls-5" d="M27.14,34.132H19.251a.224.224,0,0,1-.224-.224V32.272a.224.224,0,0,1,.224-.224H27.14a.224.224,0,0,1,.224.224v1.636A.224.224,0,0,1,27.14,34.132Z"/><path class="cls-8" d="M20.142,33.76h0a.67.67,0,0,1-.67-.67h0a.67.67,0,0,1,.67-.67h0a.67.67,0,0,1,.67.67h0A.67.67,0,0,1,20.142,33.76Z"/><line class="cls-11" x1="25.597" y1="33.489" x2="26.87" y2="33.489"/><line class="cls-11" x1="25.597" y1="32.64" x2="26.87" y2="32.64"/><line class="cls-11" x1="25.597" y1="33.065" x2="26.87" y2="33.065"/><path class="cls-5" d="M27.036,41.573h-7.75a.294.294,0,0,1-.294-.294V35.167a.294.294,0,0,1,.294-.294h7.75a.294.294,0,0,1,.294.294v6.112A.294.294,0,0,1,27.036,41.573Z"/><path class="cls-6" d="M26.192,36.4H20.061a.09.09,0,0,1-.09-.09h0a.09.09,0,0,1,.09-.09h6.131a.09.09,0,0,1,.09.09h0A.09.09,0,0,1,26.192,36.4Z"/><path class="cls-6" d="M25.294,36.84H20.062a.09.09,0,0,1-.09-.09h0a.09.09,0,0,1,.09-.09h5.232a.09.09,0,0,1,.09.09h0A.091.091,0,0,1,25.294,36.84Z"/><path class="cls-7" d="M25.081,35.769H21.173A.172.172,0,0,1,21,35.6h0a.172.172,0,0,1,.172-.172h3.908a.172.172,0,0,1,.172.172h0A.172.172,0,0,1,25.081,35.769Z"/><path class="cls-8" d="M23.845,37.9H22.408a.288.288,0,0,1-.287-.287h0a.288.288,0,0,1,.287-.287h1.437a.288.288,0,0,1,.287.287h0A.287.287,0,0,1,23.845,37.9Z"/><path class="cls-9" d="M26.266,41.021h-6.21a.55.55,0,0,1-.548-.548V38.979a.55.55,0,0,1,.548-.548h6.211a.55.55,0,0,1,.548.548v1.495A.55.55,0,0,1,26.266,41.021Z"/></g></svg>