<?xml version="1.0" encoding="utf-8"?>
<!-- Generator: Adobe Illustrator 24.0.3, SVG Export Plug-In . SVG Version: 6.00 Build 0)  -->
<svg version="1.1" id="Layer_1" xmlns="http://www.w3.org/2000/svg" xmlns:xlink="http://www.w3.org/1999/xlink" x="0px" y="0px"
	 viewBox="0 0 100 58.288" style="enable-background:new 0 0 100 58.288;" xml:space="preserve">
<style type="text/css">
	.st0{opacity:0.1;fill:#150D53;}
	.st1{fill:#508EBC;}
	.st2{fill:#599ED1;}
	.st3{fill:#C1EBFF;}
	.st4{fill:#FFFFFF;}
	.st5{fill:#DCE6F4;}
	.st6{fill:#67C1EF;}
	.st7{fill:#FF7F8E;}
	.st8{fill:#A0D2EF;}
	.st9{opacity:0.2;fill:#150D53;}
	.st10{fill:none;stroke:#67C1EF;stroke-width:0.1566;stroke-linecap:round;stroke-linejoin:round;stroke-miterlimit:10;}
	.st11{opacity:0.3;fill:#508EBC;}
</style>
<g>
	<g id="shadows_2_">
		<ellipse class="st0" cx="43.889" cy="46.615" rx="28.29" ry="1.756"/>
		<ellipse class="st0" cx="11.788" cy="51.559" rx="10.796" ry="1.155"/>
		<ellipse class="st0" cx="23.467" cy="54.933" rx="6.572" ry="0.898"/>
		<ellipse class="st0" cx="75.242" cy="53.054" rx="23.766" ry="1.365"/>
	</g>
	<g id="monitor_3_">
		<path class="st1" d="M52.506,44.532H36.328c0,0,3.181-3.121,2.732-5.399h10.714C49.37,42.858,52.506,44.532,52.506,44.532z"/>
		<path class="st2" d="M70.397,39.133H18.437c-0.985,0-1.783-0.798-1.783-1.783V5.075c0-0.985,0.798-1.783,1.783-1.783h51.959
			c0.985,0,1.783,0.798,1.783,1.783V37.35C72.18,38.335,71.381,39.133,70.397,39.133z"/>
		<path class="st2" d="M52.506,46.549H36.328c-0.197,0-0.357-0.16-0.357-0.357v-1.304c0-0.197,0.16-0.357,0.357-0.357h16.178
			c0.197,0,0.357,0.16,0.357,0.357v1.304C52.862,46.389,52.703,46.549,52.506,46.549z"/>
		<path class="st3" d="M69.875,36.547H18.959c-0.098,0-0.178-0.08-0.178-0.178V6.056c0-0.098,0.08-0.178,0.178-0.178h50.916
			c0.098,0,0.178,0.08,0.178,0.178v30.313C70.053,36.468,69.974,36.547,69.875,36.547z"/>
		<g>
			<path class="st4" d="M66.526,10.197h-44.4c-0.196,0-0.355-0.159-0.355-0.355V7.205c0-0.196,0.159-0.355,0.355-0.355h44.4
				c0.196,0,0.355,0.159,0.355,0.355v2.637C66.882,10.038,66.723,10.197,66.526,10.197z"/>
			<g>
				<g>
					<g>
						<path class="st5" d="M42.029,8.995h-4.92c-0.206,0-0.372-0.167-0.372-0.372l0,0c0-0.206,0.167-0.372,0.372-0.372h4.92
							c0.206,0,0.372,0.167,0.372,0.372l0,0C42.402,8.828,42.235,8.995,42.029,8.995z"/>
					</g>
				</g>
				<g>
					<g>
						<path class="st5" d="M49.87,9.01h-4.92c-0.206,0-0.372-0.167-0.372-0.372l0,0c0-0.206,0.167-0.372,0.372-0.372h4.92
							c0.206,0,0.372,0.167,0.372,0.372l0,0C50.242,8.843,50.076,9.01,49.87,9.01z"/>
					</g>
				</g>
				<path class="st6" d="M34.189,9.01h-4.92c-0.206,0-0.372-0.167-0.372-0.372l0,0c0-0.206,0.167-0.372,0.372-0.372h4.92
					c0.206,0,0.372,0.167,0.372,0.372l0,0C34.561,8.843,34.394,9.01,34.189,9.01z"/>
				<g>
					<g>
						<path class="st5" d="M57.711,9.01h-4.92c-0.206,0-0.372-0.167-0.372-0.372l0,0c0-0.206,0.167-0.372,0.372-0.372h4.92
							c0.206,0,0.372,0.167,0.372,0.372l0,0C58.083,8.843,57.916,9.01,57.711,9.01z"/>
					</g>
				</g>
				<g>
					<g>
						<path class="st5" d="M65.552,8.938h-4.92c-0.206,0-0.372-0.167-0.372-0.372v0c0-0.206,0.167-0.372,0.372-0.372h4.92
							c0.206,0,0.372,0.167,0.372,0.372v0C65.924,8.772,65.757,8.938,65.552,8.938z"/>
					</g>
				</g>
			</g>
			<path class="st7" d="M23.734,9.548L23.734,9.548c-0.566,0-1.024-0.459-1.024-1.024v0c0-0.566,0.459-1.024,1.024-1.024l0,0
				c0.566,0,1.024,0.459,1.024,1.024v0C24.758,9.089,24.299,9.548,23.734,9.548z"/>
			<g>
				<path class="st4" d="M35.559,35.586H22.159c-0.247,0-0.447-0.2-0.447-0.447V22.777c0-0.247,0.2-0.447,0.447-0.447h13.399
					c0.247,0,0.447,0.2,0.447,0.447V35.14C36.005,35.386,35.805,35.586,35.559,35.586z"/>
				<path class="st5" d="M34.906,31.824H22.929c-0.154,0-0.279-0.126-0.279-0.279v-0.081c0-0.154,0.126-0.279,0.279-0.279h11.977
					c0.154,0,0.279,0.126,0.279,0.279v0.081C35.185,31.698,35.06,31.824,34.906,31.824z"/>
				<path class="st5" d="M34.906,33.08H22.929c-0.154,0-0.279-0.126-0.279-0.279V32.72c0-0.154,0.126-0.279,0.279-0.279h11.977
					c0.154,0,0.279,0.126,0.279,0.279V32.8C35.185,32.954,35.06,33.08,34.906,33.08z"/>
				<path class="st5" d="M28.096,34.335h-5.166c-0.154,0-0.279-0.126-0.279-0.279v-0.081c0-0.154,0.126-0.279,0.279-0.279h5.166
					c0.154,0,0.279,0.126,0.279,0.279v0.081C28.375,34.21,28.249,34.335,28.096,34.335z"/>
				<path class="st6" d="M34.737,30.013H23.097c-0.246,0-0.447-0.201-0.447-0.447v-5.609c0-0.246,0.201-0.447,0.447-0.447h11.641
					c0.246,0,0.447,0.201,0.447,0.447v5.609C35.184,29.812,34.983,30.013,34.737,30.013z"/>
			</g>
			<g>
				<path class="st4" d="M50.842,35.586h-13.27c-0.282,0-0.511-0.229-0.511-0.511V22.842c0-0.282,0.229-0.511,0.511-0.511h13.27
					c0.282,0,0.511,0.229,0.511,0.511v12.234C51.354,35.358,51.125,35.586,50.842,35.586z"/>
				<path class="st5" d="M50.255,31.824H38.278c-0.154,0-0.279-0.126-0.279-0.279v-0.081c0-0.154,0.126-0.279,0.279-0.279h11.977
					c0.154,0,0.279,0.126,0.279,0.279v0.081C50.534,31.698,50.408,31.824,50.255,31.824z"/>
				<path class="st5" d="M50.255,33.08H38.278c-0.154,0-0.279-0.126-0.279-0.279V32.72c0-0.154,0.126-0.279,0.279-0.279h11.977
					c0.154,0,0.279,0.126,0.279,0.279V32.8C50.534,32.954,50.408,33.08,50.255,33.08z"/>
				<path class="st5" d="M43.444,34.335h-5.166c-0.154,0-0.279-0.126-0.279-0.279v-0.081c0-0.154,0.126-0.279,0.279-0.279h5.166
					c0.154,0,0.279,0.126,0.279,0.279v0.081C43.723,34.21,43.598,34.335,43.444,34.335z"/>
				<path class="st7" d="M50.086,30.013H38.445c-0.246,0-0.447-0.201-0.447-0.447v-5.609c0-0.246,0.201-0.447,0.447-0.447h11.641
					c0.246,0,0.447,0.201,0.447,0.447v5.609C50.532,29.812,50.331,30.013,50.086,30.013z"/>
			</g>
			<g>
				<path class="st4" d="M66.314,35.586h-13.27c-0.282,0-0.511-0.229-0.511-0.511V22.842c0-0.282,0.229-0.511,0.511-0.511h13.27
					c0.282,0,0.511,0.229,0.511,0.511v12.234C66.826,35.358,66.597,35.586,66.314,35.586z"/>
				<path class="st5" d="M65.727,31.824H53.75c-0.154,0-0.279-0.126-0.279-0.279v-0.081c0-0.154,0.126-0.279,0.279-0.279h11.977
					c0.154,0,0.279,0.126,0.279,0.279v0.081C66.006,31.698,65.88,31.824,65.727,31.824z"/>
				<path class="st5" d="M65.727,33.08H53.75c-0.154,0-0.279-0.126-0.279-0.279V32.72c0-0.154,0.126-0.279,0.279-0.279h11.977
					c0.154,0,0.279,0.126,0.279,0.279V32.8C66.006,32.954,65.88,33.08,65.727,33.08z"/>
				<path class="st5" d="M58.916,34.335H53.75c-0.154,0-0.279-0.126-0.279-0.279v-0.081c0-0.154,0.126-0.279,0.279-0.279h5.166
					c0.154,0,0.279,0.126,0.279,0.279v0.081C59.195,34.21,59.07,34.335,58.916,34.335z"/>
				<path class="st8" d="M65.558,30.013H53.917c-0.246,0-0.447-0.201-0.447-0.447v-5.609c0-0.246,0.201-0.447,0.447-0.447h11.641
					c0.246,0,0.447,0.201,0.447,0.447v5.609C66.004,29.812,65.803,30.013,65.558,30.013z"/>
			</g>
			<path class="st4" d="M66.401,21.212H22.196c-0.234,0-0.425-0.19-0.425-0.425v-9.156c0-0.234,0.19-0.425,0.425-0.425h44.205
				c0.234,0,0.425,0.19,0.425,0.425v9.156C66.826,21.022,66.636,21.212,66.401,21.212z"/>
			<g>
				<g>
					<g>
						<path class="st5" d="M64.91,15.864H48.205c-0.135,0-0.245-0.109-0.245-0.245l0,0c0-0.135,0.109-0.245,0.245-0.245H64.91
							c0.135,0,0.245,0.109,0.245,0.245l0,0C65.155,15.755,65.045,15.864,64.91,15.864z"/>
					</g>
					<g>
						<path class="st5" d="M62.462,17.058H48.205c-0.135,0-0.245-0.109-0.245-0.245l0,0c0-0.135,0.109-0.245,0.245-0.245h14.257
							c0.135,0,0.245,0.109,0.245,0.245l0,0C62.707,16.949,62.597,17.058,62.462,17.058z"/>
					</g>
				</g>
				<g>
					<path class="st6" d="M61.882,14.14H51.234c-0.259,0-0.47-0.21-0.47-0.47l0,0c0-0.259,0.21-0.47,0.47-0.47h10.648
						c0.259,0,0.47,0.21,0.47,0.47l0,0C62.352,13.93,62.141,14.14,61.882,14.14z"/>
				</g>
				<path class="st7" d="M58.515,19.956h-3.915c-0.431,0-0.783-0.352-0.783-0.783l0,0c0-0.431,0.352-0.783,0.783-0.783h3.915
					c0.431,0,0.783,0.352,0.783,0.783l0,0C59.298,19.604,58.946,19.956,58.515,19.956z"/>
			</g>
			<path class="st8" d="M43.936,20.073H23.43c-0.353,0-0.642-0.289-0.642-0.642v-6.442c0-0.353,0.289-0.642,0.642-0.642h20.506
				c0.353,0,0.642,0.289,0.642,0.642v6.442C44.578,19.784,44.289,20.073,43.936,20.073z"/>
		</g>
		<path class="st9" d="M49.747,40.095h-10.68c0,0,0.036-0.345,0.036-0.461c0-0.272-0.043-0.501-0.043-0.501h10.714
			c0,0-0.034,0.386-0.034,0.501C49.74,39.75,49.747,40.095,49.747,40.095z"/>
	</g>
	<g id="tablet_3_">
		<path class="st2" d="M20.366,51.627H2.501c-0.493,0-0.893-0.4-0.893-0.893V24.978c0-0.493,0.4-0.893,0.893-0.893h17.866
			c0.493,0,0.893,0.4,0.893,0.893v25.756C21.26,51.227,20.86,51.627,20.366,51.627z"/>
		<path class="st3" d="M19.622,50.436H3.245c-0.329,0-0.596-0.267-0.596-0.596v-23.97c0-0.329,0.267-0.596,0.596-0.596h16.377
			c0.329,0,0.596,0.267,0.596,0.596v23.97C20.218,50.17,19.951,50.436,19.622,50.436z"/>
		<circle class="st4" cx="11.565" cy="24.695" r="0.223"/>
		<g>
			<path class="st4" d="M11.147,50.436H3.39v-6.03c0-0.143,0.116-0.258,0.258-0.258h7.241c0.143,0,0.258,0.116,0.258,0.258V50.436z"
				/>
			<path class="st5" d="M10.539,50.13H4.062c-0.09,0-0.163-0.073-0.163-0.163V49.89c0-0.09,0.073-0.163,0.163-0.163h6.477
				c0.09,0,0.163,0.073,0.163,0.163v0.076C10.702,50.056,10.629,50.13,10.539,50.13z"/>
			<path class="st8" d="M10.106,48.989H4.494c-0.328,0-0.596-0.268-0.596-0.596v-2.906c0-0.328,0.268-0.596,0.596-0.596h5.612
				c0.328,0,0.596,0.268,0.596,0.596v2.906C10.701,48.721,10.433,48.989,10.106,48.989z"/>
		</g>
		<g>
			<path class="st4" d="M19.478,50.436H11.72v-6.03c0-0.143,0.116-0.258,0.258-0.258h7.241c0.143,0,0.258,0.116,0.258,0.258V50.436z
				"/>
			<path class="st5" d="M18.869,50.13h-6.477c-0.09,0-0.163-0.073-0.163-0.163V49.89c0-0.09,0.073-0.163,0.163-0.163h6.477
				c0.09,0,0.163,0.073,0.163,0.163v0.076C19.033,50.056,18.959,50.13,18.869,50.13z"/>
			<g>
				<g>
					<path class="st5" d="M18.436,48.989h-5.612c-0.328,0-0.596-0.268-0.596-0.596v-2.906c0-0.328,0.268-0.596,0.596-0.596h5.612
						c0.328,0,0.596,0.268,0.596,0.596v2.906C19.032,48.721,18.764,48.989,18.436,48.989z"/>
				</g>
			</g>
		</g>
		<path class="st4" d="M19.175,34.5H3.692c-0.164,0-0.298-0.133-0.298-0.298v-4.576c0-0.164,0.133-0.298,0.298-0.298h15.484
			c0.164,0,0.298,0.133,0.298,0.298v4.576C19.473,34.367,19.34,34.5,19.175,34.5z"/>
		<g>
			<g>
				<g>
					<path class="st5" d="M18.664,31.656h-6.131c-0.05,0-0.09-0.04-0.09-0.09l0,0c0-0.05,0.04-0.09,0.09-0.09h6.131
						c0.05,0,0.09,0.04,0.09,0.09l0,0C18.754,31.615,18.714,31.656,18.664,31.656z"/>
				</g>
				<g>
					<path class="st5" d="M17.766,32.094h-5.232c-0.05,0-0.09-0.04-0.09-0.09l0,0c0-0.05,0.04-0.09,0.09-0.09h5.232
						c0.05,0,0.09,0.04,0.09,0.09l0,0C17.856,32.054,17.815,32.094,17.766,32.094z"/>
				</g>
			</g>
			<g>
				<path class="st6" d="M17.553,31.023h-3.908c-0.095,0-0.172-0.077-0.172-0.172l0,0c0-0.095,0.077-0.172,0.172-0.172h3.908
					c0.095,0,0.172,0.077,0.172,0.172l0,0C17.725,30.946,17.648,31.023,17.553,31.023z"/>
			</g>
			<path class="st7" d="M16.317,33.157h-1.437c-0.158,0-0.287-0.129-0.287-0.287l0,0c0-0.158,0.129-0.287,0.287-0.287h1.437
				c0.158,0,0.287,0.129,0.287,0.287l0,0C16.605,33.028,16.475,33.157,16.317,33.157z"/>
		</g>
		<path class="st8" d="M10.712,33.883H4.446c-0.301,0-0.548-0.247-0.548-0.548v-2.774c0-0.301,0.247-0.548,0.548-0.548h6.266
			c0.301,0,0.548,0.247,0.548,0.548v2.774C11.26,33.636,11.013,33.883,10.712,33.883z"/>
		<g>
			<path class="st4" d="M10.849,43.52H3.687c-0.164,0-0.298-0.133-0.298-0.298v-7.757c0-0.164,0.133-0.298,0.298-0.298h7.162
				c0.164,0,0.298,0.133,0.298,0.298v7.757C11.147,43.387,11.014,43.52,10.849,43.52z"/>
			<path class="st5" d="M10.539,41.149H4.062c-0.09,0-0.163-0.073-0.163-0.163V40.91c0-0.09,0.073-0.163,0.163-0.163h6.477
				c0.09,0,0.163,0.073,0.163,0.163v0.076C10.702,41.076,10.629,41.149,10.539,41.149z"/>
			<path class="st5" d="M10.539,41.941H4.062c-0.09,0-0.163-0.073-0.163-0.163v-0.076c0-0.09,0.073-0.163,0.163-0.163h6.477
				c0.09,0,0.163,0.073,0.163,0.163v0.076C10.702,41.867,10.629,41.941,10.539,41.941z"/>
			<path class="st5" d="M6.842,42.732H4.062c-0.09,0-0.163-0.073-0.163-0.163v-0.076c0-0.09,0.073-0.163,0.163-0.163h2.781
				c0.09,0,0.163,0.073,0.163,0.163v0.076C7.006,42.658,6.932,42.732,6.842,42.732z"/>
			<path class="st6" d="M10.106,40.008H4.494c-0.328,0-0.596-0.268-0.596-0.596v-2.906c0-0.328,0.268-0.596,0.596-0.596h5.612
				c0.328,0,0.596,0.268,0.596,0.596v2.906C10.701,39.74,10.433,40.008,10.106,40.008z"/>
		</g>
		<g>
			<path class="st4" d="M19.18,43.52h-7.162c-0.164,0-0.298-0.133-0.298-0.298v-7.757c0-0.164,0.133-0.298,0.298-0.298h7.162
				c0.164,0,0.298,0.133,0.298,0.298v7.757C19.478,43.387,19.344,43.52,19.18,43.52z"/>
			<path class="st5" d="M18.869,41.149h-6.477c-0.09,0-0.163-0.073-0.163-0.163V40.91c0-0.09,0.073-0.163,0.163-0.163h6.477
				c0.09,0,0.163,0.073,0.163,0.163v0.076C19.033,41.076,18.959,41.149,18.869,41.149z"/>
			<path class="st5" d="M18.869,41.941h-6.477c-0.09,0-0.163-0.073-0.163-0.163v-0.076c0-0.09,0.073-0.163,0.163-0.163h6.477
				c0.09,0,0.163,0.073,0.163,0.163v0.076C19.033,41.867,18.959,41.941,18.869,41.941z"/>
			<path class="st5" d="M15.173,42.732h-2.781c-0.09,0-0.163-0.073-0.163-0.163v-0.076c0-0.09,0.073-0.163,0.163-0.163h2.781
				c0.09,0,0.163,0.073,0.163,0.163v0.076C15.336,42.658,15.263,42.732,15.173,42.732z"/>
			<path class="st7" d="M18.436,40.008h-5.612c-0.328,0-0.596-0.268-0.596-0.596v-2.906c0-0.328,0.268-0.596,0.596-0.596h5.612
				c0.328,0,0.596,0.268,0.596,0.596v2.906C19.032,39.74,18.764,40.008,18.436,40.008z"/>
		</g>
		<g>
			<path class="st4" d="M19.175,28.733H3.683c-0.164,0-0.298-0.133-0.298-0.298V26.37c0-0.164,0.133-0.298,0.298-0.298h15.493
				c0.164,0,0.298,0.133,0.298,0.298v2.066C19.473,28.6,19.34,28.733,19.175,28.733z"/>
			<path class="st7" d="M4.877,28.203L4.877,28.203c-0.442,0-0.801-0.358-0.801-0.801l0,0c0-0.442,0.358-0.801,0.801-0.801l0,0
				c0.442,0,0.801,0.358,0.801,0.801l0,0C5.678,27.845,5.319,28.203,4.877,28.203z"/>
			<g>
				<line class="st10" x1="17.136" y1="27.902" x2="18.632" y2="27.902"/>
				<line class="st10" x1="17.136" y1="26.904" x2="18.632" y2="26.904"/>
				<line class="st10" x1="17.136" y1="27.403" x2="18.632" y2="27.403"/>
			</g>
		</g>
	</g>
	<g id="smartphone_3_">
		<g id="phone_3_">
			<path class="st2" d="M28.426,54.933h-9.384c-0.524,0-0.949-0.425-0.949-0.949V33.889c0-0.524,0.425-0.949,0.949-0.949h9.384
				c0.524,0,0.949,0.425,0.949,0.949v20.096C29.374,54.508,28.949,54.933,28.426,54.933z"/>
			<path class="st3" d="M28.216,53.645h-8.968c-0.242,0-0.439-0.197-0.439-0.439V34.53c0-0.242,0.197-0.439,0.439-0.439h8.968
				c0.242,0,0.439,0.197,0.439,0.439v18.676C28.655,53.448,28.458,53.645,28.216,53.645z"/>
			<path class="st4" d="M24.56,33.63h-1.656c-0.063,0-0.115-0.052-0.115-0.115l0,0c0-0.063,0.052-0.115,0.115-0.115h1.656
				c0.063,0,0.115,0.052,0.115,0.115l0,0C24.675,33.579,24.623,33.63,24.56,33.63z"/>
		</g>
		<g>
			<path class="st4" d="M27.881,53.645h-8.332v-8.301c0-0.12,0.097-0.218,0.218-0.218h7.897c0.12,0,0.218,0.097,0.218,0.218V53.645z
				"/>
			<path class="st5" d="M27.228,51.551h-6.957c-0.096,0-0.175-0.079-0.175-0.175v-0.082c0-0.096,0.079-0.175,0.175-0.175h6.957
				c0.096,0,0.175,0.079,0.175,0.175v0.082C27.403,51.472,27.324,51.551,27.228,51.551z"/>
			<path class="st5" d="M27.228,52.401h-6.957c-0.096,0-0.175-0.079-0.175-0.175v-0.082c0-0.096,0.079-0.175,0.175-0.175h6.957
				c0.096,0,0.175,0.079,0.175,0.175v0.082C27.403,52.322,27.324,52.401,27.228,52.401z"/>
			<path class="st5" d="M23.257,53.251h-2.987c-0.096,0-0.175-0.079-0.175-0.175v-0.082c0-0.096,0.079-0.175,0.175-0.175h2.987
				c0.096,0,0.175,0.079,0.175,0.175v0.082C23.433,53.172,23.354,53.251,23.257,53.251z"/>
			<path class="st6" d="M26.807,50.326h-6.116c-0.328,0-0.596-0.268-0.596-0.596v-3.21c0-0.328,0.268-0.596,0.596-0.596h6.116
				c0.328,0,0.596,0.268,0.596,0.596v3.21C27.402,50.058,27.134,50.326,26.807,50.326z"/>
		</g>
		<path class="st4" d="M27.694,36.903h-7.889c-0.124,0-0.224-0.1-0.224-0.224v-1.636c0-0.124,0.1-0.224,0.224-0.224h7.889
			c0.124,0,0.224,0.1,0.224,0.224v1.636C27.918,36.803,27.818,36.903,27.694,36.903z"/>
		<path class="st7" d="M20.696,36.531L20.696,36.531c-0.37,0-0.67-0.3-0.67-0.67v0c0-0.37,0.3-0.67,0.67-0.67h0
			c0.37,0,0.67,0.3,0.67,0.67v0C21.366,36.231,21.066,36.531,20.696,36.531z"/>
		<g>
			<line class="st10" x1="26.151" y1="36.26" x2="27.424" y2="36.26"/>
			<line class="st10" x1="26.151" y1="35.411" x2="27.424" y2="35.411"/>
			<line class="st10" x1="26.151" y1="35.836" x2="27.424" y2="35.836"/>
		</g>
		<path class="st4" d="M27.59,44.344h-7.75c-0.162,0-0.294-0.132-0.294-0.294v-6.112c0-0.162,0.132-0.294,0.294-0.294h7.75
			c0.162,0,0.294,0.132,0.294,0.294v6.112C27.884,44.212,27.752,44.344,27.59,44.344z"/>
		<g>
			<g>
				<g>
					<g>
						<path class="st5" d="M26.746,39.172h-6.131c-0.05,0-0.09-0.04-0.09-0.09l0,0c0-0.05,0.04-0.09,0.09-0.09h6.131
							c0.05,0,0.09,0.04,0.09,0.09l0,0C26.836,39.132,26.796,39.172,26.746,39.172z"/>
					</g>
					<g>
						<path class="st5" d="M25.848,39.611h-5.232c-0.05,0-0.09-0.04-0.09-0.09l0,0c0-0.05,0.04-0.09,0.09-0.09h5.232
							c0.05,0,0.09,0.04,0.09,0.09l0,0C25.938,39.57,25.897,39.611,25.848,39.611z"/>
					</g>
				</g>
				<g>
					<path class="st6" d="M25.635,38.54h-3.908c-0.095,0-0.172-0.077-0.172-0.172l0,0c0-0.095,0.077-0.172,0.172-0.172h3.908
						c0.095,0,0.172,0.077,0.172,0.172l0,0C25.807,38.463,25.73,38.54,25.635,38.54z"/>
				</g>
				<path class="st7" d="M24.399,40.674h-1.437c-0.158,0-0.287-0.129-0.287-0.287l0,0c0-0.158,0.129-0.287,0.287-0.287h1.437
					c0.158,0,0.287,0.129,0.287,0.287l0,0C24.687,40.545,24.557,40.674,24.399,40.674z"/>
			</g>
			<path class="st8" d="M26.82,43.792H20.61c-0.301,0-0.548-0.247-0.548-0.548V41.75c0-0.301,0.247-0.548,0.548-0.548h6.211
				c0.301,0,0.548,0.247,0.548,0.548v1.495C27.368,43.546,27.122,43.792,26.82,43.792z"/>
		</g>
	</g>
	<g id="laptop_1_">
		<g>
			<path class="st2" d="M95.416,51.831H54.885V25.934c0-0.576,0.467-1.042,1.042-1.042h38.447c0.576,0,1.042,0.467,1.042,1.042
				V51.831z"/>
			<path class="st3" d="M93.37,50.615H56.93c-0.206,0-0.372-0.167-0.372-0.372V26.852c0-0.206,0.167-0.372,0.372-0.372h36.44
				c0.206,0,0.372,0.167,0.372,0.372v23.391C93.743,50.448,93.576,50.615,93.37,50.615z"/>
			<g>
				<path class="st4" d="M92.549,29.879h-34.94c-0.154,0-0.28-0.125-0.28-0.28v-2.075c0-0.154,0.125-0.28,0.28-0.28h34.94
					c0.154,0,0.28,0.125,0.28,0.28v2.075C92.828,29.754,92.703,29.879,92.549,29.879z"/>
				<g>
					<path class="st6" d="M73.271,28.933H69.4c-0.162,0-0.293-0.131-0.293-0.293l0,0c0-0.162,0.131-0.293,0.293-0.293h3.872
						c0.162,0,0.293,0.131,0.293,0.293l0,0C73.564,28.802,73.433,28.933,73.271,28.933z"/>
					<g>
						<g>
							<path class="st5" d="M79.441,28.945H75.57c-0.162,0-0.293-0.131-0.293-0.293l0,0c0-0.162,0.131-0.293,0.293-0.293h3.872
								c0.162,0,0.293,0.131,0.293,0.293l0,0C79.734,28.814,79.603,28.945,79.441,28.945z"/>
						</g>
					</g>
					<g>
						<g>
							<path class="st5" d="M67.101,28.945H63.23c-0.162,0-0.293-0.131-0.293-0.293l0,0c0-0.162,0.131-0.293,0.293-0.293h3.872
								c0.162,0,0.293,0.131,0.293,0.293l0,0C67.394,28.814,67.263,28.945,67.101,28.945z"/>
						</g>
					</g>
					<g>
						<g>
							<path class="st5" d="M85.612,28.945H81.74c-0.162,0-0.293-0.131-0.293-0.293l0,0c0-0.162,0.131-0.293,0.293-0.293h3.872
								c0.162,0,0.293,0.131,0.293,0.293l0,0C85.904,28.814,85.773,28.945,85.612,28.945z"/>
						</g>
					</g>
					<g>
						<g>
							<path class="st5" d="M91.782,28.888H87.91c-0.162,0-0.293-0.131-0.293-0.293l0,0c0-0.162,0.131-0.293,0.293-0.293h3.872
								c0.162,0,0.293,0.131,0.293,0.293l0,0C92.075,28.757,91.943,28.888,91.782,28.888z"/>
						</g>
					</g>
				</g>
				<path class="st7" d="M58.874,29.368L58.874,29.368c-0.445,0-0.806-0.361-0.806-0.806l0,0c0-0.445,0.361-0.806,0.806-0.806l0,0
					c0.445,0,0.806,0.361,0.806,0.806l0,0C59.68,29.007,59.319,29.368,58.874,29.368z"/>
				<g>
					<path class="st4" d="M68.179,49.859H57.635c-0.194,0-0.351-0.157-0.351-0.351v-9.729c0-0.194,0.157-0.351,0.351-0.351h10.544
						c0.194,0,0.351,0.157,0.351,0.351v9.729C68.531,49.701,68.374,49.859,68.179,49.859z"/>
					<path class="st5" d="M67.666,46.898h-9.425c-0.121,0-0.22-0.099-0.22-0.22v-0.064c0-0.121,0.099-0.22,0.22-0.22h9.425
						c0.121,0,0.22,0.099,0.22,0.22v0.064C67.886,46.799,67.787,46.898,67.666,46.898z"/>
					<path class="st5" d="M67.666,47.886h-9.425c-0.121,0-0.22-0.099-0.22-0.22v-0.064c0-0.121,0.099-0.22,0.22-0.22h9.425
						c0.121,0,0.22,0.099,0.22,0.22v0.064C67.886,47.787,67.787,47.886,67.666,47.886z"/>
					<path class="st5" d="M62.307,48.874h-4.066c-0.121,0-0.22-0.099-0.22-0.22v-0.064c0-0.121,0.099-0.22,0.22-0.22h4.066
						c0.121,0,0.22,0.099,0.22,0.22v0.064C62.526,48.775,62.428,48.874,62.307,48.874z"/>
					<path class="st6" d="M67.533,45.473h-9.16c-0.193,0-0.351-0.158-0.351-0.351v-4.414c0-0.193,0.158-0.351,0.351-0.351h9.16
						c0.193,0,0.351,0.158,0.351,0.351v4.414C67.885,45.314,67.727,45.473,67.533,45.473z"/>
				</g>
				<g>
					<path class="st4" d="M80.207,49.859H69.764c-0.222,0-0.402-0.18-0.402-0.402v-9.627c0-0.222,0.18-0.402,0.402-0.402h10.443
						c0.222,0,0.402,0.18,0.402,0.402v9.627C80.609,49.678,80.429,49.859,80.207,49.859z"/>
					<path class="st5" d="M79.744,46.898h-9.425c-0.121,0-0.22-0.099-0.22-0.22v-0.064c0-0.121,0.099-0.22,0.22-0.22h9.425
						c0.121,0,0.22,0.099,0.22,0.22v0.064C79.964,46.799,79.865,46.898,79.744,46.898z"/>
					<path class="st5" d="M79.744,47.886h-9.425c-0.121,0-0.22-0.099-0.22-0.22v-0.064c0-0.121,0.099-0.22,0.22-0.22h9.425
						c0.121,0,0.22,0.099,0.22,0.22v0.064C79.964,47.787,79.865,47.886,79.744,47.886z"/>
					<path class="st5" d="M74.385,48.874h-4.066c-0.121,0-0.22-0.099-0.22-0.22v-0.064c0-0.121,0.099-0.22,0.22-0.22h4.066
						c0.121,0,0.22,0.099,0.22,0.22v0.064C74.604,48.775,74.506,48.874,74.385,48.874z"/>
					<path class="st7" d="M79.611,45.473h-9.16c-0.193,0-0.351-0.158-0.351-0.351v-4.414c0-0.193,0.158-0.351,0.351-0.351h9.16
						c0.193,0,0.351,0.158,0.351,0.351v4.414C79.963,45.314,79.804,45.473,79.611,45.473z"/>
				</g>
				<g>
					<path class="st4" d="M92.382,49.859H81.939c-0.222,0-0.402-0.18-0.402-0.402v-9.627c0-0.222,0.18-0.402,0.402-0.402h10.443
						c0.222,0,0.402,0.18,0.402,0.402v9.627C92.784,49.678,92.604,49.859,92.382,49.859z"/>
					<path class="st5" d="M91.919,46.898h-9.425c-0.121,0-0.22-0.099-0.22-0.22v-0.064c0-0.121,0.099-0.22,0.22-0.22h9.425
						c0.121,0,0.22,0.099,0.22,0.22v0.064C92.139,46.799,92.04,46.898,91.919,46.898z"/>
					<path class="st5" d="M91.919,47.886h-9.425c-0.121,0-0.22-0.099-0.22-0.22v-0.064c0-0.121,0.099-0.22,0.22-0.22h9.425
						c0.121,0,0.22,0.099,0.22,0.22v0.064C92.139,47.787,92.04,47.886,91.919,47.886z"/>
					<path class="st5" d="M86.56,48.874h-4.066c-0.121,0-0.22-0.099-0.22-0.22v-0.064c0-0.121,0.099-0.22,0.22-0.22h4.066
						c0.121,0,0.22,0.099,0.22,0.22v0.064C86.78,48.775,86.681,48.874,86.56,48.874z"/>
					<path class="st8" d="M91.787,45.473h-9.16c-0.193,0-0.351-0.158-0.351-0.351v-4.414c0-0.193,0.158-0.351,0.351-0.351h9.16
						c0.193,0,0.351,0.158,0.351,0.351v4.414C92.138,45.314,91.98,45.473,91.787,45.473z"/>
				</g>
				<path class="st4" d="M92.45,38.547H57.664c-0.185,0-0.334-0.15-0.334-0.334v-7.205c0-0.185,0.15-0.334,0.334-0.334H92.45
					c0.185,0,0.334,0.15,0.334,0.334v7.205C92.784,38.398,92.635,38.547,92.45,38.547z"/>
				<g>
					<g>
						<g>
							<path class="st5" d="M91.093,34.4H78.011c-0.106,0-0.191-0.086-0.191-0.191l0,0c0-0.106,0.086-0.191,0.191-0.191h13.082
								c0.106,0,0.191,0.086,0.191,0.191l0,0C91.285,34.314,91.199,34.4,91.093,34.4z"/>
						</g>
						<g>
							<path class="st5" d="M89.176,35.335H78.011c-0.106,0-0.191-0.086-0.191-0.191l0,0c0-0.106,0.086-0.191,0.191-0.191h11.165
								c0.106,0,0.191,0.086,0.191,0.191l0,0C89.368,35.249,89.282,35.335,89.176,35.335z"/>
						</g>
					</g>
					<g>
						<path class="st6" d="M88.722,33.05h-8.339c-0.203,0-0.368-0.165-0.368-0.368l0,0c0-0.203,0.165-0.368,0.368-0.368h8.339
							c0.203,0,0.368,0.165,0.368,0.368l0,0C89.09,32.885,88.925,33.05,88.722,33.05z"/>
					</g>
					<path class="st7" d="M86.085,37.604H83.02c-0.337,0-0.613-0.276-0.613-0.613v0c0-0.337,0.276-0.613,0.613-0.613h3.066
						c0.337,0,0.613,0.276,0.613,0.613v0C86.698,37.329,86.422,37.604,86.085,37.604z"/>
				</g>
				<path class="st8" d="M74.668,37.696H58.609c-0.276,0-0.503-0.226-0.503-0.503v-5.045c0-0.276,0.226-0.503,0.503-0.503h16.059
					c0.276,0,0.503,0.226,0.503,0.503v5.045C75.171,37.47,74.944,37.696,74.668,37.696z"/>
			</g>
		</g>
		<path class="st8" d="M96.884,53.185H53.417c-0.658,0-1.191-0.533-1.191-1.191v-0.178c0-0.082,0.067-0.149,0.149-0.149h45.552
			c0.082,0,0.149,0.067,0.149,0.149v0.178C98.075,52.652,97.542,53.185,96.884,53.185z"/>
		<path class="st11" d="M71.219,51.852c0,0.316,0.258,0.574,0.574,0.574h6.715c0.316,0,0.574-0.258,0.574-0.574
			c0-0.065-0.011-0.127-0.031-0.185h-7.8C71.23,51.725,71.219,51.787,71.219,51.852z"/>
		<path class="st4" d="M75.374,25.69c0,0.123-0.1,0.223-0.223,0.223c-0.123,0-0.223-0.1-0.223-0.223s0.1-0.223,0.223-0.223
			C75.274,25.466,75.374,25.566,75.374,25.69z"/>
	</g>
</g>
</svg>
