<svg id="Layer_1" data-name="Layer 1" xmlns="http://www.w3.org/2000/svg" viewBox="0 0 30 30"><defs><style>.cls-1{fill:#fff;}</style></defs><title>heart</title><path class="cls-1" d="M29.8,10.383c0,1.116-.007,2.233.006,3.349,0,.2-.061.233-.24.228-.476-.011-.953,0-1.43-.007-.147,0-.176.043-.175.179.007.609,0,1.217.007,1.825,0,.145-.031.192-.183.19-.64-.009-1.28,0-1.92-.008-.157,0-.184.049-.182.191.007.639,0,1.279.007,1.919,0,.141-.034.179-.176.178-.64-.008-1.28,0-1.92-.007-.144,0-.19.029-.188.183.008.62-.007,1.242.006,1.862,0,.179-.056.2-.211.2-.652-.008-1.3,0-1.957-.008-.156,0-.186.047-.184.19.007.652,0,1.3.006,1.957,0,.14-.033.18-.175.179-.646-.008-1.293,0-1.938-.006-.132,0-.168.032-.166.165.007.646,0,1.292.006,1.938,0,.139-.035.182-.178.18-.7-.007-1.392,0-2.088-.007-.151,0-.186.042-.184.189.008.664,0,1.329.006,1.994,0,.129-.03.171-.165.169q-1.13-.009-2.258,0c-.136,0-.165-.043-.164-.171.006-.671,0-1.342.006-2.013,0-.128-.029-.17-.164-.169-.659.008-1.318,0-1.976.007-.141,0-.179-.035-.177-.176.007-.646,0-1.292,0-1.938,0-.128-.03-.171-.165-.169-.621.007-1.242,0-1.863.006-.144,0-.192-.03-.19-.183.009-.652,0-1.3.009-1.957,0-.153-.044-.187-.189-.185-.621.008-1.242,0-1.863.007-.13,0-.17-.035-.169-.167.006-.633,0-1.267.006-1.9,0-.136-.025-.179-.172-.177-.633.01-1.267,0-1.9.009-.185,0-.213-.061-.211-.222.009-.634,0-1.267.007-1.9,0-.13-.032-.17-.166-.168-.627.007-1.255,0-1.882.007-.132,0-.168-.036-.167-.167.007-.608,0-1.216.008-1.824,0-.177-.053-.2-.211-.2-.659.01-1.317,0-1.976.01-.143,0-.174-.039-.174-.178q.009-3.407,0-6.811c0-.147.037-.191.187-.189.6.008,1.192,0,1.788,0,.138,0,.182-.031.181-.175-.007-.64,0-1.28-.005-1.919,0-.14.035-.182.178-.18.664.008,1.329,0,1.994.008.164,0,.224-.029.22-.211-.013-.583,0-1.166-.008-1.749,0-.133.038-.169.17-.168q3.245,0,6.491,0c.158,0,.184.052.182.194-.007.589,0,1.179-.006,1.768,0,.132.032.167.165.166.74-.007,1.48,0,2.22-.008.141,0,.18.033.178.176-.008.658,0,1.317-.007,1.975,0,.124.035.157.157.156q.789-.01,1.58,0c.121,0,.159-.028.157-.155-.006-.653,0-1.3,0-1.957,0-.161.046-.194.2-.192.665.008,1.33,0,1.994.008.178,0,.2-.057.2-.209-.008-.584,0-1.167,0-1.75,0-.126.028-.17.164-.17q3.255.007,6.511,0c.138,0,.165.047.164.172-.006.6,0,1.192-.005,1.788,0,.13.033.168.166.166.709-.006,1.417,0,2.126-.006.142,0,.181.039.179.179-.007.64,0,1.28-.006,1.919,0,.141.037.181.179.179.577-.008,1.154,0,1.731-.008.176,0,.2.054.2.211-.007,1.129,0,2.258,0,3.387ZM8.255,4.811h0c-1.041,0-2.082,0-3.123,0-.172,0-.216.064-.215.219,0,.627,0,1.254.007,1.881,0,.146-.031.2-.186.194-.633-.008-1.267,0-1.9-.006-.181,0-.233.048-.232.23q.009,2.991,0,5.983c0,.258,0,.258.261.257.677,0,1.354,0,2.031-.01.183,0,.238.067.235.245-.009.615,0,1.23-.007,1.844,0,.162.054.2.206.2.6-.007,1.2,0,1.806,0,.147,0,.194.039.192.191-.008.614,0,1.229-.006,1.843,0,.165.047.218.213.216.614-.008,1.229,0,1.844,0,.184,0,.236.057.234.235-.01.621,0,1.242-.009,1.863,0,.162.038.218.208.215.589-.01,1.179,0,1.769,0,.241,0,.243,0,.244.25,0,.608.005,1.216,0,1.824,0,.166.05.218.215.216.6-.008,1.192,0,1.787-.007.155,0,.205.042.2.2-.008.652,0,1.3-.006,1.956,0,.15.046.2.193.194q.9-.012,1.806,0c.152,0,.192-.048.19-.2-.008-.62,0-1.241,0-1.862,0-.291,0-.289.281-.288.6,0,1.191,0,1.787,0,.169,0,.212-.059.209-.222-.01-.62,0-1.241-.01-1.861,0-.168.059-.209.22-.207.652.008,1.3,0,1.957.005.139,0,.184-.041.182-.182-.006-.627.005-1.254-.006-1.881,0-.182.031-.253.233-.249.608.013,1.217,0,1.825,0,.158,0,.225-.038.224-.209,0-.614.011-1.229,0-1.843,0-.172.054-.2.2-.2.621.006,1.242-.005,1.863.007.18,0,.218-.056.215-.225-.009-.62,0-1.241-.006-1.862,0-.154.047-.207.2-.205.533.008,1.066,0,1.6,0,.147,0,.21-.032.209-.2q-.009-3.011,0-6.02c0-.192-.059-.249-.247-.246-.595.01-1.192-.007-1.787.008-.2.006-.242-.06-.24-.244.009-.62,0-1.241,0-1.862,0-.133-.032-.189-.178-.189q-3.105.006-6.209,0c-.119,0-.147.042-.146.155.006.652,0,1.3.008,1.957,0,.139-.044.181-.185.179-.614-.007-1.229,0-1.844-.006-.176,0-.225.057-.223.228.009.627,0,1.254.006,1.881,0,.137-.026.2-.185.2-.74-.008-1.48-.007-2.22,0-.134,0-.184-.03-.182-.179.009-.614,0-1.229,0-1.844,0-.282,0-.282-.29-.282-.571,0-1.142-.005-1.713.006-.174,0-.229-.052-.227-.223.008-.627,0-1.254.009-1.881,0-.146-.031-.193-.187-.192C10.325,4.814,9.29,4.811,8.255,4.811Z"/><path class="cls-1" d="M7.7,7.467c.727,0,1.454,0,2.182,0,.126,0,.175.032.174.168q-.009,1.053,0,2.106c0,.144-.049.182-.185.181-.684-.006-1.367,0-2.051-.007-.156,0-.2.043-.2.2.007.59,0,1.179,0,1.768,0,.127-.034.177-.168.176q-.949-.006-1.9,0c-.18,0-.247-.058-.248-.25-.012-1.329-.015-2.658,0-3.987.006-.411-.021-.348.361-.353C6.341,7.461,7.019,7.467,7.7,7.467Z"/></svg>