<?xml version="1.0" encoding="utf-8"?>
<!-- Generator: Adobe Illustrator 24.0.3, SVG Export Plug-In . SVG Version: 6.00 Build 0)  -->
<svg version="1.1" id="Layer_1" xmlns="http://www.w3.org/2000/svg" xmlns:xlink="http://www.w3.org/1999/xlink" x="0px" y="0px"
	 viewBox="0 0 15.2 16.7" style="enable-background:new 0 0 15.2 16.7;" xml:space="preserve">
<style type="text/css">
	.st0{fill:#E44D26;}
	.st1{fill:#F16529;}
	.st2{fill:#EBEBEB;}
	.st3{fill:#FFFFFF;}
</style>
<path class="st0" d="M1.8,14.7L0.6,0.4h14.1l-1.3,14.4l-5.8,1.6L1.8,14.7z"/>
<path class="st1" d="M7.6,15.1V1.5h5.8l-1.1,12.3L7.6,15.1z"/>
<polygon class="st2" points="3.2,3.3 7.6,3.3 7.6,5.1 5.1,5.1 5.3,6.9 7.6,6.9 7.6,8.6 3.7,8.6 "/>
<polygon class="st2" points="3.7,9.5 5.5,9.5 5.6,10.9 7.6,11.4 7.6,13.3 4,12.3 "/>
<polygon class="st3" points="12,3.3 7.6,3.3 7.6,5.1 11.8,5.1 "/>
<polygon class="st3" points="11.7,6.9 7.6,6.9 7.6,8.6 9.8,8.6 9.6,10.9 7.6,11.4 7.6,13.3 11.2,12.3 "/>
</svg>
