<svg id="Layer_1" data-name="Layer 1" xmlns="http://www.w3.org/2000/svg" xmlns:xlink="http://www.w3.org/1999/xlink" viewBox="0 0 40 39.198"><defs><style>.cls-1{fill:url(#radial-gradient);}.cls-2{fill:#ff7f18;}</style><radialGradient id="radial-gradient" cx="-178.061" cy="-292.643" r="0.012" gradientTransform="matrix(2291.672, 0, 0, -2218.755, 408072.056, -649292.359)" gradientUnits="userSpaceOnUse"><stop offset="0" stop-color="#423325" stop-opacity="0.98"/><stop offset="1" stop-color="#1c0a00"/></radialGradient></defs><title>illustrator</title><path class="cls-1" d="M1.962,2.026H38.038V37.119H1.962Z"/><path class="cls-2" d="M1.962,2.026H38.038V37.119H1.962ZM.322,38.759H39.678V.386H.322ZM26.1,14.062c0-.131.049-.2.2-.2h2.575c.131,0,.2.05.2.2V27c0,.131-.032.2-.2.2H26.33c-.164,0-.213-.082-.213-.214V14.062Zm-.18-3.722a1.673,1.673,0,1,1,3.345,0,1.567,1.567,0,0,1-1.705,1.672A1.541,1.541,0,0,1,25.92,10.34Zm-7.379,9.117c-.46-1.82-1.542-5.788-1.952-7.707h-.033c-.344,1.919-1.213,5.166-1.9,7.707Zm-4.559,2.657-1.3,4.92c-.033.131-.082.164-.246.164H10.03c-.164,0-.2-.05-.164-.246l4.657-16.3a5.315,5.315,0,0,0,.164-1.361c0-.114.049-.164.131-.164h3.444c.114,0,.164.033.2.164l5.214,17.694c.033.131,0,.214-.131.214H20.82c-.131,0-.213-.033-.246-.148l-1.345-4.936Z"/></svg>