<svg id="Layer_1" data-name="Layer 1" xmlns="http://www.w3.org/2000/svg" viewBox="0 0 30 30"><defs><style>.cls-1{fill:#0868ac;}</style></defs><title>jQuery</title><path class="cls-1" d="M1.977,7.37c-2.64,3.8-2.313,8.735-.3,12.78.047.1.1.192.148.287l.093.182c.019.035.039.07.059.1.034.066.07.125.105.189l.193.33.11.181.224.35.1.147c.106.157.213.314.324.467l.064.085c.1.133.194.263.294.392l.112.142.273.336.1.125c.124.146.252.292.38.434a.266.266,0,0,1,.022.024q.191.206.386.407l.124.125.308.3.126.121q.208.2.423.384l.462.392.159.127.32.25.171.131.359.257.168.119c.114.079.231.154.349.23l.151.1q.27.171.545.334l.152.093.41.229c.075.041.151.079.227.117l.293.152.068.033.121.058.464.214.1.044c.18.078.36.153.542.225l.131.052.511.189.065.023q.284.1.57.186l.138.041a4.662,4.662,0,0,0,.587.166c12.774,2.33,16.483-7.677,16.483-7.677-3.115,4.06-8.647,5.131-13.9,3.939-.2-.045-.392-.107-.585-.164l-.145-.044c-.189-.058-.377-.12-.564-.184l-.077-.028c-.166-.059-.332-.12-.5-.184l-.14-.056c-.181-.071-.359-.145-.537-.224l-.107-.046-.452-.211-.131-.063c-.117-.056-.233-.118-.35-.186l-.233-.121c-.142-.075-.28-.155-.42-.236l-.142-.079c-.183-.108-.365-.22-.545-.334-.05-.032-.1-.065-.148-.1l-.388-.258a1.229,1.229,0,0,1-.125-.088l-.367-.266L9.179,22.3l-.332-.259L8.7,21.918l-.412-.348c-.015-.013-.031-.025-.047-.037l-.434-.394-.121-.118-.31-.308-.121-.121c-.131-.133-.257-.268-.373-.4a.18.18,0,0,1-.019-.02q-.2-.218-.388-.443L6.382,19.6l-.28-.345-.093-.128L5.686,18.7C2.759,14.735,1.712,9.251,4.039,4.755m6.138-.583a9.183,9.183,0,0,0-.317,9.336,12.032,12.032,0,0,0,.845,1.41,6.641,6.641,0,0,0,.983,1.228c.138.152.282.3.429.445l.112.112q.213.208.437.407c.007,0,.012.011.019.015.17.15.341.28.516.428l.116.09c.175.135.353.266.535.391l.016.011c.08.056.162.108.244.162.039.025.077.052.116.076.13.084.263.165.4.243l.056.032.351.187c.041.023.093.043.125.065l.245.127c.013.007.026.011.038.017.168.084.339.163.511.238l.112.046c.139.059.279.116.42.17l.179.065c.128.047.256.091.385.134l.174.056a4.724,4.724,0,0,0,.557.161c9.863,1.634,12.14-5.97,12.14-5.97-2.052,2.957-6.026,4.366-10.268,3.265q-.282-.073-.559-.161c-.056-.017-.112-.036-.168-.055l-.392-.134-.186-.065c-.141-.054-.281-.111-.42-.17l-.114-.047c-.173-.075-.345-.155-.515-.238l-.258-.131-.15-.076c-.109-.06-.218-.121-.326-.184l-.078-.044q-.2-.117-.4-.243c-.04-.025-.079-.053-.119-.079l-.257-.17c-.18-.125-.358-.255-.532-.39l-.121-.093A11.843,11.843,0,0,1,11.03,9.1a8.908,8.908,0,0,1,.7-7.145m5.347-.171a5.751,5.751,0,0,0-.455,5.546,7.851,7.851,0,0,0,4.483,4.2l.245.093.108.034.351.093c5.446,1.052,6.922-2.795,7.317-3.361-1.294,1.863-3.469,2.31-6.137,1.662-.21-.051-.442-.128-.645-.2a7.835,7.835,0,0,1-2.111-1.139C17.841,6.9,16.358,3.434,17.915.621"/></svg>