<svg id="Layer_1" data-name="Layer 1" xmlns="http://www.w3.org/2000/svg" viewBox="0 0 285.78 78.67"><defs><style>.cls-1{fill:#0769ad;}.cls-2{fill:#333;}</style></defs><title>jQuery</title><path class="cls-1" d="M111.36,67.22c0,.62-.06,1.25-.14,1.92l2.49-4.52-.27-1.47,2.5-.38.91,6.25L118,65.1a4.74,4.74,0,0,0,.14-.95,3.66,3.66,0,0,0-.11-1l2.61-.49a7,7,0,0,1,.15,1.47,6.81,6.81,0,0,1-.62,2.35l-2.11,5.66h-3.12l-.65-4.23-2.45,4.23h-3a59.91,59.91,0,0,0-.3-9l2.6-.4A25,25,0,0,1,111.36,67.22Z"/><path class="cls-1" d="M127.6,65.06c-1.21.65-1.66.9-2.75,1.57l-1.17,5.49H121L122.89,63l2.38-.4-.1,1.26a20,20,0,0,1,2.47-1.26Z"/><path class="cls-1" d="M129.2,63l2.78-.38-2,9.48h-2.7Zm.87-4.11,2.78-.39-.61,2.87-2.77.38Z"/><path class="cls-1" d="M137,65l-1,4.64a1.76,1.76,0,0,0,0,.25c0,.14.07.19.26.19a4.27,4.27,0,0,0,1.46-.38l.47,1.88a6.64,6.64,0,0,1-3,.76c-1.36,0-2.06-.65-2-1.76a2.73,2.73,0,0,1,.05-.4l1.1-5.18h-1.38l.46-2.16h1.38l.46-2.24,2.78-.38-.55,2.62h2.22L139,65Z"/><path class="cls-1" d="M140.16,66.13c.45-2.14,1.46-3.51,4.4-3.51,1.76,0,3.07.76,3,2.33-.07,1.82-1,2.66-3.35,3.35-1.14.34-1.16.34-2,.55l-.14.65c-.07.34,0,.65.46.65a11,11,0,0,0,3.69-1l.45,1.91a9.49,9.49,0,0,1-4.6,1.28c-1.93,0-2.72-.84-2.67-2.43a6.25,6.25,0,0,1,.16-1.13Zm4.9-.89c0-.33-.26-.54-.76-.54-1,0-1.28.55-1.44,1.32l-.14.65c.46-.12.67-.15,1.23-.33C144.69,66.13,145,65.79,145.06,65.24Z"/><path class="cls-1" d="M154.53,59l2.79-.38-2.84,13.5h-2.7Z"/><path class="cls-1" d="M157.67,66.13c.45-2.14,1.46-3.51,4.4-3.51,1.76,0,3.07.76,3,2.33-.06,1.82-1,2.66-3.35,3.35-1.14.34-1.16.34-2,.55l-.14.65c-.07.34,0,.65.46.65a11,11,0,0,0,3.69-1l.45,1.91a9.46,9.46,0,0,1-4.6,1.28c-1.93,0-2.72-.84-2.67-2.43a6.25,6.25,0,0,1,.16-1.13Zm4.9-.89c0-.33-.26-.54-.76-.54-1,0-1.28.55-1.44,1.32l-.14.65c.46-.12.67-.15,1.24-.33C162.2,66.13,162.56,65.79,162.57,65.24Z"/><path class="cls-1" d="M165.31,71.7l.59-2a7.12,7.12,0,0,0,2.5.48c.9,0,1-.27,1.06-.71s-.17-.65-1.2-1.2c-1.91-1-2-1.73-1.67-3.12.43-2,1-2.54,3.63-2.54a9.71,9.71,0,0,1,2.75.44l-.51,2a10.18,10.18,0,0,0-2.34-.34c-.8,0-.92.09-1,.59s0,.54.88,1c2.1,1.15,2.42,1.55,2.1,3-.46,2.1-1.1,2.94-3.89,2.94A8,8,0,0,1,165.31,71.7Z"/><path class="cls-1" d="M173,71.7l.58-2a7.18,7.18,0,0,0,2.51.48c.9,0,1-.27,1.06-.71s-.17-.65-1.21-1.2c-1.91-1-2-1.73-1.66-3.12.43-2,1-2.54,3.62-2.54a9.84,9.84,0,0,1,2.76.44l-.51,2a10.18,10.18,0,0,0-2.34-.34c-.8,0-.92.09-1,.59s0,.54.89,1c2.1,1.15,2.41,1.55,2.09,3-.46,2.1-1.1,2.94-3.89,2.94A7.93,7.93,0,0,1,173,71.7Z"/><path class="cls-1" d="M180.42,74.2,182,72.12h-1l.66-3.17h2.7l-.73,3.4L181.37,75Z"/><path class="cls-1" d="M195.16,72.12l0-.8a4.67,4.67,0,0,1-3,1c-2,0-2.48-1.22-2-3.31l.53-2.5c.46-2.22,1.09-3.88,5-3.88a6.77,6.77,0,0,1,1.12.09l.78-3.71,2.77-.38-2.84,13.5Zm-2.46-2.79c-.12.5,0,.72.49.72a3.32,3.32,0,0,0,2.19-1l.87-4.15a5.54,5.54,0,0,0-1.05-.08c-1.39,0-1.71.75-1.91,1.65Z"/><path class="cls-1" d="M199.94,69.19a3.63,3.63,0,0,1,.09-.65l.45-2.16c.51-2.39,1.72-3.76,5-3.76,2.51,0,3.58,1.43,3.53,3.09a5.54,5.54,0,0,1-.08.67l-.46,2.16c-.48,2.24-1.61,3.77-5,3.77C201.08,72.31,199.89,70.9,199.94,69.19Zm6.33-3.27c0-.68-.38-1-1.26-1a1.68,1.68,0,0,0-1.81,1.44l-.48,2.31a1.81,1.81,0,0,0-.05.38c0,.67.38,1,1.26,1a1.66,1.66,0,0,0,1.81-1.43l.48-2.31A1.89,1.89,0,0,0,206.27,65.92Z"/><path class="cls-1" d="M225.43,65.79a1.18,1.18,0,0,0,0-.29c0-.19-.08-.26-.35-.26a8.07,8.07,0,0,0-2.46.89l-1.26,6h-2.68l1.33-6.33a1.18,1.18,0,0,0,.05-.29c0-.19-.09-.26-.35-.26a7.83,7.83,0,0,0-2.44.88l-1.26,6h-2.7l1.9-9.08,2.39-.4-.06,1a9,9,0,0,1,3.71-1.05,1.42,1.42,0,0,1,1.57,1.09,7.53,7.53,0,0,1,3.8-1.09c1.25,0,1.68.7,1.64,1.89a5.37,5.37,0,0,1-.13,1.07l-1.38,6.54h-2.7Z"/><path class="cls-1" d="M229.21,69.19a3.63,3.63,0,0,1,.09-.65l.45-2.16c.51-2.39,1.72-3.76,5-3.76,2.51,0,3.58,1.43,3.53,3.09a5.54,5.54,0,0,1-.08.67l-.46,2.16c-.48,2.24-1.61,3.77-5,3.77C230.35,72.31,229.16,70.9,229.21,69.19Zm6.33-3.27c0-.68-.38-1-1.26-1a1.67,1.67,0,0,0-1.81,1.44L232,68.62a1.81,1.81,0,0,0-.05.38c0,.67.38,1,1.26,1A1.66,1.66,0,0,0,235,68.62l.48-2.31A3,3,0,0,0,235.54,65.92Z"/><path class="cls-1" d="M245.4,65.06c-1.21.65-1.66.9-2.75,1.57l-1.17,5.49h-2.69l1.9-9.08,2.39-.4L243,63.9a19.37,19.37,0,0,1,2.48-1.26Z"/><path class="cls-1" d="M246,66.13c.46-2.14,1.46-3.51,4.41-3.51,1.76,0,3.07.76,3,2.33-.06,1.82-1,2.66-3.34,3.35-1.14.34-1.16.34-2,.55l-.14.65c-.07.34,0,.65.45.65a10.9,10.9,0,0,0,3.69-1l.45,1.91A9.42,9.42,0,0,1,248,72.31c-1.93,0-2.73-.84-2.67-2.43a6.18,6.18,0,0,1,.15-1.13Zm4.91-.89c0-.33-.27-.54-.77-.54-1,0-1.28.55-1.44,1.32l-.13.65c.46-.12.67-.15,1.23-.33C250.54,66.13,250.9,65.79,250.92,65.24Z"/><path class="cls-1" d="M254.54,69h2.69l-.66,3.17h-2.7Z"/><path class="cls-1" d="M7.42,17.68c-4.55,6.55-4,15.07-.51,22,.08.17.17.33.26.5l.16.32.1.17c.06.12.12.22.18.33l.33.57.2.31c.12.2.26.4.38.6l.17.26c.18.27.36.54.55.8l0,0,.09.13.51.68.19.24.47.58.19.21c.21.26.43.51.65.75v0l0,0,.66.7.22.21c.17.18.35.35.53.52l.22.21c.24.23.48.45.73.66h0l.12.11.67.56.26.22.56.43.3.22.61.45.23.16.06,0,.6.4.26.17.94.58.27.15.7.39.4.21.5.26.12,0,.2.1.81.38.16.07c.31.14.62.26.94.39l.23.09.88.33.11,0c.32.12.65.22,1,.33l.24.07a9.06,9.06,0,0,0,1,.28c22,4,28.43-13.24,28.43-13.24-5.38,7-14.92,8.85-24,6.8-.34-.08-.67-.19-1-.29l-.25-.07-1-.32L28,47.83l-.85-.32L27,47.42c-.31-.12-.62-.25-.92-.39L25.84,47l-.78-.37-.23-.11c-.2-.09-.4-.2-.6-.3l-.4-.21-.73-.41-.24-.14c-.31-.18-.63-.37-.94-.57l-.25-.17L21,44.23l-.21-.15-.64-.46-.28-.21L19.29,43l-.25-.2c-.24-.2-.48-.39-.71-.6l-.08-.06-.75-.69-.21-.2-.54-.52-.21-.22c-.22-.22-.44-.46-.66-.7l0,0c-.23-.25-.45-.5-.67-.76L15,38.77l-.48-.59c0-.08-.11-.15-.17-.23-.19-.24-.38-.49-.56-.74-5-6.84-6.83-16.29-2.81-24"/><path class="cls-1" d="M21.57,12.16C18.26,16.9,18.45,23.25,21,28.27a20.05,20.05,0,0,0,1.46,2.43,11.17,11.17,0,0,0,1.69,2.12c.24.26.49.51.74.77l.2.19c.24.24.49.47.75.7l0,0h0c.29.25.58.5.88.73l.2.16c.3.23.61.45.92.67l0,0,.42.28.2.13c.23.15.45.29.68.42l.1,0c.2.12.4.24.61.34l.21.12.42.22.07,0,.88.4.19.08q.36.17.72.3l.31.11.67.23.3.1a7.58,7.58,0,0,0,1,.28C51.68,42,55.61,28.9,55.61,28.9c-3.54,5.1-10.4,7.53-17.71,5.63-.33-.08-.65-.18-1-.28l-.28-.09L36,33.93l-.3-.12c-.25-.09-.49-.19-.72-.29l-.2-.08L33.86,33l-.44-.23-.26-.13c-.2-.1-.38-.21-.57-.32l-.13-.08c-.23-.13-.46-.27-.68-.42l-.21-.13-.45-.29-.91-.67L30,30.59a20.48,20.48,0,0,1-6.95-9.9,15.4,15.4,0,0,1,1.2-12.33"/><path class="cls-1" d="M33.46,8a9.92,9.92,0,0,0-.79,9.57,13.45,13.45,0,0,0,7.74,7.22c.13.06.27.1.41.15L41,25a6.13,6.13,0,0,0,.61.18C51,27,53.56,20.39,54.24,19.42c-2.24,3.21-6,4-10.59,2.86a8.86,8.86,0,0,1-1.11-.34,12.67,12.67,0,0,1-1.32-.55A13.43,13.43,0,0,1,38.9,20c-4.12-3.13-6.68-9.09-4-13.94"/><path class="cls-2" d="M251.15,21.43l.37,1.56a.63.63,0,0,1-.64.81"/><path class="cls-2" d="M221.51,18.76c-.09.43-.2,1-.28,1.34L218,35.31l3.42-16Z"/><polygon class="cls-2" points="124.11 28.95 122.32 35.3 124.11 28.95 124.11 28.95"/><path class="cls-2" d="M251.52,23l-.94-4c-.74-2.87-2.83-4.22-7.54-4.22H223.25a1,1,0,0,0-1,.65l-7.51,35.61a2.64,2.64,0,0,0-.07,1c.05.23.93.18,1.38.18h6.86a7.14,7.14,0,0,0,1.53-.06c.26-.1.37-.78.46-1.23l2.42-12.49,3-13.85a1.08,1.08,0,0,1,1-.81h19.61a.63.63,0,0,0,.64-.81"/><path class="cls-2" d="M279.41,8.55h-8.7a2,2,0,0,0-1.29.87L254.15,31.87c-.26.38-.55.37-.65-.08l-1.13-4.92a1.09,1.09,0,0,0-1-.81h-9.81a.62.62,0,0,0-.61.82l4.4,15.42a3.46,3.46,0,0,1,0,1.6l-2.05,7.81c-.1.44.18.58.64.58h9.68c.46,0,.93-.14,1-.58l2.05-7.92a5,5,0,0,1,.7-1.41l24.91-33c.28-.36.24-.8-.21-.8Z"/><path class="cls-2" d="M177.27,14.84h-8.85c-.45,0-.91.16-1,.6l-2.93,13.7-2.92,13.11c-.09.44-.54.41-1,.41h-5.81c-5.76,0-5.1-3.64-3.91-9.09l3.69-18.13c.08-.44-.22-.6-.67-.6h-8.44c-.45,0-.9.16-1,.6l-3.39,18.12c-1.7,9.79-1.75,18.41,9.61,18.7H168.6c.45,0,.91-.15,1-.6l3.85-18.16,3.84-18.24S177.43,14.84,177.27,14.84Z"/><path class="cls-2" d="M89.09,14.81H79.6c-.46,0-.92.11-1,.55l-1.71,7.42a.62.62,0,0,0,.65.78h9.09a1.12,1.12,0,0,0,1-.85l1.65-7.47S89.4,14.81,89.09,14.81Z"/><path class="cls-2" d="M76.91,26.06a1.09,1.09,0,0,0-1,.81l-1.28,5.65L71.76,45.58S70.24,52.52,70.09,53c0,0-1.27,5-4.33,4.81a26.63,26.63,0,0,1-3.05-.42h0c-.86-.26-.92.63-1,1.07L59.8,66.55a.67.67,0,0,0,.64.85,62.92,62.92,0,0,0,7,.57h.48C75,68,78.78,63.78,81.19,52.4L84,39.23,86.66,27a.67.67,0,0,0-.63-.86"/><path class="cls-2" d="M199.68,14.75c-16,0-19.78,9.87-21.9,19.65-2.12,10-1.94,17.86,14.58,17.86h15.11a1.13,1.13,0,0,0,1-.86l1.62-6.33c.1-.45-.21-.58-.66-.58H194.56c-5.38,0-7.31-1.66-7.12-5.38,0-.42.48-1.5.94-1.5h22.88c1,0,1-.59,1-.59,2.33-10.52,2.48-22.27-12.62-22.27m4.2,15.67c0,.5-1.56.4-1.56.4l-12.45-.09c-.43,0-.55-.6-.58-1a4.72,4.72,0,0,1,.07-.64c1-3.34,3.83-5.25,8.38-5.25,5.12,0,6.22,2.54,6.22,5.36"/><path class="cls-2" d="M130.67,42s4.47-10.87,5.49-17.14c1.38-8.41-2.82-20.59-19.07-20.59S93.93,15.87,91.24,28.52s.83,23.83,16.89,23.74l24.52,0a1.13,1.13,0,0,0,1-.8l2.07-7.87a.63.63,0,0,0-.63-.81h-3.95a.51.51,0,0,1-.56-.59.61.61,0,0,1,0-.18m-8.44-6.67-1.84,6.29a1.16,1.16,0,0,1-1.1.74H109.8c-7.2,0-9-5.57-7.2-13.88,1.76-8.49,5.24-13.74,12.32-14.27,9.69-.73,11.67,6.11,9.32,14Z"/></svg>