<svg id="Layer_1" data-name="Layer 1" xmlns="http://www.w3.org/2000/svg" viewBox="0 0 100 69.828"><defs><style>.cls-1{fill:none;}.cls-2{fill:#fff;}</style></defs><title>newTooth</title><path d="M58.665,17.536v0Z"/><path d="M58.833,17.878c.068.136.148.293.239.483C58.979,18.168,58.9,18.015,58.833,17.878Z"/><path d="M58.56,17.255c0,.017.01.036.016.054C58.57,17.291,58.565,17.272,58.56,17.255Z"/><path d="M86.69,62.591a14.118,14.118,0,0,1-1.262-.951A14.118,14.118,0,0,0,86.69,62.591Z"/><path d="M36.054,17.538h0Z"/><path d="M35.965,17.309c-.006-.018-.011-.037-.016-.054C35.954,17.272,35.959,17.291,35.965,17.309Z"/><polygon class="cls-1" points="25.54 39.5 24.414 42.074 45.654 42.074 44.528 39.5 25.54 39.5"/><polygon class="cls-1" points="35.356 18.42 26.023 38.534 44.206 38.534 35.356 18.42"/><path class="cls-1" d="M56.6,52.533,38.735,11.9h-.322l-1.77,3.539a10.287,10.287,0,0,0-.724,1.61c0,.4.322.724.965,2.253L50.16,49.315c1.126,2.494,1.931,4.184,1.931,6.356a8.783,8.783,0,0,1-3.7,6.92v.161H64.079v-.161C60.7,60.338,58.447,56.717,56.6,52.533Z"/><polygon class="cls-2" points="85.427 61.64 85.427 61.64 85.428 61.64 85.427 61.64"/><polygon class="cls-2" points="61.685 12.674 61.346 11.903 61.685 12.674 61.685 12.674"/><path class="cls-2" d="M35.919,17.052a.8.8,0,0,0,.032.212A.8.8,0,0,1,35.919,17.052Z"/><polygon class="cls-2" points="72.101 61.64 72.101 61.641 72.101 61.64 72.101 61.64"/><path class="cls-2" d="M71,62.591a7.141,7.141,0,0,0,.578-.46C71.388,62.293,71.2,62.452,71,62.591Z"/><path class="cls-2" d="M36.46,18.361l-.028-.058.028.058Z"/><polygon class="cls-2" points="40.116 61.64 40.116 61.64 40.116 61.642 40.116 61.64"/><path class="cls-2" d="M48.39,62.591a7.32,7.32,0,0,0,.578-.46C48.777,62.293,48.585,62.452,48.39,62.591Z"/><polygon class="cls-2" points="62.816 61.64 62.816 61.64 62.816 61.64 62.816 61.64"/><polygon class="cls-2" points="49.49 61.64 49.49 61.64 49.49 61.641 49.49 61.64"/><polygon class="cls-2" points="58.494 19.618 57.967 18.42 51.624 32.09 52.182 33.356 58.494 19.618"/><path class="cls-2" d="M94.253,60.513c-2.128,0-2.392-.132-3.1-.487l-.035-.017C90.064,59.5,87,55.451,84.8,50.505L64.174,3.711h-3.3l-9.86,21.458L41.562,3.711h-3.3L17.148,49.673A30.575,30.575,0,0,1,8.583,59.862a5.776,5.776,0,0,1-2.967.655l-2.106,0v5.6H96.491v-5.6Zm0,3.365H5.747V62.752a7.631,7.631,0,0,0,4.1-1.046,32.654,32.654,0,0,0,9.332-11.1L39.7,5.949h.4L50.976,30.621,62.312,5.949h.4L82.748,51.407c2.011,4.506,5.39,9.655,7.4,10.62,1.126.564,1.77.725,4.1.725Z"/><polygon class="cls-2" points="29.806 32.843 35.883 19.617 35.356 18.42 26.023 38.534 27.191 38.534 29.806 32.843"/><path class="cls-2" d="M35.979,17.345c.018.051.038.107.065.166C36.017,17.45,36,17.4,35.979,17.345Z"/><path class="cls-2" d="M36.1,17.631c.039.08.085.175.137.277C36.183,17.8,36.141,17.714,36.1,17.631Z"/><path class="cls-2" d="M20.41,53.069q.189-.327.352-.631c.036-.066.073-.134.107-.2.129-.247.248-.485.348-.7l3.9-8.5H23.85l-2.735,5.953a23.579,23.579,0,0,0-2,6.119c.448-.656.846-1.283,1.19-1.866Z"/><path class="cls-2" d="M46.861,44.815l-.6-1.332-2.532,5.51c-.885,1.931-2.011,4.988-2.011,6.276,0,.137,0,.3.012.478q.006.109.015.228l.008.1C41.753,56.105,46.861,44.815,46.861,44.815Z"/><polygon class="cls-2" points="56.023 42.074 54.889 39.5 67.139 39.5 68.265 42.074 56.023 42.074"/><path class="cls-2" d="M17.655,62.752H11.3v-.725a36.439,36.439,0,0,0,6.276-6.919l.161.161a22.118,22.118,0,0,0-.4,4.1A24.006,24.006,0,0,0,17.655,62.752Z"/><path class="cls-2" d="M40.266,62.752H33.91v-.725a36.439,36.439,0,0,0,6.276-6.919l.161.161a22.12,22.12,0,0,0-.4,4.1A24,24,0,0,0,40.266,62.752Z"/><polygon class="cls-2" points="24.414 42.074 25.54 39.5 44.528 39.5 45.654 42.074 24.414 42.074"/><path class="cls-2" d="M64.079,62.752H48.39v-.161a8.783,8.783,0,0,0,3.7-6.92c0-2.172-.8-3.862-1.931-6.356L36.884,19.305c-.643-1.529-.965-1.851-.965-2.253,0-.241,2.494-5.149,2.494-5.149h.322L56.6,52.533c1.85,4.184,4.1,7.805,7.482,10.058Z"/><path class="cls-2" d="M86.69,62.752H71v-.161a8.783,8.783,0,0,0,3.7-6.92c0-2.172-.8-3.862-1.931-6.356L59.5,19.305c-.644-1.529-.966-1.851-.966-2.253a10.387,10.387,0,0,1,.724-1.61l1.77-3.539h.322l17.861,40.63c1.851,4.184,4.1,7.805,7.483,10.058Z"/><path d="M94.253,59.038c-1.771,0-1.918-.07-2.433-.328-1-.68-3.754-4.5-5.673-8.8L65.136,2.235h-5.2L51.047,21.571,42.524,2.235h-5.2L15.805,49.058a29.217,29.217,0,0,1-8.059,9.587,5.053,5.053,0,0,1-2.216.4l-3.5,0v8.545H97.967V59.038Zm-2.383-.3-.029-.014-.019-.013Zm4.621,7.379H3.51v-5.6l2.106,0a5.776,5.776,0,0,0,2.967-.655,30.575,30.575,0,0,0,8.565-10.189L38.266,3.711h3.3l9.456,21.458,9.86-21.458h3.3L84.8,50.505c2.207,4.946,5.268,9,6.321,9.5l.035.017c.709.355.973.487,3.1.487h2.238Z"/><path d="M90.15,62.027c-2.012-.965-5.391-6.114-7.4-10.62L62.714,5.949h-.4L50.976,30.621,40.1,5.949h-.4L19.183,50.6a32.654,32.654,0,0,1-9.332,11.1,7.631,7.631,0,0,1-4.1,1.046v1.126H94.253V62.752C91.92,62.752,91.276,62.591,90.15,62.027ZM57.967,18.42l.527,1.2L52.182,33.356l-.558-1.266Zm-3.5,20.114-1.486-3.373,6.312-13.737,7.529,17.11Zm12.676.966,1.126,2.574H56.023L54.889,39.5ZM35.356,18.42l.527,1.2L27.191,38.534H26.023Zm1.322,3,7.528,17.11H28.816ZM25.54,39.5H44.528l1.126,2.574H24.414ZM41.715,55.269c0-1.288,1.126-4.345,2.011-6.276l2.532-5.51.6,1.332L41.752,56.066C41.726,55.756,41.715,55.48,41.715,55.269ZM17.348,59.823a28,28,0,0,0,.307,2.929H11.3v-.725a36.439,36.439,0,0,0,6.276-6.919l.161.161a22.116,22.116,0,0,0-.4,4.1C17.333,59.522,17.343,59.673,17.348,59.823Zm3.767-10.83L23.85,43.04h1.271l-3.9,8.5a25.675,25.675,0,0,1-2.1,3.575A23.579,23.579,0,0,1,21.115,48.993Zm5.717,13.758c-3.469-.011-4.506-.184-6.2-2.494a7.719,7.719,0,0,1-1.293-2.907,30.854,30.854,0,0,0,3.219-5.2l4.188-9.113H45.27L41.8,50.6a32.67,32.67,0,0,1-9.333,11.1C31.18,62.587,28.207,62.671,26.832,62.751Zm13.434,0H33.91v-.725a36.439,36.439,0,0,0,6.276-6.919l.161.161a22.118,22.118,0,0,0-.4,4.1A24,24,0,0,0,40.266,62.752Zm5.757-.278a4.989,4.989,0,0,1-2.78-2.217,7.38,7.38,0,0,1-1.037-2.01l5.313-11.982,1.273,2.809c.8,1.689,2.172,4.506,2.172,6.276a7.618,7.618,0,0,1-1.609,4.585A5.469,5.469,0,0,1,46.023,62.474Zm18.056.278H48.39v-.161a8.783,8.783,0,0,0,3.7-6.92c0-2.172-.8-3.862-1.931-6.356L46.6,41.277l-.257-.581L36.884,19.305c-.077-.184-.149-.348-.216-.5-.021-.046-.039-.083-.058-.126-.047-.1-.092-.2-.134-.286l-.06-.126-.1-.214a2.518,2.518,0,0,1-.392-1,10.287,10.287,0,0,1,.724-1.61l1.77-3.539h.322L48.926,35.084h0l.242.552,1.465,3.331.234.533L56.6,52.533c1.85,4.184,4.1,7.805,7.482,10.058Zm4.549-.276a6.528,6.528,0,0,1-1.089-.449c-2.011-.965-5.391-6.114-7.4-10.62L56.449,43.04H68.668L71.4,49.074c.8,1.689,2.173,4.506,2.173,6.276a7.614,7.614,0,0,1-1.61,4.585A5.464,5.464,0,0,1,68.628,62.476Zm18.062.276H71.642c-.234,0-.439,0-.641-.006v-.155a8.783,8.783,0,0,0,3.7-6.92c0-2.172-.8-3.862-1.931-6.356L59.5,19.305c-.081-.192-.156-.364-.227-.52-.027-.061-.051-.109-.077-.166-.041-.088-.083-.181-.12-.258h0c-.361-.752-.542-1.008-.542-1.309a10.387,10.387,0,0,1,.724-1.61l1.77-3.539h.322l17.861,40.63c1.851,4.184,4.1,7.805,7.483,10.058Z"/></svg>