<svg id="Layer_1" data-name="Layer 1" xmlns="http://www.w3.org/2000/svg" viewBox="0 0 114.109 36.284"><defs><style>.cls-1,.cls-3{fill:#9ecaff;}.cls-1,.cls-2{opacity:0.5;}.cls-1{isolation:isolate;}</style></defs><title>newEffect2</title><path class="cls-1" d="M-.754,17.973V18.2H85.519a.188.188,0,0,0,.188-.188v-.874H88.88v.874a.189.189,0,0,0,.188.188H91.2V20.35a.188.188,0,0,0,.188.188h3.427a.469.469,0,1,0,0-.226H91.428V18.163a.188.188,0,0,0-.188-.188H89.106V17.1a.188.188,0,0,0-.188-.188H85.671a.188.188,0,0,0-.188.188v.872Zm95.86,2.446a.169.169,0,1,1,.169.169h0a.17.17,0,0,1-.173-.165v0Z"/><path class="cls-1" d="M86.048,19.945H-.754v.228H86.085a.188.188,0,0,0,.188-.188v-.98h2.058v.98a.189.189,0,0,0,.189.188h2.016v2.434a.189.189,0,0,0,.188.188h8.728a.468.468,0,1,0-.007-.226H90.762V20.133a.188.188,0,0,0-.188-.188H88.557v-.981a.188.188,0,0,0-.185-.191H86.236a.188.188,0,0,0-.188.188Zm13.687,2.721a.169.169,0,1,1,.17.168h0A.169.169,0,0,1,99.735,22.666Z"/><path class="cls-1" d="M92.2,33.623a.47.47,0,1,1-.456.583H-.754V33.98h92.5A.47.47,0,0,1,92.2,33.623Z"/><path class="cls-1" d="M91.743,32.473a.469.469,0,1,1,0,.226H-.754v-.226Z"/><g class="cls-2"><path class="cls-3" d="M89.486,31.112H-.754v.225h90.24a.47.47,0,1,0,0-.225Zm.287.112a.169.169,0,1,1,0,.026Z"/><path class="cls-3" d="M-.754,29.589v.226H104.36a.47.47,0,1,0,0-.226Zm105.405.113a.169.169,0,1,1,.169.169h0a.169.169,0,0,1-.173-.165v0Z"/></g><g class="cls-2"><path class="cls-3" d="M90.865,27.786H-.754v.226H90.9a.188.188,0,0,0,.188-.188V24.846h10.2a.471.471,0,1,0,.006-.226H91.053a.188.188,0,0,0-.188.188Z"/></g><g class="cls-2"><path class="cls-3" d="M93.8,35.513H-.754v.226h94.6a.188.188,0,0,0,.188-.188v-4.2h8.161a.471.471,0,1,0,.006-.226h-8.2a.188.188,0,0,0-.188.188Zm8.68-4.26a.169.169,0,1,1,.169.169h0A.169.169,0,0,1,102.48,31.253Z"/></g><path class="cls-1" d="M92.854,25.662a.47.47,0,0,0-.115.925v1.43a.474.474,0,1,0,.226,0v-1.43a.47.47,0,0,0-.111-.926Zm0,2.643a.169.169,0,1,1-.169.169h0A.169.169,0,0,1,92.854,28.305Zm0-2.342a.169.169,0,1,1-.169.169h0A.169.169,0,0,1,92.854,25.963Z"/><path class="cls-1" d="M94.634,25.662a.47.47,0,0,0-.115.925v1.43a.474.474,0,1,0,.226,0v-1.43a.47.47,0,0,0-.111-.926Zm0,2.643a.169.169,0,1,1-.168.17v0A.17.17,0,0,1,94.634,28.305Zm0-2.342a.169.169,0,1,1-.168.17h0A.169.169,0,0,1,94.634,25.963Z"/><path class="cls-1" d="M96.414,25.662a.47.47,0,0,0-.114.925v1.43a.474.474,0,1,0,.225,0v-1.43a.47.47,0,0,0-.111-.926Zm0,2.643a.169.169,0,1,1-.168.17v0A.17.17,0,0,1,96.414,28.305Zm0-2.342a.169.169,0,1,1-.168.17h0A.169.169,0,0,1,96.414,25.963Z"/><path class="cls-1" d="M98.2,25.662a.47.47,0,0,0-.115.925v1.43a.47.47,0,1,0,.585.456.475.475,0,0,0-.359-.455v-1.43a.47.47,0,0,0-.111-.926Zm0,2.643a.169.169,0,0,1,0,.337.169.169,0,0,1-.026-.337A.113.113,0,0,1,98.2,28.305Zm0-2.342a.169.169,0,1,1-.169.169h0A.169.169,0,0,1,98.2,25.963Z"/><path class="cls-1" d="M74.854,20.7a.47.47,0,0,0-.115.925v1.431a.474.474,0,1,0,.226,0V21.629a.47.47,0,0,0-.111-.926Zm0,2.643a.169.169,0,1,1-.169.169h0A.169.169,0,0,1,74.854,23.346Zm0-2.341a.169.169,0,1,1-.169.169h0A.17.17,0,0,1,74.854,21.005Z"/><path class="cls-1" d="M76.677,20.7a.47.47,0,0,0-.115.925v1.431a.474.474,0,1,0,.226,0V21.629a.47.47,0,0,0-.111-.926Zm0,2.643a.169.169,0,1,1,.026.337.113.113,0,0,1-.026,0,.169.169,0,0,1,0-.337Zm0-2.341a.169.169,0,1,1-.164.173v-.005A.17.17,0,0,1,76.677,21.005Z"/><path class="cls-1" d="M78.5,20.7a.47.47,0,0,0-.114.925v1.431a.474.474,0,1,0,.225,0V21.629A.47.47,0,0,0,78.5,20.7Zm0,2.643a.169.169,0,1,1-.168.17h0A.17.17,0,0,1,78.5,23.346Zm0-2.341a.169.169,0,1,1-.168.17v0A.168.168,0,0,1,78.5,21.005Z"/><path class="cls-1" d="M80.324,20.757a.463.463,0,0,0-.47.454h0a.458.458,0,0,0,.355.44v1.385a.454.454,0,0,0-.355.441.47.47,0,1,0,.581-.44V21.652a.453.453,0,0,0-.111-.895Zm0,2.557a.163.163,0,1,1-.169.163.166.166,0,0,1,.167-.163Zm0-2.266a.163.163,0,1,1-.169.163.166.166,0,0,1,.167-.163Z"/><path class="cls-1" d="M82.147,20.757a.452.452,0,0,0-.115.894v1.385a.454.454,0,0,0-.355.441.47.47,0,1,0,.581-.44V21.652a.455.455,0,0,0,.359-.441.461.461,0,0,0-.469-.454Zm0,2.557a.163.163,0,1,1-.169.163.166.166,0,0,1,.169-.163Zm0-2.266a.163.163,0,1,1-.169.163.166.166,0,0,1,.169-.163Z"/><path class="cls-1" d="M83.97,20.757a.452.452,0,0,0-.115.894v1.385a.454.454,0,0,0-.355.441.47.47,0,1,0,.581-.44V21.652a.455.455,0,0,0,.359-.441.461.461,0,0,0-.469-.454Zm0,2.557a.163.163,0,1,1-.168.163A.167.167,0,0,1,83.97,23.314Zm0-2.266a.163.163,0,1,1-.168.163A.167.167,0,0,1,83.97,21.048Z"/><path class="cls-1" d="M92.085,19.02a.469.469,0,0,0,.924.115h6.406a.474.474,0,1,0,0-.226H93.01a.469.469,0,0,0-.925.111Zm7.617,0a.169.169,0,1,1,.169.169h0A.169.169,0,0,1,99.7,19.02Zm-7.316,0a.169.169,0,1,1,.169.169h0A.169.169,0,0,1,92.386,19.02Z"/><path class="cls-1" d="M89.942,17.127a.47.47,0,0,0,.925.115H98.25a.47.47,0,1,0,.456-.585.476.476,0,0,0-.455.359h-7.38a.47.47,0,0,0-.926.111Zm8.6,0a.169.169,0,1,1,.169.169h0a.169.169,0,0,1-.172-.166v0Zm-8.3,0a.169.169,0,1,1,.169.169h0a.169.169,0,0,1-.168-.169Z"/><path class="cls-1" d="M83.739,15.52a.47.47,0,0,0,.925.115H96.413a.474.474,0,1,0,0-.226H84.665a.47.47,0,0,0-.926.111Z"/><path class="cls-1" d="M95.523,32.628a.47.47,0,0,0,.925.114h11.526a.474.474,0,1,0,0-.225H96.449a.47.47,0,0,0-.926.111Zm12.739,0a.169.169,0,1,1,.17.168h0a.167.167,0,0,1-.164-.168Zm-12.438,0a.169.169,0,1,1,.17.168h0A.169.169,0,0,1,95.824,32.628Z"/><path class="cls-1" d="M95.524,34.146a.47.47,0,0,0,.925.115h13.944a.484.484,0,1,0,0-.229H96.45a.47.47,0,0,0-.926.111Zm15.156,0a.169.169,0,1,1,.169.169h0A.169.169,0,0,1,110.68,34.146Zm-14.855,0a.169.169,0,1,1,.169.169h0A.169.169,0,0,1,95.825,34.146Z"/><path class="cls-1" d="M85.359,22.555a.472.472,0,0,0,.363.457V24.6H-.413v.226H85.76a.188.188,0,0,0,.188-.188V23.009a.47.47,0,1,0-.589-.454Zm.639,0a.169.169,0,1,1-.169-.169h0A.169.169,0,0,1,86,22.555Z"/><path class="cls-1" d="M87.1,21.381a.474.474,0,0,0,.363.457v4.323H-.413v.226H87.512A.188.188,0,0,0,87.7,26.2V21.835a.47.47,0,1,0-.589-.454Zm.639,0a.169.169,0,1,1-.169-.169h0A.169.169,0,0,1,87.742,21.381Z"/><path class="cls-1" d="M84.2,3.976a.47.47,0,1,0-.456-.583H-.728v.226H83.739A.471.471,0,0,0,84.2,3.976Z"/><path class="cls-1" d="M84.2,5.48a.47.47,0,1,0-.456-.582H-.728v.225H83.739A.469.469,0,0,0,84.2,5.48Z"/><path class="cls-1" d="M88.5,6.628a.469.469,0,1,0,0-.226H-.728v.226Z"/><path class="cls-1" d="M84.207,9.941a.47.47,0,1,0-.455-.583l-84.48.054v.226l84.48-.054A.471.471,0,0,0,84.207,9.941Z"/><path class="cls-1" d="M83.752,11.092a.47.47,0,1,0,0-.226l-84.48.054v.226Z"/><g class="cls-2"><path class="cls-3" d="M82,12.863a.47.47,0,1,0-.455-.583H-.728v.226H81.548A.469.469,0,0,0,82,12.863Zm0-.638a.169.169,0,1,1-.169.169h0A.169.169,0,0,1,82,12.225Z"/><path class="cls-3" d="M101.3,14.029a.47.47,0,1,0,0-.226H-.728v.226Zm.461-.283a.169.169,0,1,1-.169.169h0A.169.169,0,0,1,101.765,13.746Z"/></g><g class="cls-2"><path class="cls-3" d="M85.861,12.061a.189.189,0,0,0,.189.188h13.4a.469.469,0,1,0-.006-.226H86.087V8.067a.188.188,0,0,0-.188-.188H-.728V8.1H85.861ZM99.9,11.956a.169.169,0,1,1-.169.169h0a.169.169,0,0,1,.169-.169Z"/></g><g class="cls-2"><path class="cls-3" d="M69.635,16.014a.469.469,0,0,0,.456-.359H80.707a.466.466,0,1,0,0-.226H70.09a.47.47,0,1,0-.455.585Zm11.527-.639a.169.169,0,1,1-.169.169h0a.169.169,0,0,1,.167-.171h0Zm-11.527,0a.169.169,0,1,1-.169.169h0a.169.169,0,0,1,.167-.171h0Z"/></g><path class="cls-1" d="M86.171,5.48a.47.47,0,0,0,.456-.359H88.5a.466.466,0,1,0,0-.225H86.623a.47.47,0,1,0-.455.584Zm2.788-.638a.169.169,0,1,1-.168.17v0a.169.169,0,0,1,.165-.164Zm-2.788,0A.169.169,0,1,1,86,5.011h0a.17.17,0,0,1,.169-.164Z"/><path class="cls-1" d="M86.12,3.953a.471.471,0,0,0,.456-.359H88.45a.466.466,0,1,0,0-.225H86.572a.47.47,0,1,0-.455.584Zm2.788-.638a.169.169,0,0,1,0,.338.17.17,0,0,1-.17-.168v0a.169.169,0,0,1,.165-.164Zm-2.788,0a.169.169,0,1,1-.169.169h0a.169.169,0,0,1,.169-.164Z"/><path class="cls-1" d="M98.188,5.813a.47.47,0,0,0,.456-.359h6.427a.466.466,0,1,0,0-.225H98.64a.47.47,0,1,0-.455.584Zm7.341-.638a.169.169,0,1,1-.168.17v0a.169.169,0,0,1,.165-.164Zm-7.341,0a.169.169,0,1,1-.169.169h0a.168.168,0,0,1,.169-.164Z"/><path class="cls-1" d="M97.32,3.455A.472.472,0,0,0,96.961,3V1.862a.464.464,0,1,0-.226,0V3a.47.47,0,1,0,.585.455Zm-.639-2.048a.169.169,0,1,1,.169.169.169.169,0,0,1-.169-.169Zm0,2.048a.169.169,0,1,1,.169.169.169.169,0,0,1-.169-.169Z"/><path class="cls-1" d="M86.871,7.523a.472.472,0,0,0,.359.456v2.2a.466.466,0,1,0,.226,0v-2.2a.47.47,0,1,0-.585-.455Zm.639,3.11a.169.169,0,1,1-.169-.169.169.169,0,0,1,.169.169v0Zm0-3.11a.169.169,0,1,1-.169-.169.169.169,0,0,1,.169.169v0Z"/><path class="cls-1" d="M94.392,1.407a.471.471,0,0,0,.359.457v2.2a.466.466,0,1,0,.225,0v-2.2a.469.469,0,1,0-.584-.455Zm.638,3.111a.169.169,0,1,1-.169-.169h0a.168.168,0,0,1,.168.168Zm0-3.111a.169.169,0,1,1-.17-.168h0A.168.168,0,0,1,95.03,1.407Z"/><path class="cls-1" d="M91.283,3.462a.472.472,0,0,0,.359.456v2a.463.463,0,1,0,.229,0v-2a.47.47,0,1,0-.585-.455Zm.638,2.914a.169.169,0,1,1-.169-.169h0A.169.169,0,0,1,91.921,6.376Zm0-2.914a.169.169,0,1,1-.169-.169h0A.169.169,0,0,1,91.921,3.462Z"/><path class="cls-1" d="M101.241,3.925a.47.47,0,0,0,.456-.359h9.59a.466.466,0,1,0,0-.226H101.7a.47.47,0,1,0-.455.585Zm10.5-.638a.169.169,0,1,1-.026,0Zm-10.5,0a.169.169,0,1,1-.169.169h0A.169.169,0,0,1,101.241,3.287Z"/><path class="cls-1" d="M98.858,1.877a.47.47,0,0,0,.456-.359h9.961a.466.466,0,1,0,0-.225H99.313a.47.47,0,1,0-.455.584Zm10.872-.638a.169.169,0,1,1-.169.169h0a.169.169,0,0,1,.167-.169Zm-10.872,0a.169.169,0,1,1-.169.169h0a.169.169,0,0,1,.169-.169Z"/><path class="cls-1" d="M-.987,1.877a.47.47,0,0,0,.456-.359H92.338a.466.466,0,1,0,0-.225H-.532A.47.47,0,0,0-1.1.951a.47.47,0,0,0-.342.57A.471.471,0,0,0-.987,1.877Zm93.78-.638a.169.169,0,1,1-.169.169h0a.168.168,0,0,1,.167-.169Zm-93.78,0a.169.169,0,0,1,.169.169.169.169,0,0,1-.169.169.169.169,0,0,1-.169-.169h0a.169.169,0,0,1,.169-.169Z"/><path class="cls-1" d="M93.549,7.271a.471.471,0,0,0,.456-.359h13.158a.466.466,0,1,0,0-.226H94a.469.469,0,1,0-.455.585Zm14.069-.639a.169.169,0,1,1-.169.169h0A.169.169,0,0,1,107.618,6.632Zm-14.069,0a.169.169,0,1,1,.026.337h-.026a.169.169,0,0,1,0-.337Z"/><path class="cls-1" d="M93.549,10.518a.47.47,0,0,0,.456-.359h8.942a.466.466,0,1,0,0-.225H94a.469.469,0,1,0-.455.584Zm9.85-.638a.169.169,0,1,1-.169.169h0a.169.169,0,0,1,.169-.169Zm-9.85,0a.169.169,0,1,1,.026.337h-.026a.169.169,0,0,1,0-.337Z"/><path class="cls-1" d="M95.019,8.9a.47.47,0,0,0,.456-.359h8.672a.466.466,0,1,0,0-.225H95.474a.47.47,0,1,0-.455.584Zm9.583-.638a.169.169,0,1,1-.169.169h0a.168.168,0,0,1,.167-.169h0Zm-9.583,0a.169.169,0,1,1-.169.169.169.169,0,0,1,.169-.169Z"/><path class="cls-1" d="M91.784,8.608a.47.47,0,0,0-.456.359H89.45a.465.465,0,1,0,0,.226h1.874a.47.47,0,1,0,.455-.585Z"/><path class="cls-1" d="M89.382,21.986a.47.47,0,0,0-.115.925v1.43a.47.47,0,1,0,.585.456.476.476,0,0,0-.359-.455v-1.43a.47.47,0,0,0-.111-.926Zm0,2.643a.169.169,0,1,1-.169.169h0A.169.169,0,0,1,89.382,24.629Zm0-2.342a.169.169,0,1,1-.169.169h0A.169.169,0,0,1,89.382,22.287Z"/></svg>