<?xml version="1.0" encoding="utf-8"?>
<!-- Generator: Adobe Illustrator 24.0.3, SVG Export Plug-In . SVG Version: 6.00 Build 0)  -->
<svg version="1.1" id="Layer_1" xmlns="http://www.w3.org/2000/svg" xmlns:xlink="http://www.w3.org/1999/xlink" x="0px" y="0px"
	 viewBox="0 0 100 100" style="enable-background:new 0 0 100 100;" xml:space="preserve">
<style type="text/css">
	.st0{clip-path:url(#SVGID_2_);fill:url(#SVGID_3_);}
	.st1{clip-path:url(#SVGID_5_);fill:url(#SVGID_6_);}
	.st2{clip-path:url(#SVGID_8_);fill:url(#SVGID_9_);}
	.st3{filter:url(#Adobe_OpacityMaskFilter);}
	.st4{fill:url(#SVGID_11_);}
	.st5{mask:url(#SVGID_10_);fill-rule:evenodd;clip-rule:evenodd;fill:#0064FF;}
	.st6{filter:url(#Adobe_OpacityMaskFilter_1_);}
	.st7{fill:url(#SVGID_13_);}
	.st8{mask:url(#SVGID_12_);fill-rule:evenodd;clip-rule:evenodd;fill:#0091EA;}
	.st9{filter:url(#Adobe_OpacityMaskFilter_2_);}
	.st10{fill:url(#SVGID_15_);}
	.st11{mask:url(#SVGID_14_);fill-rule:evenodd;clip-rule:evenodd;fill:#0064FF;}
	.st12{filter:url(#Adobe_OpacityMaskFilter_3_);}
	.st13{fill:url(#SVGID_17_);}
	.st14{mask:url(#SVGID_16_);fill-rule:evenodd;clip-rule:evenodd;fill:#00FFFF;}
	.st15{filter:url(#Adobe_OpacityMaskFilter_4_);}
	.st16{fill:url(#SVGID_19_);}
	.st17{mask:url(#SVGID_18_);fill-rule:evenodd;clip-rule:evenodd;fill:#00FFFF;}
	.st18{filter:url(#Adobe_OpacityMaskFilter_5_);}
	.st19{fill:url(#SVGID_21_);}
	.st20{mask:url(#SVGID_20_);fill-rule:evenodd;clip-rule:evenodd;fill:#324BC8;}
	.st21{filter:url(#Adobe_OpacityMaskFilter_6_);}
	.st22{fill:url(#SVGID_23_);}
	.st23{mask:url(#SVGID_22_);fill-rule:evenodd;clip-rule:evenodd;fill:#23348C;}
	.st24{filter:url(#Adobe_OpacityMaskFilter_7_);}
	.st25{fill:url(#SVGID_25_);}
	.st26{mask:url(#SVGID_24_);fill-rule:evenodd;clip-rule:evenodd;fill:#1A008C;}
	.st27{filter:url(#Adobe_OpacityMaskFilter_8_);}
	.st28{fill:url(#SVGID_27_);}
	.st29{mask:url(#SVGID_26_);fill-rule:evenodd;clip-rule:evenodd;fill:#1A008C;}
	.st30{filter:url(#Adobe_OpacityMaskFilter_9_);}
	.st31{fill:url(#SVGID_29_);}
	.st32{mask:url(#SVGID_28_);fill-rule:evenodd;clip-rule:evenodd;fill:#00FFFF;}
	.st33{filter:url(#Adobe_OpacityMaskFilter_10_);}
	.st34{fill:url(#SVGID_31_);}
	.st35{mask:url(#SVGID_30_);fill-rule:evenodd;clip-rule:evenodd;fill:#FFFFFF;}
	.st36{filter:url(#Adobe_OpacityMaskFilter_11_);}
	.st37{fill:url(#SVGID_33_);}
	.st38{mask:url(#SVGID_32_);fill-rule:evenodd;clip-rule:evenodd;fill:#5EFAF7;}
</style>
<g>
	<g>
		<defs>
			<path id="SVGID_1_" d="M50,73.6c-11.2,0-6.1,23.9-15.5,25.6c-1.5,0.3-4.7-0.4-6-1.3c-5.5-13-9.4-30.5-7.5-41.7
				c0.9-5.6,4-10.8,9.9-11c12.3-0.3,22.5,25.2,25.5,33.4C55.1,75.6,53.3,73.6,50,73.6"/>
		</defs>
		<clipPath id="SVGID_2_">
			<use xlink:href="#SVGID_1_"  style="overflow:visible;"/>
		</clipPath>
		<linearGradient id="SVGID_3_" gradientUnits="userSpaceOnUse" x1="44.1824" y1="48.0983" x2="27.6749" y2="109.776">
			<stop  offset="0" style="stop-color:#0046C8"/>
			<stop  offset="0.51" style="stop-color:#0091EA"/>
			<stop  offset="1" style="stop-color:#00E5FF"/>
		</linearGradient>
		<rect x="19.1" y="44.9" class="st0" width="37.3" height="54.6"/>
	</g>
	<g>
		<defs>
			<path id="SVGID_4_" d="M42.9,7.6C45.6,9,47.9,10,50,10c3.9,0,9.2-2.9,15.9-5.5C72.4,1.9,83.6-1,91,2.7
				c5.7,14.6-1.5,33.5-11.8,35.6C67.8,40.8,53,13.7,42.9,7.6"/>
		</defs>
		<clipPath id="SVGID_5_">
			<use xlink:href="#SVGID_4_"  style="overflow:visible;"/>
		</clipPath>
		<linearGradient id="SVGID_6_" gradientUnits="userSpaceOnUse" x1="62.8322" y1="31.8073" x2="88.0509" y2="-11.5482">
			<stop  offset="0" style="stop-color:#0046C8"/>
			<stop  offset="0.6" style="stop-color:#00AFFE"/>
			<stop  offset="1" style="stop-color:#00E5FF"/>
		</linearGradient>
		<rect x="42.9" y="-1" class="st1" width="53.7" height="41.8"/>
	</g>
	<g>
		<defs>
			<path id="SVGID_7_" d="M28.5,97.9c-9.3-5.4-17.7-26.1-22.4-46.7C3.8,41.3-2.8,11.1,7.2,3.8c7.1-5.2,20.5-2.9,27.6-0.1
				c3.1,1.2,5.8,2.7,8.1,3.9C58.5,17,69.1,39,79.4,36.9c6.8-1.4,13.5-20,11.6-34.1c19.6,10-5.1,100-24.5,96.4C60,98,59,85,56.4,78.7
				C53.2,69.9,41.6,40.8,28,45.8c-3.7,1.3-6.2,5.1-7.1,10.4C19.1,67.4,23,84.9,28.5,97.9"/>
		</defs>
		<clipPath id="SVGID_8_">
			<use xlink:href="#SVGID_7_"  style="overflow:visible;"/>
		</clipPath>
		<linearGradient id="SVGID_9_" gradientUnits="userSpaceOnUse" x1="122.1513" y1="68.9729" x2="-59.6856" y2="20.2492">
			<stop  offset="0" style="stop-color:#2A62FF"/>
			<stop  offset="0.22" style="stop-color:#009AEA"/>
			<stop  offset="0.53" style="stop-color:#00AEEE"/>
			<stop  offset="1" style="stop-color:#00FFFF"/>
		</linearGradient>
		<rect x="-2.8" y="-1.4" class="st2" width="113.4" height="104.1"/>
	</g>
	<defs>
		<filter id="Adobe_OpacityMaskFilter" filterUnits="userSpaceOnUse" x="68.1" y="2.7" width="30" height="96.5">
			<feColorMatrix  type="matrix" values="1 0 0 0 0  0 1 0 0 0  0 0 1 0 0  0 0 0 1 0"/>
		</filter>
	</defs>
	<mask maskUnits="userSpaceOnUse" x="68.1" y="2.7" width="30" height="96.5" id="SVGID_10_">
		<g class="st3">
			
				<linearGradient id="SVGID_11_" gradientUnits="userSpaceOnUse" x1="-339.3422" y1="313.1235" x2="-266.5277" y2="293.6136" gradientTransform="matrix(1 0 0 1 362.1045 -245.9521)">
				<stop  offset="0" style="stop-color:#FFFFFF"/>
				<stop  offset="1" style="stop-color:#000000"/>
			</linearGradient>
			<rect x="68.1" y="2.7" class="st4" width="30" height="96.5"/>
		</g>
	</mask>
	<path class="st5" d="M68.2,31.8c3.9,3.6,7.5,5.9,11.2,5.1c6.8-1.4,13.5-20,11.6-34.1c19.1,9.7-3.7,94.9-22.8,96.5
		C85.6,91.4,82.5,51,68.2,31.8"/>
	<defs>
		<filter id="Adobe_OpacityMaskFilter_1_" filterUnits="userSpaceOnUse" x="36.7" y="45.8" width="45.5" height="53.5">
			<feColorMatrix  type="matrix" values="1 0 0 0 0  0 1 0 0 0  0 0 1 0 0  0 0 0 1 0"/>
		</filter>
	</defs>
	<mask maskUnits="userSpaceOnUse" x="36.7" y="45.8" width="45.5" height="53.5" id="SVGID_12_">
		<g class="st6">
			
				<linearGradient id="SVGID_13_" gradientUnits="userSpaceOnUse" x1="-178.6339" y1="364.5352" x2="-206.9842" y2="258.725" gradientTransform="matrix(1 0 0 1 250.5146 -245.8379)">
				<stop  offset="0" style="stop-color:#FFFFFF"/>
				<stop  offset="1" style="stop-color:#000000"/>
			</linearGradient>
			<rect x="36.7" y="45.8" class="st7" width="45.5" height="53.5"/>
		</g>
	</mask>
	<path class="st8" d="M82.3,85.2c-5,9.2-10.6,15-15.8,14C60,98,59,85,56.4,78.7c-9.6-26.6-15.6-29.4-19.7-32.9
		c21.1,13.4,24.1,44.8,31.9,49C72.6,96.9,77.4,92.4,82.3,85.2"/>
	<defs>
		<filter id="Adobe_OpacityMaskFilter_2_" filterUnits="userSpaceOnUse" x="60.3" y="6.4" width="37.8" height="88.9">
			<feColorMatrix  type="matrix" values="1 0 0 0 0  0 1 0 0 0  0 0 1 0 0  0 0 0 1 0"/>
		</filter>
	</defs>
	<mask maskUnits="userSpaceOnUse" x="60.3" y="6.4" width="37.8" height="88.9" id="SVGID_14_">
		<g class="st9">
			
				<linearGradient id="SVGID_15_" gradientUnits="userSpaceOnUse" x1="-208.9363" y1="145.437" x2="-273.3689" y2="377.1439" gradientTransform="matrix(1 0 0 1 334.1465 -260.1035)">
				<stop  offset="0" style="stop-color:#FFFFFF"/>
				<stop  offset="1" style="stop-color:#000000"/>
			</linearGradient>
			<rect x="60.3" y="6.4" class="st10" width="37.8" height="88.9"/>
		</g>
	</mask>
	<path class="st11" d="M94.7,6.4c9.5,15.4-2.5,66-16.7,84.9l0,0l0,0c-0.1,0.1-0.2,0.2-0.3,0.3l0,0c0,0-0.1,0.1-0.1,0.1l0,0
		c-0.1,0.1-0.2,0.2-0.3,0.3l0,0c0,0-0.1,0.1-0.1,0.1l0,0c-0.1,0.1-0.2,0.2-0.3,0.3l0,0c0,0-0.1,0.1-0.1,0.1l0,0
		c-0.1,0.1-0.2,0.2-0.3,0.2l0,0c0,0-0.1,0.1-0.1,0.1l0,0c-0.1,0.1-0.2,0.1-0.2,0.2l0,0c0,0-0.1,0.1-0.1,0.1l0,0
		c-0.1,0.1-0.1,0.1-0.2,0.2l-0.1,0c0,0-0.1,0.1-0.1,0.1l-0.1,0c-0.1,0.1-0.1,0.1-0.2,0.2l0,0c0,0-0.1,0.1-0.1,0.1L75,94
		c-0.1,0-0.1,0.1-0.2,0.1l-0.1,0c0,0-0.1,0-0.1,0.1l-0.1,0.1c-0.1,0-0.1,0.1-0.2,0.1l-0.1,0c0,0-0.1,0-0.1,0.1l-0.1,0
		c0,0-0.1,0.1-0.1,0.1l-0.1,0c0,0-0.1,0-0.1,0c0,0-0.1,0-0.1,0c0,0-0.1,0-0.1,0.1c0,0-0.1,0-0.1,0c0,0-0.1,0-0.1,0c0,0-0.1,0-0.1,0
		l-0.1,0c0,0-0.1,0-0.1,0l-0.1,0c0,0-0.1,0-0.1,0l-0.1,0c0,0-0.1,0-0.1,0l-0.1,0c0,0-0.1,0-0.1,0l-0.1,0c0,0-0.1,0-0.1,0l-0.1,0
		c0,0-0.1,0-0.1,0l-0.1,0c0,0-0.1,0-0.1,0l-0.1,0c-0.1,0-0.1,0-0.2,0l0,0c-0.1,0-0.1,0-0.2,0l-0.1,0c-0.1,0-0.1,0-0.2,0l0,0
		c-0.1,0-0.1,0-0.2,0l0,0c-0.1,0-0.1,0-0.2,0l0,0h0l0,0c-0.1,0-0.1,0-0.2,0l0,0c-0.1,0-0.1,0-0.2,0l0,0h0l0,0c-0.1,0-0.1,0-0.2,0
		l0,0c-0.1,0-0.1,0-0.2,0l0,0h0l0,0c-0.1,0-0.1,0-0.2-0.1l0,0c-0.1,0-0.1,0-0.2-0.1l0,0l0,0l0,0c-0.1,0-0.1,0-0.2-0.1l0,0
		c-0.1,0-0.1-0.1-0.2-0.1c-0.1-0.1-0.2-0.1-0.3-0.2c0,0-0.1-0.1-0.1-0.1c0,0-0.1-0.1-0.1-0.1c-0.2-0.1-0.4-0.3-0.6-0.5
		c-2.7-2.5-4.9-8.4-7.8-15.4l0,0c2.7,4.5,6.2,6.4,9.1,6.5C86.1,85.8,101.1,23.1,94.7,6.4"/>
	<defs>
		<filter id="Adobe_OpacityMaskFilter_3_" filterUnits="userSpaceOnUse" x="3" y="1.7" width="65.3" height="97.2">
			<feColorMatrix  type="matrix" values="1 0 0 0 0  0 1 0 0 0  0 0 1 0 0  0 0 0 1 0"/>
		</filter>
	</defs>
	<mask maskUnits="userSpaceOnUse" x="3" y="1.7" width="65.3" height="97.2" id="SVGID_16_">
		<g class="st12">
			
				<linearGradient id="SVGID_17_" gradientUnits="userSpaceOnUse" x1="5.0867" y1="297.2747" x2="-105.2139" y2="297.2747" gradientTransform="matrix(1 0 0 1 130.5381 -246.9219)">
				<stop  offset="0" style="stop-color:#FFFFFF"/>
				<stop  offset="6.669313e-02" style="stop-color:#E1E1E1"/>
				<stop  offset="0.2123" style="stop-color:#A7A7A7"/>
				<stop  offset="0.3577" style="stop-color:#747474"/>
				<stop  offset="0.4995" style="stop-color:#4A4A4A"/>
				<stop  offset="0.6369" style="stop-color:#2A2A2A"/>
				<stop  offset="0.7686" style="stop-color:#131313"/>
				<stop  offset="0.8923" style="stop-color:#050505"/>
				<stop  offset="1" style="stop-color:#000000"/>
			</linearGradient>
			<rect x="3" y="1.7" class="st13" width="65.3" height="97.2"/>
		</g>
	</mask>
	<path class="st14" d="M28.5,97.9c-14.4-9-23.2-47.6-24.9-65.5C2.9,25.3,1.7,10.2,7.8,5c2.5-2.2,6-3,9.1-3.2
		c36.8-3.1,61.2,106.6,47.5,96.5c-4.6-3.3-5.8-14.4-8-19.8C53.2,69.7,41.6,40.8,28,45.8c-8.7,3.2-8.6,17.7-6,31
		C23.8,85.6,26.6,93.3,28.5,97.9"/>
	<defs>
		<filter id="Adobe_OpacityMaskFilter_4_" filterUnits="userSpaceOnUse" x="1.9" y="1.5" width="60" height="93.1">
			<feColorMatrix  type="matrix" values="1 0 0 0 0  0 1 0 0 0  0 0 1 0 0  0 0 0 1 0"/>
		</filter>
	</defs>
	<mask maskUnits="userSpaceOnUse" x="1.9" y="1.5" width="60" height="93.1" id="SVGID_18_">
		<g class="st15">
			
				<linearGradient id="SVGID_19_" gradientUnits="userSpaceOnUse" x1="-154.2046" y1="344.7936" x2="-44.0842" y2="281.2137" gradientTransform="matrix(1 0 0 1 126.5293 -262.3828)">
				<stop  offset="0" style="stop-color:#FFFFFF"/>
				<stop  offset="5.342138e-02" style="stop-color:#E0E0E0"/>
				<stop  offset="0.155" style="stop-color:#ACACAC"/>
				<stop  offset="0.2611" style="stop-color:#7E7E7E"/>
				<stop  offset="0.3695" style="stop-color:#575757"/>
				<stop  offset="0.4808" style="stop-color:#383838"/>
				<stop  offset="0.5958" style="stop-color:#1F1F1F"/>
				<stop  offset="0.7163" style="stop-color:#0E0E0E"/>
				<stop  offset="0.8457" style="stop-color:#030303"/>
				<stop  offset="1" style="stop-color:#000000"/>
			</linearGradient>
			<rect x="1.9" y="1.5" class="st16" width="60" height="93.1"/>
		</g>
	</mask>
	<path class="st17" d="M24.5,94.6C12.7,83,2.3,43.3,1.9,24.5C1.6,12.3,3.9,0.7,19.1,1.5C29,2,40.4,9.2,45.5,13.9
		c5.9,5.5,11.1,12.1,16.3,18.2c-10.9-7.2-26.5-13.4-38.4-5.9c-7.8,5-12,15.6-10.4,30.4C14.3,68.9,18.3,82.4,24.5,94.6"/>
	<defs>
		<filter id="Adobe_OpacityMaskFilter_5_" filterUnits="userSpaceOnUse" x="42.9" y="1" width="39.3" height="25.9">
			<feColorMatrix  type="matrix" values="1 0 0 0 0  0 1 0 0 0  0 0 1 0 0  0 0 0 1 0"/>
		</filter>
	</defs>
	<mask maskUnits="userSpaceOnUse" x="42.9" y="1" width="39.3" height="25.9" id="SVGID_20_">
		<g class="st18">
			
				<linearGradient id="SVGID_21_" gradientUnits="userSpaceOnUse" x1="-209.9129" y1="547.0899" x2="-209.9129" y2="503.3966" gradientTransform="matrix(1 0 0 1 272.4761 -503.313)">
				<stop  offset="0" style="stop-color:#FFFFFF"/>
				<stop  offset="1" style="stop-color:#000000"/>
			</linearGradient>
			<rect x="42.9" y="1" class="st19" width="39.3" height="25.9"/>
		</g>
	</mask>
	<path class="st20" d="M42.9,7.6C45.6,9,47.9,10,50,10c3.9,0,9.2-2.9,15.9-5.5C70.1,2.8,76.4,1,82.2,1c-0.3,5.6-2.4,24.8-18.8,25.9
		C57.4,20.4,50.8,12.4,42.9,7.6z"/>
	<defs>
		<filter id="Adobe_OpacityMaskFilter_6_" filterUnits="userSpaceOnUse" x="42.9" y="3.6" width="25.4" height="17.1">
			<feColorMatrix  type="matrix" values="1 0 0 0 0  0 1 0 0 0  0 0 1 0 0  0 0 0 1 0"/>
		</filter>
	</defs>
	<mask maskUnits="userSpaceOnUse" x="42.9" y="3.6" width="25.4" height="17.1" id="SVGID_22_">
		<g class="st21">
			
				<linearGradient id="SVGID_23_" gradientUnits="userSpaceOnUse" x1="-205.2328" y1="580.7229" x2="-218.3612" y2="531.732" gradientTransform="matrix(1 0 0 1 272.4761 -525.1025)">
				<stop  offset="0" style="stop-color:#FFFFFF"/>
				<stop  offset="1" style="stop-color:#000000"/>
			</linearGradient>
			<rect x="42.9" y="3.6" class="st22" width="25.4" height="17.1"/>
		</g>
	</mask>
	<path class="st23" d="M42.9,7.6C45.6,9,47.9,10,50,10c3.9,0,9.2-2.9,15.9-5.5c0.7-0.3,1.5-0.6,2.4-0.9c0.2,3.2-0.1,14.1-10.5,17.1
		C53.3,15.8,48.4,10.9,42.9,7.6z"/>
	<defs>
		<filter id="Adobe_OpacityMaskFilter_7_" filterUnits="userSpaceOnUse" x="32.8" y="47.8" width="23.6" height="40.1">
			<feColorMatrix  type="matrix" values="1 0 0 0 0  0 1 0 0 0  0 0 1 0 0  0 0 0 1 0"/>
		</filter>
	</defs>
	<mask maskUnits="userSpaceOnUse" x="32.8" y="47.8" width="23.6" height="40.1" id="SVGID_24_">
		<g class="st24">
			
				<linearGradient id="SVGID_25_" gradientUnits="userSpaceOnUse" x1="-191.7968" y1="249.5279" x2="-191.7968" y2="380.2518" gradientTransform="matrix(1 0 0 1 236.3716 -286.2666)">
				<stop  offset="0" style="stop-color:#FFFFFF"/>
				<stop  offset="1" style="stop-color:#000000"/>
			</linearGradient>
			<rect x="32.8" y="47.8" class="st25" width="23.6" height="40.1"/>
		</g>
	</mask>
	<path class="st26" d="M50,73.6c-6.2,0-7.4,7.5-8.9,14.3c-16.7-34.1-3.2-40-3-40.1c9,6.7,16,24.3,18.3,30.8
		C55.1,75.6,53.3,73.6,50,73.6"/>
	<defs>
		<filter id="Adobe_OpacityMaskFilter_8_" filterUnits="userSpaceOnUse" x="42.1" y="54.2" width="14.3" height="24.4">
			<feColorMatrix  type="matrix" values="1 0 0 0 0  0 1 0 0 0  0 0 1 0 0  0 0 0 1 0"/>
		</filter>
	</defs>
	<mask maskUnits="userSpaceOnUse" x="42.1" y="54.2" width="14.3" height="24.4" id="SVGID_26_">
		<g class="st27">
			
				<linearGradient id="SVGID_27_" gradientUnits="userSpaceOnUse" x1="-194.8712" y1="341.5694" x2="-226.4434" y2="396.2557" gradientTransform="matrix(1 0 0 1 269.5498 -319.1875)">
				<stop  offset="0" style="stop-color:#FFFFFF"/>
				<stop  offset="1" style="stop-color:#000000"/>
			</linearGradient>
			<rect x="42.1" y="54.2" class="st28" width="14.3" height="24.4"/>
		</g>
	</mask>
	<path class="st29" d="M50,73.6c-1.7,0-3,0.6-4.1,1.5c-5.7-13.1-3.8-18.6-1.7-20.8c6,8.1,10.4,19.4,12.2,24.4
		C55.1,75.6,53.3,73.6,50,73.6"/>
	<defs>
		<filter id="Adobe_OpacityMaskFilter_9_" filterUnits="userSpaceOnUse" x="2.9" y="2.1" width="35.2" height="44.2">
			<feColorMatrix  type="matrix" values="1 0 0 0 0  0 1 0 0 0  0 0 1 0 0  0 0 0 1 0"/>
		</filter>
	</defs>
	<mask maskUnits="userSpaceOnUse" x="2.9" y="2.1" width="35.2" height="44.2" id="SVGID_28_">
		<g class="st30">
			
				<linearGradient id="SVGID_29_" gradientUnits="userSpaceOnUse" x1="-159.9301" y1="487.5037" x2="-72.7096" y2="437.1477" gradientTransform="matrix(1 0 0 1 130.1636 -434.3496)">
				<stop  offset="0" style="stop-color:#FFFFFF"/>
				<stop  offset="0.1715" style="stop-color:#C5C5C5"/>
				<stop  offset="0.3977" style="stop-color:#808080"/>
				<stop  offset="0.6019" style="stop-color:#494949"/>
				<stop  offset="0.7767" style="stop-color:#212121"/>
				<stop  offset="0.9151" style="stop-color:#090909"/>
				<stop  offset="1" style="stop-color:#000000"/>
			</linearGradient>
			<rect x="2.9" y="2.1" class="st31" width="35.2" height="44.2"/>
		</g>
	</mask>
	<path class="st32" d="M3.7,34.3c-0.1-0.6-0.1-1.3-0.2-1.9C2.6,21.4,0.4,2.1,16.8,2.1c7.5,0,16.2,5.1,21.3,10.5
		c-4.8-3-9.6-4.6-14-4.6C10.1,7.9,3.4,23.8,5.9,46.2C5,42.1,4.3,38.1,3.7,34.3"/>
	<defs>
		<filter id="Adobe_OpacityMaskFilter_10_" filterUnits="userSpaceOnUse" x="19.8" y="45.2" width="11" height="52.7">
			<feColorMatrix  type="matrix" values="1 0 0 0 0  0 1 0 0 0  0 0 1 0 0  0 0 0 1 0"/>
		</filter>
	</defs>
	<mask maskUnits="userSpaceOnUse" x="19.8" y="45.2" width="11" height="52.7" id="SVGID_30_">
		<g class="st33">
			
				<linearGradient id="SVGID_31_" gradientUnits="userSpaceOnUse" x1="-165.0567" y1="230.8834" x2="-165.0567" y2="346.33" gradientTransform="matrix(1 0 0 1 190.3809 -250.7031)">
				<stop  offset="0" style="stop-color:#FFFFFF"/>
				<stop  offset="1" style="stop-color:#000000"/>
			</linearGradient>
			<rect x="19.8" y="45.2" class="st34" width="11" height="52.7"/>
		</g>
	</mask>
	<path class="st35" d="M28.5,97.9c-0.3-0.2-0.6-0.4-0.9-0.6c-5.3-12.9-9.1-30.1-7.3-41.1c0.9-5.3,3.3-9.1,7.1-10.5
		c1.1-0.4,2.3-0.6,3.4-0.5c-0.9,0-2,0.2-2.8,0.5c-4.4,1.6-6.4,6.1-7.1,10.4c-0.4,2.6-0.5,4.9-0.4,7.5c0,3,0.5,6.9,1,9.9
		c0.6,3.8,1.4,7.4,2.5,11.1C25.1,89.1,26.7,93.7,28.5,97.9"/>
	<defs>
		<filter id="Adobe_OpacityMaskFilter_11_" filterUnits="userSpaceOnUse" x="57.2" y="2.7" width="34.4" height="35.1">
			<feColorMatrix  type="matrix" values="1 0 0 0 0  0 1 0 0 0  0 0 1 0 0  0 0 0 1 0"/>
		</filter>
	</defs>
	<mask maskUnits="userSpaceOnUse" x="57.2" y="2.7" width="34.4" height="35.1" id="SVGID_32_">
		<g class="st36">
			
				<linearGradient id="SVGID_33_" gradientUnits="userSpaceOnUse" x1="-248.7713" y1="460.2407" x2="-248.7713" y2="502.026" gradientTransform="matrix(1 0 0 1 323.1172 -464.0029)">
				<stop  offset="0" style="stop-color:#FFFFFF"/>
				<stop  offset="1" style="stop-color:#000000"/>
			</linearGradient>
			<rect x="57.2" y="2.7" class="st37" width="34.4" height="35.1"/>
		</g>
	</mask>
	<path class="st38" d="M60,23.1c7.1,7.8,13.2,14.8,19.1,13.8c1.2-0.2,2.2-0.8,3.1-1.6l0,0c0.2-0.2,1.2-1.1,1.2-1.3
		c0,0,1.1-1.4,1.2-1.6c0,0,1.1-1.7,1.1-1.8c0,0,1.3-2.3,1.3-2.6l0.7-1.7c0.6-1.4,1.1-2.9,1.5-4.3c0.5-1.8,0.9-3.6,1.3-5.4
		c0.8-4.5,1.1-9.3,0.5-13.9c2.7,15.1-4.6,33.6-11.4,35c-6.8,1.4-13.9-8.2-22.4-17.6c0,0,0,0,0,0C58.1,21.2,59,22.1,60,23.1"/>
</g>
</svg>
