<svg id="Layer_1" data-name="Layer 1" xmlns="http://www.w3.org/2000/svg" viewBox="0 0 40 39.157"><defs><style>.cls-1{fill:#25d2fd;}.cls-2{fill:#032831;}.cls-3{fill:#e0f7ff;}</style></defs><title>photoshop</title><path class="cls-1" d="M39.711,7.213A6.949,6.949,0,0,0,32.793.377Q20.037.371,7.281.379a5.865,5.865,0,0,0-.807.042A6.962,6.962,0,0,0,.276,7.6q-.014,11.968,0,23.938a7.977,7.977,0,0,0,.136,1.61A6.962,6.962,0,0,0,7.363,38.83q6.327,0,12.654,0H32.773a6.965,6.965,0,0,0,6.939-6.87Q39.745,19.586,39.711,7.213ZM38.058,31.179a5.811,5.811,0,0,1-6,6q-6.048.006-12.1,0v0q-5.971,0-11.943,0a5.768,5.768,0,0,1-6.067-5.931c-.044-5.464-.017-10.929-.018-16.394,0-2.243.044-4.487-.006-6.729A5.989,5.989,0,0,1,8.154,2c8.012.069,16.025.018,24.038.027a5.8,5.8,0,0,1,5.766,4.723,5.4,5.4,0,0,1,.1,1.054Q38.064,19.491,38.058,31.179Z"/><path class="cls-2" d="M19.959,37.176q-5.971,0-11.943,0a5.768,5.768,0,0,1-6.067-5.931c-.044-5.464-.017-10.929-.018-16.394,0-2.243.044-4.487-.006-6.729A5.989,5.989,0,0,1,8.154,2c8.012.069,16.025.018,24.038.027a5.8,5.8,0,0,1,5.766,4.723,5.4,5.4,0,0,1,.1,1.054q.007,11.688,0,23.376a5.811,5.811,0,0,1-6,6q-6.048.006-12.1,0Z"/><path class="cls-3" d="M22.336,25.3q0-.372.005-.744c0-.294-.043-.756.385-.5a5.826,5.826,0,0,0,3.226.857,3.078,3.078,0,0,0,.795-.114,1.16,1.16,0,0,0,.513-2.046A7.022,7.022,0,0,0,25.4,21.56a10.879,10.879,0,0,1-1.345-.8,3.686,3.686,0,0,1-1.673-3.751,3.647,3.647,0,0,1,2.843-3.134,7.759,7.759,0,0,1,4.336.128c.479.137.445.5.445.925v1.66a.389.389,0,0,1-.031.186c-.085.159-.3.051-.416-.008a5.783,5.783,0,0,0-2.683-.609,2.915,2.915,0,0,0-.5.041,1.273,1.273,0,0,0-1.193.934,1.226,1.226,0,0,0,.662,1.308,21.616,21.616,0,0,0,2.109,1.188,5.663,5.663,0,0,1,2,1.665,3.9,3.9,0,0,1-2.027,5.862,7.655,7.655,0,0,1-5.055-.178c-.488-.171-.542-.55-.539-1.019Z"/><path class="cls-3" d="M15.644,9.168a49.947,49.947,0,0,0-5.206,0c-.484.006-.634.155-.631.64.02,2.816.01,5.632.01,8.447,0,2.833.006,5.665-.008,8.5,0,.421.186.473.559.465.522-.011,1.046,0,1.569,0,.466,0,.819.061.811-.506-.024-1.854,0-3.709-.016-5.564,0-.334.092-.436.428-.42a14.679,14.679,0,0,0,1.717,0c3.016-.208,5.678-1.819,5.884-5.571A5.306,5.306,0,0,0,15.644,9.168ZM14.567,18.1c-.488.021-.978-.007-1.465.012-.287.011-.374-.092-.369-.376.016-.943.006-1.887.006-2.83q0-1.39,0-2.78c0-.191-.013-.373.267-.382a8.655,8.655,0,0,1,2.71.157A2.64,2.64,0,0,1,17.7,13.969,3.123,3.123,0,0,1,14.567,18.1Z"/></svg>