<svg id="Layer_1" data-name="Layer 1" xmlns="http://www.w3.org/2000/svg" viewBox="0 0 30 22.929"><defs><style>.cls-1{fill:#cc6698;}</style></defs><title>sass</title><path class="cls-1" d="M25.758,13.136a6.141,6.141,0,0,0-2.7.629,5.656,5.656,0,0,1-.605-1.4,3.728,3.728,0,0,1-.052-1.176,10.136,10.136,0,0,1,.353-1.268c0-.054-.065-.31-.667-.314s-1.115.116-1.176.274a5.923,5.923,0,0,0-.248.889,21.4,21.4,0,0,1-1.823,3.508,3.634,3.634,0,0,1-.413-1.024,3.732,3.732,0,0,1-.052-1.177,10.245,10.245,0,0,1,.353-1.268c0-.053-.065-.309-.667-.313s-1.116.115-1.176.274-.125.53-.248.889-1.58,3.6-1.961,4.444c-.194.429-.364.773-.483,1.008h0l-.02.042c-.1.2-.163.311-.163.311l0,0c-.081.147-.168.283-.211.283a1.889,1.889,0,0,1,.013-.928c.217-1.125.737-2.88.732-2.941,0-.031.1-.337-.34-.5a.541.541,0,0,0-.614.1c-.038,0-.065.092-.065.092s.472-1.974-.9-1.974A4.1,4.1,0,0,0,9.984,13.4c-.37.2-1.162.635-2,1.1l-.964.53-.065-.07C5.285,13.177,2.2,11.919,2.334,9.528c.048-.869.35-3.158,5.922-5.934,4.564-2.274,8.218-1.648,8.849-.261.9,1.981-1.953,5.664-6.692,6.2A3.56,3.56,0,0,1,7.419,8.77c-.249-.274-.286-.286-.379-.235-.151.084-.055.326,0,.471a2.811,2.811,0,0,0,1.712,1.346A9.077,9.077,0,0,0,14.308,9.8c2.872-1.111,5.114-4.2,4.456-6.784C18.094.392,13.738-.472,9.615.993A20.7,20.7,0,0,0,2.6,5.019C.325,7.143-.037,8.991.112,9.764.642,12.508,4.425,14.3,5.94,15.62l-.209.115c-.759.376-3.643,1.885-4.364,3.479-.818,1.809.13,3.107.758,3.281A4.653,4.653,0,0,0,7.14,20.463a5.045,5.045,0,0,0,.449-4.634l-.019-.035.594-.351c.387-.227.766-.438,1.1-.618a7.368,7.368,0,0,0-.389,1.984,4.128,4.128,0,0,0,.889,2.876.973.973,0,0,0,.719.235c.641,0,.933-.533,1.255-1.163.395-.773.745-1.673.745-1.673s-.44,2.431.758,2.431c.436,0,.876-.566,1.071-.854v0l.033-.056c.046-.069.071-.113.071-.113l0-.013c.175-.3.564-1,1.148-2.144.754-1.48,1.477-3.334,1.477-3.334a9.864,9.864,0,0,0,.287,1.2,11.235,11.235,0,0,0,.623,1.4c-.175.242-.283.382-.283.382l0,.007c-.14.186-.3.386-.46.581a16.856,16.856,0,0,0-1.4,1.752.477.477,0,0,0,.131.64,1.177,1.177,0,0,0,.732.118,3.324,3.324,0,0,0,1.1-.25,3.677,3.677,0,0,0,.943-.5,2.1,2.1,0,0,0,.9-1.857,3.762,3.762,0,0,0-.343-1.311c.053-.076.107-.153.16-.231a24.948,24.948,0,0,0,1.634-2.823,9.88,9.88,0,0,0,.287,1.2,8.459,8.459,0,0,0,.53,1.2A5.116,5.116,0,0,0,20.3,16.574c-.345.991-.075,1.44.431,1.542a1.554,1.554,0,0,0,.8-.161,3.7,3.7,0,0,0,1.007-.518,2.258,2.258,0,0,0,1.111-1.843,3.477,3.477,0,0,0-.252-1.091,5.694,5.694,0,0,1,2.892-.334c2.6.3,3.1,1.923,3.007,2.6a1.711,1.711,0,0,1-.824,1.163c-.182.113-.237.152-.222.236.022.121.106.117.261.091a2.024,2.024,0,0,0,1.412-1.8C29.978,14.867,28.455,13.122,25.758,13.136Zm-20,6.743c-.86.937-2.061,1.292-2.576.993-.556-.322-.335-1.7.719-2.7a13.6,13.6,0,0,1,2.024-1.509l.533-.32.058-.033v0l.133-.079A3.727,3.727,0,0,1,5.759,19.879Zm6.261-4.257c-.3.73-.926,2.6-1.307,2.5-.328-.086-.527-1.5-.066-2.9a6.45,6.45,0,0,1,1.02-1.869c.469-.525.985-.7,1.111-.484A9.564,9.564,0,0,1,12.02,15.622Zm5.173,2.469c-.127.066-.244.108-.3.075-.039-.023.053-.111.053-.111s.647-.7.9-1.013c.148-.184.32-.4.507-.648,0,.025,0,.049,0,.073A2.166,2.166,0,0,1,17.193,18.091Zm3.985-.909c-.1-.067-.079-.285.232-.963a3.619,3.619,0,0,1,.886-1.143,1.63,1.63,0,0,1-1.118,2.106Z"/></svg>