<svg id="Layer_1" data-name="Layer 1" xmlns="http://www.w3.org/2000/svg" viewBox="0 0 136.129 33.861"><defs><style>.cls-1{fill:#fff;}</style></defs><title>stroke</title><path class="cls-1" d="M118.083,19.038H102.861c-1.519,0-2.75-.944-2.75-2.107s1.231-2.108,2.75-2.108h15.222c1.519,0,2.75.944,2.75,2.108S119.6,19.038,118.083,19.038Z"/><path class="cls-1" d="M89.812,19.038H74.588c-1.518,0-2.75-.944-2.75-2.107s1.232-2.108,2.75-2.108H89.812c1.519,0,2.75.944,2.75,2.108S91.331,19.038,89.812,19.038Z"/><path class="cls-1" d="M61.54,19.038H46.317c-1.519,0-2.75-.944-2.75-2.107s1.231-2.108,2.75-2.108H61.54c1.519,0,2.75.944,2.75,2.108S63.059,19.038,61.54,19.038Z"/><path class="cls-1" d="M33.269,19.038H18.045c-1.518,0-2.75-.944-2.75-2.107s1.232-2.108,2.75-2.108H33.269c1.519,0,2.75.944,2.75,2.108S34.788,19.038,33.269,19.038Z"/></svg>