<svg id="Layer_1" data-name="Layer 1" xmlns="http://www.w3.org/2000/svg" viewBox="0 0 15.2 16.7"><defs><style>.cls-1{fill:#85ea2d;}.cls-2{fill:#173647;}</style></defs><title>swagger</title><path class="cls-1" d="M7.6,15.52a7.17,7.17,0,1,1,7.17-7.17A7.18,7.18,0,0,1,7.6,15.52Z"/><path class="cls-2" d="M7.6,1.54A6.81,6.81,0,1,1,.79,8.35,6.81,6.81,0,0,1,7.6,1.54m0-.72a7.53,7.53,0,1,0,7.53,7.53A7.54,7.54,0,0,0,7.6.82Z"/><path class="cls-2" d="M4.81,5.92c0,.25,0,.52,0,.78a6.93,6.93,0,0,1-.1.78,1.41,1.41,0,0,1-.62.87A1.88,1.88,0,0,1,4.81,10c0,.34,0,.68,0,1s.13.33.4.33H5.6v.81c-.8.14-1.45-.09-1.62-.77a5.9,5.9,0,0,1-.1-.75c0-.27,0-.54,0-.81-.06-.73-.16-1-.86-1V7.89l.15,0a.57.57,0,0,0,.64-.52,4.93,4.93,0,0,0,.07-.66c0-.42,0-.84.09-1.26A1,1,0,0,1,5.06,4.5h.55v.83H5.38C4.87,5.33,4.85,5.5,4.81,5.92Zm1,1.9h0a.53.53,0,0,0-.55.5.54.54,0,0,0,.5.56h0a.52.52,0,0,0,.55-.49v0A.54.54,0,0,0,5.78,7.82Zm1.81,0a.5.5,0,0,0-.52.49v0a.53.53,0,1,0,1.06,0A.51.51,0,0,0,7.59,7.82Zm1.86,0a.54.54,0,0,0-.55.53.53.53,0,0,0,.53.53h0a.53.53,0,1,0,0-1.06Zm2.55,0a.53.53,0,0,1-.59-.44,3.31,3.31,0,0,1-.09-.62c0-.39,0-.78-.05-1.17-.06-.92-.72-1.24-1.69-1.08v.79H10c.2,0,.36.08.38.31s0,.42,0,.63c0,.42.07.84.14,1.26a1.28,1.28,0,0,0,.59.8,1.64,1.64,0,0,0-.69,1.39c0,.38,0,.77,0,1.15s-.14.46-.49.47H9.59v.82a5.6,5.6,0,0,0,.58,0,1,1,0,0,0,1.06-.88,7.63,7.63,0,0,0,.09-1c0-.29,0-.58,0-.87a.65.65,0,0,1,.7-.66l.12,0V7.88Z"/></svg>