<svg id="Layer_1" data-name="Layer 1" xmlns="http://www.w3.org/2000/svg" viewBox="0 0 30 30.999"><defs><style>.cls-1{fill:#fff;}</style></defs><title>think</title><path class="cls-1" d="M13.617,11.524a.776.776,0,0,0,.019,1.552l.006.517A1.277,1.277,0,0,1,12.4,12.6a.746.746,0,0,0-.144-.023.777.777,0,0,0-.767.785.769.769,0,0,0,.162.444,1.268,1.268,0,0,1,.894.4l-.383.347a.765.765,0,0,0-.593-.247h-.022a.772.772,0,0,0-.726.784.758.758,0,0,0,.646.744,1.276,1.276,0,0,1,.824-.331l.006.518a.776.776,0,0,0,.019,1.551.724.724,0,0,0,.143-.027,1.276,1.276,0,0,1,1.223-1.024l.007.517a.776.776,0,1,0,.785.767l-.029-2.414a.431.431,0,0,0-.862.011l-.517.006A.949.949,0,0,1,14,14.45a.935.935,0,0,1,.433.112L14.4,12.291A.777.777,0,0,0,13.617,11.524Z"/><path class="cls-1" d="M18.894,14.222a.429.429,0,0,0-.057,0,.764.764,0,0,0-.569.261l-.391-.338a1.268,1.268,0,0,1,.883-.424.77.77,0,0,0,.152-.448.778.778,0,0,0-.786-.767.724.724,0,0,0-.143.027,1.276,1.276,0,0,1-1.223,1.024l-.006-.517a.776.776,0,1,0-.785-.766L16,14.543a.924.924,0,0,1,.429-.122.95.95,0,0,1,.96.937l-.517.006a.431.431,0,1,0-.862.011l.029,2.413A.776.776,0,1,0,16.8,17l-.006-.517a1.274,1.274,0,0,1,1.247.994.677.677,0,0,0,.144.023.776.776,0,1,0-.018-1.551l-.006-.517a1.268,1.268,0,0,1,.831.311.769.769,0,0,0-.1-1.524Z"/><path class="cls-1" d="M19.954,8.321A7.965,7.965,0,0,0,7.219,16.256a8.238,8.238,0,0,0,1.928,3.685,8.425,8.425,0,0,1,.777,1.038l.01.018a8.572,8.572,0,0,1,.592,1.1,8.089,8.089,0,0,1,.526,1.6,5.4,5.4,0,0,1,.161,1.151l0,.175,7.821-.094,0-.174a4.485,4.485,0,0,1,.133-1.156,8.164,8.164,0,0,1,.488-1.613,8.553,8.553,0,0,1,.565-1.118l.009-.018a8.443,8.443,0,0,1,.753-1.056,8.248,8.248,0,0,0,1.839-3.731A7.952,7.952,0,0,0,19.954,8.321Zm-.616,7.855a1.273,1.273,0,0,1,.132.536,1.3,1.3,0,0,1-1.277,1.309c-.048,0-.088-.019-.134-.023a1.276,1.276,0,0,1-1.233,1.073,1.293,1.293,0,0,1-1.308-1.277l-.026-2.112-.532.007.026,2.111a1.3,1.3,0,0,1-1.278,1.309,1.278,1.278,0,0,1-1.258-1.044,1.117,1.117,0,0,1-.133.026,1.294,1.294,0,0,1-1.308-1.277,1.255,1.255,0,0,1,.119-.54,1.269,1.269,0,0,1-.023-2.373,1.267,1.267,0,0,1,1.14-1.843,1.207,1.207,0,0,1,.134.022,1.276,1.276,0,0,1,1.232-1.073,1.3,1.3,0,0,1,1.309,1.277l.034,2.887.532-.006-.034-2.887a1.293,1.293,0,0,1,1.277-1.308,1.275,1.275,0,0,1,1.258,1.043c.046-.005.086-.025.133-.026a1.3,1.3,0,0,1,1.309,1.278,1.273,1.273,0,0,1-.125.536,1.271,1.271,0,0,1,.034,2.375Z"/><rect class="cls-1" x="14.283" y="0.567" width="1.119" height="2.519" transform="translate(-0.021 0.178) rotate(-0.687)"/><rect class="cls-1" x="20.045" y="2.914" width="2.52" height="1.12" transform="translate(7.851 20.355) rotate(-60.708)"/><rect class="cls-1" x="7.862" y="2.369" width="1.12" height="2.52" transform="translate(-0.673 4.806) rotate(-30.686)"/><rect class="cls-1" x="24.816" y="7.571" width="2.521" height="1.12" transform="translate(-0.496 14.453) rotate(-30.7)"/><rect class="cls-1" x="3.203" y="7.138" width="1.12" height="2.521" transform="translate(-5.402 7.57) rotate(-60.702)"/><rect class="cls-1" x="26.62" y="13.988" width="2.52" height="1.119" transform="translate(-0.173 0.336) rotate(-0.687)"/><rect class="cls-1" x="0.855" y="14.297" width="2.52" height="1.119" transform="translate(-0.175 0.026) rotate(-0.675)"/><rect class="cls-1" x="25.672" y="19.747" width="1.119" height="2.521" transform="translate(-4.918 33.622) rotate(-60.736)"/><rect class="cls-1" x="2.657" y="20.715" width="2.521" height="1.12" transform="translate(-10.31 4.979) rotate(-30.69)"/><path class="cls-1" d="M15.186,29.977a2.485,2.485,0,0,0,2.2-1.4l-4.435.053A2.487,2.487,0,0,0,15.186,29.977Z"/><path class="cls-1" d="M11.334,27.118a.533.533,0,0,0,.032.046.656.656,0,0,0,.237.213h0a.662.662,0,0,0,.312.082l.877-.011,4.726-.056.877-.011a.644.644,0,0,0,.31-.09h0a.658.658,0,0,0,.232-.219c.011-.016.021-.029.031-.046a.661.661,0,0,0,.09-.323l-.009-.7-7.821.093.009.7A.65.65,0,0,0,11.334,27.118Z"/></svg>