<svg id="Layer_1" data-name="Layer 1" xmlns="http://www.w3.org/2000/svg" viewBox="0 0 38.161 30.629"><defs><style>.cls-1{fill:#fff;}</style></defs><title>user</title><path class="cls-1" d="M26.592,14.828h-.818a2.137,2.137,0,0,1,.129.731V18.4a.93.93,0,0,1-.052.3H27.2a.917.917,0,0,0,.916-.916V16.354A1.528,1.528,0,0,0,26.592,14.828Z"/><path class="cls-1" d="M23.549,13.788h-1.87a1.528,1.528,0,0,0-1.526,1.526V18.4a.306.306,0,0,0,.3.3H24.77a.3.3,0,0,0,.3-.3v-3.09A1.528,1.528,0,0,0,23.549,13.788Z"/><path class="cls-1" d="M22.614,9.622a1.835,1.835,0,1,0,1.835,1.835A1.837,1.837,0,0,0,22.614,9.622Z"/><path class="cls-1" d="M26.21,11.539A1.372,1.372,0,0,0,25,13.556a1.388,1.388,0,0,0,.671.617,1.372,1.372,0,1,0,.541-2.634Z"/><path class="cls-1" d="M18.636,14.828h.818a2.113,2.113,0,0,0-.129.731V18.4a.93.93,0,0,0,.052.3H18.026a.917.917,0,0,1-.916-.916V16.354A1.528,1.528,0,0,1,18.636,14.828Z"/><path class="cls-1" d="M19.018,11.539a1.372,1.372,0,0,1,1.212,2.017,1.388,1.388,0,0,1-.671.617,1.372,1.372,0,1,1-.541-2.634Z"/><path class="cls-1" d="M36.952,26.538l-6.015-5.6a10.474,10.474,0,0,0-5.584-16.28A12.967,12.967,0,0,0,15.555.63C2.951.259-3.457,17.248,6.352,25.261a14.079,14.079,0,0,0,18.881-.37,10.67,10.67,0,0,0,3.929-2.07l6.015,5.606a1.3,1.3,0,0,0,1.775-1.889ZM18.933,2.012a13.205,13.205,0,0,1,4.656,2.3,10.786,10.786,0,0,0-1.384-.054,10.408,10.408,0,0,0-1.477.145,11.668,11.668,0,0,0-1.909-2.422Zm.821,2.607a10.469,10.469,0,0,0-3.731,1.872V1.605C17.437,1.806,18.728,2.905,19.754,4.619ZM15.086,1.605V7.32q-.158.157-.309.321a23.749,23.749,0,0,1-4.561-.567C11.322,3.983,13.08,1.89,15.086,1.605ZM11.994,15.161a10.447,10.447,0,0,0,1.934,5.681,24.737,24.737,0,0,0-4.006.573A23.388,23.388,0,0,1,9,15.161ZM12,14.224H9a23.4,23.4,0,0,1,.923-6.255,24.725,24.725,0,0,0,4.106.579A10.459,10.459,0,0,0,12,14.224ZM6.124,5.568A13.151,13.151,0,0,1,12.29,1.987a11.619,11.619,0,0,0-3,4.864A15.715,15.715,0,0,1,6.082,5.615C6.1,5.6,6.111,5.582,6.124,5.568Zm-.674.755A16.328,16.328,0,0,0,9.007,7.739a24.364,24.364,0,0,0-.946,6.485H2.441A13.1,13.1,0,0,1,5.45,6.323ZM2.441,15.161h5.62a24.37,24.37,0,0,0,.946,6.485A16.324,16.324,0,0,0,5.45,23.061,13.092,13.092,0,0,1,2.441,15.161Zm9.732,12.211a13.141,13.141,0,0,1-6.093-3.6,15.715,15.715,0,0,1,3.212-1.236,11.627,11.627,0,0,0,3,4.864ZM10.216,22.31a23.924,23.924,0,0,1,4.435-.563c.141.158.285.311.435.46V27.78C13.08,27.5,11.322,25.4,10.216,22.31Zm5.807,5.47V23.035a10.5,10.5,0,0,0,3.659,1.849A5.528,5.528,0,0,1,16.023,27.78Zm2.8-.383A11.6,11.6,0,0,0,20.649,25.1a10.569,10.569,0,0,0,2.132.16q.3-.009.589-.034A13.122,13.122,0,0,1,18.82,27.4Zm9.157-5.981h0c-.066.055-.132.107-.2.159l-.053.041-.086.066-.045.033-.17.122-.04.028-.1.067-.033.023c-.11.073-.222.144-.336.212l-.026.015c-.12.072-.242.141-.366.206l-.007,0c-.172.091-.348.177-.527.256h0q-.312.139-.636.253h0a8.474,8.474,0,0,1-1.4.364h0a8.631,8.631,0,0,1-1.224.122,8.8,8.8,0,0,1-1.2-.052h0a8.686,8.686,0,0,1-.972-.165h0a8.616,8.616,0,0,1-3.039-1.364h0q-.231-.163-.45-.341l-.013-.011c-.045-.036-.089-.073-.133-.11l-.017-.015c-.045-.037-.088-.076-.132-.114l-.014-.013c-.046-.04-.09-.081-.135-.122l-.006-.006-.136-.129,0,0c-.046-.044-.091-.089-.136-.134h0c-.111-.112-.218-.228-.322-.346-.041-.046-.081-.092-.121-.139l-.011-.013c-.039-.046-.077-.093-.115-.14l-.012-.015c-.037-.045-.073-.091-.109-.138L15.64,20c-.036-.047-.072-.1-.107-.143l-.011-.014c-.036-.05-.072-.1-.107-.151l-.008-.01c-.036-.051-.071-.1-.106-.156l-.005-.007c-.035-.054-.07-.108-.1-.162l0,0c-.035-.055-.069-.11-.1-.166A8.567,8.567,0,0,1,13.868,15c0-.07,0-.139,0-.208V14.6c0-.058,0-.116.005-.173v-.013c0-.062.006-.124.009-.186a8.58,8.58,0,0,1,1.206-3.886c.028-.046.056-.092.085-.138l.022-.036.087-.134L15.3,10l.087-.128.028-.04L15.51,9.7l.022-.031.1-.138.015-.019c.036-.046.072-.093.109-.139l.014-.017.119-.144,0-.005.124-.144c.15-.171.307-.335.47-.494.045-.043.089-.085.135-.127l.012-.012.133-.121.019-.016.136-.118.017-.014.14-.116.016-.013.144-.113.015-.011.15-.112.012-.009.156-.111.008-.006.158-.107a8.578,8.578,0,0,1,2.876-1.224c.074-.016.148-.032.223-.046l.023,0q.1-.019.2-.036l.043-.008.189-.028.053-.007c.071-.01.142-.018.214-.026q.341-.036.689-.047a8.694,8.694,0,0,1,1.167.046c.095.01.19.022.284.036h0a8.459,8.459,0,0,1,1.3.288l.006,0c.058.017.116.036.173.055a8.542,8.542,0,0,1,.957.38q.1.048.2.1l.011.006q.206.1.406.218l.014.008c.061.036.122.071.182.108l.02.013q.191.115.375.243l.037.025.157.112.023.017c.062.045.123.091.184.138a8.618,8.618,0,0,1,.219,13.484Z"/></svg>