<svg id="Layer_1" data-name="Layer 1" xmlns="http://www.w3.org/2000/svg" viewBox="0 0 302.49 302.6"><defs><style>.cls-1{fill:#21759b;}</style></defs><title>wordpress</title><path class="cls-1" d="M22.55,151.52A128.71,128.71,0,0,0,95.07,267.33L33.69,99.15A128.2,128.2,0,0,0,22.55,151.52Z"/><path class="cls-1" d="M238.09,145c0-15.91-5.71-26.92-10.61-35.49C221,98.94,214.84,90,214.84,79.36c0-11.82,9-22.83,21.61-22.83.57,0,1.11.07,1.67.1A128.65,128.65,0,0,0,43.71,80.85c3,.09,5.87.15,8.28.15,13.46,0,34.3-1.63,34.3-1.63C93.22,79,94,89.15,87.11,90c0,0-7,.82-14.73,1.22l46.86,139.38,28.16-84.45L127.35,91.19c-6.92-.41-13.49-1.23-13.49-1.23-6.93-.4-6.12-11,.81-10.6,0,0,21.25,1.64,33.9,1.64,13.45,0,34.29-1.64,34.29-1.64,6.94-.4,7.76,9.78.83,10.6,0,0-7,.82-14.73,1.23l46.5,138.32,12.83-42.89c5.57-17.79,9.8-30.58,9.8-41.59Z"/><path class="cls-1" d="M153.48,162.78,114.87,275a128.8,128.8,0,0,0,79.08-2,12.27,12.27,0,0,1-.91-1.77Z"/><path class="cls-1" d="M264.13,89.78A97.68,97.68,0,0,1,265,103c0,13-2.44,27.73-9.79,46.09l-39.3,113.63a128.71,128.71,0,0,0,48.22-173Z"/><path class="cls-1" d="M151.22,1.53c-82.7,0-150,67.28-150,150s67.29,150,150,150,150-67.28,150-150S233.93,1.53,151.22,1.53Zm0,293.11c-78.91,0-143.11-64.2-143.11-143.12S72.31,8.41,151.22,8.41s143.12,64.2,143.12,143.11S230.14,294.64,151.22,294.64Z"/></svg>