<svg id="Layer_1" data-name="Layer 1" xmlns="http://www.w3.org/2000/svg" viewBox="0 0 138.44 83.11">
    <defs>
        <style>.cls-1{fill:currentColor;}</style>
    </defs>
    <title>arrow</title>
    <rect class="cls-1" x="79.05" y="33.49" width="80.17" height="16.13" rx="8.06"
        transform="translate(77.58 160.69) rotate(-90)" />
    <path class="cls-1"
        d="M92.71,33.08H48.26c-2.61,0-5.22.06-7.83.06-.73,0-.43-.54-.12-.9.44-.52.91-1,1.38-1.5.94-1,1.92-1.88,2.84-2.84l4.76-5c3.49-3.63,3.7-8.61.48-11.87a8.41,8.41,0,0,0-11.9.27Q26,23.16,14.19,35.07c-3.59,3.65-3.55,8.35,0,12.07,1.73,1.83,3.55,3.58,5.34,5.36q9.16,9.18,18.33,18.35a8.28,8.28,0,0,0,8.68,2.24,7.44,7.44,0,0,0,5.4-6.16c.61-3.09-.6-5.61-2.74-7.8-3.16-3.25-6.26-6.57-9.51-10,3,0,6,.07,9,.07H92.71a8.07,8.07,0,0,0,0-16.13Z" />
</svg>