<svg id="Layer_1" data-name="Layer 1" xmlns="http://www.w3.org/2000/svg" viewBox="0 0 138.44 83.11">
    <defs>
        <style>.cls-1{fill:currentColor;}</style>
    </defs>
    <title>arrow</title>
    <rect class="cls-1" x="-21.45" y="33.08" width="71.75" height="17.83" rx="8.92"
        transform="translate(56.43 27.57) rotate(90)" />
    <path class="cls-1"
        d="M122.05,33.08H72.91c-2.88,0-5.77.07-8.65.07-.81,0-.49-.6-.15-1,.49-.57,1-1.12,1.54-1.66,1-1.06,2.11-2.07,3.14-3.14L74,21.9c3.86-4,4.1-9.51.54-13.12a9.3,9.3,0,0,0-13.16.29q-13.15,13-26.18,26.22c-4,4-3.93,9.23-.06,13.33,1.92,2,3.93,4,5.9,5.93Q51.22,64.69,61.36,74.84A9.12,9.12,0,0,0,71,77.31a8.25,8.25,0,0,0,6-6.81c.67-3.41-.67-6.19-3-8.62-3.5-3.59-6.93-7.26-10.52-11,3.32,0,6.64.07,10,.07h48.71a8.92,8.92,0,1,0,0-17.83Z" />
</svg>