<?xml version="1.0" encoding="utf-8"?>
<!-- Generator: Adobe Illustrator 24.0.3, SVG Export Plug-In . SVG Version: 6.00 Build 0)  -->
<svg version="1.1" id="Layer_1" xmlns="http://www.w3.org/2000/svg" xmlns:xlink="http://www.w3.org/1999/xlink" x="0px" y="0px"
	 viewBox="0 0 50 57.4" style="enable-background:new 0 0 50 57.4;" xml:space="preserve">
<style type="text/css">
	.st0{opacity:0.5;fill:#9ECAFF;}
	.st1{opacity:0.5;}
	.st2{fill:#9ECAFF;}
</style>
<path class="st0" d="M0.1,38.9v0.2h20.6c0.1,0,0.2-0.1,0.2-0.2v-0.9H24V39c0,0.1,0.1,0.2,0.2,0.2h2.1v2.2c0,0.1,0.1,0.2,0.2,0.2h3.4
	c0.1,0.2,0.2,0.4,0.5,0.4c0.3,0,0.5-0.2,0.5-0.5c0-0.3-0.2-0.5-0.5-0.5c-0.2,0-0.4,0.2-0.5,0.4h-3.4v-2.2c0-0.1-0.1-0.2-0.2-0.2
	h-2.1v-0.9c0-0.1-0.1-0.2-0.2-0.2h-3.2c-0.1,0-0.2,0.1-0.2,0.2v0.9H0.1z M30.2,41.4c0-0.1,0.1-0.2,0.2-0.2c0.1,0,0.2,0.1,0.2,0.2
	c0,0.1-0.1,0.2-0.2,0.2C30.3,41.6,30.2,41.5,30.2,41.4z"/>
<path class="st0" d="M21.2,40.9H0.1v0.2h21.1c0.1,0,0.2-0.1,0.2-0.2v-1h2.1v1c0,0.1,0.1,0.2,0.2,0.2h2v2.4c0,0.1,0.1,0.2,0.2,0.2
	h8.7c0.1,0.2,0.2,0.3,0.5,0.3c0.3,0,0.5-0.2,0.5-0.5c0-0.3-0.2-0.5-0.5-0.5c-0.2,0-0.4,0.2-0.5,0.4h-8.7v-2.4c0-0.1-0.1-0.2-0.2-0.2
	h-2v-1c0-0.1-0.1-0.2-0.2-0.2h-2.1c-0.1,0-0.2,0.1-0.2,0.2V40.9z M34.8,43.6c0-0.1,0.1-0.2,0.2-0.2c0.1,0,0.2,0.1,0.2,0.2
	c0,0.1-0.1,0.2-0.2,0.2C34.9,43.8,34.8,43.7,34.8,43.6z"/>
<path class="st0" d="M27.3,54.6c0.3,0,0.5,0.2,0.5,0.5s-0.2,0.5-0.5,0.5c-0.2,0-0.4-0.2-0.5-0.4H0.1V55h26.8
	C26.9,54.7,27.1,54.6,27.3,54.6z"/>
<path class="st0" d="M26.9,53.4c0.1-0.2,0.2-0.4,0.5-0.4c0.3,0,0.5,0.2,0.5,0.5S27.6,54,27.3,54c-0.2,0-0.4-0.2-0.5-0.4H0.1v-0.2
	H26.9z"/>
<g class="st1">
	<path class="st2" d="M24.6,52.1H0.1v0.2h24.5c0.1,0.2,0.2,0.4,0.5,0.4c0.3,0,0.5-0.2,0.5-0.5c0-0.3-0.2-0.5-0.5-0.5
		C24.8,51.7,24.6,51.9,24.6,52.1z M24.9,52.2c0-0.1,0.1-0.2,0.2-0.2c0.1,0,0.2,0.1,0.2,0.2c0,0.1-0.1,0.2-0.2,0.2
		C25,52.4,24.9,52.3,24.9,52.2z"/>
	<path class="st2" d="M0.1,50.6v0.2h42.1c0.1,0.2,0.2,0.4,0.5,0.4c0.3,0,0.5-0.2,0.5-0.5c0-0.3-0.2-0.5-0.5-0.5
		c-0.2,0-0.4,0.2-0.5,0.4H0.1z M42.4,50.7c0-0.1,0.1-0.2,0.2-0.2c0.1,0,0.2,0.1,0.2,0.2c0,0.1-0.1,0.2-0.2,0.2
		C42.5,50.8,42.4,50.8,42.4,50.7z"/>
</g>
<g class="st1">
	<path class="st2" d="M26,48.8H0.1V49H26c0.1,0,0.2-0.1,0.2-0.2v-3h9.6c0,0.2,0.2,0.4,0.5,0.4c0.3,0,0.5-0.2,0.5-0.5
		c0-0.3-0.2-0.5-0.5-0.5c-0.2,0-0.4,0.1-0.5,0.3h-9.7c-0.1,0-0.2,0.1-0.2,0.2V48.8z"/>
</g>
<g class="st1">
	<path class="st2" d="M28.9,56.5H0.1v0.2h28.9c0.1,0,0.2-0.1,0.2-0.2v-4.2h13.1c0,0.2,0.2,0.4,0.5,0.4c0.3,0,0.5-0.2,0.5-0.5
		c0-0.3-0.2-0.5-0.5-0.5c-0.2,0-0.4,0.1-0.5,0.3H29.1c-0.1,0-0.2,0.1-0.2,0.2V56.5z M42.5,52.2c0-0.1,0.1-0.2,0.2-0.2
		c0.1,0,0.2,0.1,0.2,0.2c0,0.1-0.1,0.2-0.2,0.2C42.6,52.4,42.5,52.3,42.5,52.2z"/>
</g>
<path class="st0" d="M24.1,43c-0.3,0-0.5,0.2-0.5,0.5c0,0.2,0.2,0.4,0.4,0.5v1.4c-0.2,0-0.4,0.2-0.4,0.5c0,0.3,0.2,0.5,0.5,0.5
	c0.3,0,0.5-0.2,0.5-0.5c0-0.2-0.2-0.4-0.4-0.5v-1.4c0.2,0,0.4-0.2,0.4-0.5C24.6,43.2,24.4,43,24.1,43z M24.1,45.6
	c0.1,0,0.2,0.1,0.2,0.2c0,0.1-0.1,0.2-0.2,0.2c-0.1,0-0.2-0.1-0.2-0.2C24,45.7,24,45.6,24.1,45.6z M24.1,43.3c0.1,0,0.2,0.1,0.2,0.2
	c0,0.1-0.1,0.2-0.2,0.2c-0.1,0-0.2-0.1-0.2-0.2C24,43.3,24,43.3,24.1,43.3z"/>
<path class="st0" d="M28,46.6c-0.3,0-0.5,0.2-0.5,0.5c0,0.2,0.2,0.4,0.4,0.5V49c-0.2,0-0.4,0.2-0.4,0.5c0,0.3,0.2,0.5,0.5,0.5
	c0.3,0,0.5-0.2,0.5-0.5c0-0.2-0.2-0.4-0.4-0.5v-1.4c0.2,0,0.4-0.2,0.4-0.5C28.4,46.8,28.2,46.6,28,46.6z M28,49.3
	c0.1,0,0.2,0.1,0.2,0.2c0,0.1-0.1,0.2-0.2,0.2c-0.1,0-0.2-0.1-0.2-0.2C27.8,49.4,27.9,49.3,28,49.3z M28,46.9c0.1,0,0.2,0.1,0.2,0.2
	c0,0.1-0.1,0.2-0.2,0.2c-0.1,0-0.2-0.1-0.2-0.2C27.8,47,27.9,46.9,28,46.9z"/>
<path class="st0" d="M29.7,46.6c-0.3,0-0.5,0.2-0.5,0.5c0,0.2,0.2,0.4,0.4,0.5V49c-0.2,0-0.4,0.2-0.4,0.5c0,0.3,0.2,0.5,0.5,0.5
	s0.5-0.2,0.5-0.5c0-0.2-0.2-0.4-0.4-0.5v-1.4c0.2,0,0.4-0.2,0.4-0.5C30.2,46.8,30,46.6,29.7,46.6z M29.7,49.3c0.1,0,0.2,0.1,0.2,0.2
	c0,0.1-0.1,0.2-0.2,0.2c-0.1,0-0.2-0.1-0.2-0.2C29.6,49.4,29.7,49.3,29.7,49.3z M29.7,46.9c0.1,0,0.2,0.1,0.2,0.2
	c0,0.1-0.1,0.2-0.2,0.2c-0.1,0-0.2-0.1-0.2-0.2C29.6,47,29.7,46.9,29.7,46.9z"/>
<path class="st0" d="M31.5,46.6c-0.3,0-0.5,0.2-0.5,0.5c0,0.2,0.2,0.4,0.4,0.5V49c-0.2,0-0.4,0.2-0.4,0.5c0,0.3,0.2,0.5,0.5,0.5
	c0.3,0,0.5-0.2,0.5-0.5c0-0.2-0.2-0.4-0.4-0.5v-1.4c0.2,0,0.4-0.2,0.4-0.5C32,46.8,31.8,46.6,31.5,46.6z M31.5,49.3
	c0.1,0,0.2,0.1,0.2,0.2c0,0.1-0.1,0.2-0.2,0.2c-0.1,0-0.2-0.1-0.2-0.2C31.4,49.4,31.4,49.3,31.5,49.3z M31.5,46.9
	c0.1,0,0.2,0.1,0.2,0.2c0,0.1-0.1,0.2-0.2,0.2c-0.1,0-0.2-0.1-0.2-0.2C31.4,47,31.4,46.9,31.5,46.9z"/>
<path class="st0" d="M33.3,46.6c-0.3,0-0.5,0.2-0.5,0.5c0,0.2,0.2,0.4,0.4,0.5V49c-0.2,0-0.4,0.2-0.4,0.5c0,0.3,0.2,0.5,0.5,0.5
	c0.3,0,0.5-0.2,0.5-0.5c0-0.2-0.2-0.4-0.4-0.5v-1.4c0.2,0,0.4-0.2,0.4-0.5C33.8,46.8,33.6,46.6,33.3,46.6z M33.3,49.3
	c0.1,0,0.2,0.1,0.2,0.2c0,0.1-0.1,0.2-0.2,0.2c-0.1,0-0.2-0.1-0.2-0.2C33.1,49.4,33.2,49.3,33.3,49.3z M33.3,46.9
	c0.1,0,0.2,0.1,0.2,0.2c0,0.1-0.1,0.2-0.2,0.2c-0.1,0-0.2-0.1-0.2-0.2C33.1,47,33.2,46.9,33.3,46.9z"/>
<path class="st0" d="M9.6,41.7c-0.3,0-0.5,0.2-0.5,0.5c0,0.2,0.2,0.4,0.4,0.5V44c-0.2,0-0.4,0.2-0.4,0.5c0,0.3,0.2,0.5,0.5,0.5
	s0.5-0.2,0.5-0.5c0-0.2-0.2-0.4-0.4-0.5v-1.4c0.2,0,0.4-0.2,0.4-0.5C10.1,41.9,9.9,41.7,9.6,41.7z M9.6,44.3c0.1,0,0.2,0.1,0.2,0.2
	c0,0.1-0.1,0.2-0.2,0.2c-0.1,0-0.2-0.1-0.2-0.2C9.5,44.4,9.5,44.3,9.6,44.3z M9.6,42c0.1,0,0.2,0.1,0.2,0.2c0,0.1-0.1,0.2-0.2,0.2
	c-0.1,0-0.2-0.1-0.2-0.2C9.5,42.1,9.5,42,9.6,42z"/>
<path class="st0" d="M11.4,41.7c-0.3,0-0.5,0.2-0.5,0.5c0,0.2,0.2,0.4,0.4,0.5V44c-0.2,0-0.4,0.2-0.4,0.5c0,0.3,0.2,0.5,0.5,0.5
	s0.5-0.2,0.5-0.5c0-0.2-0.2-0.4-0.4-0.5v-1.4c0.2,0,0.4-0.2,0.4-0.5C11.9,41.9,11.7,41.7,11.4,41.7z M11.4,44.3
	c0.1,0,0.2,0.1,0.2,0.2c0,0.1-0.1,0.2-0.2,0.2c-0.1,0-0.2-0.1-0.2-0.2C11.3,44.4,11.4,44.3,11.4,44.3z M11.4,42
	c0.1,0,0.2,0.1,0.2,0.2c0,0.1-0.1,0.2-0.2,0.2c-0.1,0-0.2-0.1-0.2-0.2C11.3,42.1,11.4,42,11.4,42z"/>
<path class="st0" d="M13.3,41.7c-0.3,0-0.5,0.2-0.5,0.5c0,0.2,0.2,0.4,0.4,0.5V44c-0.2,0-0.4,0.2-0.4,0.5c0,0.3,0.2,0.5,0.5,0.5
	c0.3,0,0.5-0.2,0.5-0.5c0-0.2-0.2-0.4-0.4-0.5v-1.4c0.2,0,0.4-0.2,0.4-0.5C13.7,41.9,13.5,41.7,13.3,41.7z M13.3,44.3
	c0.1,0,0.2,0.1,0.2,0.2c0,0.1-0.1,0.2-0.2,0.2c-0.1,0-0.2-0.1-0.2-0.2C13.1,44.4,13.2,44.3,13.3,44.3z M13.3,42
	c0.1,0,0.2,0.1,0.2,0.2c0,0.1-0.1,0.2-0.2,0.2c-0.1,0-0.2-0.1-0.2-0.2C13.1,42.1,13.2,42,13.3,42z"/>
<path class="st0" d="M15.1,41.7c-0.3,0-0.5,0.2-0.5,0.5c0,0.2,0.2,0.4,0.4,0.4V44c-0.2,0-0.4,0.2-0.4,0.4c0,0.3,0.2,0.5,0.5,0.5
	c0.3,0,0.5-0.2,0.5-0.5c0-0.2-0.2-0.4-0.4-0.4v-1.4c0.2,0,0.4-0.2,0.4-0.4C15.6,41.9,15.4,41.7,15.1,41.7z M15.1,44.3
	c0.1,0,0.2,0.1,0.2,0.2c0,0.1-0.1,0.2-0.2,0.2c-0.1,0-0.2-0.1-0.2-0.2C14.9,44.4,15,44.3,15.1,44.3z M15.1,42c0.1,0,0.2,0.1,0.2,0.2
	c0,0.1-0.1,0.2-0.2,0.2c-0.1,0-0.2-0.1-0.2-0.2C14.9,42.1,15,42,15.1,42z"/>
<path class="st0" d="M16.9,41.7c-0.3,0-0.5,0.2-0.5,0.5c0,0.2,0.2,0.4,0.4,0.4V44c-0.2,0-0.4,0.2-0.4,0.4c0,0.3,0.2,0.5,0.5,0.5
	c0.3,0,0.5-0.2,0.5-0.5c0-0.2-0.2-0.4-0.4-0.4v-1.4c0.2,0,0.4-0.2,0.4-0.4C17.4,41.9,17.2,41.7,16.9,41.7z M16.9,44.3
	c0.1,0,0.2,0.1,0.2,0.2c0,0.1-0.1,0.2-0.2,0.2c-0.1,0-0.2-0.1-0.2-0.2C16.7,44.4,16.8,44.3,16.9,44.3z M16.9,42
	c0.1,0,0.2,0.1,0.2,0.2c0,0.1-0.1,0.2-0.2,0.2c-0.1,0-0.2-0.1-0.2-0.2C16.7,42.1,16.8,42,16.9,42z"/>
<path class="st0" d="M18.7,41.7c-0.3,0-0.5,0.2-0.5,0.5c0,0.2,0.2,0.4,0.4,0.4V44c-0.2,0-0.4,0.2-0.4,0.4c0,0.3,0.2,0.5,0.5,0.5
	c0.3,0,0.5-0.2,0.5-0.5c0-0.2-0.2-0.4-0.4-0.4v-1.4c0.2,0,0.4-0.2,0.4-0.4C19.2,41.9,19,41.7,18.7,41.7z M18.7,44.3
	c0.1,0,0.2,0.1,0.2,0.2c0,0.1-0.1,0.2-0.2,0.2c-0.1,0-0.2-0.1-0.2-0.2C18.6,44.4,18.6,44.3,18.7,44.3z M18.7,42
	c0.1,0,0.2,0.1,0.2,0.2c0,0.1-0.1,0.2-0.2,0.2c-0.1,0-0.2-0.1-0.2-0.2C18.6,42.1,18.6,42,18.7,42z"/>
<path class="st0" d="M27.2,40c0,0.3,0.2,0.5,0.5,0.5c0.2,0,0.4-0.2,0.5-0.4h6.4c0,0.2,0.2,0.4,0.5,0.4c0.3,0,0.5-0.2,0.5-0.5
	c0-0.3-0.2-0.5-0.5-0.5c-0.2,0-0.4,0.2-0.5,0.4h-6.4c0-0.2-0.2-0.4-0.5-0.4C27.4,39.5,27.2,39.7,27.2,40z M34.8,40
	c0-0.1,0.1-0.2,0.2-0.2c0.1,0,0.2,0.1,0.2,0.2s-0.1,0.2-0.2,0.2C34.9,40.2,34.8,40.1,34.8,40z M27.5,40c0-0.1,0.1-0.2,0.2-0.2
	c0.1,0,0.2,0.1,0.2,0.2s-0.1,0.2-0.2,0.2C27.6,40.2,27.5,40.1,27.5,40z"/>
<path class="st0" d="M25.1,38.1c0,0.3,0.2,0.5,0.5,0.5c0.2,0,0.4-0.2,0.5-0.4h7.4c0,0.2,0.2,0.4,0.5,0.4c0.3,0,0.5-0.2,0.5-0.5
	s-0.2-0.5-0.5-0.5c-0.2,0-0.4,0.2-0.5,0.4H26c0-0.2-0.2-0.4-0.5-0.4C25.3,37.6,25.1,37.8,25.1,38.1z M33.6,38.1
	c0-0.1,0.1-0.2,0.2-0.2c0.1,0,0.2,0.1,0.2,0.2s-0.1,0.2-0.2,0.2C33.7,38.3,33.6,38.2,33.6,38.1z M25.4,38.1c0-0.1,0.1-0.2,0.2-0.2
	c0.1,0,0.2,0.1,0.2,0.2s-0.1,0.2-0.2,0.2C25.4,38.3,25.4,38.2,25.4,38.1z"/>
<path class="st0" d="M18.7,36.5c0,0.3,0.2,0.5,0.5,0.5c0.2,0,0.4-0.2,0.5-0.4h9.2c0,0.2,0.2,0.4,0.5,0.4c0.3,0,0.5-0.2,0.5-0.5
	S29.5,36,29.3,36c-0.2,0-0.4,0.2-0.5,0.4h-9.2c-0.1-0.2-0.2-0.4-0.5-0.4C18.9,36,18.7,36.2,18.7,36.5z"/>
<path class="st0" d="M30.6,53.6c0,0.3,0.2,0.5,0.5,0.5c0.2,0,0.4-0.2,0.5-0.4h14.8c0,0.2,0.2,0.4,0.5,0.4c0.3,0,0.5-0.2,0.5-0.5
	s-0.2-0.5-0.5-0.5c-0.2,0-0.4,0.2-0.5,0.4H31.6c0-0.2-0.2-0.4-0.5-0.4C30.8,53.1,30.6,53.3,30.6,53.6z M46.7,53.6
	c0-0.1,0.1-0.2,0.2-0.2c0.1,0,0.2,0.1,0.2,0.2c0,0.1-0.1,0.2-0.2,0.2C46.8,53.8,46.7,53.7,46.7,53.6z M30.9,53.6
	c0-0.1,0.1-0.2,0.2-0.2c0.1,0,0.2,0.1,0.2,0.2c0,0.1-0.1,0.2-0.2,0.2C31,53.8,30.9,53.7,30.9,53.6z"/>
<path class="st0" d="M30.7,55.1c0,0.3,0.2,0.5,0.5,0.5c0.2,0,0.4-0.2,0.5-0.4H48c0.1,0.2,0.2,0.4,0.5,0.4c0.3,0,0.5-0.2,0.5-0.5
	c0-0.3-0.2-0.5-0.5-0.5c-0.2,0-0.4,0.2-0.5,0.4H31.6c0-0.2-0.2-0.4-0.5-0.4C30.9,54.6,30.7,54.9,30.7,55.1z M48.3,55.1
	c0-0.1,0.1-0.2,0.2-0.2c0.1,0,0.2,0.1,0.2,0.2c0,0.1-0.1,0.2-0.2,0.2C48.4,55.3,48.3,55.2,48.3,55.1z M31,55.1
	c0-0.1,0.1-0.2,0.2-0.2c0.1,0,0.2,0.1,0.2,0.2c0,0.1-0.1,0.2-0.2,0.2C31.1,55.3,31,55.2,31,55.1z"/>
<path class="st0" d="M12.6,34.6c0,0.3,0.2,0.5,0.5,0.5c0.2,0,0.4-0.2,0.5-0.4h19.8c0,0.2,0.2,0.4,0.5,0.4c0.3,0,0.5-0.2,0.5-0.5
	c0-0.3-0.2-0.5-0.5-0.5c-0.2,0-0.4,0.2-0.5,0.4H13.6c-0.1-0.2-0.2-0.4-0.5-0.4C12.8,34.1,12.6,34.3,12.6,34.6z M33.6,34.6
	c0-0.1,0.1-0.2,0.2-0.2c0.1,0,0.2,0.1,0.2,0.2c0,0.1-0.1,0.2-0.2,0.2C33.7,34.7,33.6,34.6,33.6,34.6z M12.9,34.6
	c0-0.1,0.1-0.2,0.2-0.2c0.1,0,0.2,0.1,0.2,0.2c0,0.1-0.1,0.2-0.2,0.2C13,34.7,12.9,34.6,12.9,34.6z"/>
<path class="st0" d="M20.1,43.5c0,0.2,0.2,0.4,0.4,0.5v1.6H0.1v0.2h20.5c0.1,0,0.2-0.1,0.2-0.2V44c0.2-0.1,0.4-0.2,0.4-0.5
	c0-0.3-0.2-0.5-0.5-0.5C20.3,43.1,20.1,43.3,20.1,43.5z M20.8,43.5c0,0.1-0.1,0.2-0.2,0.2c-0.1,0-0.2-0.1-0.2-0.2
	c0-0.1,0.1-0.2,0.2-0.2C20.7,43.4,20.8,43.4,20.8,43.5z"/>
<path class="st0" d="M21.9,42.4c0,0.2,0.2,0.4,0.4,0.5v4.3H0.1v0.2h22.2c0.1,0,0.2-0.1,0.2-0.2v-4.4c0.2-0.1,0.4-0.2,0.4-0.5
	c0-0.3-0.2-0.5-0.5-0.5C22.1,41.9,21.9,42.1,21.9,42.4z M22.5,42.4c0,0.1-0.1,0.2-0.2,0.2c-0.1,0-0.2-0.1-0.2-0.2s0.1-0.2,0.2-0.2
	C22.4,42.2,22.5,42.3,22.5,42.4z"/>
<g class="st1">
	<path class="st2" d="M22.2,8.5v0.9c0,0.1,0.1,0.2,0.2,0.2h3.2c0.1,0,0.2-0.1,0.2-0.2V8.5h2.1c0.1,0,0.2-0.1,0.2-0.2V6.2h3.4
		c0,0.2,0.2,0.4,0.5,0.4c0.3,0,0.5-0.2,0.5-0.5c0-0.3-0.2-0.5-0.5-0.5c-0.2,0-0.4,0.1-0.5,0.4h-3.4c-0.1,0-0.2,0.1-0.2,0.2v2.2h-2.1
		c-0.1,0-0.2,0.1-0.2,0.2v0.9h-3.2V8.5c0-0.1-0.1-0.2-0.2-0.2H0.1v0.2H22.2z M32,5.9c0.1,0,0.2,0.1,0.2,0.2c0,0.1-0.1,0.2-0.2,0.2
		c-0.1,0-0.2-0.1-0.2-0.2C31.8,6,31.9,5.9,32,5.9z"/>
	<path class="st2" d="M22.7,7.9c0,0.1,0.1,0.2,0.2,0.2h2.1c0.1,0,0.2-0.1,0.2-0.2v-1h2c0.1,0,0.2-0.1,0.2-0.2V4.3h4.1
		c0,0.2,0.2,0.4,0.5,0.4c0.3,0,0.5-0.2,0.5-0.5c0-0.3-0.2-0.5-0.5-0.5c-0.2,0-0.4,0.1-0.5,0.3h-4.1c-0.1,0-0.2,0.1-0.2,0.2v2.4h-2
		c-0.1,0-0.2,0.1-0.2,0.2v1H23v-1c0-0.1-0.1-0.2-0.2-0.2H0.1v0.2h22.6V7.9z M32,4c0.1,0,0.2,0.1,0.2,0.2c0,0.1-0.1,0.2-0.2,0.2
		c-0.1,0-0.2-0.1-0.2-0.2C31.8,4.1,31.9,4,32,4z"/>
</g>
<path class="st0" d="M20.5,31.9v0.9c0,0.1,0.1,0.2,0.2,0.2H24c0.1,0,0.2-0.1,0.2-0.2v-0.9h2.1c0.1,0,0.2-0.1,0.2-0.2v-2.2h3.4
	c0,0.2,0.2,0.4,0.5,0.4c0.3,0,0.5-0.2,0.5-0.5c0-0.3-0.2-0.5-0.5-0.5c-0.2,0-0.4,0.1-0.5,0.4h-3.4c-0.1,0-0.2,0.1-0.2,0.2v2.2h-2.1
	c-0.1,0-0.2,0.1-0.2,0.2v0.9h-3.2v-0.9c0-0.1-0.1-0.2-0.2-0.2H0v0.2H20.5z M30.3,29.2c0.1,0,0.2,0.1,0.2,0.2c0,0.1-0.1,0.2-0.2,0.2
	c-0.1,0-0.2-0.1-0.2-0.2C30.1,29.3,30.2,29.2,30.3,29.2z"/>
<path class="st0" d="M21.1,30.9c0,0.1,0.1,0.2,0.2,0.2h2.1c0.1,0,0.2-0.1,0.2-0.2v-1h2c0.1,0,0.2-0.1,0.2-0.2v-2.4h5
	c0,0.2,0.2,0.4,0.5,0.4c0.3,0,0.5-0.2,0.5-0.5c0-0.3-0.2-0.5-0.5-0.5c-0.2,0-0.4,0.1-0.5,0.3h-5.1c-0.1,0-0.2,0.1-0.2,0.2v2.4h-2
	c-0.1,0-0.2,0.1-0.2,0.2v1h-2.1v-1c0-0.1-0.1-0.2-0.2-0.2H0v0.2h21.1V30.9z M31.3,27c0.1,0,0.2,0.1,0.2,0.2c0,0.1-0.1,0.2-0.2,0.2
	c-0.1,0-0.2-0.1-0.2-0.2C31.1,27.1,31.2,27,31.3,27z"/>
<g class="st1">
	<path class="st2" d="M25.5,5.5C25.8,5.5,26,5.3,26,5c0-0.2-0.2-0.4-0.4-0.5V0.1h-0.2v4.4C25.2,4.6,25,4.8,25,5
		C25,5.3,25.3,5.5,25.5,5.5z M25.5,4.8c0.1,0,0.2,0.1,0.2,0.2c0,0.1-0.1,0.2-0.2,0.2c-0.1,0-0.2-0.1-0.2-0.2
		C25.4,4.9,25.4,4.8,25.5,4.8z"/>
	<path class="st2" d="M24,7.1c0.3,0,0.5-0.2,0.5-0.5c0-0.2-0.2-0.4-0.4-0.5v-6h-0.2v6c-0.2,0.1-0.4,0.2-0.4,0.5
		C23.5,6.9,23.7,7.1,24,7.1z M24,6.4c0.1,0,0.2,0.1,0.2,0.2c0,0.1-0.1,0.2-0.2,0.2c-0.1,0-0.2-0.1-0.2-0.2C23.8,6.5,23.9,6.4,24,6.4
		z"/>
	<path class="st2" d="M22,5c0,0.3,0.2,0.5,0.5,0.5c0.3,0,0.5-0.2,0.5-0.5c0-0.2-0.2-0.4-0.4-0.5V0.1h-0.2v4.4C22.2,4.6,22,4.8,22,5z
		 M22.5,4.8c0.1,0,0.2,0.1,0.2,0.2c0,0.1-0.1,0.2-0.2,0.2c-0.1,0-0.2-0.1-0.2-0.2C22.3,4.9,22.4,4.8,22.5,4.8z"/>
</g>
<path class="st0" d="M19,10.5c0.3,0,0.5-0.2,0.5-0.5c0-0.3-0.2-0.5-0.5-0.5c-0.2,0-0.4,0.2-0.5,0.4H0.1v0.2h18.4
	C18.6,10.3,18.8,10.5,19,10.5z"/>
<path class="st0" d="M19,12c0.3,0,0.5-0.2,0.5-0.5S19.3,11,19,11c-0.2,0-0.4,0.2-0.5,0.4H0.1v0.2h18.4C18.6,11.8,18.8,12,19,12z"/>
<path class="st0" d="M23.6,13.1c0.1,0.2,0.2,0.4,0.5,0.4c0.3,0,0.5-0.2,0.5-0.5c0-0.3-0.2-0.5-0.5-0.5c-0.2,0-0.4,0.2-0.5,0.4H0.1
	v0.2H23.6z"/>
<path class="st0" d="M19.4,16.5c0.3,0,0.5-0.2,0.5-0.5c0-0.3-0.2-0.5-0.5-0.5c-0.2,0-0.4,0.2-0.5,0.4H0.1v0.2h18.8
	C19,16.3,19.2,16.5,19.4,16.5z"/>
<path class="st0" d="M18.9,17.6c0.1,0.2,0.2,0.4,0.5,0.4c0.3,0,0.5-0.2,0.5-0.5s-0.2-0.5-0.5-0.5c-0.2,0-0.4,0.2-0.5,0.4H0.1v0.2
	H18.9z"/>
<g class="st1">
	<path class="st2" d="M17.1,19.4c0.3,0,0.5-0.2,0.5-0.5c0-0.3-0.2-0.5-0.5-0.5c-0.2,0-0.4,0.2-0.5,0.4H0.1V19h16.6
		C16.7,19.2,16.9,19.4,17.1,19.4z M17.1,18.7c0.1,0,0.2,0.1,0.2,0.2c0,0.1-0.1,0.2-0.2,0.2c-0.1,0-0.2-0.1-0.2-0.2
		C16.9,18.8,17,18.7,17.1,18.7z"/>
	<path class="st2" d="M34.2,20.5c0.1,0.2,0.2,0.4,0.5,0.4c0.3,0,0.5-0.2,0.5-0.5c0-0.3-0.2-0.5-0.5-0.5c-0.2,0-0.4,0.2-0.5,0.4H0.1
		v0.2H34.2z M34.7,20.2c0.1,0,0.2,0.1,0.2,0.2s-0.1,0.2-0.2,0.2c-0.1,0-0.2-0.1-0.2-0.2S34.6,20.2,34.7,20.2z"/>
</g>
<g class="st1">
	<path class="st2" d="M25.9,25.3c0,0.1,0.1,0.2,0.2,0.2h8.2c0.1,0.2,0.2,0.3,0.5,0.3c0.3,0,0.5-0.2,0.5-0.5c0-0.3-0.2-0.5-0.5-0.5
		c-0.2,0-0.4,0.2-0.5,0.4h-8.1v-3c0-0.1-0.1-0.2-0.2-0.2H0v0.2h25.9V25.3z"/>
</g>
<g class="st1">
	<path class="st2" d="M21,18.6c0,0.1,0.1,0.2,0.2,0.2h13.1c0.1,0.2,0.2,0.3,0.5,0.3c0.3,0,0.5-0.2,0.5-0.5c0-0.3-0.2-0.5-0.5-0.5
		c-0.2,0-0.4,0.2-0.5,0.4H21.2v-4c0-0.1-0.1-0.2-0.2-0.2H0.1v0.2H21V18.6z M34.7,18.5c0.1,0,0.2,0.1,0.2,0.2c0,0.1-0.1,0.2-0.2,0.2
		c-0.1,0-0.2-0.1-0.2-0.2C34.6,18.5,34.6,18.5,34.7,18.5z"/>
</g>
<path class="st0" d="M27.1,3.1c0.2,0,0.4-0.2,0.5-0.4h2c0.1,0.2,0.2,0.4,0.5,0.4c0.3,0,0.5-0.2,0.5-0.5S30.3,2.1,30,2.1
	c-0.2,0-0.4,0.1-0.5,0.4h-2c-0.1-0.2-0.2-0.4-0.5-0.4c-0.3,0-0.5,0.2-0.5,0.5S26.9,3.1,27.1,3.1z M30,2.4c0.1,0,0.2,0.1,0.2,0.2
	c0,0.1-0.1,0.2-0.2,0.2c-0.1,0-0.2-0.1-0.2-0.2C29.8,2.5,29.9,2.4,30,2.4z M27.1,2.4c0.1,0,0.2,0.1,0.2,0.2c0,0.1-0.1,0.2-0.2,0.2
	C27,2.8,27,2.7,27,2.6C27,2.5,27,2.4,27.1,2.4z"/>
<path class="st0" d="M27.1,1.4c0.2,0,0.4-0.2,0.5-0.4h4.8c0.1,0.2,0.2,0.4,0.5,0.4c0.3,0,0.5-0.2,0.5-0.5c0-0.3-0.2-0.5-0.5-0.5
	c-0.2,0-0.4,0.1-0.5,0.4h-4.8c-0.1-0.2-0.2-0.4-0.5-0.4c-0.3,0-0.5,0.2-0.5,0.5C26.7,1.2,26.9,1.4,27.1,1.4z M32.9,0.8
	c0.1,0,0.2,0.1,0.2,0.2s-0.1,0.2-0.2,0.2c-0.1,0-0.2-0.1-0.2-0.2S32.8,0.8,32.9,0.8z M27.1,0.8c0.1,0,0.2,0.1,0.2,0.2
	s-0.1,0.2-0.2,0.2C27,1.1,27,1,27,0.9S27,0.8,27.1,0.8z"/>
<path class="st0" d="M17.8,3.2c0.2,0,0.4-0.2,0.5-0.4h1.9c0.1,0.2,0.2,0.4,0.5,0.4c0.3,0,0.5-0.2,0.5-0.5s-0.2-0.5-0.5-0.5
	c-0.2,0-0.4,0.1-0.5,0.4h-1.9c-0.1-0.2-0.2-0.4-0.5-0.4c-0.3,0-0.5,0.2-0.5,0.5S17.6,3.2,17.8,3.2z M20.6,2.5c0.1,0,0.2,0.1,0.2,0.2
	c0,0.1-0.1,0.2-0.2,0.2c-0.1,0-0.2-0.1-0.2-0.2C20.5,2.6,20.5,2.5,20.6,2.5z M17.8,2.5c0.1,0,0.2,0.1,0.2,0.2c0,0.1-0.1,0.2-0.2,0.2
	c-0.1,0-0.2-0.1-0.2-0.2C17.7,2.6,17.7,2.5,17.8,2.5z"/>
<path class="st0" d="M17.8,1.6c0.2,0,0.4-0.2,0.5-0.4h1.9c0.1,0.2,0.2,0.4,0.5,0.4c0.3,0,0.5-0.2,0.5-0.5s-0.2-0.5-0.5-0.5
	c-0.2,0-0.4,0.1-0.5,0.4h-1.9c-0.1-0.2-0.2-0.4-0.5-0.4c-0.3,0-0.5,0.2-0.5,0.5S17.6,1.6,17.8,1.6z M20.6,0.9c0.1,0,0.2,0.1,0.2,0.2
	s-0.1,0.2-0.2,0.2c-0.1,0-0.2-0.1-0.2-0.2S20.5,0.9,20.6,0.9z M17.8,0.9C17.9,0.9,18,1,18,1.1s-0.1,0.2-0.2,0.2
	c-0.1,0-0.2-0.1-0.2-0.2S17.7,0.9,17.8,0.9z"/>
<path class="st0" d="M17.8,4.9c0.2,0,0.4-0.2,0.5-0.4h1.9c0.1,0.2,0.2,0.4,0.5,0.4c0.3,0,0.5-0.2,0.5-0.5c0-0.3-0.2-0.5-0.5-0.5
	c-0.2,0-0.4,0.1-0.5,0.4h-1.9c-0.1-0.2-0.2-0.4-0.5-0.4c-0.3,0-0.5,0.2-0.5,0.5C17.4,4.7,17.6,4.9,17.8,4.9z M20.6,4.2
	c0.1,0,0.2,0.1,0.2,0.2c0,0.1-0.1,0.2-0.2,0.2c-0.1,0-0.2-0.1-0.2-0.2C20.5,4.3,20.5,4.2,20.6,4.2z M17.8,4.2c0.1,0,0.2,0.1,0.2,0.2
	c0,0.1-0.1,0.2-0.2,0.2c-0.1,0-0.2-0.1-0.2-0.2C17.7,4.3,17.7,4.2,17.8,4.2z"/>
<path class="st0" d="M1.2,3.2c0.2,0,0.4-0.2,0.5-0.4h7.7C9.3,3,9.5,3.2,9.7,3.2c0.3,0,0.5-0.2,0.5-0.5S10,2.2,9.7,2.2
	c-0.2,0-0.4,0.1-0.5,0.4H1.6C1.6,2.4,1.4,2.2,1.2,2.2c-0.3,0-0.5,0.2-0.5,0.5S0.9,3.2,1.2,3.2z M9.7,2.5c0.1,0,0.2,0.1,0.2,0.2
	c0,0.1-0.1,0.2-0.2,0.2c-0.1,0-0.2-0.1-0.2-0.2C9.6,2.6,9.6,2.5,9.7,2.5z M1.2,2.5c0.1,0,0.2,0.1,0.2,0.2c0,0.1-0.1,0.2-0.2,0.2
	C1.1,2.9,1,2.8,1,2.7C1,2.6,1.1,2.5,1.2,2.5z"/>
<path class="st0" d="M1.2,1.6c0.2,0,0.4-0.2,0.5-0.4h7.7c0.1,0.2,0.2,0.4,0.5,0.4c0.3,0,0.5-0.2,0.5-0.5S10,0.6,9.7,0.6
	C9.5,0.6,9.3,0.8,9.3,1H1.6C1.6,0.8,1.4,0.6,1.2,0.6c-0.3,0-0.5,0.2-0.5,0.5S0.9,1.6,1.2,1.6z M9.7,0.9c0.1,0,0.2,0.1,0.2,0.2
	S9.8,1.3,9.7,1.3c-0.1,0-0.2-0.1-0.2-0.2S9.6,0.9,9.7,0.9z M1.2,0.9c0.1,0,0.2,0.1,0.2,0.2S1.3,1.3,1.2,1.3C1.1,1.3,1,1.2,1,1.1
	S1.1,0.9,1.2,0.9z"/>
<path class="st0" d="M1.2,4.9c0.2,0,0.4-0.2,0.5-0.4h7.7c0.1,0.2,0.2,0.4,0.5,0.4c0.3,0,0.5-0.2,0.5-0.5c0-0.3-0.2-0.5-0.5-0.5
	c-0.2,0-0.4,0.1-0.5,0.4H1.6C1.6,4.1,1.4,3.9,1.2,3.9c-0.3,0-0.5,0.2-0.5,0.5C0.7,4.7,0.9,4.9,1.2,4.9z M9.7,4.2
	c0.1,0,0.2,0.1,0.2,0.2c0,0.1-0.1,0.2-0.2,0.2c-0.1,0-0.2-0.1-0.2-0.2C9.6,4.3,9.6,4.2,9.7,4.2z M1.2,4.2c0.1,0,0.2,0.1,0.2,0.2
	c0,0.1-0.1,0.2-0.2,0.2C1.1,4.6,1,4.5,1,4.4C1,4.3,1.1,4.2,1.2,4.2z"/>
<g class="st1">
	<path class="st2" d="M3,34.9c0.2,0,0.4-0.2,0.5-0.4h7.7c0.1,0.2,0.2,0.4,0.5,0.4c0.3,0,0.5-0.2,0.5-0.5S11.9,34,11.6,34
		c-0.2,0-0.4,0.1-0.5,0.4H3.5C3.4,34.1,3.2,34,3,34c-0.3,0-0.5,0.2-0.5,0.5S2.8,34.9,3,34.9z M11.6,34.3c0.1,0,0.2,0.1,0.2,0.2
		c0,0.1-0.1,0.2-0.2,0.2c-0.1,0-0.2-0.1-0.2-0.2C11.4,34.3,11.5,34.3,11.6,34.3z M3,34.3c0.1,0,0.2,0.1,0.2,0.2
		c0,0.1-0.1,0.2-0.2,0.2c-0.1,0-0.2-0.1-0.2-0.2C2.9,34.3,2.9,34.3,3,34.3z"/>
</g>
<g class="st1">
	<path class="st2" d="M7.7,37c0.2,0,0.4-0.2,0.5-0.4h7.7c0.1,0.2,0.2,0.4,0.5,0.4c0.3,0,0.5-0.2,0.5-0.5S16.5,36,16.3,36
		c-0.2,0-0.4,0.1-0.5,0.4H8.2C8.1,36.2,7.9,36,7.7,36c-0.3,0-0.5,0.2-0.5,0.5S7.4,37,7.7,37z M16.3,36.3c0.1,0,0.2,0.1,0.2,0.2
		c0,0.1-0.1,0.2-0.2,0.2c-0.1,0-0.2-0.1-0.2-0.2C16.1,36.4,16.2,36.3,16.3,36.3z M7.7,36.3c0.1,0,0.2,0.1,0.2,0.2
		c0,0.1-0.1,0.2-0.2,0.2c-0.1,0-0.2-0.1-0.2-0.2C7.5,36.4,7.6,36.3,7.7,36.3z"/>
</g>
<path class="st0" d="M21.3,12c0.2,0,0.4-0.2,0.5-0.4h1.9c0.1,0.2,0.2,0.4,0.5,0.4c0.3,0,0.5-0.2,0.5-0.5c0-0.3-0.2-0.5-0.5-0.5
	c-0.2,0-0.4,0.1-0.5,0.4h-1.9c-0.1-0.2-0.2-0.4-0.5-0.4c-0.3,0-0.5,0.2-0.5,0.5C20.8,11.8,21,12,21.3,12z M24.1,11.3
	c0.1,0,0.2,0.1,0.2,0.2c0,0.1-0.1,0.2-0.2,0.2c-0.1,0-0.2-0.1-0.2-0.2C23.9,11.4,24,11.3,24.1,11.3z M21.3,11.3
	c0.1,0,0.2,0.1,0.2,0.2c0,0.1-0.1,0.2-0.2,0.2c-0.1,0-0.2-0.1-0.2-0.2C21.1,11.4,21.2,11.3,21.3,11.3z"/>
<path class="st0" d="M24.5,27.7c0-0.2-0.2-0.4-0.4-0.5v-1.4c0.2-0.1,0.4-0.2,0.4-0.5c0-0.3-0.2-0.5-0.5-0.5c-0.3,0-0.5,0.2-0.5,0.5
	c0,0.2,0.1,0.4,0.4,0.5v1.4c-0.2,0.1-0.4,0.2-0.4,0.5c0,0.3,0.2,0.5,0.5,0.5C24.3,28.1,24.5,27.9,24.5,27.7z M23.9,25.3
	c0-0.1,0.1-0.2,0.2-0.2c0.1,0,0.2,0.1,0.2,0.2c0,0.1-0.1,0.2-0.2,0.2C24,25.5,23.9,25.4,23.9,25.3z M23.9,27.7
	c0-0.1,0.1-0.2,0.2-0.2c0.1,0,0.2,0.1,0.2,0.2c0,0.1-0.1,0.2-0.2,0.2C24,27.8,23.9,27.7,23.9,27.7z"/>
<path class="st0" d="M32.4,10c0-0.2-0.2-0.4-0.4-0.5V8.4c0.2-0.1,0.4-0.2,0.4-0.5c0-0.3-0.2-0.5-0.5-0.5c-0.3,0-0.5,0.2-0.5,0.5
	c0,0.2,0.1,0.4,0.4,0.5v1.1c-0.2,0.1-0.4,0.2-0.4,0.5c0,0.3,0.2,0.5,0.5,0.5C32.2,10.4,32.4,10.2,32.4,10z M31.8,7.9
	c0-0.1,0.1-0.2,0.2-0.2c0.1,0,0.2,0.1,0.2,0.2c0,0.1-0.1,0.2-0.2,0.2C31.9,8.1,31.8,8,31.8,7.9z M31.8,10c0-0.1,0.1-0.2,0.2-0.2
	c0.1,0,0.2,0.1,0.2,0.2c0,0.1-0.1,0.2-0.2,0.2C31.9,10.1,31.8,10,31.8,10z"/>
<path class="st0" d="M28.4,24c0-0.2-0.2-0.4-0.4-0.5v-1.4c0.2-0.1,0.4-0.2,0.4-0.5c0-0.3-0.2-0.5-0.5-0.5c-0.3,0-0.5,0.2-0.5,0.5
	c0,0.2,0.1,0.4,0.4,0.5v1.4c-0.2,0.1-0.4,0.2-0.4,0.5c0,0.3,0.2,0.5,0.5,0.5C28.2,24.5,28.4,24.2,28.4,24z M27.7,21.6
	c0-0.1,0.1-0.2,0.2-0.2c0.1,0,0.2,0.1,0.2,0.2c0,0.1-0.1,0.2-0.2,0.2C27.8,21.8,27.7,21.7,27.7,21.6z M27.7,24
	c0-0.1,0.1-0.2,0.2-0.2c0.1,0,0.2,0.1,0.2,0.2c0,0.1-0.1,0.2-0.2,0.2C27.8,24.2,27.7,24.1,27.7,24z"/>
<path class="st0" d="M30.1,24c0-0.2-0.2-0.4-0.4-0.5v-1.4c0.2-0.1,0.4-0.2,0.4-0.5c0-0.3-0.2-0.5-0.5-0.5s-0.5,0.2-0.5,0.5
	c0,0.2,0.1,0.4,0.4,0.5v1.4c-0.2,0.1-0.4,0.2-0.4,0.5c0,0.3,0.2,0.5,0.5,0.5S30.1,24.2,30.1,24z M29.5,21.6c0-0.1,0.1-0.2,0.2-0.2
	s0.2,0.1,0.2,0.2c0,0.1-0.1,0.2-0.2,0.2S29.5,21.7,29.5,21.6z M29.5,24c0-0.1,0.1-0.2,0.2-0.2s0.2,0.1,0.2,0.2
	c0,0.1-0.1,0.2-0.2,0.2S29.5,24.1,29.5,24z"/>
<path class="st0" d="M31.9,24c0-0.2-0.2-0.4-0.4-0.5v-1.4c0.2-0.1,0.4-0.2,0.4-0.5c0-0.3-0.2-0.5-0.5-0.5c-0.3,0-0.5,0.2-0.5,0.5
	c0,0.2,0.1,0.4,0.4,0.5v1.4C31.1,23.6,31,23.8,31,24c0,0.3,0.2,0.5,0.5,0.5C31.7,24.5,31.9,24.2,31.9,24z M31.3,21.6
	c0-0.1,0.1-0.2,0.2-0.2c0.1,0,0.2,0.1,0.2,0.2c0,0.1-0.1,0.2-0.2,0.2C31.4,21.8,31.3,21.7,31.3,21.6z M31.3,24
	c0-0.1,0.1-0.2,0.2-0.2c0.1,0,0.2,0.1,0.2,0.2c0,0.1-0.1,0.2-0.2,0.2C31.4,24.2,31.3,24.1,31.3,24z"/>
<path class="st0" d="M33.7,24c0-0.2-0.2-0.4-0.4-0.5v-1.4c0.2-0.1,0.4-0.2,0.4-0.5c0-0.3-0.2-0.5-0.5-0.5c-0.3,0-0.5,0.2-0.5,0.5
	c0,0.2,0.1,0.4,0.4,0.5v1.4c-0.2,0.1-0.4,0.2-0.4,0.5c0,0.3,0.2,0.5,0.5,0.5C33.5,24.5,33.7,24.2,33.7,24z M33.1,21.6
	c0-0.1,0.1-0.2,0.2-0.2c0.1,0,0.2,0.1,0.2,0.2c0,0.1-0.1,0.2-0.2,0.2C33.1,21.8,33.1,21.7,33.1,21.6z M33.1,24
	c0-0.1,0.1-0.2,0.2-0.2c0.1,0,0.2,0.1,0.2,0.2c0,0.1-0.1,0.2-0.2,0.2C33.1,24.2,33.1,24.1,33.1,24z"/>
<path class="st0" d="M27.6,31.3c0.2,0,0.4-0.2,0.5-0.4h6.4c0.1,0.2,0.2,0.4,0.5,0.4c0.3,0,0.5-0.2,0.5-0.5s-0.2-0.5-0.5-0.5
	c-0.2,0-0.4,0.1-0.5,0.4h-6.4c-0.1-0.2-0.2-0.4-0.5-0.4c-0.3,0-0.5,0.2-0.5,0.5S27.3,31.3,27.6,31.3z M34.9,30.6
	c0.1,0,0.2,0.1,0.2,0.2S35,31,34.9,31c-0.1,0-0.2-0.1-0.2-0.2S34.8,30.6,34.9,30.6z M27.6,30.6c0.1,0,0.2,0.1,0.2,0.2
	S27.7,31,27.6,31c-0.1,0-0.2-0.1-0.2-0.2S27.5,30.6,27.6,30.6z"/>
<path class="st0" d="M25.5,33.2c0.2,0,0.4-0.2,0.5-0.4h7.4c0.1,0.2,0.2,0.4,0.5,0.4c0.3,0,0.5-0.2,0.5-0.5c0-0.3-0.2-0.5-0.5-0.5
	c-0.2,0-0.4,0.1-0.5,0.4h-7.4c-0.1-0.2-0.2-0.4-0.5-0.4c-0.3,0-0.5,0.2-0.5,0.5C25,33,25.2,33.2,25.5,33.2z M33.7,32.5
	c0.1,0,0.2,0.1,0.2,0.2c0,0.1-0.1,0.2-0.2,0.2c-0.1,0-0.2-0.1-0.2-0.2C33.6,32.6,33.7,32.5,33.7,32.5z M25.5,32.5
	c0.1,0,0.2,0.1,0.2,0.2c0,0.1-0.1,0.2-0.2,0.2c-0.1,0-0.2-0.1-0.2-0.2C25.3,32.6,25.4,32.5,25.5,32.5z"/>
<path class="st0" d="M22,14c0,0.2,0.2,0.4,0.4,0.5v2.2c-0.2,0.1-0.4,0.2-0.4,0.5c0,0.3,0.2,0.5,0.5,0.5c0.3,0,0.5-0.2,0.5-0.5
	c0-0.2-0.1-0.4-0.4-0.5v-2.2c0.2-0.1,0.4-0.2,0.4-0.5c0-0.3-0.2-0.5-0.5-0.5C22.2,13.6,22,13.8,22,14z M22.6,17.1
	c0,0.1-0.1,0.2-0.2,0.2c-0.1,0-0.2-0.1-0.2-0.2c0-0.1,0.1-0.2,0.2-0.2C22.5,17,22.6,17,22.6,17.1z M22.6,14c0,0.1-0.1,0.2-0.2,0.2
	c-0.1,0-0.2-0.1-0.2-0.2c0-0.1,0.1-0.2,0.2-0.2C22.5,13.9,22.6,13.9,22.6,14z"/>
<path class="st0" d="M28.6,7.9c0,0.2,0.2,0.4,0.4,0.5v2.2c-0.2,0.1-0.4,0.2-0.4,0.5c0,0.3,0.2,0.5,0.5,0.5c0.3,0,0.5-0.2,0.5-0.5
	c0-0.2-0.1-0.4-0.4-0.5V8.4c0.2-0.1,0.4-0.2,0.4-0.5c0-0.3-0.2-0.5-0.5-0.5C28.9,7.4,28.6,7.6,28.6,7.9z M29.3,11
	c0,0.1-0.1,0.2-0.2,0.2c-0.1,0-0.2-0.1-0.2-0.2c0-0.1,0.1-0.2,0.2-0.2C29.2,10.8,29.3,10.9,29.3,11z M29.3,7.9
	c0,0.1-0.1,0.2-0.2,0.2c-0.1,0-0.2-0.1-0.2-0.2c0-0.1,0.1-0.2,0.2-0.2C29.2,7.7,29.3,7.8,29.3,7.9z"/>
<path class="st0" d="M26.4,9.8c0,0.2,0.2,0.4,0.4,0.5v2.2c-0.2,0.1-0.4,0.2-0.4,0.5c0,0.3,0.2,0.5,0.5,0.5s0.5-0.2,0.5-0.5
	c0-0.2-0.1-0.4-0.4-0.5v-2.2c0.2-0.1,0.4-0.2,0.4-0.5c0-0.3-0.2-0.5-0.5-0.5S26.4,9.5,26.4,9.8z M27,12.9C27,13,27,13,26.9,13
	s-0.2-0.1-0.2-0.2c0-0.1,0.1-0.2,0.2-0.2S27,12.8,27,12.9z M27,9.8c0,0.1-0.1,0.2-0.2,0.2s-0.2-0.1-0.2-0.2c0-0.1,0.1-0.2,0.2-0.2
	S27,9.7,27,9.8z"/>
<path class="st0" d="M35,10.4c0.2,0,0.4-0.2,0.5-0.4h9c0.1,0.2,0.2,0.4,0.5,0.4c0.3,0,0.5-0.2,0.5-0.5s-0.2-0.5-0.5-0.5
	c-0.2,0-0.4,0.1-0.5,0.4h-9c-0.1-0.2-0.2-0.4-0.5-0.4c-0.3,0-0.5,0.2-0.5,0.5S34.7,10.4,35,10.4z M44.9,9.8C45,9.8,45,9.9,45,10
	c0,0.1-0.1,0.2-0.2,0.2c-0.1,0-0.2-0.1-0.2-0.2C44.7,9.9,44.8,9.8,44.9,9.8z M35,9.8c0.1,0,0.2,0.1,0.2,0.2c0,0.1-0.1,0.2-0.2,0.2
	c-0.1,0-0.2-0.1-0.2-0.2C34.8,9.9,34.9,9.8,35,9.8z"/>
<path class="st0" d="M35,8.4c0.2,0,0.4-0.2,0.5-0.4h9c0.1,0.2,0.2,0.4,0.5,0.4c0.3,0,0.5-0.2,0.5-0.5c0-0.3-0.2-0.5-0.5-0.5
	c-0.2,0-0.4,0.1-0.5,0.4h-9c-0.1-0.2-0.2-0.4-0.5-0.4c-0.3,0-0.5,0.2-0.5,0.5C34.5,8.2,34.7,8.4,35,8.4z M44.9,7.7
	C45,7.7,45,7.8,45,7.9C45,8,45,8.1,44.9,8.1c-0.1,0-0.2-0.1-0.2-0.2C44.7,7.8,44.8,7.7,44.9,7.7z M35,7.7c0.1,0,0.2,0.1,0.2,0.2
	c0,0.1-0.1,0.2-0.2,0.2c-0.1,0-0.2-0.1-0.2-0.2C34.8,7.8,34.9,7.7,35,7.7z"/>
<path class="st0" d="M28.7,13.8c0.2,0,0.4-0.2,0.5-0.4h11.7c0.1,0.2,0.2,0.4,0.5,0.4c0.3,0,0.5-0.2,0.5-0.5s-0.2-0.5-0.5-0.5
	c-0.2,0-0.4,0.1-0.5,0.4H29.1c-0.1-0.2-0.2-0.4-0.5-0.4c-0.3,0-0.5,0.2-0.5,0.5S28.4,13.8,28.7,13.8z M41.3,13.1
	c0.1,0,0.2,0.1,0.2,0.2c0,0.1-0.1,0.2-0.2,0.2c-0.1,0-0.2-0.1-0.2-0.2C41.1,13.2,41.2,13.1,41.3,13.1z M28.7,13.1
	c0.1,0,0.2,0.1,0.2,0.2c0,0.1-0.1,0.2-0.2,0.2c-0.1,0-0.2-0.1-0.2-0.2C28.5,13.2,28.6,13.1,28.7,13.1z"/>
<path class="st0" d="M28.7,17c0.2,0,0.4-0.2,0.5-0.4h9.8c0.1,0.2,0.2,0.4,0.5,0.4c0.3,0,0.5-0.2,0.5-0.5s-0.2-0.5-0.5-0.5
	c-0.2,0-0.4,0.1-0.5,0.4h-9.8c-0.1-0.2-0.2-0.4-0.5-0.4c-0.3,0-0.5,0.2-0.5,0.5S28.4,17,28.7,17z M39.3,16.4c0.1,0,0.2,0.1,0.2,0.2
	s-0.1,0.2-0.2,0.2c-0.1,0-0.2-0.1-0.2-0.2S39.2,16.4,39.3,16.4z M28.7,16.4c0.1,0,0.2,0.1,0.2,0.2s-0.1,0.2-0.2,0.2
	c-0.1,0-0.2-0.1-0.2-0.2S28.6,16.4,28.7,16.4z"/>
<path class="st0" d="M28.6,15.4c0.2,0,0.4-0.2,0.5-0.4h11c0.1,0.2,0.2,0.4,0.5,0.4c0.3,0,0.5-0.2,0.5-0.5s-0.2-0.5-0.5-0.5
	c-0.2,0-0.4,0.1-0.5,0.4h-11c-0.1-0.2-0.2-0.4-0.5-0.4c-0.3,0-0.5,0.2-0.5,0.5S28.4,15.4,28.6,15.4z M40.5,14.8
	c0.1,0,0.2,0.1,0.2,0.2s-0.1,0.2-0.2,0.2c-0.1,0-0.2-0.1-0.2-0.2S40.4,14.8,40.5,14.8z M28.6,14.8c0.1,0,0.2,0.1,0.2,0.2
	s-0.1,0.2-0.2,0.2c-0.1,0-0.2-0.1-0.2-0.2S28.5,14.8,28.6,14.8z"/>
<path class="st0" d="M20.5,28c0.3,0,0.5-0.2,0.5-0.5c0-0.2-0.1-0.4-0.4-0.5v-1.6c0-0.1-0.1-0.2-0.2-0.2H0v0.2h20.4v1.6
	c-0.2,0-0.4,0.2-0.4,0.5C20.1,27.8,20.3,28,20.5,28z M20.5,27.7c-0.1,0-0.2-0.1-0.2-0.2c0-0.1,0.1-0.2,0.2-0.2
	c0.1,0,0.2,0.1,0.2,0.2C20.7,27.7,20.6,27.7,20.5,27.7z"/>
<path class="st0" d="M22.3,29.2c0.3,0,0.5-0.2,0.5-0.5c0-0.2-0.1-0.4-0.4-0.5v-4.4c0-0.1-0.1-0.2-0.2-0.2H0V24h22.2v4.3
	c-0.2,0-0.4,0.2-0.4,0.5C21.8,29,22,29.2,22.3,29.2z M22.3,28.9c-0.1,0-0.2-0.1-0.2-0.2c0-0.1,0.1-0.2,0.2-0.2
	c0.1,0,0.2,0.1,0.2,0.2C22.4,28.8,22.4,28.9,22.3,28.9z"/>
<path class="st0" d="M15.3,5c0,0.3,0.2,0.5,0.5,0.5c0.3,0,0.5-0.2,0.5-0.5c0-0.2-0.2-0.4-0.4-0.5V0.1h-0.2v4.4
	C15.5,4.6,15.3,4.8,15.3,5z M15.8,4.8C15.9,4.8,16,4.9,16,5c0,0.1-0.1,0.2-0.2,0.2c-0.1,0-0.2-0.1-0.2-0.2
	C15.6,4.9,15.7,4.8,15.8,4.8z"/>
<path class="st0" d="M12.9,5c0,0.3,0.2,0.5,0.5,0.5s0.5-0.2,0.5-0.5c0-0.2-0.2-0.4-0.4-0.5V0.1h-0.2v4.4C13.1,4.6,12.9,4.8,12.9,5z
	 M13.4,4.8c0.1,0,0.2,0.1,0.2,0.2c0,0.1-0.1,0.2-0.2,0.2c-0.1,0-0.2-0.1-0.2-0.2C13.2,4.9,13.3,4.8,13.4,4.8z"/>
<path class="st0" d="M10.5,5c0,0.3,0.2,0.5,0.5,0.5c0.3,0,0.5-0.2,0.5-0.5c0-0.2-0.2-0.4-0.4-0.5V0.1h-0.2v4.4
	C10.7,4.6,10.5,4.8,10.5,5z M11,4.8c0.1,0,0.2,0.1,0.2,0.2c0,0.1-0.1,0.2-0.2,0.2c-0.1,0-0.2-0.1-0.2-0.2C10.8,4.9,10.9,4.8,11,4.8z
	"/>
<path class="st0" d="M38.3,5c0,0.3,0.2,0.5,0.5,0.5c0.3,0,0.5-0.2,0.5-0.5c0-0.2-0.2-0.4-0.4-0.5V0.1h-0.2v4.4
	C38.5,4.6,38.3,4.8,38.3,5z M38.8,4.8c0.1,0,0.2,0.1,0.2,0.2c0,0.1-0.1,0.2-0.2,0.2c-0.1,0-0.2-0.1-0.2-0.2
	C38.6,4.9,38.7,4.8,38.8,4.8z"/>
<path class="st0" d="M35.9,5c0,0.3,0.2,0.5,0.5,0.5s0.5-0.2,0.5-0.5c0-0.2-0.2-0.4-0.4-0.5V0.1h-0.2v4.4C36.1,4.6,35.9,4.8,35.9,5z
	 M36.4,4.8c0.1,0,0.2,0.1,0.2,0.2c0,0.1-0.1,0.2-0.2,0.2S36.2,5.1,36.2,5C36.2,4.9,36.3,4.8,36.4,4.8z"/>
<path class="st0" d="M33.5,5c0,0.3,0.2,0.5,0.5,0.5c0.3,0,0.5-0.2,0.5-0.5c0-0.2-0.2-0.4-0.4-0.5V0.1h-0.2v4.4
	C33.7,4.6,33.5,4.8,33.5,5z M34,4.8c0.1,0,0.2,0.1,0.2,0.2c0,0.1-0.1,0.2-0.2,0.2c-0.1,0-0.2-0.1-0.2-0.2C33.8,4.9,33.9,4.8,34,4.8z
	"/>
<path class="st0" d="M26.4,15.1c-0.2,0-0.4,0.2-0.5,0.4h-1.9c-0.1-0.2-0.2-0.4-0.5-0.4c-0.3,0-0.5,0.2-0.5,0.5s0.2,0.5,0.5,0.5
	c0.2,0,0.4-0.1,0.5-0.4H26c0.1,0.2,0.2,0.4,0.5,0.4c0.3,0,0.5-0.2,0.5-0.5S26.7,15.1,26.4,15.1z M23.7,15.7c-0.1,0-0.2-0.1-0.2-0.2
	c0-0.1,0.1-0.2,0.2-0.2c0.1,0,0.2,0.1,0.2,0.2C23.8,15.7,23.7,15.7,23.7,15.7z M26.4,15.7c-0.1,0-0.2-0.1-0.2-0.2
	c0-0.1,0.1-0.2,0.2-0.2c0.1,0,0.2,0.1,0.2,0.2C26.6,15.7,26.5,15.7,26.4,15.7z"/>
<path class="st0" d="M17.6,27.1c-0.2,0-0.4,0.2-0.5,0.4h-4.8c-0.1-0.2-0.2-0.4-0.5-0.4c-0.3,0-0.5,0.2-0.5,0.5s0.2,0.5,0.5,0.5
	c0.2,0,0.4-0.1,0.5-0.4h4.8c0.1,0.2,0.2,0.4,0.5,0.4c0.3,0,0.5-0.2,0.5-0.5S17.9,27.1,17.6,27.1z M11.9,27.7c-0.1,0-0.2-0.1-0.2-0.2
	c0-0.1,0.1-0.2,0.2-0.2c0.1,0,0.2,0.1,0.2,0.2C12.1,27.6,12,27.7,11.9,27.7z M17.6,27.7c-0.1,0-0.2-0.1-0.2-0.2
	c0-0.1,0.1-0.2,0.2-0.2c0.1,0,0.2,0.1,0.2,0.2C17.8,27.6,17.7,27.7,17.6,27.7z"/>
<path class="st0" d="M8.7,27.1c-0.2,0-0.4,0.2-0.5,0.4H3.5c-0.1-0.2-0.2-0.4-0.5-0.4c-0.3,0-0.5,0.2-0.5,0.5S2.8,28,3,28
	c0.2,0,0.4-0.1,0.5-0.4h4.8C8.3,27.9,8.5,28,8.7,28c0.3,0,0.5-0.2,0.5-0.5S9,27.1,8.7,27.1z M3,27.7c-0.1,0-0.2-0.1-0.2-0.2
	c0-0.1,0.1-0.2,0.2-0.2c0.1,0,0.2,0.1,0.2,0.2C3.2,27.6,3.1,27.7,3,27.7z M8.7,27.7c-0.1,0-0.2-0.1-0.2-0.2c0-0.1,0.1-0.2,0.2-0.2
	c0.1,0,0.2,0.1,0.2,0.2C8.9,27.6,8.8,27.7,8.7,27.7z"/>
<path class="st0" d="M48,2.2c-0.2,0-0.4,0.2-0.5,0.4h-4.7V0.1h-0.2v2.5c0,0.1,0.1,0.2,0.2,0.2h4.8C47.6,3,47.8,3.2,48,3.2
	c0.3,0,0.5-0.2,0.5-0.5S48.2,2.2,48,2.2z"/>
<path class="st0" d="M48,3.9c-0.2,0-0.4,0.2-0.5,0.4H41V0.1h-0.2v4.1c0,0.1,0.1,0.2,0.2,0.2h6.5c0.1,0.2,0.2,0.4,0.5,0.4
	c0.3,0,0.5-0.2,0.5-0.5C48.4,4.1,48.2,3.9,48,3.9z"/>
</svg>
