<svg id="Layer_1" data-name="Layer 1" xmlns="http://www.w3.org/2000/svg" viewBox="0 0 31.702 30"><title>brainIcon2</title><path d="M31.3,25.366a1.656,1.656,0,0,0-.884-1.063l-.006,0,0-.009a1.836,1.836,0,0,0-.562-1.763,1.764,1.764,0,0,0-1.548-.522,2.231,2.231,0,0,0-2.745-.407,2.27,2.27,0,0,0-2.778.706.418.418,0,0,1-.123.022.538.538,0,0,0-.153.027,1.95,1.95,0,0,0-1.371,2.207,2.475,2.475,0,0,0-.215,1.575,1.582,1.582,0,0,0,.87,1.152,2.488,2.488,0,0,0,2.088.007,1.338,1.338,0,0,0-.008.195v.033a1.462,1.462,0,0,0,.685,1.313,2.337,2.337,0,0,0,2.179-.044l.014-.007h0a2.262,2.262,0,0,0,1.687.712,2.416,2.416,0,0,0,.6-.075,2.075,2.075,0,0,0,1.64-1.911A1.994,1.994,0,0,0,31.3,25.366Zm-3.669,2.869c.1-.059.2-.121.3-.184a5.7,5.7,0,0,1,1.164-.609,1.248,1.248,0,0,0,.665.283,1.393,1.393,0,0,0,.541-.048,1.831,1.831,0,0,1-1.84,1.465h-.067a1.875,1.875,0,0,1-1.32-.53C27.258,28.487,27.446,28.361,27.629,28.235Zm1.939-.931a.8.8,0,0,1-.457-.431.243.243,0,0,0-.124-.167.17.17,0,0,0-.155,0,.175.175,0,0,0-.091.106.415.415,0,0,0,.084.293l.013.022a6.919,6.919,0,0,0-1.258.721,3.076,3.076,0,0,1-2.629.8,1.092,1.092,0,0,1-.676-.751,1.354,1.354,0,0,1,.208-1.2,4.041,4.041,0,0,1,2.691-1.113c.1,0,.227-.062.291-.316.106-.415-.02-1.226-.276-1.379a.18.18,0,0,0-.074-.016.176.176,0,0,0-.157.1.3.3,0,0,0,.061.267.392.392,0,0,1,.064.149,1.606,1.606,0,0,1,.015.85l-.015,0a6.656,6.656,0,0,0-1.022.185l0-.025a1.238,1.238,0,0,1-.021-.355.645.645,0,0,1,.033-.193c.034-.134.073-.285-.033-.384a.639.639,0,0,1-.246-.579,1.186,1.186,0,0,1,.6-.87,1.6,1.6,0,0,1,1.511,0,.936.936,0,0,1,.5.841.487.487,0,0,1,0,.076.254.254,0,0,0,.084.248,1.024,1.024,0,0,1,.29.314,1.077,1.077,0,0,1,0,.916.5.5,0,0,1-.168.052.715.715,0,0,0-.25.079,1.65,1.65,0,0,0-.859.946.3.3,0,0,1-.149.028.58.58,0,0,0-.132.016,3.117,3.117,0,0,0-1.755.774.184.184,0,0,0,.035.292.182.182,0,0,0,.226-.039,2.015,2.015,0,0,1,.4-.3,3.267,3.267,0,0,1,1.51-.406c.134-.011.171-.133.2-.223a.554.554,0,0,1,.038-.1,1.2,1.2,0,0,1,.658-.668,1.124,1.124,0,0,1,.9,0,1.424,1.424,0,0,1,.437.281.178.178,0,0,0,.294-.122.183.183,0,0,0-.062-.149,1.7,1.7,0,0,0-.956-.446,1.6,1.6,0,0,0,.078-.7,1.239,1.239,0,0,0-.4-.742c-.019-.023-.039-.044-.058-.066a1.32,1.32,0,0,0-.871-1.3.98.98,0,0,1,.662-.286h.035a1.569,1.569,0,0,1,1.2.656,1.43,1.43,0,0,1,.288,1.2l-.027-.008a.252.252,0,0,0-.069-.015h0a.168.168,0,0,0-.156.049.183.183,0,0,0-.042.18.168.168,0,0,0,.13.116,1.523,1.523,0,0,1,.291.08,1.442,1.442,0,0,1,.841,1.339,1.394,1.394,0,0,1-.724,1.351A.969.969,0,0,1,29.568,27.3Zm-6.83-.148a1.435,1.435,0,0,1-1.121-.444,1.4,1.4,0,0,1-.394-1.117,2.039,2.039,0,0,1,.124-.606l.014.022c.054.088.125.211.269.177a.182.182,0,0,0,.13-.126.2.2,0,0,0-.054-.191,1.222,1.222,0,0,1-.151-1.216,1.515,1.515,0,0,1,1.079-.966.188.188,0,0,0,.061.182.178.178,0,0,0,.168.032.176.176,0,0,0,.113-.122,1.132,1.132,0,0,1,.484-.694,1.819,1.819,0,0,1,1.78-.188.305.305,0,0,0-.077.218.164.164,0,0,0,.087.115.189.189,0,0,0,.238-.063,1,1,0,0,1,.321-.314,1.76,1.76,0,0,1,2.1.308,1.276,1.276,0,0,0-.39.325l-.008.011-.026,0a.715.715,0,0,0-.174-.022c-.029,0-.057,0-.088-.006s-.073,0-.11,0a1.724,1.724,0,0,0-1.523.88,1.135,1.135,0,0,0,.129,1.356,1.777,1.777,0,0,0-.02.78l.005.029v0a4.864,4.864,0,0,0-.657.278c-.073.035-.145.071-.218.1a.892.892,0,0,1-.318-.8,1.285,1.285,0,0,1,.122-.49.183.183,0,0,0,.01-.159.2.2,0,0,0-.129-.108.306.306,0,0,1-.141-.1.848.848,0,0,1-.2-.691.625.625,0,0,1,.311-.466.251.251,0,0,0,.139-.155.176.176,0,0,0-.079-.185.205.205,0,0,0-.222,0,.951.951,0,0,0-.509.669.683.683,0,0,0-.024.188.84.84,0,0,1-.009.116.92.92,0,0,1-1.114.108.181.181,0,0,0-.24.079.176.176,0,0,0,.049.24,1.361,1.361,0,0,0,1.4,0,1.008,1.008,0,0,0,.35.463l-.005.013a1.586,1.586,0,0,0-.087.5c-.058.007-.115.011-.174.015-.085.006-.174.013-.259.026a2.13,2.13,0,0,0-1.249.558.187.187,0,0,0-.078.2.2.2,0,0,0,.157.149h.014a.7.7,0,0,0,.306-.179.99.99,0,0,1,.345-.211,3.053,3.053,0,0,1,.926-.166l.037,0c.02.048.037.094.053.138a1.055,1.055,0,0,0,.3.484,1.759,1.759,0,0,0-.527.682,2.321,2.321,0,0,1-1.252.346Z"/><path id="path6053" d="M15.617,17.915a1.434,1.434,0,0,0,1.1,1.44,1.535,1.535,0,0,0,1.768-.764,1.337,1.337,0,0,0-.239-1.484,1.579,1.579,0,0,0-2.264-.024,1.316,1.316,0,0,0-.368.821"/><path id="path6055" d="M19.637,20.38a.967.967,0,0,0,.767.986,1.006,1.006,0,0,0,1.142-.552.928.928,0,0,0-.3-1.106,1.03,1.03,0,0,0-1.288.031.917.917,0,0,0-.324.633"/><path id="path6057" d="M8.827.669a5.439,5.439,0,0,1,4.366,1.545,3.491,3.491,0,0,1,2.321-1.2,3.59,3.59,0,0,1,3.491,1.973,4.01,4.01,0,0,1,4.229,3.505,3.86,3.86,0,0,1-1.972,3.66,3.969,3.969,0,0,1-5.556,4.384,5.006,5.006,0,0,1-3.881,2.406,4.919,4.919,0,0,1-4.886-2.632,4.621,4.621,0,0,1-1.4.35A4.785,4.785,0,0,1,.386,10.278l0-.038A4.8,4.8,0,0,1,4,5.151,5.211,5.211,0,0,1,8.827.669Z"/></svg>