<svg id="Layer_1" data-name="Layer 1" xmlns="http://www.w3.org/2000/svg" viewBox="0 0 42.478 31.055"><defs><style>.cls-1{fill:#fff;}</style></defs><title>brainIcon</title><path class="cls-1" d="M41.582,25.774a1.888,1.888,0,0,0-1.151-1.08l-.007,0,0-.01a2.094,2.094,0,0,0-.884-1.918,2.009,2.009,0,0,0-1.826-.373,2.547,2.547,0,0,0-3.166-.076A2.589,2.589,0,0,0,31.5,23.5a.471.471,0,0,1-.137.043.607.607,0,0,0-.168.051,2.225,2.225,0,0,0-1.243,2.692,2.821,2.821,0,0,0-.022,1.814,1.808,1.808,0,0,0,1.147,1.183A2.841,2.841,0,0,0,33.446,29a1.5,1.5,0,0,0,.018.222l.005.037a1.667,1.667,0,0,0,.96,1.391A2.666,2.666,0,0,0,36.89,30.3l.015-.01h0a2.579,2.579,0,0,0,2.009.57,2.821,2.821,0,0,0,.672-.17,2.366,2.366,0,0,0,1.588-2.395A2.273,2.273,0,0,0,41.582,25.774ZM37.83,29.537c.1-.08.207-.165.312-.249a6.5,6.5,0,0,1,1.233-.854,1.418,1.418,0,0,0,.793.227,1.577,1.577,0,0,0,.606-.13A2.088,2.088,0,0,1,38.9,30.448l-.061.007h0l-.013,0a2.145,2.145,0,0,1-1.57-.415C37.445,29.875,37.641,29.706,37.83,29.537Zm2.064-1.326a.919.919,0,0,1-.578-.423.273.273,0,0,0-.164-.172.19.19,0,0,0-.174.025.2.2,0,0,0-.088.132.462.462,0,0,0,.136.32l.018.024a7.778,7.778,0,0,0-1.323.993c-.838.726-1.7,1.477-2.866,1.269a1.244,1.244,0,0,1-.872-.755,1.544,1.544,0,0,1,.067-1.393,4.616,4.616,0,0,1,2.891-1.638c.109-.018.248-.1.285-.4.061-.485-.2-1.385-.506-1.522a.21.21,0,0,0-.085-.008.2.2,0,0,0-.164.136.342.342,0,0,0,.106.293.472.472,0,0,1,.094.161,1.832,1.832,0,0,1,.136.96l-.017,0a7.569,7.569,0,0,0-1.132.354l-.008-.028a1.443,1.443,0,0,1-.073-.4.755.755,0,0,1,.01-.223c.02-.157.043-.334-.091-.431a.728.728,0,0,1-.36-.621A1.357,1.357,0,0,1,35.7,23.8a1.826,1.826,0,0,1,1.713-.211,1.069,1.069,0,0,1,.687.881.593.593,0,0,1,.01.087.285.285,0,0,0,.13.269,1.172,1.172,0,0,1,.372.315,1.226,1.226,0,0,1,.122,1.038.549.549,0,0,1-.182.082.81.81,0,0,0-.272.125,1.881,1.881,0,0,0-.84,1.191.326.326,0,0,1-.165.053.636.636,0,0,0-.147.038,3.547,3.547,0,0,0-1.879,1.122.213.213,0,0,0-.041.18.216.216,0,0,0,.122.146.206.206,0,0,0,.25-.076,2.3,2.3,0,0,1,.414-.4,3.717,3.717,0,0,1,1.652-.672c.15-.031.175-.175.193-.28a.668.668,0,0,1,.029-.121,1.362,1.362,0,0,1,.652-.849,1.28,1.28,0,0,1,1.02-.131,1.66,1.66,0,0,1,.535.257.2.2,0,0,0,.316-.179.208.208,0,0,0-.092-.16,1.947,1.947,0,0,0-1.145-.371,1.822,1.822,0,0,0-.01-.8,1.407,1.407,0,0,0-.557-.784l-.076-.066a1.505,1.505,0,0,0-1.169-1.351,1.119,1.119,0,0,1,.709-.417l.039,0h0a1.793,1.793,0,0,1,1.447.574,1.64,1.64,0,0,1,.5,1.324.1.1,0,0,1-.032,0,.282.282,0,0,0-.081-.006h0a.193.193,0,0,0-.17.077.209.209,0,0,0-.023.21.192.192,0,0,0,.165.113,1.7,1.7,0,0,1,.341.05,1.647,1.647,0,0,1,1.14,1.4,1.592,1.592,0,0,1-.631,1.632A1.112,1.112,0,0,1,39.894,28.211ZM32.14,29a1.637,1.637,0,0,1-1.332-.345,1.6,1.6,0,0,1-.6-1.21,2.367,2.367,0,0,1,.056-.7.15.15,0,0,1,.018.024c.074.092.171.221.33.162a.205.205,0,0,0,.13-.161.235.235,0,0,0-.088-.208,1.393,1.393,0,0,1-.342-1.357,1.729,1.729,0,0,1,1.086-1.245.217.217,0,0,0,.094.2.2.2,0,0,0,.2.012.2.2,0,0,0,.111-.154,1.283,1.283,0,0,1,.451-.853,2.077,2.077,0,0,1,1.99-.464.344.344,0,0,0-.057.259.186.186,0,0,0,.114.117.214.214,0,0,0,.26-.1,1.142,1.142,0,0,1,.32-.4,2.011,2.011,0,0,1,2.42.055,1.459,1.459,0,0,0-.4.422l-.007.014h-.031a.745.745,0,0,0-.2,0c-.032,0-.064.005-.1.005s-.083.006-.125.011a1.966,1.966,0,0,0-1.6,1.211,1.3,1.3,0,0,0,.337,1.518,2.017,2.017,0,0,0,.087.885l.01.032v.006a5.487,5.487,0,0,0-.7.407c-.078.05-.155.1-.232.148a1.014,1.014,0,0,1-.473-.865,1.453,1.453,0,0,1,.069-.573.2.2,0,0,0-.011-.181.222.222,0,0,0-.161-.1.35.35,0,0,1-.173-.089.967.967,0,0,1-.318-.755.713.713,0,0,1,.287-.571.289.289,0,0,0,.135-.2.2.2,0,0,0-.115-.2.23.23,0,0,0-.251.03,1.088,1.088,0,0,0-.484.83.822.822,0,0,0,0,.216,1.017,1.017,0,0,1,.007.132,1.05,1.05,0,0,1-1.247.279.208.208,0,0,0-.261.123.2.2,0,0,0,.089.265,1.551,1.551,0,0,0,1.585-.2,1.152,1.152,0,0,0,.461.476l0,.016a1.8,1.8,0,0,0-.027.584c-.065.016-.129.028-.2.041-.1.018-.2.039-.29.066a2.434,2.434,0,0,0-1.336.807.212.212,0,0,0-.06.233.219.219,0,0,0,.2.146h.008l.008,0a.8.8,0,0,0,.321-.245,1.138,1.138,0,0,1,.362-.288,3.522,3.522,0,0,1,1.025-.318l.041-.008c.029.051.056.1.08.148a1.194,1.194,0,0,0,.413.506,2,2,0,0,0-.5.846A2.644,2.644,0,0,1,32.142,29Z"/><path id="path6053" class="cls-1" d="M21.676,19.776a1.444,1.444,0,0,0,1.11,1.449,1.545,1.545,0,0,0,1.779-.769,1.343,1.343,0,0,0-.241-1.492,1.589,1.589,0,0,0-2.277-.025,1.328,1.328,0,0,0-.37.826"/><path id="path6055" class="cls-1" d="M25.846,22.334a.967.967,0,0,0,.767.986,1.006,1.006,0,0,0,1.142-.552.927.927,0,0,0-.3-1.106,1.03,1.03,0,0,0-1.288.03.914.914,0,0,0-.325.634"/><path id="path6057" class="cls-1" d="M10.238.205a6.559,6.559,0,0,1,5.336,1.639A4.207,4.207,0,0,1,18.308.283a4.326,4.326,0,0,1,4.3,2.2,4.834,4.834,0,0,1,5.271,4.005A4.654,4.654,0,0,1,25.692,11a4.648,4.648,0,0,1,.095.492,4.786,4.786,0,0,1-6.562,5.068,6.034,6.034,0,0,1-4.552,3.093,5.925,5.925,0,0,1-6.016-2.92,5.6,5.6,0,0,1-1.67.492A5.766,5.766,0,0,1,.562,12.2l-.006-.046a5.782,5.782,0,0,1,4.1-6.311A6.279,6.279,0,0,1,10.238.205Z"/></svg>