<?xml version="1.0" encoding="utf-8"?>
<!-- Generator: Adobe Illustrator 24.0.3, SVG Export Plug-In . SVG Version: 6.00 Build 0)  -->
<svg version="1.1" id="Layer_1" xmlns="http://www.w3.org/2000/svg" xmlns:xlink="http://www.w3.org/1999/xlink" x="0px" y="0px"
	 viewBox="0 0 15.2 16.7" style="enable-background:new 0 0 15.2 16.7;" xml:space="preserve">
<style type="text/css">
	.st0{fill:#264DE4;}
	.st1{fill:#2965F1;}
	.st2{fill:#EBEBEB;}
	.st3{fill:#FFFFFF;}
</style>
<polygon id="polygon2989" class="st0" points="14.6,0.4 13.3,14.7 7.6,16.3 1.9,14.7 0.6,0.4 "/>
<polygon id="polygon2991" class="st1" points="12.2,13.8 13.3,1.5 7.6,1.5 7.6,11.4 7.6,13.3 7.6,15.1 "/>
<polygon id="polygon2993" class="st2" points="3.5,6.9 3.7,8.6 7.6,8.6 7.6,6.9 "/>
<polygon id="polygon2995" class="st2" points="7.6,3.3 3.2,3.3 3.3,5.1 7.6,5.1 "/>
<polygon id="polygon2997" class="st2" points="7.6,11.4 5.6,10.9 5.5,9.5 3.7,9.5 4,12.3 7.6,13.3 "/>
<polygon id="polygon3005" class="st3" points="9.8,8.6 9.6,10.9 7.6,11.4 7.6,13.3 11.2,12.3 12,3.3 7.6,3.3 7.6,5.1 10.1,5.1 
	9.9,6.9 7.6,6.9 7.6,8.6 "/>
</svg>
