<?xml version="1.0" encoding="utf-8"?>
<!-- Generator: Adobe Illustrator 24.0.3, SVG Export Plug-In . SVG Version: 6.00 Build 0)  -->
<svg version="1.1" id="Layer_1" xmlns="http://www.w3.org/2000/svg" xmlns:xlink="http://www.w3.org/1999/xlink" x="0px" y="0px"
	 viewBox="0 0 391.606 315.336" style="enable-background:new 0 0 391.606 315.336;" xml:space="preserve">
<style type="text/css">
	.st0{opacity:0.1;fill:#150D53;}
	.st1{fill:#508EBC;}
	.st2{fill:#599ED1;}
	.st3{fill:#C1EBFF;}
	.st4{fill:#FFFFFF;}
	.st5{fill:#DCE6F4;}
	.st6{fill:#67C1EF;}
	.st7{fill:#FF7F8E;}
	.st8{fill:#A0D2EF;}
	.st9{opacity:0.2;fill:#150D53;}
</style>
<g>
	<ellipse class="st0" cx="195.803" cy="299.414" rx="192.947" ry="11.979"/>
	<g id="monitor_3_">
		<path class="st1" d="M254.569,285.21H144.233c0,0,21.698-21.284,18.631-36.824h73.075
			C233.185,273.79,254.569,285.21,254.569,285.21z"/>
		<path class="st2" d="M376.589,248.387H22.214c-6.717,0-12.161-5.445-12.161-12.161V16.104c0-6.717,5.445-12.161,12.161-12.161
			h354.375c6.717,0,12.161,5.445,12.161,12.161v220.122C388.75,242.942,383.305,248.387,376.589,248.387z"/>
		<path class="st2" d="M254.569,298.966H144.233c-1.343,0-2.432-1.089-2.432-2.432v-8.891c0-1.343,1.089-2.432,2.432-2.432h110.336
			c1.343,0,2.432,1.089,2.432,2.432v8.891C257.002,297.877,255.913,298.966,254.569,298.966z"/>
		<path class="st3" d="M373.032,230.753H25.771c-0.672,0-1.216-0.544-1.216-1.216V22.793c0-0.672,0.544-1.216,1.216-1.216h347.261
			c0.672,0,1.216,0.544,1.216,1.216v206.744C374.248,230.208,373.703,230.753,373.032,230.753z"/>
		<g>
			<path class="st4" d="M350.192,51.037H47.374c-1.338,0-2.423-1.085-2.423-2.423V30.629c0-1.338,1.085-2.423,2.423-2.423h302.818
				c1.338,0,2.423,1.085,2.423,2.423v17.985C352.615,49.952,351.53,51.037,350.192,51.037z"/>
			<g>
				<g>
					<g>
						<path class="st5" d="M183.117,42.838h-33.554c-1.402,0-2.539-1.137-2.539-2.538l0,0c0-1.402,1.137-2.539,2.539-2.539h33.554
							c1.402,0,2.538,1.137,2.538,2.539l0,0C185.656,41.702,184.519,42.838,183.117,42.838z"/>
					</g>
				</g>
				<g>
					<g>
						<path class="st5" d="M236.593,42.94h-33.554c-1.402,0-2.538-1.137-2.538-2.538l0,0c0-1.402,1.137-2.538,2.538-2.538h33.554
							c1.402,0,2.538,1.137,2.538,2.538l0,0C239.131,41.803,237.995,42.94,236.593,42.94z"/>
					</g>
				</g>
				<path class="st6" d="M129.642,42.94H96.087c-1.402,0-2.538-1.137-2.538-2.538l0,0c0-1.402,1.137-2.538,2.538-2.538h33.554
					c1.402,0,2.539,1.137,2.539,2.538l0,0C132.18,41.803,131.044,42.94,129.642,42.94z"/>
				<g>
					<g>
						<path class="st5" d="M290.068,42.94h-33.554c-1.402,0-2.539-1.137-2.539-2.538l0,0c0-1.402,1.137-2.538,2.539-2.538h33.554
							c1.402,0,2.538,1.137,2.538,2.538l0,0C292.607,41.803,291.47,42.94,290.068,42.94z"/>
					</g>
				</g>
				<g>
					<g>
						<path class="st5" d="M343.544,42.452H309.99c-1.402,0-2.538-1.137-2.538-2.538v0c0-1.402,1.137-2.538,2.538-2.538h33.554
							c1.402,0,2.538,1.137,2.538,2.538v0C346.083,41.315,344.946,42.452,343.544,42.452z"/>
					</g>
				</g>
			</g>
			<path class="st7" d="M58.338,46.607L58.338,46.607c-3.858,0-6.986-3.128-6.986-6.986v0c0-3.858,3.128-6.986,6.986-6.986l0,0
				c3.858,0,6.986,3.128,6.986,6.986v0C65.323,43.48,62.196,46.607,58.338,46.607z"/>
			<g>
				<path class="st4" d="M138.986,224.199H47.6c-1.682,0-3.046-1.364-3.046-3.046v-84.317c0-1.682,1.364-3.046,3.046-3.046h91.386
					c1.682,0,3.046,1.364,3.046,3.046v84.317C142.032,222.835,140.668,224.199,138.986,224.199z"/>
				<path class="st5" d="M134.536,198.536H52.852c-1.047,0-1.904-0.857-1.904-1.904v-0.551c0-1.047,0.857-1.904,1.904-1.904h81.685
					c1.047,0,1.904,0.857,1.904,1.904v0.551C136.44,197.679,135.584,198.536,134.536,198.536z"/>
				<path class="st5" d="M134.536,207.101H52.852c-1.047,0-1.904-0.857-1.904-1.904v-0.551c0-1.047,0.857-1.904,1.904-1.904h81.685
					c1.047,0,1.904,0.857,1.904,1.904v0.551C136.44,206.244,135.584,207.101,134.536,207.101z"/>
				<path class="st5" d="M88.088,215.666H52.852c-1.047,0-1.904-0.857-1.904-1.904v-0.551c0-1.047,0.857-1.904,1.904-1.904h35.236
					c1.047,0,1.904,0.857,1.904,1.904v0.551C89.992,214.809,89.135,215.666,88.088,215.666z"/>
				<path class="st6" d="M133.385,186.185H53.994c-1.675,0-3.046-1.371-3.046-3.046v-38.257c0-1.675,1.371-3.046,3.046-3.046h79.391
					c1.675,0,3.046,1.371,3.046,3.046v38.257C136.431,184.814,135.06,186.185,133.385,186.185z"/>
			</g>
			<g>
				<path class="st4" d="M243.224,224.199h-90.505c-1.926,0-3.487-1.561-3.487-3.487v-83.436c0-1.926,1.561-3.487,3.487-3.487
					h90.505c1.926,0,3.487,1.561,3.487,3.487v83.436C246.711,222.638,245.15,224.199,243.224,224.199z"/>
				<path class="st5" d="M239.215,198.536H157.53c-1.047,0-1.904-0.857-1.904-1.904v-0.551c0-1.047,0.857-1.904,1.904-1.904h81.685
					c1.047,0,1.904,0.857,1.904,1.904v0.551C241.119,197.679,240.262,198.536,239.215,198.536z"/>
				<path class="st5" d="M239.215,207.101H157.53c-1.047,0-1.904-0.857-1.904-1.904v-0.551c0-1.047,0.857-1.904,1.904-1.904h81.685
					c1.047,0,1.904,0.857,1.904,1.904v0.551C241.119,206.244,240.262,207.101,239.215,207.101z"/>
				<path class="st5" d="M192.766,215.666H157.53c-1.047,0-1.904-0.857-1.904-1.904v-0.551c0-1.047,0.857-1.904,1.904-1.904h35.236
					c1.047,0,1.904,0.857,1.904,1.904v0.551C194.67,214.809,193.814,215.666,192.766,215.666z"/>
				<path class="st7" d="M238.064,186.185h-79.391c-1.675,0-3.046-1.371-3.046-3.046v-38.257c0-1.675,1.371-3.046,3.046-3.046
					h79.391c1.675,0,3.046,1.371,3.046,3.046v38.257C241.11,184.814,239.739,186.185,238.064,186.185z"/>
			</g>
			<g>
				<path class="st4" d="M348.747,224.199h-90.505c-1.926,0-3.487-1.561-3.487-3.487v-83.436c0-1.926,1.561-3.487,3.487-3.487
					h90.505c1.926,0,3.487,1.561,3.487,3.487v83.436C352.234,222.638,350.673,224.199,348.747,224.199z"/>
				<path class="st5" d="M344.738,198.536h-81.685c-1.047,0-1.904-0.857-1.904-1.904v-0.551c0-1.047,0.857-1.904,1.904-1.904h81.685
					c1.047,0,1.904,0.857,1.904,1.904v0.551C346.642,197.679,345.785,198.536,344.738,198.536z"/>
				<path class="st5" d="M344.738,207.101h-81.685c-1.047,0-1.904-0.857-1.904-1.904v-0.551c0-1.047,0.857-1.904,1.904-1.904h81.685
					c1.047,0,1.904,0.857,1.904,1.904v0.551C346.642,206.244,345.785,207.101,344.738,207.101z"/>
				<path class="st5" d="M298.289,215.666h-35.236c-1.047,0-1.904-0.857-1.904-1.904v-0.551c0-1.047,0.857-1.904,1.904-1.904h35.236
					c1.047,0,1.904,0.857,1.904,1.904v0.551C300.193,214.809,299.337,215.666,298.289,215.666z"/>
				<path class="st8" d="M343.587,186.185h-79.391c-1.675,0-3.046-1.371-3.046-3.046v-38.257c0-1.675,1.371-3.046,3.046-3.046
					h79.391c1.675,0,3.046,1.371,3.046,3.046v38.257C346.633,184.814,345.262,186.185,343.587,186.185z"/>
			</g>
			<path class="st4" d="M349.338,126.165H47.847c-1.599,0-2.896-1.296-2.896-2.895V60.822c0-1.599,1.296-2.896,2.896-2.896h301.491
				c1.599,0,2.895,1.296,2.895,2.896v62.447C352.234,124.868,350.937,126.165,349.338,126.165z"/>
			<g>
				<g>
					<g>
						<path class="st5" d="M339.171,89.689H225.239c-0.921,0-1.668-0.747-1.668-1.668l0,0c0-0.921,0.747-1.668,1.668-1.668h113.932
							c0.921,0,1.668,0.747,1.668,1.668l0,0C340.839,88.943,340.092,89.689,339.171,89.689z"/>
					</g>
					<g>
						<path class="st5" d="M322.475,97.833h-97.236c-0.921,0-1.668-0.747-1.668-1.668l0,0c0-0.921,0.747-1.668,1.668-1.668h97.236
							c0.921,0,1.668,0.747,1.668,1.668l0,0C324.142,97.086,323.396,97.833,322.475,97.833z"/>
					</g>
				</g>
				<g>
					<path class="st6" d="M318.516,77.931h-72.621c-1.769,0-3.204-1.434-3.204-3.204l0,0c0-1.769,1.434-3.204,3.204-3.204h72.621
						c1.769,0,3.204,1.434,3.204,3.204l0,0C321.719,76.496,320.285,77.931,318.516,77.931z"/>
				</g>
				<path class="st7" d="M295.555,117.597h-26.699c-2.937,0-5.34-2.403-5.34-5.34l0,0c0-2.937,2.403-5.34,5.34-5.34h26.699
					c2.937,0,5.34,2.403,5.34,5.34l0,0C300.894,115.194,298.491,117.597,295.555,117.597z"/>
			</g>
			<path class="st8" d="M196.122,118.392H56.269c-2.408,0-4.378-1.97-4.378-4.378V70.078c0-2.408,1.97-4.378,4.378-4.378h139.854
				c2.408,0,4.378,1.97,4.378,4.378v43.936C200.5,116.421,198.53,118.392,196.122,118.392z"/>
		</g>
		<path class="st9" d="M235.751,254.95h-72.84c0,0,0.246-2.356,0.246-3.144c0-1.853-0.293-3.419-0.293-3.419h73.075
			c0,0-0.231,2.633-0.231,3.419C235.708,252.592,235.751,254.95,235.751,254.95z"/>
	</g>
</g>
</svg>
