<svg id="Layer_1" data-name="Layer 1" xmlns="http://www.w3.org/2000/svg" viewBox="0 0 50 50"><defs><style>.cls-1{fill:#efba11;}</style></defs><title>diamond</title><path class="cls-1" d="M26.41,6.32V10c0,.94-.45,1.59-1.4,1.58s-1.37-.67-1.37-1.6v-7c0-.93.4-1.57,1.39-1.56S26.4,2,26.41,2.92Z"/><path class="cls-1" d="M8.36,15.23a1.51,1.51,0,0,1-1.18-.61l-3.7-4.25a1.34,1.34,0,0,1,0-2.1,1.33,1.33,0,0,1,2.07.28C6.8,10,8.05,11.37,9.28,12.79a1.42,1.42,0,0,1,.31,1.72A1.33,1.33,0,0,1,8.36,15.23Z"/><path class="cls-1" d="M47,9.1a1.82,1.82,0,0,1-.57,1.39c-1.18,1.35-2.36,2.71-3.52,4.07-.65.75-1.4,1-2.18.3s-.57-1.41,0-2.1l3.89-4.41A1.37,1.37,0,0,1,47,9.1Z"/><path class="cls-1" d="M44.19,26.64l-6.12-8.16a1,1,0,0,0-.64-.39l-12.24-2a.91.91,0,0,0-.33,0l-12.24,2a1,1,0,0,0-.64.39L5.86,26.64a1,1,0,0,0,.06,1.29L24.27,48.32a1,1,0,0,0,1.51,0L44.13,27.93A1,1,0,0,0,44.19,26.64Zm-12.46-.41L25,44.66,18.32,26.23Zm-12.4-2L25,18.5l5.69,5.69ZM28,18.59l7.54,1.25L33,23.61l-5-5Zm-11,5-2.52-3.77,7.54-1.25Zm-1.85.9L9.09,25.73l3.65-4.87Zm1,1.87,6.06,16.68L8.63,27.9l7.58-1.52Zm17.63,0,7.58,1.52L27.78,43.06l6.06-16.67Zm1-1.87,2.44-3.65L41,25.73Z"/></svg>