<?xml version="1.0" encoding="utf-8"?>
<!-- Generator: Adobe Illustrator 24.0.3, SVG Export Plug-In . SVG Version: 6.00 Build 0)  -->
<svg version="1.1" id="Layer_1" xmlns="http://www.w3.org/2000/svg" xmlns:xlink="http://www.w3.org/1999/xlink" x="0px" y="0px"
	 viewBox="0 0 18.427 10.04" style="enable-background:new 0 0 18.427 10.04;" xml:space="preserve">
<style type="text/css">
	.st0{fill:#FFFFFF;}
</style>
<path class="st0" d="M9.201-0.59C8.612-0.594,8.018-0.657,7.43-0.78C6.427-0.988,5.478-1.345,4.57-1.814
	c-1.397-0.72-2.654-1.635-3.776-2.734c-0.08-0.078-0.07-0.057,0.001-0.129C1.319-5.199,1.885-5.672,2.48-6.11
	c0.668-0.492,1.367-0.931,2.106-1.308c0.647-0.33,1.316-0.607,2.013-0.815C7.07-8.374,7.548-8.48,8.036-8.548
	c0.579-0.08,1.16-0.105,1.743-0.065c0.518,0.036,1.029,0.116,1.533,0.239c1.315,0.32,2.525,0.882,3.665,1.6
	c0.967,0.609,1.864,1.308,2.676,2.114c0.049,0.048,0.049,0.049,0,0.099c-0.567,0.566-1.182,1.074-1.831,1.543
	c-0.731,0.529-1.501,0.995-2.317,1.382c-0.678,0.322-1.378,0.582-2.106,0.766C10.681-0.69,9.953-0.594,9.201-0.59z M6.17-4.611
	c0,1.705,1.382,3.084,3.089,3.086c1.697,0.001,3.081-1.382,3.083-3.082c0.002-1.705-1.382-3.092-3.084-3.091
	C7.553-7.697,6.17-6.315,6.17-4.611z M6.939-1.647c0.002-0.004,0.004-0.008,0.005-0.012C6.006-2.422,5.489-3.399,5.48-4.615
	C5.472-5.833,5.976-6.818,6.909-7.597C6.899-7.598,6.893-7.6,6.889-7.599C6.81-7.576,6.73-7.556,6.652-7.532
	c-0.564,0.174-1.11,0.391-1.641,0.65C4.055-6.416,3.168-5.843,2.342-5.175c-0.2,0.162-0.39,0.338-0.585,0.506
	c-0.034,0.029-0.033,0.048,0,0.075c0.032,0.026,0.06,0.056,0.091,0.083c1.359,1.202,2.877,2.136,4.604,2.716
	C6.613-1.741,6.777-1.696,6.939-1.647z M11.581-7.576c0.906,0.784,1.397,1.759,1.39,2.958s-0.511,2.169-1.438,2.94
	c0.029-0.004,0.043-0.004,0.056-0.009c0.21-0.067,0.421-0.13,0.628-0.204c0.644-0.229,1.262-0.517,1.856-0.854
	c0.9-0.509,1.738-1.103,2.505-1.798c0.098-0.089,0.098-0.09,0-0.178c-0.792-0.718-1.66-1.329-2.594-1.848
	c-0.717-0.398-1.466-0.725-2.251-0.966C11.684-7.549,11.632-7.562,11.581-7.576z"/>
<circle class="st0" cx="9.214" cy="-4.61" r="1.173"/>
<path class="st0" d="M17.828,4.793c-0.794-0.789-1.708-1.512-2.719-2.147C13.853,1.853,12.63,1.32,11.37,1.015
	c-0.518-0.127-1.047-0.21-1.574-0.247C9.227,0.731,8.621,0.75,8.001,0.834C7.513,0.903,7.017,1.012,6.527,1.157
	C5.849,1.361,5.157,1.641,4.472,1.99C3.744,2.362,3.024,2.809,2.331,3.32C1.691,3.791,1.13,4.268,0.618,4.777L0.591,4.802
	c-0.033,0.032-0.103,0.1-0.104,0.215c0,0.119,0.074,0.189,0.131,0.243c1.144,1.122,2.435,2.057,3.837,2.779
	c0.98,0.506,1.936,0.852,2.923,1.056C7.975,9.221,8.588,9.286,9.202,9.29c0.764-0.004,1.501-0.098,2.257-0.287
	c0.721-0.183,1.444-0.446,2.153-0.782c0.801-0.381,1.594-0.854,2.355-1.405c0.707-0.511,1.316-1.024,1.865-1.573
	c0.039-0.041,0.106-0.109,0.106-0.223C17.94,4.903,17.868,4.831,17.828,4.793z M13.221,5.015c0.005-0.897-0.257-1.705-0.78-2.407
	c0.481,0.189,0.958,0.414,1.422,0.673c0.888,0.492,1.708,1.07,2.44,1.718C15.6,5.62,14.809,6.182,13.949,6.669
	c-0.505,0.285-1.021,0.53-1.534,0.73C12.945,6.709,13.216,5.908,13.221,5.015z M11.26,3.013c0.538,0.538,0.833,1.253,0.832,2.011
	C12.09,6.585,10.82,7.856,9.259,7.856C7.693,7.854,6.42,6.581,6.42,5.02c0-1.563,1.273-2.836,2.84-2.837
	C10.015,2.183,10.726,2.478,11.26,3.013z M6.057,7.429c-1.406-0.537-2.704-1.33-3.965-2.428l0.052-0.046
	C2.261,4.852,2.378,4.747,2.499,4.65c0.82-0.664,1.702-1.229,2.621-1.677c0.302-0.146,0.609-0.28,0.917-0.397
	C5.495,3.28,5.224,4.1,5.23,5.018C5.236,5.927,5.514,6.736,6.057,7.429z"/>
<circle class="st0" cx="9.214" cy="5.02" r="0.999"/>
</svg>
