<?xml version="1.0" encoding="utf-8"?>
<!-- Generator: Adobe Illustrator 24.0.3, SVG Export Plug-In . SVG Version: 6.00 Build 0)  -->
<svg version="1.1" id="Layer_1" xmlns="http://www.w3.org/2000/svg" xmlns:xlink="http://www.w3.org/1999/xlink" x="0px" y="0px"
	 viewBox="0 0 64 64" style="enable-background:new 0 0 64 64;" xml:space="preserve">
<style type="text/css">
	.st0{fill:none;}
	.st1{fill:#FFFFFF;}
	.st2{fill:#870000;}
</style>
<g>
	<path d="M37.7,21c0,0.1,0.1,0.2,0.2,0.3C37.8,21.2,37.7,21.1,37.7,21z"/>
	<path d="M37.5,20.6C37.5,20.6,37.5,20.6,37.5,20.6C37.5,20.6,37.5,20.6,37.5,20.6z"/>
	<path d="M55.7,49.9c-0.3-0.2-0.6-0.4-0.8-0.6C55.1,49.5,55.4,49.7,55.7,49.9z"/>
	<path d="M22.9,20.6C22.9,20.6,22.9,20.6,22.9,20.6C22.9,20.6,22.9,20.6,22.9,20.6z"/>
	<polygon class="st0" points="16.2,35 15.5,36.6 29.2,36.6 28.5,35 	"/>
	<polygon class="st0" points="22.5,21.4 16.5,34.3 28.3,34.3 	"/>
	<path class="st0" d="M36.3,43.4L24.7,17.1h-0.2l-1.1,2.3c-0.2,0.3-0.3,0.7-0.5,1c0,0.3,0.2,0.5,0.6,1.5l8.6,19.4
		c0.7,1.6,1.2,2.7,1.2,4.1c0,1.8-0.9,3.4-2.4,4.5V50h10.1v-0.1C38.9,48.4,37.5,46.1,36.3,43.4z"/>
	<polygon class="st1" points="39.5,17.6 39.3,17.1 39.5,17.6 	"/>
	<path class="st1" d="M22.9,20.5c0,0,0,0.1,0,0.1C22.9,20.6,22.9,20.5,22.9,20.5z"/>
	<path class="st1" d="M45.6,49.9c0.1-0.1,0.3-0.2,0.4-0.3C45.8,49.7,45.7,49.8,45.6,49.9z"/>
	<path class="st1" d="M23.3,21.3L23.3,21.3L23.3,21.3z"/>
	<path class="st1" d="M31,49.9c0.1-0.1,0.3-0.2,0.4-0.3C31.2,49.7,31.1,49.8,31,49.9z"/>
	<polygon class="st1" points="37.5,22.1 37.1,21.4 33,30.2 33.4,31 	"/>
	<path class="st2" d="M60.6,48.5c-1.4,0-1.5-0.1-2-0.3l0,0c-0.7-0.3-2.7-2.9-4.1-6.1L41.2,11.9H39l-6.4,13.9l-6.1-13.9h-2.1
		L10.8,41.5c-1.3,2.6-3.2,4.8-5.5,6.6c-0.6,0.3-1.3,0.5-1.9,0.4H2v3.6h60v-3.6L60.6,48.5z M60.6,50.7H3.4V50c0.9,0,1.8-0.2,2.6-0.7
		c2.5-1.9,4.6-4.4,6-7.2l13.2-28.8h0.3l7,15.9l7.3-15.9h0.3l12.9,29.3c1.3,2.9,3.5,6.2,4.8,6.9c0.7,0.4,1.1,0.5,2.6,0.5L60.6,50.7z"
		/>
	<polygon class="st1" points="19,30.7 22.9,22.1 22.5,21.4 16.5,34.3 17.3,34.3 	"/>
	<path class="st1" d="M22.9,20.7c0,0,0,0.1,0,0.1C23,20.7,23,20.7,22.9,20.7z"/>
	<path class="st1" d="M23,20.8c0,0.1,0.1,0.1,0.1,0.2C23.1,21,23.1,20.9,23,20.8z"/>
	<path class="st1" d="M12.9,43.7c0.1-0.1,0.2-0.3,0.2-0.4c0,0,0-0.1,0.1-0.1c0.1-0.2,0.2-0.3,0.2-0.5l2.5-5.5h-0.8l-1.8,3.8
		c-0.6,1.3-1,2.6-1.3,4c0.3-0.4,0.5-0.8,0.8-1.2L12.9,43.7z"/>
	<path class="st1" d="M30,38.4l-0.4-0.9L28,41.1c-0.6,1.2-1.3,3.2-1.3,4.1c0,0.1,0,0.2,0,0.3c0,0,0,0.1,0,0.1l0,0.1
		C26.7,45.7,30,38.4,30,38.4z"/>
	<polygon class="st1" points="35.9,36.6 35.2,35 43.1,35 43.8,36.6 	"/>
	<path class="st1" d="M11.1,50H7v-0.5c1.5-1.3,2.9-2.8,4.1-4.5l0.1,0.1c-0.2,0.9-0.3,1.8-0.3,2.6C10.9,48.5,11,49.3,11.1,50z"/>
	<path class="st1" d="M25.7,50h-4.1v-0.5c1.5-1.3,2.9-2.8,4.1-4.5l0.1,0.1c-0.2,0.9-0.3,1.8-0.3,2.6C25.5,48.5,25.6,49.3,25.7,50z"
		/>
	<polygon class="st1" points="15.5,36.6 16.2,35 28.5,35 29.2,36.6 	"/>
	<path class="st2" d="M41.1,50H31v-0.1c1.5-1,2.3-2.7,2.4-4.5c0-1.4-0.5-2.5-1.2-4.1l-8.6-19.4c-0.4-1-0.6-1.2-0.6-1.5
		c0-0.2,1.6-3.3,1.6-3.3h0.2l11.5,26.2c1.2,2.7,2.6,5,4.8,6.5L41.1,50z"/>
	<path class="st2" d="M55.7,50H45.6v-0.1c1.5-1,2.3-2.7,2.4-4.5c0-1.4-0.5-2.5-1.2-4.1l-8.6-19.4c-0.4-1-0.6-1.2-0.6-1.5
		c0.1-0.4,0.3-0.7,0.5-1l1.1-2.3h0.2l11.5,26.2c1.2,2.7,2.6,5,4.8,6.5L55.7,50z"/>
	<path d="M60.6,47.6c-1.1,0-1.2,0-1.6-0.2c-0.6-0.4-2.4-2.9-3.7-5.7L41.8,10.9h-3.4l-5.7,12.5l-5.5-12.5h-3.4L9.9,41.1
		c-1.3,2.4-3,4.5-5.2,6.2c-0.5,0.2-0.9,0.3-1.4,0.3H1v5.5H63v-5.5H60.6z M59,47.4L59,47.4L59,47.4L59,47.4z M62,52.1H2v-3.6h1.4
		c0.7,0,1.3-0.1,1.9-0.4c2.3-1.8,4.2-4,5.5-6.6l13.6-29.7h2.1l6.1,13.9L39,11.9h2.1l13.3,30.2c1.4,3.2,3.4,5.8,4.1,6.1l0,0
		c0.5,0.2,0.6,0.3,2,0.3H62L62,52.1z"/>
	<path class="st2" d="M57.9,49.5c-1.3-0.6-3.5-3.9-4.8-6.9L40.2,13.3H40l-7.3,15.9l-7-15.9h-0.3L12.1,42.1c-1.4,2.8-3.5,5.3-6,7.2
		C5.3,49.8,4.4,50,3.4,50v0.7h57.1V50C59.1,50,58.6,49.9,57.9,49.5z M37.1,21.4l0.3,0.8L33.4,31L33,30.2L37.1,21.4z M34.9,34.3
		l-1-2.2l4.1-8.9l4.9,11H34.9z M43.1,35l0.7,1.7h-7.9L35.2,35H43.1z M22.5,21.4l0.3,0.8l-5.6,12.2h-0.8L22.5,21.4z M23.4,23.3
		l4.9,11h-9.9L23.4,23.3z M16.2,35h12.3l0.7,1.7H15.5L16.2,35z M26.7,45.1c0-0.8,0.7-2.8,1.3-4.1l1.6-3.6l0.4,0.9l-3.3,7.3
		C26.7,45.5,26.7,45.3,26.7,45.1z M10.9,48.1c0,0.6,0.1,1.3,0.2,1.9H7v-0.5c1.5-1.3,2.9-2.8,4.1-4.5l0.1,0.1
		c-0.2,0.9-0.3,1.8-0.3,2.6C10.9,47.9,10.9,48,10.9,48.1z M13.4,41.1l1.8-3.8h0.8l-2.5,5.5c-0.4,0.8-0.8,1.6-1.4,2.3
		C12.3,43.7,12.7,42.3,13.4,41.1z M17,50c-2.2,0-2.9-0.1-4-1.6c-0.4-0.6-0.7-1.2-0.8-1.9c0.8-1,1.5-2.2,2.1-3.4l2.7-5.9h12l-2.2,4.9
		c-1.4,2.8-3.5,5.3-6,7.2C19.9,49.9,17.9,49.9,17,50z M25.7,50h-4.1v-0.5c1.5-1.3,2.9-2.8,4.1-4.5l0.1,0.1c-0.2,0.9-0.3,1.8-0.3,2.6
		C25.5,48.5,25.6,49.3,25.7,50L25.7,50z M29.4,49.8c-0.8-0.2-1.4-0.7-1.8-1.4c-0.3-0.4-0.5-0.8-0.7-1.3l3.4-7.7l0.8,1.8
		c0.5,1.1,1.4,2.9,1.4,4.1c0,1.1-0.4,2.1-1,3C31.1,49,30.3,49.6,29.4,49.8L29.4,49.8z M41.1,50H31v-0.1c1.5-1,2.3-2.7,2.4-4.5
		c0-1.4-0.5-2.5-1.2-4.1l-2.3-5.2l-0.2-0.4l-6.1-13.8c0-0.1-0.1-0.2-0.1-0.3c0,0,0-0.1,0-0.1c0-0.1-0.1-0.1-0.1-0.2l0-0.1l-0.1-0.1
		c-0.1-0.2-0.2-0.4-0.3-0.6c0.1-0.4,0.3-0.7,0.5-1l1.1-2.3h0.2l6.6,15l0,0l0.2,0.4l0.9,2.2l0.2,0.3l3.7,8.4c1.2,2.7,2.6,5,4.8,6.5
		L41.1,50z M44,49.8c-0.2-0.1-0.5-0.2-0.7-0.3c-1.3-0.6-3.5-3.9-4.8-6.9l-2.4-5.4h7.9l1.8,3.9c0.5,1.1,1.4,2.9,1.4,4.1
		c0,1.1-0.4,2.1-1,3C45.7,49,44.9,49.6,44,49.8L44,49.8z M55.7,50H46c-0.2,0-0.3,0-0.4,0v-0.1c1.5-1,2.3-2.7,2.4-4.5
		c0-1.4-0.5-2.5-1.2-4.1l-8.6-19.4c-0.1-0.1-0.1-0.2-0.1-0.3c0,0,0-0.1,0-0.1c0-0.1-0.1-0.1-0.1-0.2l0,0c-0.2-0.5-0.3-0.7-0.3-0.8
		c0.1-0.4,0.3-0.7,0.5-1l1.1-2.3h0.2l11.5,26.2c1.2,2.7,2.6,5,4.8,6.5L55.7,50z"/>
</g>
</svg>
