<?xml version="1.0" encoding="utf-8"?>
<!-- Generator: Adobe Illustrator 24.0.3, SVG Export Plug-In . SVG Version: 6.00 Build 0)  -->
<svg version="1.1" id="Layer_1" xmlns="http://www.w3.org/2000/svg" xmlns:xlink="http://www.w3.org/1999/xlink" x="0px" y="0px"
	 viewBox="0 0 15.2 16.7" style="enable-background:new 0 0 15.2 16.7;" xml:space="preserve">
<style type="text/css">
	.st0{fill:#D4B830;}
	.st1{fill:#FDD83C;}
	.st2{fill:#EBEBEB;}
	.st3{fill:#FFFFFF;}
</style>
<g>
	<path id="path5113" class="st0" d="M1.91,14.69L0.61,0.4l13.99,0.01l-1.29,14.28L7.59,16.3L1.91,14.69z M12.25,13.91l1.09-12.24
		H7.61l0.04,13.5L12.25,13.91z M7.08,3.47H5.69l-0.02,7.33l-2.7-0.74l0.01,1.67l4.1,1.11L7.08,3.47L7.08,3.47z"/>
	<path id="path5117" class="st1" d="M7.61,1.67h5.73l-1.09,12.24l-4.6,1.26L7.61,1.67z M11.96,11.86l0.38-4.58L9.55,7.59V5.15
		l2.97-0.01l0.12-1.67L8.16,3.49l0.06,6.08l2.71-0.46l-0.04,1.35l-2.73,0.73l0.03,1.66L11.96,11.86L11.96,11.86z"/>
	<polygon class="st2" points="2.97,10.06 5.67,10.79 5.69,3.47 7.08,3.47 7.08,12.84 2.97,11.73 	"/>
	<polygon class="st3" points="8.19,12.84 8.16,11.18 10.89,10.46 10.93,9.1 8.22,9.57 8.16,3.49 12.64,3.47 12.52,5.14 9.55,5.15 
		9.55,7.59 12.33,7.28 11.96,11.86 	"/>
</g>
</svg>
