<?xml version="1.0" encoding="utf-8"?>
<!-- Generator: Adobe Illustrator 24.0.3, SVG Export Plug-In . SVG Version: 6.00 Build 0)  -->
<svg version="1.1" id="Layer_1" xmlns="http://www.w3.org/2000/svg" xmlns:xlink="http://www.w3.org/1999/xlink" x="0px" y="0px"
	 viewBox="0 0 384.63 251.157" style="enable-background:new 0 0 384.63 251.157;" xml:space="preserve">
<style type="text/css">
	.st0{opacity:0.1;fill:#150D53;}
	.st1{fill:#599ED1;}
	.st2{fill:#C1EBFF;}
	.st3{fill:#FFFFFF;}
	.st4{fill:#67C1EF;}
	.st5{fill:#DCE6F4;}
	.st6{fill:#FF7F8E;}
	.st7{fill:#A0D2EF;}
	.st8{opacity:0.3;fill:#508EBC;}
</style>
<g>
	<ellipse class="st0" cx="192.315" cy="231.635" rx="188.121" ry="10.801"/>
	<g id="laptop_1_">
		<g>
			<path class="st1" d="M352.001,221.951H31.179V16.969c0-4.556,3.693-8.249,8.249-8.249h304.323c4.556,0,8.249,3.693,8.249,8.249
				V221.951z"/>
			<path class="st2" d="M335.81,212.328H47.37c-1.627,0-2.946-1.319-2.946-2.946V24.236c0-1.627,1.319-2.946,2.946-2.946H335.81
				c1.627,0,2.946,1.319,2.946,2.946v185.146C338.756,211.009,337.437,212.328,335.81,212.328z"/>
			<g>
				<path class="st3" d="M329.305,48.196H52.746c-1.222,0-2.213-0.991-2.213-2.213V29.557c0-1.222,0.991-2.213,2.213-2.213h276.56
					c1.222,0,2.213,0.991,2.213,2.213v16.425C331.518,47.205,330.527,48.196,329.305,48.196z"/>
				<g>
					<path class="st4" d="M176.718,40.708h-30.645c-1.28,0-2.318-1.038-2.318-2.318l0,0c0-1.28,1.038-2.318,2.318-2.318h30.645
						c1.28,0,2.318,1.038,2.318,2.318l0,0C179.036,39.67,177.998,40.708,176.718,40.708z"/>
					<g>
						<g>
							<path class="st5" d="M225.557,40.801h-30.645c-1.28,0-2.318-1.038-2.318-2.318l0,0c0-1.28,1.038-2.318,2.318-2.318h30.645
								c1.28,0,2.318,1.038,2.318,2.318l0,0C227.875,39.763,226.837,40.801,225.557,40.801z"/>
						</g>
					</g>
					<g>
						<g>
							<path class="st5" d="M127.88,40.801H97.235c-1.28,0-2.318-1.038-2.318-2.318l0,0c0-1.28,1.038-2.318,2.318-2.318h30.645
								c1.28,0,2.318,1.038,2.318,2.318l0,0C130.198,39.763,129.16,40.801,127.88,40.801z"/>
						</g>
					</g>
					<g>
						<g>
							<path class="st5" d="M274.395,40.801H243.75c-1.28,0-2.318-1.038-2.318-2.318l0,0c0-1.28,1.038-2.318,2.318-2.318h30.645
								c1.28,0,2.318,1.038,2.318,2.318l0,0C276.713,39.763,275.675,40.801,274.395,40.801z"/>
						</g>
					</g>
					<g>
						<g>
							<path class="st5" d="M323.234,40.355h-30.645c-1.28,0-2.318-1.038-2.318-2.318l0,0c0-1.28,1.038-2.318,2.318-2.318h30.645
								c1.28,0,2.318,1.038,2.318,2.318l0,0C325.552,39.317,324.514,40.355,323.234,40.355z"/>
						</g>
					</g>
				</g>
				<path class="st6" d="M62.758,44.15L62.758,44.15c-3.524,0-6.38-2.856-6.38-6.38l0,0c0-3.524,2.856-6.38,6.38-6.38l0,0
					c3.524,0,6.38,2.856,6.38,6.38l0,0C69.138,41.294,66.282,44.15,62.758,44.15z"/>
				<g>
					<path class="st3" d="M136.413,206.342H52.952c-1.536,0-2.782-1.246-2.782-2.782v-77.006c0-1.536,1.246-2.782,2.782-2.782
						h83.461c1.536,0,2.782,1.246,2.782,2.782v77.006C139.195,205.096,137.95,206.342,136.413,206.342z"/>
					<path class="st5" d="M132.35,182.904H57.748c-0.956,0-1.739-0.783-1.739-1.739v-0.503c0-0.956,0.783-1.739,1.739-1.739h74.601
						c0.956,0,1.739,0.783,1.739,1.739v0.503C134.089,182.121,133.306,182.904,132.35,182.904z"/>
					<path class="st5" d="M132.35,190.727H57.748c-0.956,0-1.739-0.783-1.739-1.739v-0.503c0-0.956,0.783-1.739,1.739-1.739h74.601
						c0.956,0,1.739,0.783,1.739,1.739v0.503C134.089,189.944,133.306,190.727,132.35,190.727z"/>
					<path class="st5" d="M89.929,198.549H57.748c-0.956,0-1.739-0.783-1.739-1.739v-0.503c0-0.956,0.783-1.739,1.739-1.739h32.181
						c0.956,0,1.739,0.783,1.739,1.739v0.503C91.668,197.767,90.885,198.549,89.929,198.549z"/>
					<path class="st4" d="M131.298,171.625H58.791c-1.53,0-2.782-1.252-2.782-2.782v-34.94c0-1.53,1.252-2.782,2.782-2.782h72.507
						c1.53,0,2.782,1.252,2.782,2.782v34.94C134.08,170.373,132.828,171.625,131.298,171.625z"/>
				</g>
				<g>
					<path class="st3" d="M231.613,206.342h-82.657c-1.759,0-3.184-1.426-3.184-3.184v-76.201c0-1.759,1.426-3.184,3.184-3.184
						h82.657c1.759,0,3.184,1.426,3.184,3.184v76.201C234.797,204.916,233.371,206.342,231.613,206.342z"/>
					<path class="st5" d="M227.951,182.904H153.35c-0.956,0-1.739-0.783-1.739-1.739v-0.503c0-0.956,0.783-1.739,1.739-1.739h74.601
						c0.956,0,1.739,0.783,1.739,1.739v0.503C229.69,182.121,228.908,182.904,227.951,182.904z"/>
					<path class="st5" d="M227.951,190.727H153.35c-0.956,0-1.739-0.783-1.739-1.739v-0.503c0-0.956,0.783-1.739,1.739-1.739h74.601
						c0.956,0,1.739,0.783,1.739,1.739v0.503C229.69,189.944,228.908,190.727,227.951,190.727z"/>
					<path class="st5" d="M185.53,198.549H153.35c-0.956,0-1.739-0.783-1.739-1.739v-0.503c0-0.956,0.783-1.739,1.739-1.739h32.181
						c0.956,0,1.739,0.783,1.739,1.739v0.503C187.269,197.767,186.487,198.549,185.53,198.549z"/>
					<path class="st6" d="M226.9,171.625h-72.507c-1.53,0-2.782-1.252-2.782-2.782v-34.94c0-1.53,1.252-2.782,2.782-2.782H226.9
						c1.53,0,2.782,1.252,2.782,2.782v34.94C229.682,170.373,228.43,171.625,226.9,171.625z"/>
				</g>
				<g>
					<path class="st3" d="M327.985,206.342h-82.657c-1.759,0-3.184-1.426-3.184-3.184v-76.201c0-1.759,1.426-3.184,3.184-3.184
						h82.657c1.759,0,3.184,1.426,3.184,3.184v76.201C331.17,204.916,329.744,206.342,327.985,206.342z"/>
					<path class="st5" d="M324.324,182.904h-74.601c-0.956,0-1.739-0.783-1.739-1.739v-0.503c0-0.956,0.783-1.739,1.739-1.739
						h74.601c0.956,0,1.739,0.783,1.739,1.739v0.503C326.063,182.121,325.28,182.904,324.324,182.904z"/>
					<path class="st5" d="M324.324,190.727h-74.601c-0.956,0-1.739-0.783-1.739-1.739v-0.503c0-0.956,0.783-1.739,1.739-1.739
						h74.601c0.956,0,1.739,0.783,1.739,1.739v0.503C326.063,189.944,325.28,190.727,324.324,190.727z"/>
					<path class="st5" d="M281.903,198.549h-32.181c-0.956,0-1.739-0.783-1.739-1.739v-0.503c0-0.956,0.783-1.739,1.739-1.739
						h32.181c0.956,0,1.739,0.783,1.739,1.739v0.503C283.642,197.767,282.86,198.549,281.903,198.549z"/>
					<path class="st7" d="M323.273,171.625h-72.507c-1.53,0-2.782-1.252-2.782-2.782v-34.94c0-1.53,1.252-2.782,2.782-2.782h72.507
						c1.53,0,2.782,1.252,2.782,2.782v34.94C326.055,170.373,324.803,171.625,323.273,171.625z"/>
				</g>
				<path class="st3" d="M328.525,116.809H53.177c-1.46,0-2.644-1.184-2.644-2.644V57.132c0-1.46,1.184-2.644,2.644-2.644h275.348
					c1.461,0,2.644,1.184,2.644,2.644v57.032C331.17,115.625,329.986,116.809,328.525,116.809z"/>
				<g>
					<g>
						<g>
							<path class="st5" d="M317.787,83.981H214.236c-0.837,0-1.516-0.679-1.516-1.516l0,0c0-0.837,0.679-1.516,1.516-1.516h103.551
								c0.837,0,1.516,0.679,1.516,1.516l0,0C319.303,83.302,318.624,83.981,317.787,83.981z"/>
						</g>
						<g>
							<path class="st5" d="M302.612,91.382h-88.376c-0.837,0-1.516-0.679-1.516-1.516l0,0c0-0.837,0.679-1.516,1.516-1.516h88.376
								c0.837,0,1.516,0.679,1.516,1.516l0,0C304.127,90.704,303.449,91.382,302.612,91.382z"/>
						</g>
					</g>
					<g>
						<path class="st4" d="M299.013,73.294h-66.004c-1.608,0-2.912-1.304-2.912-2.912l0,0c0-1.608,1.304-2.912,2.912-2.912h66.004
							c1.608,0,2.912,1.304,2.912,2.912l0,0C301.925,71.99,300.621,73.294,299.013,73.294z"/>
					</g>
					<path class="st6" d="M278.144,109.346h-24.266c-2.669,0-4.853-2.184-4.853-4.853v0c0-2.669,2.184-4.853,4.853-4.853h24.266
						c2.669,0,4.853,2.184,4.853,4.853v0C282.997,107.162,280.814,109.346,278.144,109.346z"/>
				</g>
				<path class="st7" d="M187.772,110.068H60.661c-2.188,0-3.979-1.79-3.979-3.979V66.157c0-2.188,1.79-3.979,3.979-3.979h127.111
					c2.188,0,3.979,1.79,3.979,3.979v39.932C191.751,108.278,189.96,110.068,187.772,110.068z"/>
			</g>
		</g>
		<path class="st7" d="M363.621,232.673H19.559c-5.207,0-9.428-4.221-9.428-9.428v-1.41c0-0.651,0.528-1.178,1.178-1.178h360.56
			c0.651,0,1.178,0.528,1.178,1.178v1.41C373.048,228.452,368.827,232.673,363.621,232.673z"/>
		<path class="st8" d="M160.472,222.122c0,2.498,2.044,4.542,4.543,4.542h53.151c2.498,0,4.542-2.044,4.542-4.542
			c0-0.513-0.09-1.005-0.249-1.465h-61.738C160.562,221.118,160.472,221.609,160.472,222.122z"/>
		<path class="st3" d="M193.358,15.035c0,0.976-0.791,1.768-1.768,1.768s-1.768-0.791-1.768-1.768s0.791-1.768,1.768-1.768
			S193.358,14.059,193.358,15.035z"/>
	</g>
</g>
</svg>
