<?xml version="1.0" encoding="utf-8"?>
<!-- Generator: Adobe Illustrator 24.0.3, SVG Export Plug-In . SVG Version: 6.00 Build 0)  -->
<svg version="1.1" id="Layer_1" xmlns="http://www.w3.org/2000/svg" xmlns:xlink="http://www.w3.org/1999/xlink" x="0px" y="0px"
	 viewBox="0 0 116.754 200" style="enable-background:new 0 0 116.754 200;" xml:space="preserve">
<style type="text/css">
	.st0{opacity:0.1;fill:#150D53;}
	.st1{fill:#599ED1;}
	.st2{fill:#C1EBFF;}
	.st3{fill:#FFFFFF;}
	.st4{fill:#DCE6F4;}
	.st5{fill:#67C1EF;}
	.st6{fill:#FF7F8E;}
	.st7{fill:none;stroke:#67C1EF;stroke-width:1.3021;stroke-linecap:round;stroke-linejoin:round;stroke-miterlimit:10;}
	.st8{fill:#A0D2EF;}
</style>
<g>
	<ellipse class="st0" cx="58.377" cy="187.709" rx="54.65" ry="7.47"/>
	<g id="smartphone_3_">
		<g id="phone_3_">
			<path class="st1" d="M99.612,187.709H21.579c-4.356,0-7.888-3.531-7.888-7.888V12.709c0-4.356,3.531-7.888,7.888-7.888h78.032
				c4.356,0,7.888,3.531,7.888,7.888v167.113C107.499,184.178,103.968,187.709,99.612,187.709z"/>
			<path class="st2" d="M97.867,176.996H23.29c-2.017,0-3.651-1.635-3.651-3.651V18.038c0-2.017,1.635-3.651,3.651-3.651h74.576
				c2.017,0,3.651,1.635,3.651,3.651v155.307C101.518,175.361,99.883,176.996,97.867,176.996z"/>
			<path class="st3" d="M67.465,10.56H53.691c-0.526,0-0.957-0.43-0.957-0.956l0,0c0-0.526,0.43-0.957,0.957-0.957h13.774
				c0.526,0,0.957,0.43,0.957,0.957l0,0C68.422,10.13,67.992,10.56,67.465,10.56z"/>
		</g>
		<g>
			<path class="st3" d="M95.082,176.996H25.794v-69.027c0-0.999,0.81-1.81,1.81-1.81h65.669c0.999,0,1.81,0.81,1.81,1.81V176.996z"
				/>
			<path class="st4" d="M89.649,159.586H31.797c-0.802,0-1.458-0.656-1.458-1.458v-0.68c0-0.802,0.656-1.458,1.458-1.458h57.852
				c0.802,0,1.458,0.656,1.458,1.458v0.68C91.108,158.93,90.451,159.586,89.649,159.586z"/>
			<path class="st4" d="M89.649,166.654H31.797c-0.802,0-1.458-0.656-1.458-1.458v-0.68c0-0.802,0.656-1.458,1.458-1.458h57.852
				c0.802,0,1.458,0.656,1.458,1.458v0.68C91.108,165.998,90.451,166.654,89.649,166.654z"/>
			<path class="st4" d="M56.633,173.722H31.797c-0.802,0-1.458-0.656-1.458-1.458v-0.68c0-0.802,0.656-1.458,1.458-1.458h24.836
				c0.802,0,1.458,0.656,1.458,1.458v0.68C58.092,173.066,57.435,173.722,56.633,173.722z"/>
			<path class="st5" d="M86.149,149.395H35.291c-2.724,0-4.952-2.229-4.952-4.952v-26.691c0-2.724,2.228-4.952,4.952-4.952h50.858
				c2.724,0,4.952,2.228,4.952,4.952v26.691C91.101,147.167,88.873,149.395,86.149,149.395z"/>
		</g>
		<path class="st3" d="M93.526,37.776H27.92c-1.029,0-1.863-0.834-1.863-1.863V22.306c0-1.029,0.834-1.863,1.863-1.863h65.606
			c1.029,0,1.863,0.834,1.863,1.863v13.607C95.389,36.942,94.555,37.776,93.526,37.776z"/>
		<path class="st6" d="M35.336,34.681L35.336,34.681c-3.077,0-5.571-2.494-5.571-5.571v0c0-3.077,2.494-5.571,5.571-5.571h0
			c3.077,0,5.571,2.494,5.571,5.571v0C40.907,32.187,38.413,34.681,35.336,34.681z"/>
		<g>
			<line class="st7" x1="80.7" y1="32.425" x2="91.281" y2="32.425"/>
			<line class="st7" x1="80.7" y1="25.371" x2="91.281" y2="25.371"/>
			<line class="st7" x1="80.7" y1="28.898" x2="91.281" y2="28.898"/>
		</g>
		<path class="st3" d="M92.661,99.649H28.216c-1.349,0-2.443-1.094-2.443-2.443V46.378c0-1.349,1.094-2.443,2.443-2.443h64.445
			c1.349,0,2.443,1.094,2.443,2.443v50.828C95.104,98.555,94.01,99.649,92.661,99.649z"/>
		<g>
			<g>
				<g>
					<g>
						<path class="st4" d="M85.647,56.647H34.666c-0.412,0-0.746-0.334-0.746-0.746l0,0c0-0.412,0.334-0.746,0.746-0.746h50.981
							c0.412,0,0.746,0.334,0.746,0.746l0,0C86.393,56.313,86.059,56.647,85.647,56.647z"/>
					</g>
					<g>
						<path class="st4" d="M78.176,60.291H34.666c-0.412,0-0.746-0.334-0.746-0.746l0,0c0-0.412,0.334-0.746,0.746-0.746h43.509
							c0.412,0,0.746,0.334,0.746,0.746l0,0C78.922,59.957,78.588,60.291,78.176,60.291z"/>
					</g>
				</g>
				<g>
					<path class="st5" d="M76.404,51.386H43.909c-0.792,0-1.434-0.642-1.434-1.434l0,0c0-0.792,0.642-1.434,1.434-1.434h32.495
						c0.792,0,1.434,0.642,1.434,1.434l0,0C77.838,50.744,77.196,51.386,76.404,51.386z"/>
				</g>
				<path class="st6" d="M66.13,69.135H54.183c-1.314,0-2.389-1.075-2.389-2.389l0,0c0-1.314,1.075-2.389,2.389-2.389H66.13
					c1.314,0,2.389,1.075,2.389,2.389l0,0C68.519,68.059,67.444,69.135,66.13,69.135z"/>
			</g>
			<path class="st8" d="M86.262,95.065H34.615c-2.507,0-4.558-2.051-4.558-4.558V78.079c0-2.507,2.051-4.558,4.558-4.558h51.647
				c2.507,0,4.558,2.051,4.558,4.558v12.429C90.819,93.014,88.768,95.065,86.262,95.065z"/>
		</g>
	</g>
</g>
</svg>
