<?xml version="1.0" encoding="utf-8"?>
<!-- Generator: Adobe Illustrator 24.0.3, SVG Export Plug-In . SVG Version: 6.00 Build 0)  -->
<svg version="1.1" id="Layer_1" xmlns="http://www.w3.org/2000/svg" xmlns:xlink="http://www.w3.org/1999/xlink" x="0px" y="0px"
	 viewBox="0 0 100 71.6" style="enable-background:new 0 0 100 71.6;" xml:space="preserve">
<style type="text/css">
	.st0{fill:#FFFFFF;}
	.st1{fill:none;}
</style>
<title>new1</title>
<path d="M98,68.5H2v-8.5l3.5,0c0,0,0,0,0,0c1.1,0,2.2-0.4,3.1-1.1c3-2.5,5.4-5.5,7.2-8.9L37.3,3.1h5.2L51,22.4l8.9-19.3h5.2l21,47.7
	c1.9,4.3,4.7,8.1,5.7,8.8c0.5,0.3,0.7,0.3,2.4,0.3H98V68.5z M17.1,61l5,2.9h47.1L83.4,61c-1.5-2.3-2.9-4.7-4-7.2L62.4,15.4L42,59
	l-1-3.3L50.2,39L39.8,15.4L22.6,53C21.1,55.9,19.2,58.6,17.1,61z M91.8,59.6L91.8,59.6L91.8,59.6L91.8,59.6z"/>
<path class="st0" d="M96.5,67h-93v-5.6l2.1,0c0.4,0,0.8,0,1.2-0.1c0.9-0.2,1.8-0.6,2.5-1.2c3.2-2.6,5.9-5.9,7.8-9.6l21.1-46h3.3
	L51,26l9.9-21.5h3.3l20.6,46.8c2.2,4.9,5.3,9,6.3,9.5l0,0c0.7,0.4,1,0.5,3.1,0.5h2.2L96.5,67z M13.5,62.5l8.6,1.6h49.8l14.5-1.6
	c-2.3-2.8-4.2-6-5.7-9.3L62.5,11.8L41.4,57.4L41.1,55l9.2-19.1L39.9,11.8L21.2,52.4C19.3,56.2,16.7,59.6,13.5,62.5z"/>
<polygon class="st0" points="56,42.9 54.8,40.4 67.1,40.4 68.3,42.9 "/>
<polygon class="st0" points="24.4,42.9 25.5,40.4 44.5,40.4 45.7,42.9 "/>
<polygon class="st1" points="48.2,40.4 47,42.9 68.3,42.9 67.1,40.4 "/>
<path class="st1" d="M40.2,56c-1.8,2.6-3.9,4.9-6.3,6.9v0.7h6.4c-0.2-1.1-0.3-2.2-0.3-3.4c0-1.4,0.1-2.7,0.4-4.1L40.2,56z"/>
<polygon class="st1" points="58,19.3 48.6,39.4 66.8,39.4 "/>
<path class="st1" d="M79.2,53.4L61.3,12.8H61l-1.8,3.5c-0.3,0.5-0.5,1.1-0.7,1.6c0,0.4,0.3,0.7,1,2.3l13.3,30
	c1.1,2.5,1.9,4.2,1.9,6.4c-0.1,2.8-1.4,5.3-3.7,6.9v0.2h15.7v-0.2C83.3,61.2,81.1,57.6,79.2,53.4z"/>
<path class="st0" d="M86.7,63.6H71v-0.2c2.3-1.6,3.6-4.2,3.7-6.9c0-2.2-0.8-3.9-1.9-6.4l-13.3-30c-0.6-1.5-1-1.9-1-2.3
	c0.2-0.6,0.4-1.1,0.7-1.6l1.8-3.5h0.3l17.9,40.6c1.9,4.2,4.1,7.8,7.5,10.1V63.6z"/>
<path class="st0" d="M17.7,63.6h-6.4v-0.7c2.4-2,4.5-4.4,6.3-6.9l0.2,0.2c-0.3,1.4-0.4,2.7-0.4,4.1C17.4,61.4,17.5,62.5,17.7,63.6z"
	/>
<polygon class="st1" points="25.5,40.4 24.4,42.9 45.7,42.9 44.5,40.4 "/>
<path class="st1" d="M17.6,56c-1.8,2.6-3.9,4.9-6.3,6.9v0.7h6.4c-0.2-1.1-0.3-2.2-0.3-3.4c0-1.4,0.1-2.7,0.4-4.1L17.6,56z"/>
<polygon class="st1" points="35.4,19.3 26,39.4 44.2,39.4 "/>
<path class="st1" d="M56.6,53.4L38.7,12.8h-0.3l-1.8,3.5c-0.3,0.5-0.5,1.1-0.7,1.6c0,0.4,0.3,0.7,1,2.3l13.3,30
	c1.1,2.5,1.9,4.2,1.9,6.4c-0.1,2.8-1.4,5.3-3.7,6.9v0.2h15.7v-0.2C60.7,61.2,58.4,57.6,56.6,53.4z"/>
<path d="M94.3,63.6c-2.3,0-3-0.2-4.1-0.7c-2-1-5.4-6.1-7.4-10.6l-20-45.5h-0.4L51,31.5L40.1,6.8h-0.4L19.2,51.5
	c-2.1,4-5,7.6-8.5,10.4c-0.8,0.7-1.8,1.2-2.8,1.5c-0.7,0.2-1.4,0.3-2.1,0.2v1.1l88.5,0V63.6z M58,19.3l8.9,20.1H54.5L51.6,33
	L58,19.3z M68.6,63.3c-0.4-0.1-0.7-0.3-1.1-0.4c-2-1-5.4-6.1-7.4-10.6l-3.7-8.4h12.2l2.7,6c0.8,1.7,2.2,4.5,2.2,6.3
	c0,1.7-0.6,3.3-1.6,4.6C70.9,62.3,70,63,68.6,63.3z M56,42.9l-1.1-2.6h12.2l1.1,2.6H56z M50.9,40.4l1.1,2.6h-5l1.1-2.6H50.9z
	 M48.6,39.4l0.9-2l0.9,2H48.6z M36.6,16.3l1.8-3.5h0.3l10.2,23.2l-2.6,5.6l-9.5-21.4c-0.6-1.5-1-1.8-1-2.3
	C36.1,17.4,36.4,16.8,36.6,16.3z M35.4,19.3l8.9,20.1H26L35.4,19.3z M25.5,40.4h19l1.1,2.6H24.4L25.5,40.4z M17.7,63.6h-6.4v-0.7
	c2.4-2,4.5-4.4,6.3-6.9l0.2,0.2c-0.3,1.4-0.4,2.7-0.4,4.1C17.4,61.4,17.5,62.5,17.7,63.6z M26.8,63.6L26.8,63.6
	c-3.5,0-4.5-0.2-6.2-2.5c-1-1.5-1.6-3.2-1.5-5c0-1.3,1.1-4.3,2-6.3l2.7-6h21.4l-3.5,7.6c-2.2,4.4-5.4,8.1-9.3,11.1
	C31.2,63.5,28.2,63.5,26.8,63.6z M40.3,63.6h-6.4v-0.7c2.4-2,4.5-4.4,6.3-6.9l0.2,0.2c-0.3,1.4-0.4,2.7-0.4,4.1
	C40,61.4,40.1,62.5,40.3,63.6z M43.7,49.9l2.5-5.5l2.5,5.6c0.8,1.7,2.2,4.5,2.2,6.3c0,1.7-0.6,3.3-1.6,4.6c-1.1,1.5-2,2.2-3.3,2.5
	c-1.1-0.3-1.8-0.9-2.8-2.2c-1-1.5-1.5-3.2-1.5-5C41.7,54.8,42.8,51.8,43.7,49.9z M64.1,63.6H49.9c-0.6,0-1.1,0-1.5,0v-0.1
	c2.3-1.6,3.6-4.2,3.7-6.9c0-2.2-0.8-3.9-1.9-6.4l-2.8-6.3h5l4.2,9.5c1.9,4.2,4.1,7.8,7.5,10.1L64.1,63.6z M86.7,63.6h-15
	c-0.2,0-0.4,0-0.6,0v-0.2c2.3-1.6,3.6-4.2,3.7-6.9c0-2.2-0.8-3.9-1.9-6.4l-13.3-30c-0.6-1.5-1-1.8-1-2.3c0.2-0.6,0.4-1.1,0.7-1.6
	l1.8-3.5h0.3l17.9,40.6c1.9,4.2,4.1,7.8,7.5,10.1V63.6z"/>
<path class="st0" d="M64.1,63.6H48.4v-0.2c2.3-1.6,3.6-4.2,3.7-6.9c0-2.2-0.8-3.9-1.9-6.4l-13.3-30c-0.6-1.5-1-1.9-1-2.3
	c0.2-0.6,0.4-1.1,0.7-1.6l1.8-3.5h0.3l17.9,40.6c1.9,4.2,4.1,7.8,7.5,10.1L64.1,63.6z"/>
<path class="st0" d="M40.3,63.6h-6.4v-0.7c2.4-2,4.5-4.4,6.3-6.9l0.2,0.2c-0.3,1.4-0.4,2.7-0.4,4.1C40,61.4,40.1,62.5,40.3,63.6z"/>
</svg>
