<svg id="Layer_1" data-name="Layer 1" xmlns="http://www.w3.org/2000/svg" viewBox="0 0 30 19.846"><defs><style>.cls-1{fill:#fff;}</style></defs><title>newEye</title><path class="cls-1" d="M15,.473A.526.526,0,0,0,14.475,1V3.873a.526.526,0,0,0,1.051,0V1A.527.527,0,0,0,15,.473Z"/><path class="cls-1" d="M16.877,12.478H16.5a.986.986,0,0,1,.059.337v1.424a.435.435,0,0,1-.024.141h.623a.422.422,0,0,0,.422-.422v-.777A.7.7,0,0,0,16.877,12.478Z"/><path class="cls-1" d="M13.524,12.815a.964.964,0,0,1,.06-.337h-.377a.7.7,0,0,0-.7.7v.777a.422.422,0,0,0,.422.422h.623a.435.435,0,0,1-.024-.141Z"/><path class="cls-1" d="M15.474,12.111h-.862a.705.705,0,0,0-.7.7v1.424a.141.141,0,0,0,.141.141h1.988a.141.141,0,0,0,.14-.141V12.815A.7.7,0,0,0,15.474,12.111Z"/><path class="cls-1" d="M15.043,10.246a.846.846,0,1,0,0,1.692.836.836,0,0,0,.413-.108.846.846,0,0,0-.413-1.584Z"/><path class="cls-1" d="M13.454,11.034a.633.633,0,1,0,.633.633A.634.634,0,0,0,13.454,11.034Z"/><path class="cls-1" d="M16.629,11.034a.634.634,0,0,0-.633.633.618.618,0,0,0,.075.3.63.63,0,0,0,.309.285.623.623,0,0,0,.249.051.633.633,0,0,0,0-1.266Z"/><path class="cls-1" d="M6.854,2.56a.526.526,0,0,0-.151.728l1.577,2.4a.526.526,0,0,0,.879-.577l-1.578-2.4A.525.525,0,0,0,6.854,2.56Z"/><path class="cls-1" d="M23.146,2.56a.526.526,0,0,1,.151.728l-1.577,2.4a.526.526,0,0,1-.879-.577l1.578-2.4A.525.525,0,0,1,23.146,2.56Z"/><path class="cls-1" d="M1.084,6.927a.526.526,0,0,0,0,.743L3.122,9.7a.525.525,0,1,0,.742-.744L1.827,6.925A.527.527,0,0,0,1.084,6.927Z"/><path class="cls-1" d="M28.916,6.927a.526.526,0,0,1,0,.743L26.878,9.7a.525.525,0,0,1-.742-.744l2.037-2.029A.527.527,0,0,1,28.916,6.927Z"/><path class="cls-1" d="M27.041,12.616a.248.248,0,0,0,0-.027,18.254,18.254,0,0,0-.054-.231.787.787,0,0,0-.048-.084.83.83,0,0,0-.079-.139h0a21.859,21.859,0,0,0-3.451-3.1,18.339,18.339,0,0,0-3.755-2.129c-.136-.056-.27-.1-.4-.153-.169-.066-.34-.134-.508-.192-.075-.026-.152-.046-.227-.071-.235-.077-.472-.15-.712-.212-.075-.02-.154-.034-.231-.052-.232-.055-.468-.107-.711-.147-.12-.02-.247-.032-.37-.048-.16-.021-.313-.049-.48-.063-.048,0-.093,0-.14-.006s-.081-.011-.124-.014c-.253-.017-.5-.025-.741-.025H15l-.087,0c-.263,0-.533.011-.81.032l-.009,0h-.007c-.111.009-.211.028-.319.039a12.056,12.056,0,0,0-3.423.907c-.1.041-.2.084-.3.128l.009.006a18.1,18.1,0,0,0-3.1,1.75l0,0c-.114.079-.229.16-.342.242l-.01.007,0,0h0l-.011.008q-.37.27-.707.536c-.162.128-.31.252-.459.376-.056.047-.117.094-.171.141-.183.154-.35.3-.511.446l-.035.031a18.314,18.314,0,0,0-1.554,1.557A.75.75,0,0,0,3,12.391a.725.725,0,0,0-.017.093.839.839,0,0,0-.029.165c0,.011.005.021.006.032s0,.019,0,.028a.711.711,0,0,0,.03.129.675.675,0,0,0,.024.1.7.7,0,0,0,.048.084.757.757,0,0,0,.079.139h0a21.842,21.842,0,0,0,3.451,3.1,18.333,18.333,0,0,0,3.755,2.128c.136.057.27.1.405.154.169.065.34.133.508.192.076.026.152.046.227.07.235.077.472.151.711.213.076.019.156.033.232.051.232.055.468.107.711.147.12.02.247.032.37.049.16.021.313.048.48.063.048,0,.093,0,.14.006s.081.011.124.014c.253.016.5.024.741.025H15c.03,0,.064,0,.094,0,.261,0,.528-.011.8-.032h.016c.118-.01.225-.03.339-.042a12.08,12.08,0,0,0,3.4-.905c.1-.041.2-.084.3-.127l-.009-.006c.2-.085.389-.2.584-.292l-1.441-1.047c-.3.121-.584.222-.864.319-.142.05-.283.1-.421.14-.186.058-.368.109-.549.157-.136.035-.273.072-.408.1-.182.04-.364.069-.545.1-.127.02-.253.044-.381.058-.236.025-.478.036-.722.042-.068,0-.133.01-.2.01a10.518,10.518,0,0,1-4.1-.927c-.434-.174-.868-.378-1.3-.6A16.358,16.358,0,0,1,7.455,15.03c-.094-.068-.176-.135-.267-.2a22.672,22.672,0,0,1-2.219-1.9l-.281-.277L4.74,12.6l.227-.223a21.862,21.862,0,0,1,2.488-2.1c.21-.152.433-.3.659-.444A16.926,16.926,0,0,1,10.9,8.384c.307-.123.591-.225.874-.323.142-.05.282-.1.421-.139.186-.059.368-.11.549-.157.137-.036.273-.072.408-.1.182-.04.364-.069.545-.1.127-.019.253-.044.381-.057.236-.026.478-.037.722-.042.068,0,.133-.01.2-.01a10.518,10.518,0,0,1,4.1.927c.423.169.845.368,1.264.578a16.493,16.493,0,0,1,2.18,1.3c.094.068.176.135.267.2a22.4,22.4,0,0,1,2.219,1.9l.281.276-.052.052-.227.223a21.853,21.853,0,0,1-2.488,2.106c-.21.151-.433.3-.659.443s-.449.259-.673.389l1.327.965c.17-.111.342-.2.51-.321l0,0c.114-.08.229-.16.342-.243l.01-.006,0,0h0l.011-.007c.247-.18.483-.36.707-.537.162-.128.31-.251.459-.375.056-.047.117-.095.171-.141.183-.155.35-.3.511-.447l.035-.031a18.409,18.409,0,0,0,1.554-1.556A.764.764,0,0,0,27,12.906a.725.725,0,0,0,.017-.093.826.826,0,0,0,.029-.165C27.047,12.637,27.042,12.627,27.041,12.616Z"/><path class="cls-1" d="M23.372,18.049,18.894,14.8a4.5,4.5,0,1,0-.647.89l4.478,3.254a.551.551,0,0,0,.647-.89Zm-7.8-1.783a3.662,3.662,0,1,1-1.12-7.238,3.6,3.6,0,0,1,.494-.043,3.662,3.662,0,0,1,.626,7.281Z"/></svg>