<svg id="Layer_1" data-name="Layer 1" xmlns="http://www.w3.org/2000/svg" viewBox="0 0 49.138 36.284"><defs><style>.cls-1,.cls-3{fill:#9ecaff;}.cls-1,.cls-2{opacity:0.5;}.cls-1{isolation:isolate;}</style></defs><title>newEffect2</title><path class="cls-1" d="M0,17.973V18.2H20.548a.188.188,0,0,0,.188-.188v-.874h3.173v.874a.188.188,0,0,0,.188.188h2.134V20.35a.188.188,0,0,0,.188.188h3.427a.47.47,0,1,0,0-.226H26.457V18.163a.188.188,0,0,0-.188-.188H24.135V17.1a.188.188,0,0,0-.188-.188H20.7a.188.188,0,0,0-.188.188v.872Zm30.135,2.446a.169.169,0,1,1,.169.169h0a.169.169,0,0,1-.173-.165v0Z"/><path class="cls-1" d="M21.077,19.945H0v.228H21.114a.188.188,0,0,0,.188-.188v-.98H23.36v.98a.189.189,0,0,0,.189.188h2.016v2.434a.188.188,0,0,0,.188.188h8.728a.468.468,0,1,0-.007-.226H25.791V20.133a.188.188,0,0,0-.188-.188H23.586v-.981a.188.188,0,0,0-.185-.191H21.265a.188.188,0,0,0-.188.188Zm13.687,2.721a.169.169,0,1,1,.17.168h0A.169.169,0,0,1,34.764,22.666Z"/><path class="cls-1" d="M27.228,33.623a.47.47,0,1,1-.456.583H0V33.98H26.772A.47.47,0,0,1,27.228,33.623Z"/><path class="cls-1" d="M26.772,32.473a.47.47,0,1,1,0,.226H0v-.226Z"/><g class="cls-2"><path class="cls-3" d="M24.515,31.112H0v.225H24.515a.47.47,0,1,0,0-.225Zm.287.112a.169.169,0,0,1,.337,0,.169.169,0,1,1-.337.026A.113.113,0,0,1,24.8,31.224Z"/><path class="cls-3" d="M0,29.589v.226H39.389a.47.47,0,1,0,0-.226Zm39.68.113a.169.169,0,1,1,.169.169h0a.169.169,0,0,1-.173-.165v0Z"/></g><g class="cls-2"><path class="cls-3" d="M25.894,27.786H0v.226H25.932a.188.188,0,0,0,.188-.188V24.846H36.315a.471.471,0,1,0,.006-.226H26.082a.188.188,0,0,0-.188.188Z"/></g><g class="cls-2"><path class="cls-3" d="M28.829,35.513H0v.226H28.87a.188.188,0,0,0,.188-.188v-4.2h8.16a.471.471,0,1,0,.006-.226h-8.2a.188.188,0,0,0-.188.188Zm8.679-4.26a.169.169,0,1,1,.169.169h0A.169.169,0,0,1,37.508,31.253Z"/></g><path class="cls-1" d="M27.883,25.662a.47.47,0,0,0-.115.925v1.43a.474.474,0,1,0,.226,0v-1.43a.47.47,0,0,0-.111-.926Zm0,2.643a.169.169,0,1,1-.169.169h0A.169.169,0,0,1,27.883,28.305Zm0-2.342a.169.169,0,1,1-.169.169h0A.169.169,0,0,1,27.883,25.963Z"/><path class="cls-1" d="M29.663,25.662a.47.47,0,0,0-.115.925v1.43a.474.474,0,1,0,.226,0v-1.43a.47.47,0,0,0-.111-.926Zm0,2.643a.169.169,0,1,1-.168.17v0A.17.17,0,0,1,29.663,28.305Zm0-2.342a.169.169,0,1,1-.168.17h0A.169.169,0,0,1,29.663,25.963Z"/><path class="cls-1" d="M31.443,25.662a.47.47,0,0,0-.114.925v1.43a.474.474,0,1,0,.225,0v-1.43a.47.47,0,0,0-.111-.926Zm0,2.643a.169.169,0,1,1-.168.17v0A.17.17,0,0,1,31.443,28.305Zm0-2.342a.169.169,0,1,1-.168.17h0A.169.169,0,0,1,31.443,25.963Z"/><path class="cls-1" d="M33.224,25.662a.47.47,0,0,0-.115.925v1.43a.47.47,0,1,0,.585.456.476.476,0,0,0-.359-.455v-1.43a.47.47,0,0,0-.111-.926Zm0,2.643a.169.169,0,0,1,0,.337.169.169,0,0,1-.026-.337A.113.113,0,0,1,33.224,28.305Zm0-2.342a.169.169,0,1,1-.169.169h0A.169.169,0,0,1,33.224,25.963Z"/><path class="cls-1" d="M9.883,20.7a.47.47,0,0,0-.115.925v1.431a.474.474,0,1,0,.226,0V21.629a.47.47,0,0,0-.111-.926Zm0,2.643a.169.169,0,1,1-.169.169h0A.169.169,0,0,1,9.883,23.346Zm0-2.341a.169.169,0,1,1-.169.169h0A.169.169,0,0,1,9.883,21.005Z"/><path class="cls-1" d="M11.706,20.7a.47.47,0,0,0-.115.925v1.431a.474.474,0,1,0,.226,0V21.629a.47.47,0,0,0-.111-.926Zm0,2.643a.169.169,0,1,1,.026.337.113.113,0,0,1-.026,0,.169.169,0,0,1,0-.337Zm0-2.341a.169.169,0,1,1-.165.173v-.005A.17.17,0,0,1,11.706,21.005Z"/><path class="cls-1" d="M13.529,20.7a.47.47,0,0,0-.114.925v1.431a.474.474,0,1,0,.225,0V21.629a.47.47,0,0,0-.111-.926Zm0,2.643a.169.169,0,1,1-.168.17h0A.169.169,0,0,1,13.529,23.346Zm0-2.341a.169.169,0,1,1-.168.17v0A.168.168,0,0,1,13.529,21.005Z"/><path class="cls-1" d="M15.353,20.757a.463.463,0,0,0-.47.454h0a.457.457,0,0,0,.355.44v1.385a.453.453,0,0,0-.355.441.47.47,0,1,0,.581-.44V21.652a.453.453,0,0,0-.111-.895Zm0,2.557a.163.163,0,1,1-.169.163.165.165,0,0,1,.167-.163Zm0-2.266a.163.163,0,1,1-.169.163.165.165,0,0,1,.167-.163Z"/><path class="cls-1" d="M17.176,20.757a.452.452,0,0,0-.115.894v1.385a.453.453,0,0,0-.355.441.47.47,0,1,0,.581-.44V21.652a.455.455,0,0,0,.359-.441.462.462,0,0,0-.47-.454Zm0,2.557a.163.163,0,1,1-.169.163.166.166,0,0,1,.169-.163Zm0-2.266a.163.163,0,1,1-.169.163.166.166,0,0,1,.169-.163Z"/><path class="cls-1" d="M19,20.757a.452.452,0,0,0-.115.894v1.385a.453.453,0,0,0-.355.441.47.47,0,1,0,.581-.44V21.652a.455.455,0,0,0,.359-.441.462.462,0,0,0-.47-.454Zm0,2.557a.163.163,0,1,1-.168.163A.167.167,0,0,1,19,23.314Zm0-2.266a.163.163,0,1,1-.168.163A.167.167,0,0,1,19,21.048Z"/><path class="cls-1" d="M27.114,19.02a.469.469,0,0,0,.924.115h6.406a.474.474,0,1,0,0-.226H28.039a.469.469,0,0,0-.925.111Zm7.617,0a.169.169,0,1,1,.169.169h0A.169.169,0,0,1,34.731,19.02Zm-7.316,0a.169.169,0,1,1,.169.169h0A.169.169,0,0,1,27.415,19.02Z"/><path class="cls-1" d="M24.971,17.127a.47.47,0,0,0,.925.115h7.383a.47.47,0,1,0,.456-.585.475.475,0,0,0-.455.359H25.9a.47.47,0,0,0-.926.111Zm8.6,0a.169.169,0,1,1,.169.169h0a.169.169,0,0,1-.172-.166v0Zm-8.3,0a.169.169,0,1,1,.169.169h0a.169.169,0,0,1-.168-.169Z"/><path class="cls-1" d="M18.767,15.52a.47.47,0,0,0,.925.115H31.441a.47.47,0,1,0,.456-.585.476.476,0,0,0-.455.359H19.693a.47.47,0,0,0-.926.111Z"/><path class="cls-1" d="M30.551,32.628a.47.47,0,0,0,.925.114H43a.47.47,0,1,0,.456-.584.475.475,0,0,0-.455.359H31.477a.47.47,0,0,0-.926.111Zm12.739,0a.169.169,0,0,1,.338,0,.168.168,0,0,1-.168.17h0a.168.168,0,0,1-.164-.168Zm-12.438,0a.169.169,0,0,1,.338,0,.168.168,0,0,1-.168.17h0A.169.169,0,0,1,30.852,32.628Z"/><path class="cls-1" d="M30.552,34.146a.47.47,0,0,0,.925.115H45.422a.484.484,0,1,0,.005-.229H31.478a.47.47,0,0,0-.926.111Zm15.157,0a.169.169,0,1,1,.169.169h0A.169.169,0,0,1,45.709,34.146Zm-14.856,0a.169.169,0,1,1,.169.169h0A.169.169,0,0,1,30.853,34.146Z"/><path class="cls-1" d="M20.388,22.555a.47.47,0,0,0,.363.457V24.6H.341v.226H20.789a.188.188,0,0,0,.188-.188V23.009a.47.47,0,1,0-.589-.454Zm.639,0a.169.169,0,1,1-.169-.169h0A.169.169,0,0,1,21.027,22.555Z"/><path class="cls-1" d="M22.132,21.381a.472.472,0,0,0,.363.457v4.323H.341v.226h22.2a.188.188,0,0,0,.188-.188V21.835a.47.47,0,1,0-.589-.454Zm.639,0a.169.169,0,1,1-.169-.169h0A.169.169,0,0,1,22.771,21.381Z"/><path class="cls-1" d="M19.223,3.976a.47.47,0,1,0-.456-.583H.026v.226H18.767A.471.471,0,0,0,19.223,3.976Z"/><path class="cls-1" d="M19.223,5.48a.47.47,0,1,0-.456-.582H.026v.225H18.767A.47.47,0,0,0,19.223,5.48Z"/><path class="cls-1" d="M23.53,6.628a.47.47,0,1,0,0-.226H.026v.226Z"/><path class="cls-1" d="M19.235,9.941a.47.47,0,1,0-.455-.583L.026,9.412v.226L18.78,9.584A.471.471,0,0,0,19.235,9.941Z"/><path class="cls-1" d="M18.78,11.092a.47.47,0,1,0,0-.226L.026,10.92v.226Z"/><g class="cls-2"><path class="cls-3" d="M17.032,12.863a.47.47,0,1,0-.455-.583H.026v.226H16.577A.468.468,0,0,0,17.032,12.863Zm0-.638a.169.169,0,1,1-.169.169h0A.169.169,0,0,1,17.032,12.225Z"/><path class="cls-3" d="M36.332,14.029a.469.469,0,1,0,0-.226H.026v.226Zm.461-.283a.169.169,0,1,1-.169.169h0A.169.169,0,0,1,36.793,13.746Z"/></g><g class="cls-2"><path class="cls-3" d="M20.89,12.061a.189.189,0,0,0,.189.188h13.4a.469.469,0,1,0-.006-.226H21.116V8.067a.188.188,0,0,0-.188-.188H.026V8.1H20.89Zm14.041-.105a.169.169,0,1,1-.169.169h0a.169.169,0,0,1,.169-.169Z"/></g><g class="cls-2"><path class="cls-3" d="M4.663,16.014a.469.469,0,0,0,.456-.359H15.736a.466.466,0,1,0,0-.226H5.118a.47.47,0,1,0-.455.585Zm11.528-.639a.169.169,0,1,1-.169.169h0a.169.169,0,0,1,.167-.171h0Zm-11.528,0a.169.169,0,1,1-.169.169h0a.169.169,0,0,1,.167-.171h0Z"/></g><path class="cls-1" d="M21.2,5.48a.47.47,0,0,0,.456-.359H23.53a.466.466,0,1,0,0-.225H21.652a.47.47,0,1,0-.455.584Zm2.788-.638a.169.169,0,1,1-.168.17v0a.169.169,0,0,1,.165-.164Zm-2.788,0a.169.169,0,1,1-.169.169h0a.17.17,0,0,1,.169-.164Z"/><path class="cls-1" d="M21.149,3.953a.472.472,0,0,0,.456-.359h1.874a.466.466,0,1,0,0-.225H21.6a.47.47,0,1,0-.455.584Zm2.788-.638a.169.169,0,1,1-.168.17v0a.169.169,0,0,1,.165-.164Zm-2.788,0a.169.169,0,1,1-.169.169h0a.168.168,0,0,1,.169-.164Z"/><path class="cls-1" d="M33.216,5.813a.47.47,0,0,0,.456-.359H40.1a.466.466,0,1,0,0-.225H33.668a.47.47,0,1,0-.455.584Zm7.342-.638a.169.169,0,1,1-.168.17v0a.168.168,0,0,1,.165-.164Zm-7.342,0a.169.169,0,1,1-.169.169h0a.17.17,0,0,1,.169-.164Z"/><path class="cls-1" d="M32.349,3.455A.472.472,0,0,0,31.99,3V1.862a.464.464,0,1,0-.226,0V3a.47.47,0,1,0,.585.455ZM31.71,1.407a.169.169,0,1,1,.169.169.169.169,0,0,1-.169-.169Zm0,2.048a.169.169,0,1,1,.169.169.169.169,0,0,1-.169-.169Z"/><path class="cls-1" d="M21.9,7.523a.472.472,0,0,0,.359.456v2.2a.466.466,0,1,0,.226,0v-2.2a.47.47,0,1,0-.585-.455Zm.639,3.11a.169.169,0,1,1-.169-.169.169.169,0,0,1,.169.169v0Zm0-3.11a.169.169,0,1,1-.169-.169.169.169,0,0,1,.169.169v0Z"/><path class="cls-1" d="M28.562,1.407a.471.471,0,0,0,.359.457v2.2a.466.466,0,1,0,.225,0v-2.2a.469.469,0,1,0-.584-.455ZM29.2,4.518a.169.169,0,1,1-.169-.169h0a.168.168,0,0,1,.168.168Zm0-3.111a.169.169,0,1,1-.17-.168h0A.168.168,0,0,1,29.2,1.407Z"/><path class="cls-1" d="M26.312,3.462a.47.47,0,0,0,.359.456v2a.463.463,0,1,0,.229,0v-2a.47.47,0,1,0-.585-.455Zm.638,2.914a.169.169,0,1,1-.169-.169h0A.169.169,0,0,1,26.95,6.376Zm0-2.914a.169.169,0,1,1-.169-.169h0A.169.169,0,0,1,26.95,3.462Z"/><path class="cls-1" d="M36.27,3.925a.47.47,0,0,0,.456-.359h9.59a.466.466,0,1,0,0-.226h-9.59a.47.47,0,1,0-.455.585Zm10.5-.638a.169.169,0,0,1,0,.337.169.169,0,1,1-.026-.337Zm-10.5,0a.169.169,0,1,1-.169.169h0A.169.169,0,0,1,36.27,3.287Z"/><path class="cls-1" d="M33.887,1.877a.47.47,0,0,0,.456-.359H44.3a.466.466,0,1,0,0-.225H34.342a.47.47,0,1,0-.455.584Zm10.872-.638a.169.169,0,1,1-.169.169h0a.168.168,0,0,1,.167-.169Zm-10.872,0a.169.169,0,1,1-.169.169h0a.169.169,0,0,1,.169-.169Z"/><path class="cls-1" d="M-2.133,1.877a.47.47,0,0,0,.456-.359H24.809a.466.466,0,1,0,0-.225H-1.678a.47.47,0,0,0-.57-.342.47.47,0,0,0-.342.57A.47.47,0,0,0-2.133,1.877Zm27.4-.638a.169.169,0,1,1-.169.169h0a.168.168,0,0,1,.167-.169Zm-27.4,0a.169.169,0,0,1,.169.169.169.169,0,0,1-.169.169A.169.169,0,0,1-2.3,1.408h0a.169.169,0,0,1,.169-.169Z"/><path class="cls-1" d="M28.578,7.271a.472.472,0,0,0,.456-.359H42.192a.466.466,0,1,0,0-.226H29.033a.469.469,0,1,0-.455.585Zm14.069-.639a.169.169,0,1,1-.169.169h0A.169.169,0,0,1,42.647,6.632Zm-14.069,0a.169.169,0,0,1,.026.337h-.026a.169.169,0,0,1,0-.337Z"/><path class="cls-1" d="M28.578,10.518a.47.47,0,0,0,.456-.359h8.942a.466.466,0,1,0,0-.225H29.033a.469.469,0,1,0-.455.584Zm9.85-.638a.169.169,0,1,1-.169.169h0a.169.169,0,0,1,.169-.169Zm-9.85,0a.169.169,0,0,1,.026.337h-.026a.169.169,0,0,1,0-.337Z"/><path class="cls-1" d="M30.047,8.9a.47.47,0,0,0,.456-.359h8.673a.466.466,0,1,0,0-.225H30.5a.47.47,0,1,0-.455.584Zm9.584-.638a.169.169,0,1,1-.169.169h0a.168.168,0,0,1,.167-.169h0Zm-9.584,0a.169.169,0,1,1-.169.169.169.169,0,0,1,.169-.169Z"/><path class="cls-1" d="M26.812,8.608a.471.471,0,0,0-.456.359H24.478a.465.465,0,1,0,0,.226h1.874a.47.47,0,1,0,.455-.585Z"/><path class="cls-1" d="M24.41,21.986a.47.47,0,0,0-.115.925v1.43a.474.474,0,1,0,.226,0v-1.43a.47.47,0,0,0-.111-.926Zm0,2.643a.169.169,0,1,1-.169.169h0A.169.169,0,0,1,24.41,24.629Zm0-2.342a.169.169,0,1,1-.169.169h0A.169.169,0,0,1,24.41,22.287Z"/></svg>