<svg id="Layer_1" data-name="Layer 1" xmlns="http://www.w3.org/2000/svg" viewBox="0 0 48.362 40.577"><defs><style>.cls-1,.cls-3{fill:#9ecaff;}.cls-1,.cls-2{opacity:0.5;}.cls-1{isolation:isolate;}</style></defs><title>newEffect3</title><path class="cls-1" d="M0,22.832v.226H20.548a.19.19,0,0,0,.188-.188V22h3.173v.874a.19.19,0,0,0,.188.188h2.134v2.151a.188.188,0,0,0,.188.188h3.427a.47.47,0,1,0,0-.226H26.457V23.022a.188.188,0,0,0-.188-.188H24.135V21.96a.188.188,0,0,0-.188-.188H20.7a.188.188,0,0,0-.188.188v.872Zm30.135,2.446a.169.169,0,1,1,.169.169h0a.169.169,0,0,1-.173-.165v0Z" transform="translate(0 -0.021)"/><path class="cls-1" d="M21.077,24.8H0v.228H21.114a.188.188,0,0,0,.188-.188v-.98H23.36v.98a.189.189,0,0,0,.189.188h2.016v2.434a.19.19,0,0,0,.188.188h8.728a.47.47,0,1,0-.007-.226H25.791V24.992A.188.188,0,0,0,25.6,24.8H23.586v-.981a.187.187,0,0,0-.185-.191H21.265a.188.188,0,0,0-.188.188Zm13.687,2.721a.169.169,0,0,1,.338,0,.17.17,0,0,1-.168.17h0A.169.169,0,0,1,34.764,27.525Z" transform="translate(0 -0.021)"/><path class="cls-1" d="M27.228,38.482a.47.47,0,1,1-.456.583H0v-.226H26.772A.47.47,0,0,1,27.228,38.482Z" transform="translate(0 -0.021)"/><path class="cls-1" d="M26.772,37.332a.47.47,0,1,1,0,.226H0v-.226Z" transform="translate(0 -0.021)"/><g class="cls-2"><path class="cls-3" d="M24.515,35.971H0V36.2H24.515a.47.47,0,1,0,0-.225Zm.287.112a.169.169,0,1,1,0,.026A.113.113,0,0,1,24.8,36.083Z" transform="translate(0 -0.021)"/><path class="cls-3" d="M0,34.448v.226H39.389a.47.47,0,1,0,0-.226Zm39.68.113a.169.169,0,1,1,.169.169h0a.169.169,0,0,1-.173-.165v0Z" transform="translate(0 -0.021)"/></g><g class="cls-2"><path class="cls-3" d="M25.894,32.645H0v.226H25.932a.188.188,0,0,0,.188-.188V29.705H36.315a.471.471,0,1,0,.006-.226H26.082a.188.188,0,0,0-.188.188Z" transform="translate(0 -0.021)"/></g><g class="cls-2"><path class="cls-3" d="M28.829,40.372H0V40.6H28.87a.188.188,0,0,0,.188-.188v-4.2h8.16a.471.471,0,1,0,.006-.226h-8.2a.188.188,0,0,0-.188.188Zm8.679-4.26a.169.169,0,1,1,.169.169h0A.169.169,0,0,1,37.508,36.112Z" transform="translate(0 -0.021)"/></g><path class="cls-1" d="M24.055,26.849a.47.47,0,0,0-.115.925V29.2a.47.47,0,1,0,.585.456.475.475,0,0,0-.359-.455v-1.43a.47.47,0,0,0-.111-.926Zm0,2.643a.169.169,0,1,1-.169.169h0A.169.169,0,0,1,24.055,29.492Zm0-2.342a.169.169,0,1,1-.169.169h0a.169.169,0,0,1,.169-.169Z" transform="translate(0 -0.021)"/><path class="cls-1" d="M27.883,30.521a.47.47,0,0,0-.115.925v1.43a.474.474,0,1,0,.226,0v-1.43a.47.47,0,0,0-.111-.926Zm0,2.643a.169.169,0,1,1-.169.169h0A.169.169,0,0,1,27.883,33.164Zm0-2.342a.169.169,0,1,1-.169.169h0A.169.169,0,0,1,27.883,30.822Z" transform="translate(0 -0.021)"/><path class="cls-1" d="M29.663,30.521a.47.47,0,0,0-.115.925v1.43a.474.474,0,1,0,.226,0v-1.43a.47.47,0,0,0-.111-.926Zm0,2.643a.169.169,0,1,1-.168.17v0A.168.168,0,0,1,29.663,33.164Zm0-2.342a.169.169,0,1,1-.168.17h0A.169.169,0,0,1,29.663,30.822Z" transform="translate(0 -0.021)"/><path class="cls-1" d="M31.443,30.521a.47.47,0,0,0-.114.925v1.43a.474.474,0,1,0,.225,0v-1.43a.47.47,0,0,0-.111-.926Zm0,2.643a.169.169,0,1,1-.168.17v0A.168.168,0,0,1,31.443,33.164Zm0-2.342a.169.169,0,1,1-.168.17h0A.169.169,0,0,1,31.443,30.822Z" transform="translate(0 -0.021)"/><path class="cls-1" d="M33.224,30.521a.47.47,0,0,0-.115.925v1.43a.47.47,0,1,0,.585.456.475.475,0,0,0-.359-.455v-1.43a.47.47,0,0,0-.111-.926Zm0,2.643a.169.169,0,0,1,.156.181.171.171,0,0,1-.156.156.169.169,0,0,1-.026-.337A.113.113,0,0,1,33.224,33.164Zm0-2.342a.169.169,0,1,1-.169.169h0A.169.169,0,0,1,33.224,30.822Z" transform="translate(0 -0.021)"/><path class="cls-1" d="M9.542,25.562a.47.47,0,0,0-.115.925v1.431a.474.474,0,1,0,.226,0V26.488a.47.47,0,0,0-.111-.926Zm0,2.643a.169.169,0,1,1-.169.169h0A.169.169,0,0,1,9.542,28.205Zm0-2.341a.169.169,0,1,1-.169.169h0A.169.169,0,0,1,9.542,25.864Z" transform="translate(0 -0.021)"/><path class="cls-1" d="M11.365,25.562a.47.47,0,0,0-.115.925v1.431a.474.474,0,1,0,.226,0V26.488a.47.47,0,0,0-.111-.926Zm0,2.643a.169.169,0,0,1,.026.337h-.026a.169.169,0,0,1,0-.337Zm0-2.341a.169.169,0,1,1-.165.173v0A.169.169,0,0,1,11.365,25.864Z" transform="translate(0 -0.021)"/><path class="cls-1" d="M13.188,25.562a.47.47,0,0,0-.114.925v1.431a.474.474,0,1,0,.225,0V26.488a.47.47,0,0,0-.111-.926Zm0,2.643a.169.169,0,1,1-.168.17h0A.169.169,0,0,1,13.188,28.205Zm0-2.341a.169.169,0,1,1-.168.17v0A.168.168,0,0,1,13.188,25.864Z" transform="translate(0 -0.021)"/><path class="cls-1" d="M15.012,25.616a.461.461,0,0,0-.47.454h0a.457.457,0,0,0,.355.44V27.9a.453.453,0,0,0-.355.441.47.47,0,1,0,.581-.44V26.511a.453.453,0,0,0-.111-.895Zm0,2.557a.163.163,0,1,1-.169.163.165.165,0,0,1,.167-.163Zm0-2.266a.163.163,0,1,1-.169.163.165.165,0,0,1,.167-.163Z" transform="translate(0 -0.021)"/><path class="cls-1" d="M16.835,25.616a.452.452,0,0,0-.115.894V27.9a.453.453,0,0,0-.355.441.47.47,0,1,0,.581-.44V26.511a.453.453,0,0,0-.111-.895Zm0,2.557a.163.163,0,1,1-.169.163.166.166,0,0,1,.169-.163Zm0-2.266a.163.163,0,1,1-.169.163.166.166,0,0,1,.169-.163Z" transform="translate(0 -0.021)"/><path class="cls-1" d="M18.658,25.616a.452.452,0,0,0-.115.894V27.9a.453.453,0,0,0-.355.441.47.47,0,1,0,.581-.44V26.511a.453.453,0,0,0-.111-.895Zm0,2.557a.163.163,0,1,1-.168.163A.166.166,0,0,1,18.658,28.173Zm0-2.266a.163.163,0,1,1-.168.163A.166.166,0,0,1,18.658,25.907Z" transform="translate(0 -0.021)"/><path class="cls-1" d="M27.114,23.879a.469.469,0,0,0,.924.115h6.406a.474.474,0,1,0,0-.226H28.039a.469.469,0,0,0-.925.111Zm7.617,0a.169.169,0,1,1,.169.169h0A.169.169,0,0,1,34.731,23.879Zm-7.316,0a.169.169,0,1,1,.169.169h0A.169.169,0,0,1,27.415,23.879Z" transform="translate(0 -0.021)"/><path class="cls-1" d="M24.971,21.986a.47.47,0,0,0,.925.115h7.383a.474.474,0,1,0,0-.226H25.9a.47.47,0,0,0-.926.111Zm8.6,0a.169.169,0,1,1,.169.169h0a.17.17,0,0,1-.172-.166v0Zm-8.3,0a.169.169,0,1,1,.169.169h0a.169.169,0,0,1-.168-.169Z" transform="translate(0 -0.021)"/><path class="cls-1" d="M18.767,20.379a.47.47,0,0,0,.925.115H31.441a.474.474,0,1,0,0-.226H19.693a.47.47,0,0,0-.926.111Z" transform="translate(0 -0.021)"/><path class="cls-1" d="M30.544,37.487a.47.47,0,0,0,.925.114H43a.474.474,0,1,0,0-.225H31.47a.47.47,0,0,0-.926.111Zm12.746,0a.169.169,0,1,1,.17.168h0a.168.168,0,0,1-.164-.168Zm-12.445,0a.169.169,0,1,1,.17.168h0A.169.169,0,0,1,30.845,37.487Z" transform="translate(0 -0.021)"/><path class="cls-1" d="M30.606,39.005a.47.47,0,0,0,.925.115H45.242a.484.484,0,1,0,.005-.229H31.532a.47.47,0,0,0-.926.111Zm14.923,0a.169.169,0,1,1,.169.169h0A.169.169,0,0,1,45.529,39.005Zm-14.622,0a.169.169,0,1,1,.169.169h0A.169.169,0,0,1,30.907,39.005Z" transform="translate(0 -0.021)"/><path class="cls-1" d="M20.047,27.414a.47.47,0,0,0,.363.457v1.592H0v.226H20.448a.188.188,0,0,0,.188-.188V27.868a.47.47,0,1,0-.589-.454Zm.639,0a.169.169,0,1,1-.169-.169h0A.169.169,0,0,1,20.686,27.414Z" transform="translate(0 -0.021)"/><path class="cls-1" d="M21.791,26.24a.472.472,0,0,0,.363.457V31.02H0v.226H22.2a.188.188,0,0,0,.188-.188V26.694a.47.47,0,1,0-.589-.454Zm.639,0a.169.169,0,1,1-.169-.169h0A.169.169,0,0,1,22.43,26.24Z" transform="translate(0 -0.021)"/><g class="cls-2"><path class="cls-3" d="M22.089,6.861v.875a.188.188,0,0,0,.188.188h3.249a.188.188,0,0,0,.188-.188V6.861h2.134a.188.188,0,0,0,.188-.188V4.522h3.386a.47.47,0,1,0,0-.225H28a.188.188,0,0,0-.188.188V6.636H25.676a.188.188,0,0,0-.188.188V7.7H22.315V6.824a.188.188,0,0,0-.188-.188H.026v.225Zm9.79-2.614a.169.169,0,1,1-.169.169h0A.169.169,0,0,1,31.879,4.247Z" transform="translate(0 -0.021)"/><path class="cls-3" d="M22.656,6.263a.189.189,0,0,0,.188.189h2.133a.189.189,0,0,0,.188-.189v-.98h2.017A.188.188,0,0,0,27.37,5.1V2.662h4.05a.472.472,0,1,0,.007-.226h-4.1a.188.188,0,0,0-.188.188V5.057H25.128a.189.189,0,0,0-.189.188v.981H22.881V5.245a.188.188,0,0,0-.188-.188H.026v.226h22.63Zm9.223-3.87a.169.169,0,1,1-.169.169.169.169,0,0,1,.169-.169Z" transform="translate(0 -0.021)"/></g><g class="cls-2"><path class="cls-3" d="M25.436,3.84a.47.47,0,0,0,.113-.926V.021h-.226V2.914a.47.47,0,0,0,.113.926Zm0-.639a.169.169,0,1,1-.168.17h0a.168.168,0,0,1,.168-.165Z" transform="translate(0 -0.021)"/><path class="cls-3" d="M23.914,5.433a.469.469,0,0,0,.113-.928V.021H23.8V4.505a.469.469,0,0,0,.113.925Zm0-.638a.169.169,0,1,1-.169.169h0A.169.169,0,0,1,23.914,4.8Z" transform="translate(0 -0.021)"/><path class="cls-3" d="M21.921,3.37a.47.47,0,1,0,.583-.456V.021h-.226V2.914A.472.472,0,0,0,21.921,3.37Zm.47-.169a.169.169,0,1,1-.168.17h0a.168.168,0,0,1,.168-.165Z" transform="translate(0 -0.021)"/></g><path class="cls-1" d="M19.223,8.835a.47.47,0,1,0-.456-.583H.026v.226H18.767A.472.472,0,0,0,19.223,8.835Z" transform="translate(0 -0.021)"/><path class="cls-1" d="M19.223,10.339a.47.47,0,1,0-.456-.582H.026v.225H18.767A.471.471,0,0,0,19.223,10.339Z" transform="translate(0 -0.021)"/><path class="cls-1" d="M23.53,11.487a.471.471,0,1,0,0-.226H.026v.226Z" transform="translate(0 -0.021)"/><path class="cls-1" d="M19.235,14.8a.47.47,0,1,0-.455-.583L.026,14.271V14.5l18.754-.054A.471.471,0,0,0,19.235,14.8Z" transform="translate(0 -0.021)"/><path class="cls-1" d="M18.78,15.951a.47.47,0,1,0,0-.226L.026,15.779v.226Z" transform="translate(0 -0.021)"/><g class="cls-2"><path class="cls-3" d="M17.032,17.722a.47.47,0,1,0-.455-.583H.026v.226H16.577A.471.471,0,0,0,17.032,17.722Zm0-.638a.169.169,0,1,1-.169.169h0A.169.169,0,0,1,17.032,17.084Z" transform="translate(0 -0.021)"/><path class="cls-3" d="M36.332,18.888a.471.471,0,1,0,0-.226H.026v.226Zm.461-.283a.169.169,0,1,1-.169.169h0A.169.169,0,0,1,36.793,18.605Z" transform="translate(0 -0.021)"/></g><g class="cls-2"><path class="cls-3" d="M20.89,16.92a.189.189,0,0,0,.189.188h13.4a.469.469,0,1,0-.006-.226H21.116V12.926a.188.188,0,0,0-.188-.188H.026v.225H20.89Zm14.041-.105a.169.169,0,1,1-.169.169h0a.169.169,0,0,1,.169-.169Z" transform="translate(0 -0.021)"/></g><path class="cls-1" d="M27.05,1.419a.472.472,0,0,0,.456-.359h1.962a.466.466,0,1,0,0-.226H27.505a.47.47,0,1,0-.455.585ZM29.923.78a.169.169,0,1,1-.169.169A.169.169,0,0,1,29.923.78ZM27.05.78a.169.169,0,1,1-.169.169A.169.169,0,0,1,27.05.78Z" transform="translate(0 -0.021)"/><path class="cls-1" d="M17.758,1.525a.471.471,0,0,0,.456-.359h1.877a.466.466,0,1,0,0-.226H18.213a.47.47,0,1,0-.455.585ZM20.546.886a.169.169,0,1,1-.169.169.169.169,0,0,1,.169-.169Zm-2.788,0a.169.169,0,1,1-.169.169.169.169,0,0,1,.169-.169Z" transform="translate(0 -0.021)"/><path class="cls-1" d="M17.758,3.227a.471.471,0,0,0,.456-.359h1.877a.465.465,0,1,0,0-.226H18.213a.47.47,0,1,0-.455.585Zm2.788-.638a.169.169,0,1,1-.169.169h0A.169.169,0,0,1,20.546,2.589Zm-2.788,0a.169.169,0,0,1,.156.181.171.171,0,0,1-.156.156.169.169,0,0,1-.026-.337Z" transform="translate(0 -0.021)"/><path class="cls-1" d="M1.079,1.525a.471.471,0,0,0,.456-.359H9.193a.466.466,0,1,0,0-.226H1.534a.47.47,0,1,0-.455.585ZM9.648.886a.169.169,0,1,1-.169.169h0A.169.169,0,0,1,9.648.886Zm-8.569,0a.169.169,0,1,1-.168.17h0A.169.169,0,0,1,1.079.886Z" transform="translate(0 -0.021)"/><path class="cls-1" d="M1.079,3.227a.471.471,0,0,0,.456-.359H9.193a.465.465,0,1,0,0-.226H1.534a.47.47,0,1,0-.455.585Zm8.569-.638a.169.169,0,1,1-.169.169h0A.169.169,0,0,1,9.648,2.589Zm-8.569,0a.169.169,0,1,1-.168.17v0A.168.168,0,0,1,1.079,2.589Z" transform="translate(0 -0.021)"/><g class="cls-2"><path class="cls-3" d="M4.663,20.873a.471.471,0,0,0,.456-.359H15.736a.466.466,0,1,0,0-.226H5.118a.47.47,0,1,0-.455.585Zm11.528-.639a.169.169,0,1,1-.169.169h0a.169.169,0,0,1,.167-.171h0Zm-11.528,0a.169.169,0,1,1-.169.169h0a.169.169,0,0,1,.167-.171h0Z" transform="translate(0 -0.021)"/></g><path class="cls-1" d="M21.2,10.339a.471.471,0,0,0,.456-.359H23.53a.466.466,0,1,0,0-.225H21.652a.47.47,0,1,0-.455.584ZM23.988,9.7a.169.169,0,1,1-.168.17v0a.169.169,0,0,1,.165-.164ZM21.2,9.7a.169.169,0,1,1-.169.169h0a.169.169,0,0,1,.169-.164Z" transform="translate(0 -0.021)"/><path class="cls-1" d="M33.216,10.672a.471.471,0,0,0,.456-.359H39.32a.466.466,0,1,0,0-.225H33.668a.47.47,0,1,0-.455.584Zm6.562-.638a.169.169,0,1,1-.168.17v0a.169.169,0,0,1,.165-.164Zm-6.562,0a.169.169,0,1,1-.169.169h0a.169.169,0,0,1,.169-.164Z" transform="translate(0 -0.021)"/><path class="cls-1" d="M32.349,8.314a.471.471,0,0,0-.359-.456V6.721a.464.464,0,1,0-.226,0V7.859a.47.47,0,1,0,.585.455ZM31.71,6.266a.169.169,0,1,1,.169.169.169.169,0,0,1-.169-.169Zm0,2.048a.169.169,0,1,1,.169.169.169.169,0,0,1-.169-.169Z" transform="translate(0 -0.021)"/><path class="cls-1" d="M21.9,12.382a.472.472,0,0,0,.359.456v2.2a.466.466,0,1,0,.226,0v-2.2a.47.47,0,1,0-.585-.455Zm.639,3.11a.169.169,0,1,1-.169-.169.169.169,0,0,1,.169.169v0Zm0-3.11a.169.169,0,1,1-.169-.169.169.169,0,0,1,.169.169v0Z" transform="translate(0 -0.021)"/><path class="cls-1" d="M28.562,6.266a.471.471,0,0,0,.359.457v2.2a.466.466,0,1,0,.225,0v-2.2a.469.469,0,1,0-.584-.455ZM29.2,9.377a.169.169,0,1,1-.169-.169h0a.168.168,0,0,1,.168.168Zm0-3.111a.169.169,0,1,1-.17-.168h0A.168.168,0,0,1,29.2,6.266Z" transform="translate(0 -0.021)"/><path class="cls-1" d="M26.312,8.125a.47.47,0,0,0,.359.456v2.2a.463.463,0,1,0,.229,0v-2.2a.47.47,0,1,0-.585-.455Zm.638,3.11a.169.169,0,1,1-.169-.169h0A.169.169,0,0,1,26.95,11.235Zm0-3.11a.169.169,0,1,1-.169-.169h0A.169.169,0,0,1,26.95,8.125Z" transform="translate(0 -0.021)"/><path class="cls-1" d="M36.515,8.784a.471.471,0,0,0,.456-.359h8.922a.466.466,0,1,0,0-.226H36.97a.47.47,0,1,0-.455.585Zm9.833-.638a.169.169,0,0,1,.156.181.171.171,0,0,1-.156.156.169.169,0,0,1-.026-.337A.113.113,0,0,1,46.348,8.146Zm-9.833,0a.169.169,0,1,1-.169.169h0A.169.169,0,0,1,36.515,8.146Z" transform="translate(0 -0.021)"/><path class="cls-1" d="M34.891,6.736a.471.471,0,0,0,.456-.359H44.3a.466.466,0,1,0,0-.225H35.346a.47.47,0,1,0-.455.584ZM44.759,6.1a.169.169,0,1,1-.169.169h0a.168.168,0,0,1,.167-.169Zm-9.868,0a.169.169,0,1,1-.169.169h0a.169.169,0,0,1,.169-.169Z" transform="translate(0 -0.021)"/><path class="cls-1" d="M28.578,12.13a.472.472,0,0,0,.456-.359H41.307a.466.466,0,1,0,0-.226H29.033a.469.469,0,1,0-.455.585Zm13.184-.639a.169.169,0,1,1-.169.169h0A.169.169,0,0,1,41.762,11.491Zm-13.184,0a.169.169,0,0,1,.026.337h-.026a.169.169,0,0,1,0-.337Z" transform="translate(0 -0.021)"/><path class="cls-1" d="M28.578,15.377a.471.471,0,0,0,.456-.359h8.942a.466.466,0,1,0,0-.225H29.033a.469.469,0,1,0-.455.584Zm9.85-.638a.169.169,0,1,1-.169.169h0a.169.169,0,0,1,.169-.169Zm-9.85,0a.169.169,0,0,1,.026.337h-.026a.169.169,0,0,1,0-.337Z" transform="translate(0 -0.021)"/><path class="cls-1" d="M28.555,13.754a.471.471,0,0,0,.456-.359H39.176a.466.466,0,1,0,0-.225H29.01a.47.47,0,1,0-.455.584Zm11.076-.638a.169.169,0,1,1-.169.169h0a.167.167,0,0,1,.167-.169h0Zm-11.076,0a.169.169,0,1,1-.169.169.169.169,0,0,1,.169-.169Z" transform="translate(0 -0.021)"/><path class="cls-1" d="M15.229,3.37a.47.47,0,1,0,.583-.456V.021h-.226V2.914A.472.472,0,0,0,15.229,3.37Zm.471-.165a.169.169,0,1,1-.169.169h0A.169.169,0,0,1,15.7,3.205Z" transform="translate(0 -0.021)"/><path class="cls-1" d="M12.839,3.37a.47.47,0,1,0,.583-.456V.021H13.2V2.914A.471.471,0,0,0,12.839,3.37Zm.47-.169a.169.169,0,1,1-.169.169h0a.169.169,0,0,1,.169-.165Z" transform="translate(0 -0.021)"/><path class="cls-1" d="M10.449,3.37a.47.47,0,1,0,.583-.456V.021h-.226V2.914A.472.472,0,0,0,10.449,3.37Zm.47-.169a.169.169,0,1,1-.168.17h0a.168.168,0,0,1,.168-.165Z" transform="translate(0 -0.021)"/><path class="cls-1" d="M38.216,3.37a.47.47,0,1,0,.582-.456V.021h-.225V2.914A.471.471,0,0,0,38.216,3.37Zm.47-.169a.169.169,0,1,1-.169.169h0a.169.169,0,0,1,.169-.165Z" transform="translate(0 -0.021)"/><path class="cls-1" d="M35.826,3.37a.47.47,0,1,0,.583-.456V.021h-.226V2.914A.471.471,0,0,0,35.826,3.37Zm.474-.165a.169.169,0,1,1-.169.169h0A.169.169,0,0,1,36.3,3.205Z" transform="translate(0 -0.021)"/><path class="cls-1" d="M33.436,3.37a.47.47,0,1,0,.583-.456V.021h-.226V2.914A.471.471,0,0,0,33.436,3.37Zm.47-.169a.169.169,0,1,1-.169.169h0a.169.169,0,0,1,.169-.165Z" transform="translate(0 -0.021)"/><path class="cls-1" d="M26.359,13.467a.469.469,0,0,0-.456.359H24.025a.465.465,0,1,0,0,.226H25.9a.47.47,0,1,0,.455-.585Zm-2.789.638a.169.169,0,0,1,0-.337.169.169,0,0,1,.026.337Zm2.789,0a.17.17,0,0,1-.17-.168.169.169,0,1,1,.338,0v0A.17.17,0,0,1,26.359,14.105Z" transform="translate(0 -0.021)"/><path class="cls-1" d="M44.749,2.311a.47.47,0,0,0-.457.363H42.716V.021H42.49V2.712a.188.188,0,0,0,.188.188H44.3a.469.469,0,1,0,.453-.589Z" transform="translate(0 -0.021)"/><path class="cls-1" d="M47.892,3.957a.472.472,0,0,0-.457.363H40.963V.021h-.226V4.358a.188.188,0,0,0,.188.188h6.514a.469.469,0,1,0,.453-.589Z" transform="translate(0 -0.021)"/></svg>