<svg id="Layer_1" data-name="Layer 1" xmlns="http://www.w3.org/2000/svg" viewBox="0 0 51.582 36.284"><defs><style>.cls-1,.cls-3{fill:#9ecaff;}.cls-1,.cls-2{opacity:0.5;}.cls-1{isolation:isolate;}</style></defs><title>newEffect2</title><path class="cls-1" d="M-.939,17.973V18.2H22.992a.188.188,0,0,0,.188-.188v-.874h3.173v.874a.189.189,0,0,0,.188.188h2.134V20.35a.188.188,0,0,0,.188.188H32.29a.47.47,0,1,0,0-.226H28.9V18.163a.188.188,0,0,0-.188-.188H26.579V17.1a.188.188,0,0,0-.188-.188H23.144a.188.188,0,0,0-.188.188v.872Zm33.518,2.446a.169.169,0,1,1,.169.169h0a.169.169,0,0,1-.173-.165v0Z"/><path class="cls-1" d="M23.521,19.945H-.939v.228h24.5a.188.188,0,0,0,.188-.188v-.98H25.8v.98a.189.189,0,0,0,.189.188h2.016v2.434a.189.189,0,0,0,.188.188h8.728a.468.468,0,1,0-.007-.226H28.235V20.133a.188.188,0,0,0-.188-.188H26.03v-.981a.188.188,0,0,0-.185-.191H23.709a.188.188,0,0,0-.188.188Zm13.687,2.721a.169.169,0,1,1,.17.168h0A.169.169,0,0,1,37.208,22.666Z"/><path class="cls-1" d="M29.672,33.623a.47.47,0,1,1-.456.583H-.939V33.98H29.216A.47.47,0,0,1,29.672,33.623Z"/><path class="cls-1" d="M29.216,32.473a.47.47,0,1,1,0,.226H-.939v-.226Z"/><g class="cls-2"><path class="cls-3" d="M26.959,31.112H-.939v.225h27.9a.47.47,0,1,0,0-.225Zm.287.112a.169.169,0,1,1,0,.026Z"/><path class="cls-3" d="M-.939,29.589v.226H41.833a.47.47,0,1,0,0-.226Zm43.063.113a.169.169,0,1,1,.169.169h0a.169.169,0,0,1-.173-.165v0Z"/></g><g class="cls-2"><path class="cls-3" d="M28.338,27.786H-.939v.226H28.376a.188.188,0,0,0,.188-.188V24.846h10.2a.471.471,0,1,0,.006-.226H28.526a.188.188,0,0,0-.188.188Z"/></g><g class="cls-2"><path class="cls-3" d="M31.273,35.513H-.939v.226H31.314a.188.188,0,0,0,.188-.188v-4.2h8.16a.471.471,0,1,0,.006-.226h-8.2a.188.188,0,0,0-.188.188Zm8.679-4.26a.169.169,0,1,1,.169.169h0A.169.169,0,0,1,39.952,31.253Z"/></g><path class="cls-1" d="M30.327,25.662a.47.47,0,0,0-.115.925v1.43a.474.474,0,1,0,.226,0v-1.43a.47.47,0,0,0-.111-.926Zm0,2.643a.169.169,0,1,1-.169.169h0A.169.169,0,0,1,30.327,28.305Zm0-2.342a.169.169,0,1,1-.169.169h0A.169.169,0,0,1,30.327,25.963Z"/><path class="cls-1" d="M32.107,25.662a.47.47,0,0,0-.115.925v1.43a.474.474,0,1,0,.226,0v-1.43a.47.47,0,0,0-.111-.926Zm0,2.643a.169.169,0,1,1-.168.17v0A.17.17,0,0,1,32.107,28.305Zm0-2.342a.169.169,0,1,1-.168.17h0A.169.169,0,0,1,32.107,25.963Z"/><path class="cls-1" d="M33.887,25.662a.47.47,0,0,0-.114.925v1.43a.474.474,0,1,0,.225,0v-1.43a.47.47,0,0,0-.111-.926Zm0,2.643a.169.169,0,1,1-.168.17v0A.17.17,0,0,1,33.887,28.305Zm0-2.342a.169.169,0,1,1-.168.17h0A.169.169,0,0,1,33.887,25.963Z"/><path class="cls-1" d="M35.668,25.662a.47.47,0,0,0-.115.925v1.43a.47.47,0,1,0,.585.456.475.475,0,0,0-.359-.455v-1.43a.47.47,0,0,0-.111-.926Zm0,2.643a.169.169,0,0,1,0,.337.169.169,0,0,1-.026-.337A.113.113,0,0,1,35.668,28.305Zm0-2.342a.169.169,0,1,1-.169.169h0A.169.169,0,0,1,35.668,25.963Z"/><path class="cls-1" d="M12.327,20.7a.47.47,0,0,0-.115.925v1.431a.474.474,0,1,0,.226,0V21.629a.47.47,0,0,0-.111-.926Zm0,2.643a.169.169,0,1,1-.169.169h0A.169.169,0,0,1,12.327,23.346Zm0-2.341a.169.169,0,1,1-.169.169h0A.169.169,0,0,1,12.327,21.005Z"/><path class="cls-1" d="M14.15,20.7a.47.47,0,0,0-.115.925v1.431a.474.474,0,1,0,.226,0V21.629a.47.47,0,0,0-.111-.926Zm0,2.643a.169.169,0,1,1,.026.337.113.113,0,0,1-.026,0,.169.169,0,0,1,0-.337Zm0-2.341a.169.169,0,1,1-.165.173v-.005A.17.17,0,0,1,14.15,21.005Z"/><path class="cls-1" d="M15.973,20.7a.47.47,0,0,0-.114.925v1.431a.474.474,0,1,0,.225,0V21.629a.47.47,0,0,0-.111-.926Zm0,2.643a.169.169,0,1,1-.168.17h0A.169.169,0,0,1,15.973,23.346Zm0-2.341a.169.169,0,1,1-.168.17v0A.168.168,0,0,1,15.973,21.005Z"/><path class="cls-1" d="M17.8,20.757a.463.463,0,0,0-.47.454h0a.458.458,0,0,0,.355.44v1.385a.453.453,0,0,0-.355.441.47.47,0,1,0,.581-.44V21.652a.453.453,0,0,0-.111-.895Zm0,2.557a.163.163,0,1,1-.169.163.165.165,0,0,1,.167-.163Zm0-2.266a.163.163,0,1,1-.169.163.165.165,0,0,1,.167-.163Z"/><path class="cls-1" d="M19.62,20.757a.452.452,0,0,0-.115.894v1.385a.453.453,0,0,0-.355.441.47.47,0,1,0,.581-.44V21.652a.455.455,0,0,0,.359-.441.461.461,0,0,0-.469-.454Zm0,2.557a.163.163,0,1,1-.169.163.166.166,0,0,1,.169-.163Zm0-2.266a.163.163,0,1,1-.169.163.166.166,0,0,1,.169-.163Z"/><path class="cls-1" d="M21.443,20.757a.452.452,0,0,0-.115.894v1.385a.454.454,0,0,0-.355.441.47.47,0,1,0,.581-.44V21.652a.455.455,0,0,0,.359-.441.461.461,0,0,0-.469-.454Zm0,2.557a.163.163,0,1,1-.168.163A.167.167,0,0,1,21.443,23.314Zm0-2.266a.163.163,0,1,1-.168.163A.167.167,0,0,1,21.443,21.048Z"/><path class="cls-1" d="M29.558,19.02a.469.469,0,0,0,.924.115h6.406a.474.474,0,1,0,0-.226H30.483a.469.469,0,0,0-.925.111Zm7.617,0a.169.169,0,1,1,.169.169h0A.169.169,0,0,1,37.175,19.02Zm-7.316,0a.169.169,0,1,1,.169.169h0A.169.169,0,0,1,29.859,19.02Z"/><path class="cls-1" d="M27.415,17.127a.47.47,0,0,0,.925.115h7.383a.47.47,0,1,0,.456-.585.476.476,0,0,0-.455.359h-7.38a.47.47,0,0,0-.926.111Zm8.6,0a.169.169,0,1,1,.169.169h0a.169.169,0,0,1-.172-.166v0Zm-8.3,0a.169.169,0,1,1,.169.169h0a.169.169,0,0,1-.168-.169Z"/><path class="cls-1" d="M21.211,15.52a.47.47,0,0,0,.925.115h11.75a.47.47,0,1,0,.456-.585.475.475,0,0,0-.455.359H22.137a.47.47,0,0,0-.926.111Z"/><path class="cls-1" d="M33,32.628a.47.47,0,0,0,.925.114H45.446a.47.47,0,1,0,.456-.584.475.475,0,0,0-.455.359H33.922a.47.47,0,0,0-.926.111Zm12.738,0a.169.169,0,0,1,.338,0,.168.168,0,0,1-.168.17h0a.168.168,0,0,1-.164-.168Zm-12.437,0a.169.169,0,1,1,.17.168h0A.169.169,0,0,1,33.3,32.628Z"/><path class="cls-1" d="M33,34.146a.47.47,0,0,0,.925.115H47.866a.484.484,0,1,0,.005-.229H33.923a.47.47,0,0,0-.926.111Zm15.156,0a.169.169,0,1,1,.169.169h0A.169.169,0,0,1,48.153,34.146Zm-14.855,0a.169.169,0,1,1,.169.169h0A.169.169,0,0,1,33.3,34.146Z"/><path class="cls-1" d="M22.832,22.555a.472.472,0,0,0,.363.457V24.6H-.6v.226H23.233a.188.188,0,0,0,.188-.188V23.009a.47.47,0,1,0-.589-.454Zm.639,0a.169.169,0,1,1-.169-.169h0A.169.169,0,0,1,23.471,22.555Z"/><path class="cls-1" d="M24.576,21.381a.472.472,0,0,0,.363.457v4.323H-.6v.226H24.985a.188.188,0,0,0,.188-.188V21.835a.47.47,0,1,0-.589-.454Zm.639,0a.169.169,0,1,1-.169-.169h0A.169.169,0,0,1,25.215,21.381Z"/><path class="cls-1" d="M21.667,3.976a.47.47,0,1,0-.456-.583H-.913v.226H21.211A.472.472,0,0,0,21.667,3.976Z"/><path class="cls-1" d="M21.667,5.48a.47.47,0,1,0-.456-.582H-.913v.225H21.211A.47.47,0,0,0,21.667,5.48Z"/><path class="cls-1" d="M25.974,6.628a.47.47,0,1,0,0-.226H-.913v.226Z"/><path class="cls-1" d="M21.679,9.941a.47.47,0,1,0-.455-.583L-.913,9.412v.226l22.137-.054A.472.472,0,0,0,21.679,9.941Z"/><path class="cls-1" d="M21.224,11.092a.469.469,0,1,0,0-.226L-.913,10.92v.226Z"/><g class="cls-2"><path class="cls-3" d="M19.476,12.863a.47.47,0,1,0-.455-.583H-.913v.226H19.021A.469.469,0,0,0,19.476,12.863Zm0-.638a.169.169,0,1,1-.169.169h0A.169.169,0,0,1,19.476,12.225Z"/><path class="cls-3" d="M38.777,14.029a.47.47,0,1,0,0-.226H-.913v.226Zm.461-.283a.169.169,0,1,1-.169.169h0A.169.169,0,0,1,39.238,13.746Z"/></g><g class="cls-2"><path class="cls-3" d="M23.334,12.061a.189.189,0,0,0,.189.188h13.4a.469.469,0,1,0-.006-.226H23.56V8.067a.188.188,0,0,0-.188-.188H-.913V8.1H23.334Zm14.042-.105a.169.169,0,1,1-.169.169h0a.169.169,0,0,1,.169-.169Z"/></g><g class="cls-2"><path class="cls-3" d="M7.108,16.014a.469.469,0,0,0,.456-.359H18.18a.466.466,0,1,0,0-.226H7.563a.47.47,0,1,0-.455.585Zm11.527-.639a.169.169,0,1,1-.169.169h0a.169.169,0,0,1,.167-.171h0Zm-11.527,0a.169.169,0,1,1-.169.169h0a.169.169,0,0,1,.167-.171h0Z"/></g><path class="cls-1" d="M23.644,5.48a.47.47,0,0,0,.456-.359h1.874a.466.466,0,1,0,0-.225H24.1a.47.47,0,1,0-.455.584Zm2.788-.638a.169.169,0,1,1-.168.17v0a.169.169,0,0,1,.165-.164Zm-2.788,0a.169.169,0,1,1-.169.169h0a.17.17,0,0,1,.169-.164Z"/><path class="cls-1" d="M23.593,3.953a.471.471,0,0,0,.456-.359h1.874a.466.466,0,1,0,0-.225H24.045a.47.47,0,1,0-.455.584Zm2.788-.638a.169.169,0,1,1,0,.338.17.17,0,0,1-.17-.168v0a.169.169,0,0,1,.165-.164Zm-2.788,0a.169.169,0,1,1-.169.169h0a.169.169,0,0,1,.169-.164Z"/><path class="cls-1" d="M35.661,5.813a.471.471,0,0,0,.456-.359h6.427a.466.466,0,1,0,0-.225h-6.43a.47.47,0,1,0-.455.584ZM43,5.175a.169.169,0,1,1-.168.17v0A.168.168,0,0,1,43,5.179Zm-7.341,0a.169.169,0,1,1-.169.169h0a.168.168,0,0,1,.169-.164Z"/><path class="cls-1" d="M34.793,3.455A.472.472,0,0,0,34.434,3V1.862a.464.464,0,1,0-.226,0V3a.47.47,0,1,0,.585.455Zm-.639-2.048a.169.169,0,1,1,.169.169.169.169,0,0,1-.169-.169Zm0,2.048a.169.169,0,1,1,.169.169.169.169,0,0,1-.169-.169Z"/><path class="cls-1" d="M24.344,7.523a.472.472,0,0,0,.359.456v2.2a.466.466,0,1,0,.226,0v-2.2a.47.47,0,1,0-.585-.455Zm.639,3.11a.169.169,0,1,1-.169-.169.169.169,0,0,1,.169.169v0Zm0-3.11a.169.169,0,1,1-.169-.169.169.169,0,0,1,.169.169v0Z"/><path class="cls-1" d="M31.865,1.407a.471.471,0,0,0,.359.457v2.2a.466.466,0,1,0,.225,0v-2.2a.469.469,0,1,0-.584-.455ZM32.5,4.518a.169.169,0,1,1-.169-.169h0a.168.168,0,0,1,.168.168Zm0-3.111a.169.169,0,1,1-.17-.168h0A.168.168,0,0,1,32.5,1.407Z"/><path class="cls-1" d="M28.756,3.462a.472.472,0,0,0,.359.456v2a.463.463,0,1,0,.229,0v-2a.47.47,0,1,0-.585-.455Zm.638,2.914a.169.169,0,1,1-.169-.169h0A.169.169,0,0,1,29.394,6.376Zm0-2.914a.169.169,0,1,1-.169-.169h0A.169.169,0,0,1,29.394,3.462Z"/><path class="cls-1" d="M38.714,3.925a.47.47,0,0,0,.456-.359h9.59a.466.466,0,1,0,0-.226h-9.59a.47.47,0,1,0-.455.585Zm10.5-.638a.169.169,0,1,1-.026,0Zm-10.5,0a.169.169,0,1,1-.169.169h0A.169.169,0,0,1,38.714,3.287Z"/><path class="cls-1" d="M36.331,1.877a.47.47,0,0,0,.456-.359h9.961a.466.466,0,1,0,0-.225H36.786a.47.47,0,1,0-.455.584ZM47.2,1.239a.169.169,0,1,1-.169.169h0a.169.169,0,0,1,.167-.169Zm-10.872,0a.169.169,0,1,1-.169.169h0a.169.169,0,0,1,.169-.169Z"/><path class="cls-1" d="M-1.171,1.877a.471.471,0,0,0,.456-.359H29.811a.466.466,0,1,0,0-.225H-.716a.47.47,0,0,0-.57-.342.47.47,0,0,0-.342.57A.47.47,0,0,0-1.171,1.877Zm31.437-.638a.169.169,0,1,1-.169.169h0a.168.168,0,0,1,.167-.169Zm-31.437,0A.169.169,0,0,1-1,1.408a.169.169,0,0,1-.169.169.169.169,0,0,1-.169-.169h0a.169.169,0,0,1,.169-.169Z"/><path class="cls-1" d="M31.022,7.271a.471.471,0,0,0,.456-.359H44.636a.466.466,0,1,0,0-.226H31.477a.469.469,0,1,0-.455.585Zm14.069-.639a.169.169,0,1,1-.169.169h0A.169.169,0,0,1,45.091,6.632Zm-14.069,0a.169.169,0,1,1,.026.337h-.026a.169.169,0,0,1,0-.337Z"/><path class="cls-1" d="M31.022,10.518a.47.47,0,0,0,.456-.359H40.42a.466.466,0,1,0,0-.225H31.477a.469.469,0,1,0-.455.584Zm9.85-.638a.169.169,0,1,1-.169.169h0a.169.169,0,0,1,.169-.169Zm-9.85,0a.169.169,0,1,1,.026.337h-.026a.169.169,0,0,1,0-.337Z"/><path class="cls-1" d="M32.492,8.9a.47.47,0,0,0,.456-.359H41.62a.466.466,0,1,0,0-.225H32.947a.47.47,0,1,0-.455.584Zm9.583-.638a.169.169,0,1,1-.169.169h0a.168.168,0,0,1,.167-.169h0Zm-9.583,0a.169.169,0,1,1-.169.169.169.169,0,0,1,.169-.169Z"/><path class="cls-1" d="M29.257,8.608a.47.47,0,0,0-.456.359H26.923a.465.465,0,1,0,0,.226H28.8a.47.47,0,1,0,.455-.585Z"/><path class="cls-1" d="M26.855,21.986a.47.47,0,0,0-.115.925v1.43a.47.47,0,1,0,.585.456.476.476,0,0,0-.359-.455v-1.43a.47.47,0,0,0-.111-.926Zm0,2.643a.169.169,0,1,1-.169.169h0A.169.169,0,0,1,26.855,24.629Zm0-2.342a.169.169,0,1,1-.169.169h0A.169.169,0,0,1,26.855,22.287Z"/></svg>