<svg id="Layer_1" data-name="Layer 1" xmlns="http://www.w3.org/2000/svg" viewBox="0 0 30 30"><defs><style>.cls-1{fill:#0d0d0d;}</style></defs><title>newEye</title><path class="cls-1" d="M27.047,18a.8.8,0,0,1-.188.515,21.251,21.251,0,0,1-3.448,3.095c-.118.086-.237.169-.356.252l-1.3-.948c.274-.172.539-.35.791-.532a21.967,21.967,0,0,0,2.488-2.105l.28-.277-.28-.276a21.456,21.456,0,0,0-2.488-2.1A16.546,16.546,0,0,0,19.1,13.731,10.506,10.506,0,0,0,15,12.8a10.5,10.5,0,0,0-4.1.929,16.723,16.723,0,0,0-3.447,1.884,22.031,22.031,0,0,0-2.484,2.1L4.688,18l.281.277a22.274,22.274,0,0,0,2.484,2.105A16.68,16.68,0,0,0,10.9,22.261a10.518,10.518,0,0,0,4.1.927,9.653,9.653,0,0,0,3.449-.677l1.509,1.1c-.1.044-.2.087-.3.128a11.816,11.816,0,0,1-3.758.947c-.308.024-.61.036-.9.036-.323,0-.663-.015-1.011-.045a11.82,11.82,0,0,1-3.641-.939,18.083,18.083,0,0,1-3.754-2.131,21.315,21.315,0,0,1-3.449-3.1l0,0a.763.763,0,0,1-.184-.448.788.788,0,0,1,.183-.57l.005-.006a21.821,21.821,0,0,1,3.449-3.1,18.281,18.281,0,0,1,3.755-2.129,11.9,11.9,0,0,1,3.737-.946c.314-.025.622-.037.914-.037.242,0,.493.008.749.025a11.889,11.889,0,0,1,3.908.958,18.386,18.386,0,0,1,3.755,2.129,21.788,21.788,0,0,1,3.451,3.1h0A.8.8,0,0,1,27.047,18ZM24.212,24.46l-.192.243c-.264.335-.628.488-.814.342l-4.08-2.89c-.12-.094-.135-.29-.06-.508l-.826-.595a4.445,4.445,0,1,1,.661-.9l.857.617c.2-.128.395-.161.516-.066l4.081,2.89C24.54,23.735,24.476,24.125,24.212,24.46ZM18.228,18A3.228,3.228,0,1,0,15,21.224,3.232,3.232,0,0,0,18.228,18Z"/><path d="M15,8.718a.425.425,0,0,1-.425-.426V6.02a.426.426,0,1,1,.851,0V8.292A.426.426,0,0,1,15,8.718Z"/><path d="M3.494,14.178a.428.428,0,0,1-.3-.125L1.44,12.3a.426.426,0,0,1,.6-.6L3.8,13.451a.426.426,0,0,1-.3.727Z"/><path d="M8.656,10.429a.426.426,0,0,1-.384-.242L7.155,7.859a.426.426,0,0,1,.768-.368L9.04,9.819a.426.426,0,0,1-.384.61Z"/><path d="M26.506,14.178a.426.426,0,0,1-.3-.727L27.958,11.7a.426.426,0,1,1,.6.6l-1.753,1.753A.428.428,0,0,1,26.506,14.178Z"/><path d="M21.344,10.429a.426.426,0,0,1-.384-.61l1.117-2.328a.426.426,0,1,1,.768.368l-1.117,2.328A.426.426,0,0,1,21.344,10.429Z"/><path d="M16.776,17.825H16.4a.968.968,0,0,1,.06.337v1.424a.41.41,0,0,1-.025.141h.624a.423.423,0,0,0,.422-.422v-.777A.7.7,0,0,0,16.776,17.825Z"/><path d="M13.627,18.162a.991.991,0,0,1,.059-.337H13.31a.7.7,0,0,0-.7.7v.777a.422.422,0,0,0,.422.422h.623a.435.435,0,0,1-.024-.141Z"/><path d="M15.474,17.458h-.862a.705.705,0,0,0-.7.7v1.424a.141.141,0,0,0,.141.141h1.988a.141.141,0,0,0,.14-.141V18.162A.7.7,0,0,0,15.474,17.458Z"/><path d="M15.043,15.593a.846.846,0,1,0,0,1.692.836.836,0,0,0,.413-.108.846.846,0,0,0-.413-1.584Z"/><path d="M13.557,16.382a.633.633,0,1,0,0,1.265.623.623,0,0,0,.249-.051.631.631,0,0,0,.384-.582A.633.633,0,0,0,13.557,16.382Z"/><path d="M16.529,16.382a.633.633,0,0,0-.559.93.642.642,0,0,0,.309.284.633.633,0,1,0,.25-1.214Z"/></svg>