<svg id="Layer_1" data-name="Layer 1" xmlns="http://www.w3.org/2000/svg" xmlns:xlink="http://www.w3.org/1999/xlink" viewBox="0 0 30 30"><defs><style>.cls-1{fill:none;}.cls-2{fill:#2e2e2e;opacity:0.2;}.cls-3{clip-path:url(#clip-path);}.cls-4{fill:#624a8a;}.cls-5{fill:#56407b;}.cls-6{fill:#ffdbb3;}.cls-7{fill:#d5b697;}.cls-8{fill:url(#linear-gradient);}.cls-9{fill:#605755;opacity:0.7;}.cls-10{fill:#6a5547;}.cls-11{fill:#383638;}.cls-12{fill:#4c4137;}.cls-13{fill:#fff;}</style><clipPath id="clip-path"><path class="cls-1" d="M29.332,15.5a14.332,14.332,0,0,1-28.664,0C.668,7.584,7.084-.8,15-.8S29.332,7.584,29.332,15.5Z"/></clipPath><linearGradient id="linear-gradient" x1="14.999" y1="3.214" x2="14.999" y2="10.965" gradientUnits="userSpaceOnUse"><stop offset="0" stop-color="#4b4341"/><stop offset="1" stop-color="#ffdbb3"/></linearGradient></defs><title>newFace</title><circle class="cls-2" cx="15" cy="15.499" r="14.332"/><g class="cls-3"><path class="cls-4" d="M28.37,26.3c-.024-1.689-.922-2.764-2.754-3.417s-4.116-1.37-4.116-1.37c-.02-1.185-1.015-1.707-2-1.932a7.6,7.6,0,0,0-1.974-.153l-1.086,1.163L15.35,21.753s-.035.075-.1.213-.149-.11-.253.138c-.1-.248-.192,0-.253-.138s-.1-.213-.1-.213l-1.085-1.164-1.086-1.163a7.6,7.6,0,0,0-1.974.153c-.99.225-1.985.747-2.005,1.932,0,0-2.284.717-4.116,1.37S1.654,24.609,1.63,26.3c-.025,1.65,2.289,2.451,5.1,3.333a32.636,32.636,0,0,0,8.1,1.4l.04,0h.264l.04,0a32.636,32.636,0,0,0,8.1-1.4C26.081,28.749,28.4,27.948,28.37,26.3Z"/><path class="cls-5" d="M18.6,20.813c0,1.087-1.61,1.522-3.6,1.522s-3.6-.435-3.6-1.522,1.61-1.443,3.6-1.443S18.6,19.725,18.6,20.813Z"/><path class="cls-6" d="M18.132,16.568c-1.048.393-2.085.814-3.132,1.206-1.049-.392-2.085-.813-3.133-1.206.039.973.088,1.958.036,2.915a2.151,2.151,0,0,0,.769,1.991,3.964,3.964,0,0,0,4.656,0,2.117,2.117,0,0,0,.768-1.991C18.042,18.526,18.092,17.541,18.132,16.568Z"/><path class="cls-7" d="M15,20.013a3.172,3.172,0,0,0,2.568-.716c.166-.128.336-.262.508-.4.01-.509.036-1.02.056-1.528-1.034.38-2.083.713-3.132,1.052-1.05-.339-2.1-.672-3.133-1.052.02.508.046,1.018.056,1.527q.258.206.509.4A3.172,3.172,0,0,0,15,20.013Z"/><path class="cls-6" d="M21.668,9.338s.04-1.286.04-2.452S20.949,2.018,15,2.018s-6.708,3.7-6.708,4.868.04,2.452.04,2.452c-.562-.6-1.366.241-1.366.925a9.437,9.437,0,0,0,.748,2.446c.152.457.9.482.9.482a5.6,5.6,0,0,0,.844,2.653,15.807,15.807,0,0,0,2.969,2.934A3.029,3.029,0,0,0,15,19.542a3.029,3.029,0,0,0,2.568-.764,15.807,15.807,0,0,0,2.969-2.934,5.6,5.6,0,0,0,.844-2.653.761.761,0,0,0,.905-.482,10.032,10.032,0,0,0,.748-2.446C23.034,9.579,22.23,8.735,21.668,9.338Z"/><path class="cls-8" d="M21.809,4.311c0-1.463-1.671-4.182-6.81-4.182s-6.81,2.7-6.81,4.182c-.03.7-.04.491-.043.9s0,.752,0,1.185.046,1.169.091,1.8.092,1.146.092,1.146l.029.233.03.232.242.131.242.131s.015-.3.053-.773.1-1.112.189-1.788a3.754,3.754,0,0,1,.537-1.515,3.167,3.167,0,0,1,.183-.259,1.134,1.134,0,0,0,.24-.646l.023-.463.044-.189a3.657,3.657,0,0,1,1.029-.373A30,30,0,0,1,15,4.168a30,30,0,0,1,3.826-.109,3.639,3.639,0,0,1,1.029.373l.044.189.024.463a1.14,1.14,0,0,0,.239.646,3.167,3.167,0,0,1,.183.259A3.768,3.768,0,0,1,20.882,7.5c.09.676.151,1.316.189,1.788s.053.773.053.773l.242-.131.241-.131.03-.232.029-.233s.046-.519.092-1.146.091-1.363.091-1.8.006-.776,0-1.185S21.839,5.007,21.809,4.311Z"/><path class="cls-9" d="M9.725,9.365A4.782,4.782,0,0,1,12,8.856c1.8-.134,1.8.051,1.8.051V8.264a14.306,14.306,0,0,0-2.438.029A2.064,2.064,0,0,0,9.725,9.365Z"/><path class="cls-10" d="M11.7,10.156a3.212,3.212,0,0,1,1.163.2A1.239,1.239,0,0,0,11.7,9.769a1.237,1.237,0,0,0-1.162.586A3.21,3.21,0,0,1,11.7,10.156Z"/><path class="cls-9" d="M20.275,9.365A4.782,4.782,0,0,0,18,8.856c-1.795-.134-1.795.051-1.795.051V8.264a14.306,14.306,0,0,1,2.438.029A2.064,2.064,0,0,1,20.275,9.365Z"/><path class="cls-10" d="M18.3,10.156a3.212,3.212,0,0,0-1.163.2A1.239,1.239,0,0,1,18.3,9.769a1.237,1.237,0,0,1,1.162.586A3.21,3.21,0,0,0,18.3,10.156Z"/><path class="cls-11" d="M21.93,9.158l-.923-.293c-.005-.1-.038-.172-.2-.172h-4.56c-.442,0-.723.6-1,.6h-.488c-.282,0-.563-.6-1.005-.6H9.191c-.16,0-.193.071-.2.172l-.924.293.263.18H9a.189.189,0,0,0,.2.16s.242.85.37,1.259c.12.384.081.63.684.63h3.187c.6,0,.773-.8,1.009-1.125s.314-.322.555-.322.318,0,.555.322.406,1.125,1.009,1.125h3.187c.6,0,.564-.246.684-.63.128-.409.37-1.259.37-1.259a.189.189,0,0,0,.2-.16h.663ZM14.079,9.9a5.191,5.191,0,0,1-.348.94.283.283,0,0,1-.26.171H10.246c-.157,0-.229-.118-.284-.284l-.37-1.388a.284.284,0,0,1,.284-.284h3.637l.126.005C14.13,9.087,14.172,9.48,14.079,9.9Zm5.959.827c-.055.166-.127.284-.284.284H16.529a.283.283,0,0,1-.26-.171,5.191,5.191,0,0,1-.348-.94c-.093-.42-.051-.813.44-.84l.126-.005h3.637a.284.284,0,0,1,.284.284Z"/><path class="cls-7" d="M11.21,15.034c.032.068-.084.055-.153-.041a1.039,1.039,0,0,1-.06-1.2C11.408,13.2,10.968,14.522,11.21,15.034Z"/><path class="cls-7" d="M18.79,15.034c-.032.068.07.07.135-.017A1.043,1.043,0,0,0,19,13.789C18.592,13.2,19.032,14.522,18.79,15.034Z"/><path class="cls-12" d="M17.578,14.659l-.083.014a4.841,4.841,0,0,1-2.5.448,4.841,4.841,0,0,1-2.495-.448l-.083-.014c-.206-.035.764,1.208,2.578,1.208S17.784,14.624,17.578,14.659Z"/><path class="cls-13" d="M17.5,14.673a17.7,17.7,0,0,1-2.5.1h0a17.7,17.7,0,0,1-2.495-.1A4.318,4.318,0,0,0,15,15.356,4.318,4.318,0,0,0,17.5,14.673Z"/><path class="cls-5" d="M9.378,24.164c1,.523,3.738,2.05,3.738,2.05a33.4,33.4,0,0,0-3.055-2.492C8.471,22.577,8.5,21.575,8.5,21.511c0,0-.519.147-1.095.351A3.684,3.684,0,0,0,9.378,24.164Z"/><path class="cls-5" d="M19.94,23.722a24.893,24.893,0,0,0-3.055,2.492s2.733-1.527,3.738-2.05a3.683,3.683,0,0,0,1.972-2.3c-.65-.216-1.089-.349-1.095-.351C21.5,21.588,21.512,22.637,19.94,23.722Z"/><path class="cls-13" d="M11.022,24.443a.2.2,0,0,0-.005.043v3.858a.185.185,0,1,0,.37,0V24.731Q11.212,24.59,11.022,24.443Z"/><path class="cls-13" d="M18.613,24.707v3.637a.185.185,0,1,0,.37,0V24.486a.2.2,0,0,0-.01-.06C18.849,24.522,18.729,24.615,18.613,24.707Z"/><path class="cls-7" d="M16.5,16.523A3.642,3.642,0,0,1,15,16.8a3.642,3.642,0,0,1-1.5-.272c-.257-.145.032.256.61.465a2.829,2.829,0,0,0,1.782,0C16.469,16.779,16.758,16.378,16.5,16.523Z"/><path class="cls-7" d="M16.166,13.352c-.713.08-.716.425-1.166.428s-.453-.348-1.166-.428-.774-.067-.627.067c.293.268.614.156.977.415.4.284.493.355.816.355s.42-.071.816-.355c.363-.259.684-.147.977-.415C16.94,13.285,16.883,13.272,16.166,13.352Z"/></g></svg>