<svg id="Layer_1" data-name="Layer 1" xmlns="http://www.w3.org/2000/svg" xmlns:xlink="http://www.w3.org/1999/xlink" viewBox="0 0 28.691 30.937"><defs><style>.cls-1{fill:none;}.cls-2{fill:#fff6e9;opacity:0.3;isolation:isolate;}.cls-3{clip-path:url(#clip-path);}.cls-4{fill:#624a8a;}.cls-5{fill:#56407b;}.cls-6{fill:#ffdbb3;}.cls-7{fill:#d5b697;}.cls-8{fill:url(#linear-gradient);}.cls-9{fill:#605755;opacity:0.7;}.cls-10{fill:#6a5547;}.cls-11{fill:#383638;}.cls-12{fill:#4c4137;}.cls-13{fill:#fff;}</style><clipPath id="clip-path" transform="translate(-0.654 -0.132)"><path class="cls-1" d="M29.346,15.516a14.346,14.346,0,0,1-28.692,0C.654,7.594,7.077-.794,15-.794S29.346,7.594,29.346,15.516Z"/></clipPath><linearGradient id="linear-gradient" x1="14.999" y1="3.22" x2="14.999" y2="10.978" gradientUnits="userSpaceOnUse"><stop offset="0" stop-color="#4b4341"/><stop offset="1" stop-color="#ffdbb3"/></linearGradient></defs><title>newFace</title><circle class="cls-2" cx="14.346" cy="15.384" r="14.346"/><g class="cls-3"><path class="cls-4" d="M28.383,26.325c-.025-1.69-.924-2.766-2.757-3.42s-4.12-1.371-4.12-1.371c-.02-1.187-1.016-1.708-2.007-1.934a7.611,7.611,0,0,0-1.976-.153l-1.086,1.164L15.35,21.776s-.035.075-.1.213-.15-.109-.254.138c-.1-.247-.192,0-.254-.138s-.1-.213-.1-.213l-1.087-1.165-1.086-1.164A7.611,7.611,0,0,0,10.5,19.6c-.991.226-1.987.747-2.007,1.934,0,0-2.286.717-4.12,1.371s-2.732,1.73-2.757,3.42c-.024,1.652,2.292,2.453,5.107,3.337a32.645,32.645,0,0,0,8.1,1.4l.04,0h.264l.04,0a32.645,32.645,0,0,0,8.1-1.4C26.091,28.778,28.407,27.977,28.383,26.325Z" transform="translate(-0.654 -0.132)"/><path class="cls-5" d="M18.6,20.835c0,1.089-1.611,1.523-3.6,1.523s-3.6-.434-3.6-1.523,1.611-1.444,3.6-1.444S18.6,19.746,18.6,20.835Z" transform="translate(-0.654 -0.132)"/><path class="cls-6" d="M18.134,16.587c-1.048.393-2.086.814-3.134,1.206-1.049-.392-2.087-.813-3.136-1.206.039.973.088,1.959.036,2.917a2.154,2.154,0,0,0,.77,1.993,3.969,3.969,0,0,0,4.66,0A2.119,2.119,0,0,0,18.1,19.5C18.045,18.546,18.1,17.56,18.134,16.587Z" transform="translate(-0.654 -0.132)"/><path class="cls-7" d="M15,20.034a3.176,3.176,0,0,0,2.57-.716q.25-.194.508-.4c.011-.509.037-1.021.056-1.529C17.1,17.771,16.05,18.1,15,18.443c-1.051-.339-2.1-.672-3.136-1.053.02.508.046,1.019.056,1.528.173.137.343.271.51.4A3.176,3.176,0,0,0,15,20.034Z" transform="translate(-0.654 -0.132)"/><path class="cls-6" d="M21.674,9.35s.04-1.288.04-2.454S20.954,2.023,15,2.023,8.286,5.729,8.286,6.9s.04,2.454.04,2.454c-.563-.6-1.368.241-1.368.925a9.462,9.462,0,0,0,.749,2.449c.152.458.906.482.906.482a5.6,5.6,0,0,0,.845,2.656A15.809,15.809,0,0,0,12.43,18.8a3.032,3.032,0,0,0,2.57.764,3.032,3.032,0,0,0,2.57-.764,15.809,15.809,0,0,0,2.972-2.937,5.6,5.6,0,0,0,.845-2.656.762.762,0,0,0,.906-.482,10.058,10.058,0,0,0,.749-2.449C23.042,9.591,22.237,8.746,21.674,9.35Z" transform="translate(-0.654 -0.132)"/><path class="cls-8" d="M21.815,4.318C21.815,2.853,20.143.132,15,.132S8.183,2.83,8.183,4.318c-.031.7-.041.491-.043.9s0,.752,0,1.186.046,1.17.092,1.8.092,1.148.092,1.148l.029.233.03.232.242.132.242.131s.015-.3.053-.775.1-1.113.189-1.789A3.761,3.761,0,0,1,9.649,6c.065-.1.128-.189.183-.26a1.134,1.134,0,0,0,.24-.646l.024-.464.044-.189a3.639,3.639,0,0,1,1.029-.373A30.055,30.055,0,0,1,15,4.175a30.058,30.058,0,0,1,3.83-.109,3.639,3.639,0,0,1,1.029.373l.044.189.024.464a1.134,1.134,0,0,0,.24.646c.055.071.118.158.183.26a3.761,3.761,0,0,1,.538,1.516c.091.676.151,1.317.189,1.789s.053.775.053.775l.242-.131.243-.132.029-.232.029-.233s.046-.52.092-1.148.092-1.364.092-1.8,0-.777,0-1.186S21.846,5.014,21.815,4.318Z" transform="translate(-0.654 -0.132)"/><path class="cls-9" d="M9.72,9.377A4.775,4.775,0,0,1,12,8.867c1.8-.134,1.8.051,1.8.051V8.274a14.4,14.4,0,0,0-2.441.03A2.064,2.064,0,0,0,9.72,9.377Z" transform="translate(-0.654 -0.132)"/><path class="cls-10" d="M11.7,10.168a3.217,3.217,0,0,1,1.164.2A1.24,1.24,0,0,0,11.7,9.781a1.239,1.239,0,0,0-1.163.586A3.216,3.216,0,0,1,11.7,10.168Z" transform="translate(-0.654 -0.132)"/><path class="cls-9" d="M20.28,9.377A4.775,4.775,0,0,0,18,8.867c-1.8-.134-1.8.051-1.8.051V8.274a14.4,14.4,0,0,1,2.441.03A2.064,2.064,0,0,1,20.28,9.377Z" transform="translate(-0.654 -0.132)"/><path class="cls-10" d="M18.3,10.168a3.217,3.217,0,0,0-1.164.2A1.24,1.24,0,0,1,18.3,9.781a1.239,1.239,0,0,1,1.163.586A3.216,3.216,0,0,0,18.3,10.168Z" transform="translate(-0.654 -0.132)"/><path class="cls-11" d="M21.936,9.17l-.926-.295c-.006-.1-.037-.171-.2-.171H16.25c-.442,0-.724.6-1.006.6h-.488c-.282,0-.564-.6-1.006-.6H9.186c-.159,0-.19.072-.2.171l-.928.295.264.18.67,0a.187.187,0,0,0,.194.161s.242.85.37,1.26c.12.384.081.631.684.631h3.191c.6,0,.773-.8,1.01-1.127s.314-.322.555-.322.318,0,.555.322.407,1.127,1.01,1.127h3.191c.6,0,.564-.247.684-.631.128-.41.37-1.26.37-1.26A.187.187,0,0,0,21,9.348l.669,0Zm-7.858.742a5.28,5.28,0,0,1-.348.942.284.284,0,0,1-.26.17H10.241c-.157,0-.229-.118-.284-.284l-.37-1.39a.284.284,0,0,1,.284-.284h3.64l.127,0C14.129,9.1,14.172,9.492,14.078,9.912Zm5.965.828c-.055.166-.127.284-.284.284H16.53a.284.284,0,0,1-.26-.17,5.28,5.28,0,0,1-.348-.942c-.094-.42-.051-.813.44-.841l.127,0h3.64a.284.284,0,0,1,.284.284Z" transform="translate(-0.654 -0.132)"/><path class="cls-7" d="M11.206,15.05c.033.069-.084.056-.153-.04a1.04,1.04,0,0,1-.06-1.2C11.405,13.217,10.964,14.538,11.206,15.05Z" transform="translate(-0.654 -0.132)"/><path class="cls-7" d="M18.794,15.05c-.033.069.069.071.135-.016a1.045,1.045,0,0,0,.078-1.229C18.6,13.217,19.036,14.538,18.794,15.05Z" transform="translate(-0.654 -0.132)"/><path class="cls-12" d="M17.58,14.676l-.083.013a4.837,4.837,0,0,1-2.5.448,4.837,4.837,0,0,1-2.5-.448l-.083-.013c-.206-.035.765,1.209,2.58,1.209S17.786,14.641,17.58,14.676Z" transform="translate(-0.654 -0.132)"/><path class="cls-13" d="M17.5,14.689a17.549,17.549,0,0,1-2.5.1h0a17.549,17.549,0,0,1-2.5-.1,4.314,4.314,0,0,0,2.5.684A4.314,4.314,0,0,0,17.5,14.689Z" transform="translate(-0.654 -0.132)"/><path class="cls-5" d="M9.372,24.19c1.006.523,3.742,2.051,3.742,2.051a33.381,33.381,0,0,0-3.058-2.494C8.464,22.6,8.494,21.6,8.494,21.534c0,0-.52.147-1.1.351A3.691,3.691,0,0,0,9.372,24.19Z" transform="translate(-0.654 -0.132)"/><path class="cls-5" d="M19.944,23.747a24.927,24.927,0,0,0-3.057,2.494s2.735-1.528,3.741-2.051a3.686,3.686,0,0,0,1.974-2.3c-.65-.216-1.09-.349-1.1-.351C21.5,21.611,21.518,22.661,19.944,23.747Z" transform="translate(-0.654 -0.132)"/><path class="cls-13" d="M11.018,24.469a.193.193,0,0,0-.005.042v3.863a.185.185,0,0,0,.37,0V24.757Q11.208,24.616,11.018,24.469Z" transform="translate(-0.654 -0.132)"/><path class="cls-13" d="M18.617,24.733v3.641a.185.185,0,1,0,.37,0V24.511a.171.171,0,0,0-.011-.059Q18.79,24.595,18.617,24.733Z" transform="translate(-0.654 -0.132)"/><path class="cls-7" d="M16.5,16.541a3.641,3.641,0,0,1-1.5.273,3.641,3.641,0,0,1-1.5-.273c-.257-.145.032.257.61.466a2.835,2.835,0,0,0,1.784,0C16.47,16.8,16.759,16.4,16.5,16.541Z" transform="translate(-0.654 -0.132)"/><path class="cls-7" d="M16.167,13.367c-.713.08-.717.426-1.167.429s-.454-.349-1.167-.429-.775-.067-.628.067c.294.269.615.156.978.416.4.284.493.355.817.355s.42-.071.817-.355c.363-.26.684-.147.978-.416C16.942,13.3,16.884,13.287,16.167,13.367Z" transform="translate(-0.654 -0.132)"/></g></svg>