<svg id="Layer_1" data-name="Layer 1" xmlns="http://www.w3.org/2000/svg" viewBox="0 0 30 27.27"><defs><style>.cls-1{fill:#61dafb;}</style></defs><title>react</title><path class="cls-1" d="M29.956,13.638c0-1.982-2.481-3.859-6.286-5.024.878-3.878.488-6.963-1.231-7.951a2.682,2.682,0,0,0-1.36-.34V.316c-1.677,0-3.872,1.195-6.091,3.268C12.768,1.523,10.573.34,8.9.34V.346A2.715,2.715,0,0,0,7.519.688c-1.713.988-2.1,4.067-1.213,7.932C2.513,9.791.044,11.663.044,13.638S2.525,17.5,6.33,18.662c-.878,3.878-.488,6.963,1.231,7.951a2.69,2.69,0,0,0,1.372.341c1.677,0,3.872-1.2,6.091-3.268,2.22,2.061,4.415,3.244,6.091,3.244a2.713,2.713,0,0,0,1.378-.342c1.714-.987,2.1-4.066,1.214-7.932C27.487,17.491,29.956,15.614,29.956,13.638ZM21.073,1.676v.006a1.409,1.409,0,0,1,.7.158c.829.476,1.189,2.287.908,4.616-.067.573-.177,1.176-.311,1.792a29.619,29.619,0,0,0-3.871-.664,29.665,29.665,0,0,0-2.537-3.049C17.942,2.69,19.805,1.679,21.073,1.676ZM9.6,16.76q.43.732.878,1.426c-.866-.128-1.7-.286-2.5-.481.226-.787.506-1.6.823-2.409C9.049,15.784,9.311,16.272,9.6,16.76ZM7.958,9.571c.8-.189,1.64-.353,2.512-.481-.3.469-.6.951-.878,1.445S9.049,11.51,8.8,12C8.47,11.181,8.19,10.364,7.958,9.571Zm1.555,4.085c.378-.817.8-1.634,1.262-2.432.475-.823.963-1.6,1.469-2.33.909-.079,1.829-.121,2.756-.121s1.841.042,2.744.115c.506.726,1,1.5,1.475,2.317.464.8.884,1.61,1.268,2.427-.384.817-.8,1.634-1.262,2.433-.475.823-.963,1.6-1.469,2.329-.909.079-1.829.122-2.756.122s-1.841-.043-2.744-.116c-.506-.726-1-1.5-1.475-2.317C10.317,15.284,9.9,14.473,9.513,13.656ZM20.4,16.741c.28-.487.543-.981.793-1.469.329.817.609,1.634.841,2.427-.8.195-1.64.359-2.512.487C19.823,17.717,20.122,17.235,20.4,16.741ZM20.4,10.516c-.281-.487-.579-.963-.878-1.426.866.128,1.7.286,2.5.481-.226.787-.506,1.6-.823,2.409C20.945,11.492,20.682,11,20.4,10.516ZM16.677,7.449c-.549-.024-1.11-.042-1.677-.042s-1.14.012-1.7.042A24.012,24.012,0,0,1,14.982,5.5,25.351,25.351,0,0,1,16.677,7.449ZM8.2,1.865a1.353,1.353,0,0,1,.7-.159V1.7c1.262,0,3.134,1.006,5.121,2.841A28.857,28.857,0,0,0,11.5,7.584a28.569,28.569,0,0,0-3.878.67c-.14-.609-.243-1.2-.317-1.768C7.019,4.157,7.373,2.346,8.2,1.865ZM6.659,17.345c-.6-.189-1.177-.4-1.707-.622C2.794,15.8,1.4,14.6,1.4,13.638s1.4-2.171,3.555-3.085c.524-.226,1.1-.427,1.689-.616A29.191,29.191,0,0,0,8.013,13.65,28.938,28.938,0,0,0,6.659,17.345ZM8.921,25.6a1.463,1.463,0,0,1-.689-.165C7.4,24.96,7.043,23.15,7.324,20.82c.067-.573.177-1.176.311-1.792a29.452,29.452,0,0,0,3.871.664,29.665,29.665,0,0,0,2.537,3.049C12.055,24.588,10.189,25.6,8.921,25.6Zm6.091-3.823a25.351,25.351,0,0,1-1.7-1.951c.549.024,1.11.042,1.677.042s1.14-.012,1.7-.042A24.012,24.012,0,0,1,15.012,21.778ZM21.8,25.412a1.363,1.363,0,0,1-.7.158c-1.262,0-3.134-1.006-5.121-2.841A28.857,28.857,0,0,0,18.5,19.686a28.569,28.569,0,0,0,3.878-.67A17.388,17.388,0,0,1,22.7,20.79C22.981,23.119,22.627,24.93,21.8,25.412Zm3.238-8.689c-.524.226-1.1.427-1.689.616a29.191,29.191,0,0,0-1.372-3.713,28.938,28.938,0,0,0,1.354-3.695c.6.189,1.176.4,1.713.622,2.158.921,3.555,2.128,3.555,3.085S27.2,15.809,25.042,16.723Z"/><circle class="cls-1" cx="14.994" cy="13.495" r="2.786"/></svg>