<?xml version="1.0" encoding="utf-8"?>
<!-- Generator: Adobe Illustrator 24.0.3, SVG Export Plug-In . SVG Version: 6.00 Build 0)  -->
<svg version="1.1" id="Layer_1" xmlns="http://www.w3.org/2000/svg" xmlns:xlink="http://www.w3.org/1999/xlink" x="0px" y="0px"
	 viewBox="0 0 70.662 33.861" style="enable-background:new 0 0 70.662 33.861;" xml:space="preserve">
<style type="text/css">
	.st0{fill:#FFFFFF;}
</style>
<path class="st0" d="M63.331,19.93h-8c-1.657,0-3-1.343-3-3v0c0-1.657,1.343-3,3-3h8c1.657,0,3,1.343,3,3v0
	C66.331,18.587,64.988,19.93,63.331,19.93z M39.331,19.93h-8c-1.657,0-3-1.343-3-3v0c0-1.657,1.343-3,3-3h8c1.657,0,3,1.343,3,3v0
	C42.331,18.587,40.988,19.93,39.331,19.93z M15.331,19.93h-8c-1.657,0-3-1.343-3-3v0c0-1.657,1.343-3,3-3h8c1.657,0,3,1.343,3,3v0
	C18.331,18.587,16.988,19.93,15.331,19.93z"/>
</svg>
