<?xml version="1.0" encoding="utf-8"?>
<!-- Generator: Adobe Illustrator 24.0.3, SVG Export Plug-In . SVG Version: 6.00 Build 0)  -->
<svg version="1.1" id="Layer_1" xmlns="http://www.w3.org/2000/svg" xmlns:xlink="http://www.w3.org/1999/xlink" x="0px" y="0px"
	 viewBox="0 0 99.8 33.9" style="enable-background:new 0 0 99.8 33.9;" xml:space="preserve">
<style type="text/css">
	.st0{fill:#FFFFFF;}
</style>
<path class="st0" d="M87.7,20.9h-8c-1.7,0-3-1.3-3-3v0c0-1.7,1.3-3,3-3h8c1.7,0,3,1.3,3,3v0C90.7,19.6,89.3,20.9,87.7,20.9z
	 M63.7,20.9h-8c-1.7,0-3-1.3-3-3v0c0-1.7,1.3-3,3-3h8c1.7,0,3,1.3,3,3v0C66.7,19.6,65.3,20.9,63.7,20.9z M39.7,20.9h-8
	c-1.7,0-3-1.3-3-3v0c0-1.7,1.3-3,3-3h8c1.7,0,3,1.3,3,3v0C42.7,19.6,41.3,20.9,39.7,20.9z M15.7,20.9h-8c-1.7,0-3-1.3-3-3v0
	c0-1.7,1.3-3,3-3h8c1.7,0,3,1.3,3,3v0C18.7,19.6,17.3,20.9,15.7,20.9z"/>
</svg>
