<?xml version="1.0" encoding="utf-8"?>
<!-- Generator: Adobe Illustrator 24.0.3, SVG Export Plug-In . SVG Version: 6.00 Build 0)  -->
<svg version="1.1" id="Layer_1" xmlns="http://www.w3.org/2000/svg" xmlns:xlink="http://www.w3.org/1999/xlink" x="0px" y="0px"
	 viewBox="0 0 222.323 289.757" style="enable-background:new 0 0 222.323 289.757;" xml:space="preserve">
<style type="text/css">
	.st0{opacity:0.1;fill:#150D53;}
	.st1{fill:#599ED1;}
	.st2{fill:#C1EBFF;}
	.st3{fill:#FFFFFF;}
	.st4{fill:#DCE6F4;}
	.st5{fill:#A0D2EF;}
	.st6{fill:#67C1EF;}
	.st7{fill:#FF7F8E;}
	.st8{fill:none;stroke:#67C1EF;stroke-width:1.5377;stroke-linecap:round;stroke-linejoin:round;stroke-miterlimit:10;}
</style>
<g>
	<ellipse class="st0" cx="111.162" cy="274.109" rx="106.023" ry="11.346"/>
	<g id="tablet_3_">
		<path class="st1" d="M195.403,274.777H19.959c-4.845,0-8.772-3.927-8.772-8.772V13.074c0-4.845,3.927-8.772,8.772-8.772h175.443
			c4.845,0,8.772,3.927,8.772,8.772v252.931C204.175,270.85,200.247,274.777,195.403,274.777z"/>
		<path class="st2" d="M188.092,263.081H27.269c-3.23,0-5.848-2.618-5.848-5.848V21.846c0-3.23,2.618-5.848,5.848-5.848h160.823
			c3.23,0,5.848,2.618,5.848,5.848v235.387C193.941,260.463,191.322,263.081,188.092,263.081z"/>
		<circle class="st3" cx="108.968" cy="10.296" r="2.193"/>
		<g>
			<path class="st3" d="M104.867,263.081h-76.18v-59.216c0-1.401,1.136-2.537,2.537-2.537h71.106c1.401,0,2.537,1.136,2.537,2.537
				V263.081z"/>
			<path class="st4" d="M98.894,260.069H35.287c-0.882,0-1.603-0.721-1.603-1.603v-0.748c0-0.882,0.721-1.603,1.603-1.603h63.607
				c0.882,0,1.603,0.721,1.603,1.603v0.748C100.497,259.348,99.776,260.069,98.894,260.069z"/>
			<path class="st5" d="M94.642,248.865h-55.11c-3.216,0-5.848-2.632-5.848-5.848v-28.54c0-3.216,2.632-5.848,5.848-5.848h55.11
				c3.216,0,5.848,2.632,5.848,5.848v28.54C100.49,246.233,97.858,248.865,94.642,248.865z"/>
		</g>
		<g>
			<path class="st3" d="M186.675,263.081h-76.18v-59.216c0-1.401,1.136-2.537,2.537-2.537h71.106c1.401,0,2.537,1.136,2.537,2.537
				V263.081z"/>
			<path class="st4" d="M180.701,260.069h-63.607c-0.882,0-1.603-0.721-1.603-1.603v-0.748c0-0.882,0.721-1.603,1.603-1.603h63.607
				c0.882,0,1.603,0.721,1.603,1.603v0.748C182.305,259.348,181.583,260.069,180.701,260.069z"/>
			<g>
				<g>
					<path class="st4" d="M176.449,248.865h-55.11c-3.216,0-5.848-2.632-5.848-5.848v-28.54c0-3.216,2.632-5.848,5.848-5.848h55.11
						c3.216,0,5.848,2.632,5.848,5.848v28.54C182.298,246.233,179.666,248.865,176.449,248.865z"/>
				</g>
			</g>
		</g>
		<path class="st3" d="M183.706,106.583H31.655c-1.615,0-2.924-1.309-2.924-2.924V58.725c0-1.615,1.309-2.924,2.924-2.924h152.051
			c1.615,0,2.924,1.309,2.924,2.924v44.934C186.63,105.274,185.321,106.583,183.706,106.583z"/>
		<g>
			<g>
				<g>
					<path class="st4" d="M178.686,78.652h-60.203c-0.487,0-0.881-0.395-0.881-0.881l0,0c0-0.487,0.395-0.881,0.881-0.881h60.203
						c0.487,0,0.881,0.394,0.881,0.881l0,0C179.567,78.257,179.173,78.652,178.686,78.652z"/>
				</g>
				<g>
					<path class="st4" d="M169.863,82.955h-51.38c-0.487,0-0.881-0.395-0.881-0.881l0,0c0-0.487,0.395-0.881,0.881-0.881h51.38
						c0.487,0,0.881,0.395,0.881,0.881l0,0C170.745,82.56,170.35,82.955,169.863,82.955z"/>
				</g>
			</g>
			<g>
				<path class="st6" d="M167.771,72.438h-38.374c-0.935,0-1.693-0.758-1.693-1.693l0,0c0-0.935,0.758-1.693,1.693-1.693h38.374
					c0.935,0,1.693,0.758,1.693,1.693l0,0C169.464,71.68,168.706,72.438,167.771,72.438z"/>
			</g>
			<path class="st7" d="M155.639,93.398h-14.108c-1.552,0-2.822-1.27-2.822-2.822l0,0c0-1.552,1.27-2.822,2.822-2.822h14.108
				c1.552,0,2.822,1.27,2.822,2.822l0,0C158.46,92.128,157.19,93.398,155.639,93.398z"/>
		</g>
		<path class="st5" d="M100.595,100.525H39.066c-2.96,0-5.382-2.422-5.382-5.382V67.901c0-2.96,2.422-5.382,5.382-5.382h61.529
			c2.96,0,5.382,2.422,5.382,5.382v27.243C105.977,98.103,103.555,100.525,100.595,100.525z"/>
		<g>
			<path class="st3" d="M101.943,195.162H31.611c-1.615,0-2.924-1.309-2.924-2.924v-76.176c0-1.615,1.309-2.924,2.924-2.924h70.332
				c1.615,0,2.924,1.309,2.924,2.924v76.176C104.867,193.853,103.558,195.162,101.943,195.162z"/>
			<path class="st4" d="M98.894,171.88H35.287c-0.882,0-1.603-0.722-1.603-1.603v-0.748c0-0.882,0.721-1.603,1.603-1.603h63.607
				c0.882,0,1.603,0.721,1.603,1.603v0.748C100.497,171.158,99.776,171.88,98.894,171.88z"/>
			<path class="st4" d="M98.894,179.65H35.287c-0.882,0-1.603-0.722-1.603-1.603v-0.748c0-0.882,0.721-1.603,1.603-1.603h63.607
				c0.882,0,1.603,0.721,1.603,1.603v0.748C100.497,178.929,99.776,179.65,98.894,179.65z"/>
			<path class="st4" d="M62.594,187.421H35.287c-0.882,0-1.603-0.721-1.603-1.603v-0.748c0-0.882,0.721-1.603,1.603-1.603h27.307
				c0.882,0,1.603,0.721,1.603,1.603v0.748C64.197,186.7,63.476,187.421,62.594,187.421z"/>
			<path class="st6" d="M94.642,160.675h-55.11c-3.216,0-5.848-2.632-5.848-5.848v-28.54c0-3.216,2.632-5.848,5.848-5.848h55.11
				c3.216,0,5.848,2.632,5.848,5.848v28.54C100.49,158.043,97.858,160.675,94.642,160.675z"/>
		</g>
		<g>
			<path class="st3" d="M183.751,195.162h-70.332c-1.615,0-2.924-1.309-2.924-2.924v-76.176c0-1.615,1.309-2.924,2.924-2.924h70.332
				c1.615,0,2.924,1.309,2.924,2.924v76.176C186.675,193.853,185.366,195.162,183.751,195.162z"/>
			<path class="st4" d="M180.701,171.88h-63.607c-0.882,0-1.603-0.722-1.603-1.603v-0.748c0-0.882,0.721-1.603,1.603-1.603h63.607
				c0.882,0,1.603,0.721,1.603,1.603v0.748C182.305,171.158,181.583,171.88,180.701,171.88z"/>
			<path class="st4" d="M180.701,179.65h-63.607c-0.882,0-1.603-0.722-1.603-1.603v-0.748c0-0.882,0.721-1.603,1.603-1.603h63.607
				c0.882,0,1.603,0.721,1.603,1.603v0.748C182.305,178.929,181.583,179.65,180.701,179.65z"/>
			<path class="st4" d="M144.401,187.421h-27.307c-0.882,0-1.603-0.721-1.603-1.603v-0.748c0-0.882,0.721-1.603,1.603-1.603h27.307
				c0.882,0,1.603,0.721,1.603,1.603v0.748C146.005,186.7,145.283,187.421,144.401,187.421z"/>
			<path class="st7" d="M176.449,160.675h-55.11c-3.216,0-5.848-2.632-5.848-5.848v-28.54c0-3.216,2.632-5.848,5.848-5.848h55.11
				c3.216,0,5.848,2.632,5.848,5.848v28.54C182.298,158.043,179.666,160.675,176.449,160.675z"/>
		</g>
		<g>
			<path class="st3" d="M183.706,49.953H31.567c-1.615,0-2.924-1.309-2.924-2.924V26.744c0-1.615,1.309-2.924,2.924-2.924h152.14
				c1.615,0,2.924,1.309,2.924,2.924v20.286C186.63,48.644,185.321,49.953,183.706,49.953z"/>
			<path class="st7" d="M43.295,44.749L43.295,44.749c-4.342,0-7.863-3.52-7.863-7.863l0,0c0-4.342,3.52-7.863,7.863-7.863l0,0
				c4.342,0,7.863,3.52,7.863,7.863l0,0C51.157,41.229,47.637,44.749,43.295,44.749z"/>
			<g>
				<line class="st8" x1="163.676" y1="41.785" x2="178.373" y2="41.785"/>
				<line class="st8" x1="163.676" y1="31.988" x2="178.373" y2="31.988"/>
				<line class="st8" x1="163.676" y1="36.886" x2="178.373" y2="36.886"/>
			</g>
		</g>
	</g>
</g>
</svg>
