<svg id="Layer_1" data-name="Layer 1" xmlns="http://www.w3.org/2000/svg" viewBox="0 0 30 30"><defs><style>.cls-1{fill:#fff;}</style></defs><title>think</title><rect class="cls-1" x="14.644" y="1.599" width="0.713" height="1.901"/><rect class="cls-1" x="19.515" y="3.657" width="1.901" height="0.713" transform="translate(6.756 19.729) rotate(-59.995)"/><rect class="cls-1" x="9.178" y="3.063" width="0.713" height="1.901" transform="matrix(0.866, -0.5, 0.5, 0.866, -0.73, 5.304)"/><rect class="cls-1" x="23.516" y="7.658" width="1.902" height="0.713" transform="translate(-0.729 13.309) rotate(-30.005)"/><rect class="cls-1" x="5.177" y="7.064" width="0.713" height="1.902" transform="translate(-4.174 8.798) rotate(-59.993)"/><rect class="cls-1" x="24.981" y="13.124" width="1.901" height="0.713"/><rect class="cls-1" x="3.118" y="13.124" width="1.901" height="0.713"/><rect class="cls-1" x="24.111" y="17.995" width="0.713" height="1.902" transform="translate(-4.172 30.668) rotate(-60.012)"/><rect class="cls-1" x="4.582" y="18.589" width="1.902" height="0.713" transform="translate(-8.733 5.306) rotate(-30.005)"/><path class="cls-1" d="M19.655,14.343a1.177,1.177,0,0,0-.751-1.088,1.157,1.157,0,0,0,.12-.49,1.185,1.185,0,0,0-1.183-1.184,1.214,1.214,0,0,0-.123.022,1.168,1.168,0,0,0-1.14-.968A1.185,1.185,0,0,0,15.4,11.818v5.05a1.185,1.185,0,0,0,1.183,1.183,1.168,1.168,0,0,0,1.14-.968,1.214,1.214,0,0,0,.123.022,1.185,1.185,0,0,0,1.183-1.184,1.17,1.17,0,0,0-.115-.493A1.176,1.176,0,0,0,19.655,14.343Zm-1.057.688a1.165,1.165,0,0,0-.757-.294v.474a.71.71,0,0,1,0,1.42.617.617,0,0,1-.132-.023,1.168,1.168,0,0,0-1.131-.924v.474a.71.71,0,1,1-.71.71V14.659a.395.395,0,1,1,.789,0h.473a.868.868,0,0,0-.868-.868.852.852,0,0,0-.394.106V11.818a.71.71,0,1,1,.71.71V13a1.169,1.169,0,0,0,1.131-.924.617.617,0,0,1,.132-.023.711.711,0,0,1,.71.71.7.7,0,0,1-.144.408,1.164,1.164,0,0,0-.813.379l.354.314a.7.7,0,0,1,.524-.233.356.356,0,0,1,.052,0,.7.7,0,0,1,.658.708A.7.7,0,0,1,18.6,15.031Z"/><path class="cls-1" d="M13.422,10.635a1.168,1.168,0,0,0-1.14.968,1.214,1.214,0,0,0-.123-.022A1.161,1.161,0,0,0,11.1,13.256a1.162,1.162,0,0,0-.005,2.172,1.17,1.17,0,0,0-.115.493,1.185,1.185,0,0,0,1.183,1.184,1.214,1.214,0,0,0,.123-.022,1.168,1.168,0,0,0,1.14.968,1.185,1.185,0,0,0,1.183-1.183v-5.05A1.185,1.185,0,0,0,13.422,10.635Zm.71,6.233a.71.71,0,1,1-.71-.71v-.474a1.168,1.168,0,0,0-1.131.924.617.617,0,0,1-.132.023.71.71,0,1,1,0-1.42v-.474a1.165,1.165,0,0,0-.757.294.7.7,0,0,1-.584-.688.707.707,0,0,1,.674-.709h.02a.7.7,0,0,1,.54.233l.354-.314a1.164,1.164,0,0,0-.813-.379.7.7,0,0,1-.144-.408.711.711,0,0,1,.71-.71.617.617,0,0,1,.132.023A1.169,1.169,0,0,0,13.422,13v-.474a.71.71,0,1,1,.71-.71V13.9a.852.852,0,0,0-.394-.106.868.868,0,0,0-.868.868h.473a.395.395,0,1,1,.789,0Z"/><rect class="cls-1" x="14.369" y="14.461" width="1.262" height="0.473"/><path class="cls-1" d="M13.334,6.965A7.75,7.75,0,0,0,9.2,19.689a5.032,5.032,0,0,1,1.274,3.3V24.28a1.941,1.941,0,0,0,1.339,1.843,3.222,3.222,0,0,0,6.367,0,1.941,1.941,0,0,0,1.34-1.843V22.988a5.106,5.106,0,0,1,1.311-3.342,7.755,7.755,0,0,0-7.5-12.681ZM15,27.554a1.978,1.978,0,0,1-1.828-1.34h3.656A1.979,1.979,0,0,1,15,27.554Zm3.23-3.274a.646.646,0,0,1-.646.646H12.415a.647.647,0,0,1-.646-.646v-.646H18.23Zm1.632-5.486a6.485,6.485,0,0,0-1.6,3.548H11.734a6.394,6.394,0,0,0-1.565-3.512,6.461,6.461,0,1,1,9.693-.036Z"/></svg>