<svg id="Layer_1" data-name="Layer 1" xmlns="http://www.w3.org/2000/svg" viewBox="0 0 30 30.244"><defs><style>.cls-1{fill:#fff;}</style></defs><title>think2</title><rect class="cls-1" x="14.5" y="0.499" width="1.001" height="2.253"/><rect class="cls-1" x="19.633" y="2.668" width="2.254" height="1.001" transform="translate(7.638 19.565) rotate(-60.009)"/><rect class="cls-1" x="8.739" y="2.042" width="1.001" height="2.254" transform="translate(-0.347 5.042) rotate(-29.987)"/><rect class="cls-1" x="23.849" y="6.884" width="2.254" height="1.002" transform="translate(-0.346 13.478) rotate(-30.001)"/><rect class="cls-1" x="4.523" y="6.258" width="1.002" height="2.254" transform="translate(-3.884 8.043) rotate(-60.003)"/><rect class="cls-1" x="25.394" y="12.644" width="2.253" height="1.001"/><rect class="cls-1" x="2.354" y="12.644" width="2.253" height="1.001"/><rect class="cls-1" x="24.476" y="17.778" width="1.001" height="2.254" transform="translate(-3.876 31.102) rotate(-60.037)"/><rect class="cls-1" x="3.896" y="18.405" width="2.254" height="1.001" transform="translate(-8.777 5.042) rotate(-29.991)"/><path class="cls-1" d="M20.045,13.554a1.3,1.3,0,0,0-.832-1.206,1.286,1.286,0,0,0,.133-.543,1.313,1.313,0,0,0-1.312-1.311,1.189,1.189,0,0,0-.135.024,1.3,1.3,0,0,0-1.264-1.073,1.312,1.312,0,0,0-1.311,1.311v2.929h-.648V10.756a1.312,1.312,0,0,0-1.311-1.311A1.3,1.3,0,0,0,12.1,10.518a1.189,1.189,0,0,0-.135-.024,1.313,1.313,0,0,0-1.312,1.311,1.289,1.289,0,0,0,.134.545,1.288,1.288,0,0,0-.006,2.407,1.289,1.289,0,0,0-.128.546,1.314,1.314,0,0,0,1.312,1.312,1.191,1.191,0,0,0,.135-.025,1.3,1.3,0,0,0,1.264,1.074,1.313,1.313,0,0,0,1.311-1.312V14.21h.648v2.142a1.313,1.313,0,0,0,1.311,1.312A1.3,1.3,0,0,0,17.9,16.59a1.191,1.191,0,0,0,.135.025A1.314,1.314,0,0,0,19.346,15.3a1.289,1.289,0,0,0-.128-.546A1.3,1.3,0,0,0,20.045,13.554Zm-5.893-.494a.941.941,0,0,0-.437-.118.963.963,0,0,0-.962.962h.524a.438.438,0,0,1,.875,0v2.448a.787.787,0,1,1-.787-.787v-.524a1.294,1.294,0,0,0-1.253,1.023.7.7,0,0,1-.146.026.787.787,0,1,1,0-1.574v-.525a1.292,1.292,0,0,0-.84.326.771.771,0,0,1-.647-.763.784.784,0,0,1,.747-.786h.022a.776.776,0,0,1,.6.258l.393-.348a1.289,1.289,0,0,0-.9-.419.774.774,0,0,1-.159-.453.788.788,0,0,1,.787-.787.7.7,0,0,1,.146.026,1.294,1.294,0,0,0,1.253,1.024v-.525a.787.787,0,1,1,.787-.787Zm4.722,1.257a1.292,1.292,0,0,0-.84-.326v.525a.787.787,0,1,1,0,1.574.7.7,0,0,1-.146-.026,1.294,1.294,0,0,0-1.253-1.023v.524a.787.787,0,1,1-.787.787V13.9a.438.438,0,0,1,.875,0h.524a.963.963,0,0,0-.962-.962.941.941,0,0,0-.437.118v-2.3a.787.787,0,1,1,.787.787v.525a1.294,1.294,0,0,0,1.253-1.024.7.7,0,0,1,.146-.026.788.788,0,0,1,.787.787.774.774,0,0,1-.159.453,1.289,1.289,0,0,0-.9.419l.393.348a.772.772,0,0,1,.58-.258c.013,0,.027,0,.058,0a.78.78,0,0,1,.082,1.547Z"/><path class="cls-1" d="M20.567,6.581A8.815,8.815,0,0,0,8.408,19.271c.887,1,1.4,1.327,1.4,2.627v.644A2.3,2.3,0,0,0,11.32,24.7a3.738,3.738,0,0,0,7.36,0A2.3,2.3,0,0,0,20.2,22.542V21.9c0-1.3.511-1.618,1.439-2.677a8.81,8.81,0,0,0-1.068-12.64ZM15,26.088a2.093,2.093,0,0,1-1.865-1.252h3.729A2.093,2.093,0,0,1,15,26.088ZM20.357,18.1c-1,1.145-1.626,1.514-1.806,2.946L18.5,22.542a.6.6,0,0,1-.6.6H12.1a.6.6,0,0,1-.6-.6l-.053-1.493c-.181-1.432-.807-1.823-1.772-2.907a7.119,7.119,0,1,1,10.68-.039Z"/></svg>