<svg id="Layer_1" data-name="Layer 1" xmlns="http://www.w3.org/2000/svg" viewBox="0 0 30 30.999"><defs><style>.cls-1{fill:#fff;}</style></defs><title>think</title><rect class="cls-1" x="14.489" y="0.722" width="1.023" height="2.302"/><rect class="cls-1" x="19.733" y="2.938" width="2.303" height="1.023" transform="translate(7.458 19.814) rotate(-60.009)"/><rect class="cls-1" x="8.604" y="2.298" width="1.023" height="2.303" transform="translate(-0.504 5.017) rotate(-29.987)"/><rect class="cls-1" x="24.041" y="7.246" width="2.303" height="1.023" transform="translate(-0.503 13.636) rotate(-30.001)"/><rect class="cls-1" x="4.295" y="6.606" width="1.023" height="2.303" transform="translate(-4.315 8.042) rotate(-60.003)"/><rect class="cls-1" x="25.619" y="13.131" width="2.302" height="1.023"/><rect class="cls-1" x="2.079" y="13.131" width="2.302" height="1.023"/><rect class="cls-1" x="24.682" y="18.376" width="1.023" height="2.303" transform="translate(-4.307 31.6) rotate(-60.037)"/><rect class="cls-1" x="3.655" y="19.016" width="2.303" height="1.023" transform="translate(-9.117 5.017) rotate(-29.991)"/><path class="cls-1" d="M20.1,14.06a1.334,1.334,0,0,0-.85-1.232,1.311,1.311,0,0,0,.135-.554,1.342,1.342,0,0,0-1.34-1.341,1.05,1.05,0,0,0-.138.026,1.325,1.325,0,0,0-1.291-1.1,1.342,1.342,0,0,0-1.34,1.34v2.993h-.552V11.2a1.342,1.342,0,0,0-1.34-1.34,1.325,1.325,0,0,0-1.291,1.1,1.05,1.05,0,0,0-.138-.026,1.342,1.342,0,0,0-1.34,1.341,1.317,1.317,0,0,0,.136.555,1.316,1.316,0,0,0-.006,2.46,1.322,1.322,0,0,0-.13.558,1.341,1.341,0,0,0,1.34,1.34,1.244,1.244,0,0,0,.138-.025,1.324,1.324,0,0,0,1.291,1.1,1.341,1.341,0,0,0,1.34-1.34V14.73h.552v2.189a1.341,1.341,0,0,0,1.34,1.34,1.324,1.324,0,0,0,1.291-1.1,1.244,1.244,0,0,0,.138.025,1.341,1.341,0,0,0,1.34-1.34,1.322,1.322,0,0,0-.13-.558A1.332,1.332,0,0,0,20.1,14.06Zm-5.912-.5a.953.953,0,0,0-.446-.121.984.984,0,0,0-.983.983H13.3a.447.447,0,1,1,.893,0v2.5a.8.8,0,1,1-.8-.8v-.536a1.323,1.323,0,0,0-1.28,1.046.714.714,0,0,1-.149.026.8.8,0,0,1,0-1.608v-.536a1.316,1.316,0,0,0-.858.333.788.788,0,0,1-.661-.78.8.8,0,0,1,.763-.8h.022a.793.793,0,0,1,.612.264l.4-.356a1.318,1.318,0,0,0-.921-.428.79.79,0,0,1-.162-.462.806.806,0,0,1,.8-.8.714.714,0,0,1,.149.027,1.323,1.323,0,0,0,1.28,1.046v-.536a.8.8,0,1,1,.8-.8ZM18.9,14.84a1.316,1.316,0,0,0-.858-.333v.536a.8.8,0,0,1,0,1.608.714.714,0,0,1-.149-.026,1.323,1.323,0,0,0-1.28-1.046v.536a.8.8,0,1,1-.8.8v-2.5a.447.447,0,1,1,.893,0h.536a.984.984,0,0,0-.983-.983.953.953,0,0,0-.446.121V11.2a.8.8,0,1,1,.8.8v.536A1.323,1.323,0,0,0,17.9,11.5a.714.714,0,0,1,.149-.027.806.806,0,0,1,.8.8.79.79,0,0,1-.162.462,1.318,1.318,0,0,0-.921.428l.4.356a.791.791,0,0,1,.593-.264.53.53,0,0,1,.059,0A.8.8,0,0,1,18.9,14.84Z"/><path class="cls-1" d="M20.688,6.937A9.025,9.025,0,0,0,6.49,16.948a9.682,9.682,0,0,0,1.845,3.036A5.686,5.686,0,0,1,9.691,23.6v1.48l0,.016v.039a2.278,2.278,0,0,0,2.134,2.263,3.322,3.322,0,0,0,6.344,0,2.278,2.278,0,0,0,2.134-2.263v-.039l0-.016V23.6a5.686,5.686,0,0,1,1.356-3.611,9.682,9.682,0,0,0,1.845-3.036A9.053,9.053,0,0,0,20.688,6.937ZM15,28.663a2.271,2.271,0,0,1-2.026-1.256h4.052A2.271,2.271,0,0,1,15,28.663ZM18.573,23.3v1.777a.6.6,0,0,1-.086.294c-.009.015-.018.028-.028.042a.607.607,0,0,1-.215.2h0a.587.587,0,0,1-.284.079H12.04a.587.587,0,0,1-.284-.079h0a.607.607,0,0,1-.215-.2c-.01-.014-.019-.027-.028-.042a.6.6,0,0,1-.086-.294V23.3a4.885,4.885,0,0,0-.135-1.055,7.369,7.369,0,0,0-.463-1.469,7.768,7.768,0,0,0-.528-1.015l-.009-.017a7.667,7.667,0,0,0-.7-.957A7.544,7.544,0,0,1,7.872,15.4a7.277,7.277,0,1,1,14.256,0,7.544,7.544,0,0,1-1.721,3.389,7.667,7.667,0,0,0-.7.957l-.009.017a7.768,7.768,0,0,0-.528,1.015,7.369,7.369,0,0,0-.463,1.469A4.17,4.17,0,0,0,18.573,23.3Z"/></svg>