<svg id="Layer_1" data-name="Layer 1" xmlns="http://www.w3.org/2000/svg" viewBox="0 0 38.161 30.629"><defs><style>.cls-1{fill:#fff;}</style></defs><title>user</title><path class="cls-1" d="M25.972,22.651c-.1.137-.2.278-.313.41-.107-.057-.222-.1-.33-.154a8.559,8.559,0,0,1-1.427.356c.379.16.759.317,1.125.506-.015.017-.028.033-.042.047A13.143,13.143,0,0,1,18.82,27.4a11.613,11.613,0,0,0,2.693-4.075,8.4,8.4,0,0,1-.958-.165c-1.11,2.618-2.717,4.365-4.532,4.623V21.737c.51.007,1.018.036,1.525.076a8.7,8.7,0,0,1-1.184-1c-.114,0-.227-.012-.341-.014v-.34a8.749,8.749,0,0,1-.937-1.287V20.8a24.732,24.732,0,0,0-5.164.616A23.388,23.388,0,0,1,9,15.161H13.88c0-.055-.011-.107-.012-.162-.008-.261,0-.519.018-.775H9a23.4,23.4,0,0,1,.923-6.255,24.665,24.665,0,0,0,5.164.616v1.773a8.7,8.7,0,0,1,.937-1.284V8.585c.163,0,.324-.014.486-.019A8.66,8.66,0,0,1,17.78,7.55c-.584.052-1.17.089-1.757.1V1.605c1.842.261,3.469,2.059,4.58,4.742a8.666,8.666,0,0,1,.963-.155,11.607,11.607,0,0,0-2.747-4.208l.114.028a13.148,13.148,0,0,1,6.1,3.6c-.447.231-.908.431-1.374.618a8.488,8.488,0,0,1,1.477.34c.174-.086.356-.154.526-.246.166.2.318.409.471.617a8.633,8.633,0,0,1,1.658,1.051A13.4,13.4,0,0,0,15.555.63C2.951.259-3.457,17.248,6.352,25.261a14.07,14.07,0,0,0,19.775-1.3A12.972,12.972,0,0,0,27.986,21.4,8.61,8.61,0,0,1,25.972,22.651ZM15.086,1.605V7.648a23.752,23.752,0,0,1-4.87-.574C11.322,3.983,13.08,1.89,15.086,1.605ZM6.124,5.568A13.151,13.151,0,0,1,12.29,1.987a11.619,11.619,0,0,0-3,4.864A15.715,15.715,0,0,1,6.082,5.615C6.1,5.6,6.111,5.582,6.124,5.568Zm-.674.755A16.328,16.328,0,0,0,9.007,7.739a24.364,24.364,0,0,0-.946,6.485H2.441A13.1,13.1,0,0,1,5.45,6.323Zm0,16.738a13.092,13.092,0,0,1-3.009-7.9h5.62a24.37,24.37,0,0,0,.946,6.485A16.324,16.324,0,0,0,5.45,23.061Zm6.723,4.311a13.141,13.141,0,0,1-6.093-3.6,15.715,15.715,0,0,1,3.212-1.236,11.627,11.627,0,0,0,3,4.864Zm2.913.408c-2.006-.285-3.764-2.379-4.87-5.47a23.82,23.82,0,0,1,4.87-.573Z"/><path class="cls-1" d="M26.592,14.828h-.818a2.137,2.137,0,0,1,.129.731V18.4a.93.93,0,0,1-.052.3H27.2a.917.917,0,0,0,.916-.916V16.354A1.528,1.528,0,0,0,26.592,14.828Z"/><path class="cls-1" d="M23.549,13.788h-1.87a1.528,1.528,0,0,0-1.526,1.526V18.4a.306.306,0,0,0,.3.3H24.77a.3.3,0,0,0,.3-.3v-3.09A1.528,1.528,0,0,0,23.549,13.788Z"/><path class="cls-1" d="M22.614,9.622a1.835,1.835,0,1,0,1.835,1.835A1.837,1.837,0,0,0,22.614,9.622Z"/><path class="cls-1" d="M26.21,11.539A1.372,1.372,0,0,0,25,13.556a1.388,1.388,0,0,0,.671.617,1.372,1.372,0,1,0,.541-2.634Z"/><path class="cls-1" d="M18.636,14.828h.818a2.113,2.113,0,0,0-.129.731V18.4a.93.93,0,0,0,.052.3H18.026a.917.917,0,0,1-.916-.916V16.354A1.528,1.528,0,0,1,18.636,14.828Z"/><path class="cls-1" d="M19.018,11.539a1.372,1.372,0,0,1,1.212,2.017,1.388,1.388,0,0,1-.671.617,1.372,1.372,0,1,1-.541-2.634Z"/><path class="cls-1" d="M36.952,26.538l-6.015-5.6a10.6,10.6,0,1,0-1.775,1.888l6.015,5.606a1.3,1.3,0,0,0,1.775-1.889ZM22.728,23.386a8.624,8.624,0,1,1,8.388-8.861A8.642,8.642,0,0,1,22.728,23.386Z"/></svg>