<?xml version="1.0" standalone="no"?>
<!DOCTYPE svg PUBLIC "-//W3C//DTD SVG 20010904//EN"
 "http://www.w3.org/TR/2001/REC-SVG-20010904/DTD/svg10.dtd">
<svg version="1.0" xmlns="http://www.w3.org/2000/svg"
 width="700.000000pt" height="700.000000pt" viewBox="0 0 700.000000 700.000000"
 preserveAspectRatio="xMidYMid meet">
<metadata>
Created by potrace 1.11, written by Peter Selinger 2001-2013
</metadata>
<g transform="translate(0.000000,700.000000) scale(0.100000,-0.100000)"
fill="#000000" stroke="none">
<path d="M2591 5773 c-10 -21 -353 -765 -761 -1653 -408 -888 -762 -1651 -787
-1695 -71 -124 -184 -273 -293 -388 -98 -103 -216 -205 -255 -223 -11 -4 -101
-11 -200 -14 l-180 -5 0 -300 0 -300 3385 0 3385 0 0 300 0 300 -205 5 c-133
3 -212 9 -226 17 -42 24 -165 190 -259 348 -85 143 -133 250 -885 1958 l-743
1687 -182 0 -182 0 -310 -676 c-171 -371 -314 -675 -319 -675 -4 -1 -142 302
-305 673 l-297 673 -180 3 -181 2 -20 -37z m643 -815 c180 -409 331 -747 335
-751 4 -4 163 330 352 742 l344 751 120 0 120 0 399 -908 c1188 -2698 1135
-2583 1291 -2817 93 -141 181 -237 237 -260 32 -13 84 -19 196 -23 l152 -5 0
-193 0 -194 -3280 0 -3280 0 0 195 0 195 94 0 c109 0 184 13 241 40 61 30 234
189 340 312 92 107 192 249 253 358 17 30 364 782 772 1670 408 888 744 1618
747 1623 2 4 57 7 122 7 l118 0 327 -742z"/>
<path d="M2748 5488 c-14 -29 -341 -740 -727 -1581 -386 -840 -725 -1567 -752
-1615 -104 -181 -234 -346 -400 -507 -185 -178 -261 -224 -415 -246 l-74 -11
0 -34 0 -34 3120 0 3120 0 0 34 0 33 -104 11 c-76 7 -118 17 -161 37 -121 58
-267 241 -442 557 -31 57 -384 846 -784 1753 -572 1296 -731 1650 -745 1650
-14 0 -107 -194 -413 -862 -218 -474 -398 -863 -401 -863 -3 0 -176 388 -385
862 -259 586 -386 864 -397 866 -11 2 -24 -13 -40 -50z m4 -469 c26 -57 311
-705 633 -1439 322 -734 613 -1389 645 -1455 110 -224 261 -424 405 -535 30
-23 55 -46 55 -51 0 -5 -241 -9 -550 -9 -302 0 -550 3 -550 7 0 3 27 32 59 63
125 119 193 272 194 435 0 105 -17 179 -72 308 -62 147 -1010 2287 -1037 2340
-13 27 -24 59 -24 73 0 31 172 375 185 371 5 -2 31 -51 57 -108z m2197 -1365
c356 -808 675 -1523 709 -1589 34 -66 92 -160 127 -210 69 -97 194 -228 263
-278 23 -17 42 -34 42 -39 0 -9 -1093 -12 -1102 -3 -3 3 30 40 72 83 156 157
214 364 161 573 -10 41 -41 126 -69 189 -91 211 -1009 2284 -1033 2332 l-22
47 91 186 c53 108 97 185 104 183 6 -2 302 -665 657 -1474z m-2460 959 l13
-39 -306 -664 -305 -665 -41 -3 c-22 -2 -40 0 -40 4 0 17 653 1413 660 1409 3
-2 12 -21 19 -42z m1389 -518 l-222 -485 -18 32 c-9 18 -17 41 -18 52 0 15
159 365 403 886 l40 85 19 -42 19 -43 -223 -485z m-1049 -253 c144 -326 261
-595 261 -597 0 -3 -243 -5 -541 -5 -480 0 -540 2 -537 15 7 36 544 1193 550
1187 4 -4 124 -274 267 -600z m1598 -2 c139 -316 253 -580 253 -587 0 -11 -86
-13 -432 -11 l-433 3 -53 119 -52 118 222 484 c177 385 224 481 232 467 5 -10
124 -277 263 -593z m-1277 -746 c22 -47 40 -90 40 -95 0 -5 -310 -9 -745 -9
-525 0 -745 3 -745 11 0 6 16 48 36 95 l36 84 670 0 669 0 39 -86z m1601 -8
c22 -49 39 -91 39 -93 0 -2 -194 -3 -431 -3 l-430 0 -40 85 c-21 47 -39 90
-39 95 0 7 151 9 431 8 l432 -3 38 -89z m-3011 -162 c0 -8 -240 -534 -282
-619 -42 -84 -129 -227 -135 -221 -7 7 54 226 85 301 15 39 77 177 137 308
l109 237 43 0 c24 0 43 -3 43 -6z m1420 -3 c0 -24 -258 -569 -313 -659 -151
-252 -398 -526 -590 -655 -111 -75 -533 -98 -676 -36 -35 15 -70 42 -107 83
-58 64 -134 201 -134 242 0 13 26 63 59 112 99 148 145 235 297 567 80 176
150 328 155 338 9 16 51 17 659 17 379 0 650 -4 650 -9z m1800 -303 c78 -172
155 -353 172 -402 57 -170 35 -312 -75 -476 -61 -92 -124 -146 -204 -174 -38
-13 -44 -13 -92 10 -125 57 -292 270 -460 586 -48 90 -341 742 -341 760 0 4
193 8 429 8 l428 0 143 -312z m-1701 227 l20 -44 -177 -390 c-102 -225 -180
-385 -184 -378 -16 27 23 188 82 337 39 99 230 520 236 520 2 0 12 -20 23 -45z
m169 -370 c114 -253 137 -325 136 -430 0 -102 -29 -189 -93 -287 -63 -96 -112
-142 -187 -179 l-62 -31 -43 22 c-24 12 -59 33 -76 47 -38 27 -106 124 -135
189 l-20 45 163 367 c89 202 173 391 186 421 13 30 28 50 32 45 5 -5 49 -99
99 -209z m-2213 -452 c-20 -136 -21 -319 -3 -468 3 -19 -4 -20 -219 -23 l-223
-2 0 29 c0 24 13 41 66 88 83 73 238 244 312 345 31 43 61 77 66 78 4 0 5 -21
1 -47z m1602 25 c-26 -105 -31 -325 -10 -473 l6 -45 -224 2 c-217 3 -224 4
-227 23 -2 15 39 63 150 175 85 85 185 197 223 247 70 94 92 112 82 71z"/>
</g>
</svg>
