<?xml version="1.0" standalone="no"?>
<!DOCTYPE svg PUBLIC "-//W3C//DTD SVG 20010904//EN"
 "http://www.w3.org/TR/2001/REC-SVG-20010904/DTD/svg10.dtd">
<svg version="1.0" xmlns="http://www.w3.org/2000/svg"
 width="536.000000pt" height="536.000000pt" viewBox="0 0 536.000000 536.000000"
 preserveAspectRatio="xMidYMid meet">
<metadata>
Created by potrace 1.14, written by Peter Selinger 2001-2017
</metadata>
<g transform="translate(0.000000,536.000000) scale(0.100000,-0.100000)"
fill="#000000" stroke="none">
<path d="M2488 5174 c-2 -1 -26 -5 -53 -8 -104 -10 -154 -18 -285 -48 -74 -17
-147 -32 -162 -35 -16 -3 -28 -9 -28 -14 0 -5 -3 -8 -7 -7 -39 10 -346 -118
-513 -213 -117 -66 -290 -189 -393 -277 -54 -46 -230 -225 -267 -271 -19 -23
-40 -48 -46 -54 -5 -7 -35 -46 -66 -87 -108 -147 -211 -326 -282 -493 -43
-100 -117 -317 -109 -317 3 0 1 -6 -5 -12 -6 -7 -11 -16 -11 -21 0 -4 -3 -17
-6 -30 -3 -12 -7 -33 -9 -47 -7 -34 -14 -68 -20 -88 -3 -9 -7 -39 -11 -67 -3
-27 -8 -57 -10 -65 -17 -61 -27 -474 -13 -569 4 -31 10 -78 13 -106 3 -27 7
-61 10 -75 3 -14 7 -36 10 -50 3 -14 7 -36 10 -50 3 -14 7 -35 10 -48 2 -13 7
-32 10 -42 3 -10 8 -29 11 -42 8 -38 12 -53 14 -55 2 -2 3 -6 4 -10 35 -137
144 -390 228 -532 21 -34 38 -66 38 -70 0 -5 9 -16 20 -26 11 -10 18 -20 16
-23 -3 -2 -1 -9 4 -16 5 -6 44 -58 86 -115 235 -317 532 -566 883 -741 144
-72 170 -83 301 -127 58 -19 114 -38 125 -43 69 -27 321 -74 475 -88 93 -9
415 -7 475 2 17 3 53 7 80 11 64 7 97 13 225 40 41 9 92 23 113 31 20 7 38 13
40 13 9 -4 179 56 282 99 116 49 376 194 383 213 2 5 8 9 14 9 13 0 177 124
258 195 360 317 622 733 754 1196 18 64 64 276 64 299 0 8 3 26 6 39 31 136
26 583 -9 747 -3 12 -7 39 -11 60 -3 21 -8 42 -10 45 -2 4 -6 24 -9 45 -3 22
-10 50 -15 64 -6 14 -11 34 -13 45 -2 11 -7 27 -10 35 -3 8 -13 38 -21 65 -52
176 -149 386 -269 579 -14 23 -9 17 -89 126 -171 236 -387 444 -623 601 -49
32 -95 63 -101 67 -5 4 -19 12 -30 18 -331 186 -630 284 -1004 330 -42 5 -448
13 -452 8z"/>
</g>
</svg>
