<svg id="Layer_1" data-name="Layer 1" xmlns="http://www.w3.org/2000/svg" viewBox="0 0 30 30"><defs><style>.cls-1{fill:#563d7c;}.cls-2{fill:#fff;}</style></defs><title>bootstrap</title><path class="cls-1" d="M29.883,24.922a4.975,4.975,0,0,1-4.961,4.961H5.078A4.975,4.975,0,0,1,.117,24.922V5.078A4.975,4.975,0,0,1,5.078.117H24.922a4.975,4.975,0,0,1,4.961,4.961Z"/><path class="cls-2" d="M8.205,6.586h8.439a6.029,6.029,0,0,1,3.745,1.07A3.805,3.805,0,0,1,21.8,10.89a3.866,3.866,0,0,1-.642,2.247,4.137,4.137,0,0,1-1.839,1.45v.048a3.811,3.811,0,0,1,2.432,1.518,5.036,5.036,0,0,1,.827,2.957,4.956,4.956,0,0,1-.365,1.907,3.857,3.857,0,0,1-1.143,1.532,5.825,5.825,0,0,1-1.994,1.021,9.775,9.775,0,0,1-2.894.379H8.205V6.586Zm3.04,7.271h4.961a2.691,2.691,0,0,0,1.824-.623,2.224,2.224,0,0,0,.73-1.789A2.262,2.262,0,0,0,18.1,9.6a2.949,2.949,0,0,0-1.9-.535H11.245v4.8Zm0,7.612H16.62a2.994,2.994,0,0,0,2.149-.72,2.651,2.651,0,0,0,.769-2.033,2.527,2.527,0,0,0-.769-1.984,3.069,3.069,0,0,0-2.149-.691H11.245Z"/></svg>