<svg id="Layer_1" data-name="Layer 1" xmlns="http://www.w3.org/2000/svg" viewBox="0 0 30 30"><defs><style>.cls-1{fill:#fff;}</style></defs><title>heart</title><rect class="cls-1" x="14.219" y="25.075" width="2.189" height="2.189"/><rect class="cls-1" x="12.03" y="22.885" width="2.189" height="2.189"/><rect class="cls-1" x="9.84" y="20.696" width="2.189" height="2.189"/><rect class="cls-1" x="7.651" y="18.506" width="2.189" height="2.189"/><rect class="cls-1" x="5.462" y="16.317" width="2.189" height="2.189"/><rect class="cls-1" x="3.272" y="14.128" width="2.189" height="2.189"/><polygon class="cls-1" points="1.083 7.559 1.083 9.749 1.083 11.938 1.083 14.128 3.272 14.128 3.272 11.938 3.272 9.749 3.272 7.559 1.083 7.559"/><rect class="cls-1" x="3.272" y="5.37" width="2.189" height="2.189"/><polygon class="cls-1" points="9.84 3.181 7.651 3.181 5.462 3.181 5.462 5.37 7.651 5.37 9.84 5.37 12.03 5.37 12.03 3.181 9.84 3.181"/><rect class="cls-1" x="16.409" y="22.885" width="2.189" height="2.189"/><rect class="cls-1" x="18.598" y="20.696" width="2.189" height="2.189"/><rect class="cls-1" x="20.787" y="18.506" width="2.189" height="2.189"/><rect class="cls-1" x="22.977" y="16.317" width="2.189" height="2.189"/><rect class="cls-1" x="25.166" y="14.128" width="2.189" height="2.189"/><polygon class="cls-1" points="27.356 7.559 27.356 9.749 27.356 11.938 27.356 14.128 29.545 14.128 29.545 11.938 29.545 9.749 29.545 7.559 27.356 7.559"/><rect class="cls-1" x="25.166" y="5.37" width="2.189" height="2.189"/><polygon class="cls-1" points="22.977 3.181 20.787 3.181 18.598 3.181 18.598 5.37 20.787 5.37 22.977 5.37 25.166 5.37 25.166 3.181 22.977 3.181"/><rect class="cls-1" x="16.409" y="5.37" width="2.189" height="2.189"/><rect class="cls-1" x="12.03" y="5.37" width="2.189" height="2.189"/><rect class="cls-1" x="14.219" y="7.559" width="2.189" height="2.189"/><polygon class="cls-1" points="7.651 7.559 5.462 7.559 5.462 9.749 5.462 11.938 7.651 11.938 7.651 9.749 9.84 9.749 9.84 7.559 7.651 7.559"/></svg>