<svg id="Layer_1" data-name="Layer 1" xmlns="http://www.w3.org/2000/svg" viewBox="0 0 50 50"><defs><style>.cls-1{fill:#476c7c;opacity:0.2;}.cls-2{fill:#e8f7fe;}.cls-3{fill:#d2effc;}.cls-4{fill:#ffc333;}.cls-5{fill:#2f4d65;}.cls-6{fill:#3f6786;}.cls-7{fill:#e4ad8a;}.cls-8{fill:#414042;}.cls-9{fill:none;}.cls-10{fill:#f5821f;}.cls-11{fill:#ffcf5c;}.cls-12{fill:#f6fcff;}.cls-13{opacity:0.3;}.cls-14{fill:#8ed8f8;}.cls-15{fill:#f1f2f2;}.cls-16{fill:#fff;}.cls-17{fill:#007caa;}.cls-18{fill:#7a423a;}.cls-19{fill:#f48473;}.cls-20{fill:#b76356;}.cls-21,.cls-22,.cls-28{fill:#182733;}.cls-21{opacity:0.17;}.cls-23{fill:#fdc793;}.cls-24{fill:#5d380b;}.cls-25{fill:#fbc9bc;}.cls-26{fill:#a7a9ac;}.cls-27{fill:#faa61a;}.cls-28{opacity:0.1;}.cls-29{fill:#233a4c;}.cls-30{fill:#fedcc6;}.cls-31{fill:#8b5310;}.cls-32{fill:#f7941d;}.cls-33{fill:#00b7ce;}.cls-34{fill:#b96f16;}.cls-35{fill:#33c5d8;}</style></defs><path class="cls-1" d="M48.356,45.3c0,.333-10.61.6-23.7.6s-23.7-.27-23.7-.6,10.61-.6,23.7-.6S48.356,44.966,48.356,45.3Z"/><path class="cls-2" d="M17.617,9.531H14.934a.591.591,0,0,0-.591.59v1.934a.592.592,0,0,0,.591.591h1.681l1,1v-1h0a.592.592,0,0,0,.591-.591V10.121A.591.591,0,0,0,17.617,9.531Z"/><path class="cls-3" d="M34.937,9.84h3.042a.669.669,0,0,1,.67.669V12.7a.67.67,0,0,1-.67.67H36.073l-1.136,1.136V13.372h0a.67.67,0,0,1-.67-.67V10.509A.669.669,0,0,1,34.937,9.84Z"/><path class="cls-4" d="M40.693,26.732l-.121-.026a.663.663,0,0,1-.459-.774,29.753,29.753,0,0,1,1.307-4.466.617.617,0,0,1,.861-.38l.053.011a1.052,1.052,0,0,1,.707.906,26.466,26.466,0,0,1-1.474,4.288A.735.735,0,0,1,40.693,26.732Z"/><path class="cls-5" d="M45.327,43.468l-.093.941-1.648.809.044.221,2.835-.016c.152,0,.138-.121.159-.272l-.05-.646-.027-1.072Z"/><path class="cls-5" d="M41.94,43.468l0,1.018-2,.732.044.221,3.089-.016c.152,0,.138-.121.159-.272l-.058-.669-.017-1.049Z"/><polygon class="cls-6" points="47.053 27.965 41.424 27.965 41.424 30.866 41.429 30.866 41.778 37.722 41.81 44.122 43.425 44.315 43.699 37.746 44.22 30.866 44.562 30.866 44.925 37.566 45.095 44.105 46.763 44.228 46.729 37.491 47.018 30.866 47.026 30.631 47.053 27.965"/><path class="cls-7" d="M43.926,20.237H44.3a.851.851,0,0,0,.849-.943l.121-1.36a1.208,1.208,0,0,0-1.208-1.208h-.133a1.208,1.208,0,0,0-1.208,1.208l.153,1.053C42.966,19.68,43.258,20.237,43.926,20.237Z"/><rect class="cls-7" x="43.761" y="19.764" width="0.947" height="1.826"/><path class="cls-7" d="M43.444,20.689h2.211a1.172,1.172,0,0,1,1.172,1.172v7.276a0,0,0,0,1,0,0H41.612a0,0,0,0,1,0,0V22.521A1.832,1.832,0,0,1,43.444,20.689Z"/><path class="cls-8" d="M45.049,16.669c.32.2.275.479.362.8a1.266,1.266,0,0,1-.051.79c-.025.059-.046.171-.084.244-.006.011-.057.126-.062.08-.014-.141.07-.383-.045-.4-.057-.008-.055.258-.055.258l-.09-.024a2.9,2.9,0,0,0-.055-.634c-.058-.145-.274-.115-.367-.075-.461.2-.794.567-1.15.277-.6-.491-.68.324-.68.324l-.1-.108s-.053-.391-.074-.525a1.919,1.919,0,0,1,.231-.737c.119-.307.507-.307.647-.386a4.042,4.042,0,0,1,.545.109C44.372,16.762,44.667,16.43,45.049,16.669Z"/><path class="cls-9" d="M41.25,25.186h-.031l.165,2.315A12.843,12.843,0,0,0,41.25,25.186Z"/><polygon class="cls-10" points="41.384 27.501 41.384 27.503 41.385 27.504 41.384 27.501"/><path class="cls-4" d="M46.994,26.057V24.911l.369-2.778a1.393,1.393,0,0,0-.679-1.276,1.787,1.787,0,0,0-.817-.168c-.235-.01-.414-.022-.544-.022l-.436-.01-.288.4a.456.456,0,0,1-.735,0l-.3-.4h-.119a1.87,1.87,0,0,0-.328.031,7.825,7.825,0,0,0-.836.09,1.18,1.18,0,0,0-.966,1.277l.3,3.515v.973l-.466,2.382.239.441,5.64.084.265-.955Z"/><path class="cls-11" d="M47.527,26.74l-.055.005c-.343.012-.553-.209-.662-.652-.253-1.024-.738-2.972-.9-4.129a.9.9,0,0,1,.556-1.045l.059-.02c.424-.1.811.536.919,1.259.186,1.239.609,3.893.609,3.893A.584.584,0,0,1,47.527,26.74Z"/><path class="cls-8" d="M44.515,24.574l-1.988-.03a.132.132,0,0,1-.128-.135l.059-2.395a.13.13,0,0,1,.135-.127l1.988.03a.13.13,0,0,1,.127.135l-.058,2.395A.132.132,0,0,1,44.515,24.574Z"/><polygon class="cls-7" points="41.926 23.556 42.194 23.222 43.445 22.786 43.48 22.917 43.467 22.978 43.47 23.68 42.903 23.982 42.407 24.199 41.981 24.804 41.425 24.412 41.926 23.556"/><path class="cls-11" d="M42.453,24.394l-.791-.6-1.168,1.843c-.222.26-.544.69-.093,1.007l.012.007a.926.926,0,0,0,1.074-.157A7.694,7.694,0,0,0,42.453,24.394Z"/><polygon class="cls-7" points="46.953 29.107 46.917 29.712 46.76 29.904 46.583 30.193 46.515 30.909 46.673 30.973 46.781 30.559 46.84 30.586 46.668 31.367 47.216 31.212 47.538 30.563 47.569 30.248 47.506 29.719 47.59 29.161 46.953 29.107"/><path class="cls-11" d="M47.577,29.45l-.765-.124a23.836,23.836,0,0,1,.078-3.059c.076-.474.157-.867.5-.862h0a.753.753,0,0,1,.654.916C47.939,27.186,47.577,29.45,47.577,29.45Z"/><path class="cls-12" d="M22.593,3.686h7.425A1.634,1.634,0,0,1,31.651,5.32v5.352a1.633,1.633,0,0,1-1.633,1.633H25.365l-2.772,2.772V12.305h0a1.633,1.633,0,0,1-1.634-1.633V5.32A1.634,1.634,0,0,1,22.593,3.686Z"/><g class="cls-13"><path class="cls-14" d="M27.741,4.76h-.286a.221.221,0,0,1,0-.441h.286a.221.221,0,0,1,0,.441Z"/><path class="cls-14" d="M30.667,8.044a.22.22,0,0,1-.22-.22V5.864a1.1,1.1,0,0,0-1.1-1.1H28.5a.221.221,0,0,1,0-.441h.848a1.546,1.546,0,0,1,1.544,1.545v1.96A.22.22,0,0,1,30.667,8.044Z"/></g><path class="cls-7" d="M14.249,43.157l-.262.738-1.954.878.043.216,2.967-.016a.315.315,0,0,0,.305-.266l-.049-.632.144-.952Z"/><path class="cls-15" d="M11.974,45c.443.007,2.942-.131,2.942-.131l.315-.034.088-.028.035-.034s.026-.014.033-.008.014.024.021.06a2.266,2.266,0,0,1,.044.353.428.428,0,0,1-.034.094l-2.6.015a.783.783,0,0,1-.108-.007l-.636-.087a.153.153,0,0,1-.153-.153h0C11.923,45.008,11.94,45,11.974,45Z"/><path class="cls-16" d="M12,45.019a18.543,18.543,0,0,0,3.1-.108c.178-.016.272-.048.292-.2l-.039-.626s.008-.116-.014-.136c-.066-.058-.231.087-.27.315-.057.33-.93.026-1.01-.154s.083-.272.059-.472c-.005-.044-.091-.073-.115-.022a3.119,3.119,0,0,1-.413.392,8.083,8.083,0,0,1-1.517.645.246.246,0,0,0-.124.261C11.955,44.945,11.97,45.007,12,45.019Z"/><path class="cls-7" d="M18.917,43.21l-.091.835-1.954.878.043.216,2.967-.016a.314.314,0,0,0,.3-.266l-.049-.632-.026-1.049Z"/><path class="cls-15" d="M16.813,45.152c.443.007,2.941-.131,2.941-.131l.315-.034.088-.028.036-.034s.025-.014.033-.008.014.024.02.06a2.274,2.274,0,0,1,.045.353.428.428,0,0,1-.034.094l-2.593.015a.78.78,0,0,1-.118-.008l-.631-.085a.153.153,0,0,1-.153-.154h0C16.762,45.158,16.778,45.151,16.813,45.152Z"/><path class="cls-16" d="M16.834,45.169a18.543,18.543,0,0,0,3.1-.108c.178-.016.272-.048.292-.2l-.039-.626s.008-.116-.014-.136c-.066-.058-.231.088-.27.315-.057.33-.93.026-1.01-.154s.083-.271.059-.472c0-.043-.092-.073-.115-.021a3.142,3.142,0,0,1-.413.391,8.017,8.017,0,0,1-1.517.645.244.244,0,0,0-.124.261C16.794,45.1,16.809,45.157,16.834,45.169Z"/><polygon class="cls-17" points="20.671 28.039 15.163 28.039 15.163 30.879 15.168 30.879 14.734 37.123 14.012 43.324 15.589 43.39 16.601 37.375 17.899 30.879 18.234 30.879 18.589 37.435 18.745 43.616 20.324 43.616 20.354 37.361 20.637 30.879 20.644 30.648 20.671 28.039"/><path class="cls-7" d="M17.445,20.477h.364a.833.833,0,0,0,.831-.923l.118-1.331a1.182,1.182,0,0,0-1.182-1.182h-.131a1.182,1.182,0,0,0-1.182,1.182l.15,1.031C16.506,19.932,16.793,20.477,17.445,20.477Z"/><rect class="cls-7" x="17.45" y="20.014" width="0.927" height="1.787"/><path class="cls-7" d="M17.139,20.92H19.3a1.147,1.147,0,0,1,1.147,1.147v7.12a0,0,0,0,1,0,0h-5.1a0,0,0,0,1,0,0V22.713A1.793,1.793,0,0,1,17.139,20.92Z"/><path class="cls-18" d="M18.854,18.307a1.236,1.236,0,0,0,.05-.773c-.085-.312-.222-.492-.449-.435s-.222-.243-.36-.39c-.218-.234-.393-.162-.639-.153a1.256,1.256,0,0,0-.565.176.584.584,0,0,1-.418.029c-.157-.02-.295-.067-.412.233a1.351,1.351,0,0,0-.161.643c.028.18-.339.569.1.609.321.028.144.28.5.294,1.355.056.382-1.33,1.719-.709.09.041.194-.132.251.01a1.945,1.945,0,0,1,.039.529l.088.024s.014-.169.069-.161c.112.016.031.253.044.39.005.046.056-.066.061-.077C18.81,18.474,18.829,18.365,18.854,18.307Z"/><path class="cls-9" d="M14.993,25.32h-.03l.161,2.266A12.56,12.56,0,0,0,14.993,25.32Z"/><polygon class="cls-10" points="15.124 27.586 15.124 27.588 15.124 27.588 15.124 27.586"/><path class="cls-19" d="M14.121,26.712h0a.606.606,0,0,0,.719-.466l1.2-4.132a.605.605,0,0,0-.467-.718h0a.6.6,0,0,0-.718.467l-1.2,4.131A.606.606,0,0,0,14.121,26.712Z"/><path class="cls-7" d="M10.788,23.811l-.463-.278-.376-.115-.332-.043.068.165.223.057.1.084L10,23.717l-.564.013-.61-.062.051.094.362.145.354.41.2.146.691-.03a5.656,5.656,0,0,0,.76.391l.306-.65Z"/><path class="cls-19" d="M11.12,23.9l-.245.93,3.033,1.792a.606.606,0,0,0,.839-.173h0a.606.606,0,0,0-.173-.839Z"/><path class="cls-16" d="M19.3,20.92h-.751l-.282.389a.447.447,0,0,1-.72,0l-.294-.394h-.117a1.792,1.792,0,0,0-1.792,1.792v6.475h5.1v-7.12A1.147,1.147,0,0,0,19.3,20.92Z"/><path class="cls-19" d="M21.07,27V25.878l.158-4.023a.81.81,0,0,0-.685-.8c-.27-.041-.588-.069-.938-.112a4.228,4.228,0,0,0-.955-.034l-.006,1,.26,3.515.1,3.55.029.833a.533.533,0,0,0,.492.512l1.354.1a.312.312,0,0,0,.335-.325Z"/><path class="cls-19" d="M17.08,25.126l-.058-4.219a9.966,9.966,0,0,0-1.283.143A1.168,1.168,0,0,0,14.8,22.2l.162,3.2v.952l-.149,3.715a.318.318,0,0,0,.318.331l1.453-.185a.43.43,0,0,0,.375-.415,2.245,2.245,0,0,1,.047-.537C17.08,29.077,17.08,25.126,17.08,25.126Z"/><path class="cls-20" d="M14.842,23.018s.036,2.863.017,3.045l.006.1.1-.348-.037-1.136Z"/><path class="cls-21" d="M21.069,25.918l-1.823-1.19-.419-.351-.846-.708-.965-.3-.14.052-.122.449-.022.377.179.417h.71l.637.481.684.557,1.166.9a1.366,1.366,0,0,0,.563.215.619.619,0,0,0,.4-.185v-.714Z"/><path class="cls-19" d="M20.587,26.678h0a.606.606,0,0,1-.563-.645L20,21.731a.606.606,0,0,1,.645-.564h0a.606.606,0,0,1,.564.645l.026,4.3A.607.607,0,0,1,20.587,26.678Z"/><path class="cls-22" d="M16.732,24.247l1.032-.03a.132.132,0,0,0,.127-.135l-.059-1.989a.131.131,0,0,0-.134-.127L16.666,22a.132.132,0,0,0-.128.135L16.6,24.12A.131.131,0,0,0,16.732,24.247Z"/><path class="cls-7" d="M18.447,23.574l-.53-.38-1.223-.207.018.106,0,.037.1.719.653.257.623.091s.2.176.5.433l.457-.465Z"/><path class="cls-19" d="M18.207,24.847l.43-1.237L21,25.6a.606.606,0,0,1,.1.851h0a.606.606,0,0,1-.851.1Z"/><polygon class="cls-20" points="19.998 21.935 19.868 24.645 20.016 24.769 19.998 21.935"/><path class="cls-23" d="M22.9,43.348l-.086.789L20.541,45l.041.205,3.228-.049a.3.3,0,0,0,.288-.252l-.061-.412-.01-1.177Z"/><path class="cls-15" d="M20.541,45.211c.419.006,3.139-.015,3.139-.015l.229-.019.034,0,.094,0,.041,0c.026,0,.021.012.021.047,0,.086,0,.061,0,.133,0,.024-.061.022-.061.022l-2.38.009-1.078.009c-.081,0-.105-.025-.105-.1v-.036C20.474,45.215,20.509,45.21,20.541,45.211Z"/><path class="cls-24" d="M24.085,44.462a.017.017,0,0,0-.029.006c-.063.307-1.239.3-1.285,0a.086.086,0,0,1,.006-.062c.05-.08,0-.127-.06-.188a.527.527,0,0,0-.153-.074c-.021,0-.073.035-.086.04a9.8,9.8,0,0,1-1.9.711.232.232,0,0,0-.117.247c.008.025.023.083.046.095a24.473,24.473,0,0,0,3.373-.026c.275,0,.258-.129.258-.27,0-.111-.038-.435-.038-.434A.065.065,0,0,0,24.085,44.462Z"/><path class="cls-23" d="M26.4,43.436l-.083.755-2.171.827.038.2,3.089-.047a.285.285,0,0,0,.275-.241l-.059-.394-.009-1.127Z"/><path class="cls-16" d="M24.148,45.219c.4.006,3-.015,3-.015l.219-.018.032,0,.091,0,.038,0c.025,0,.021.012.02.045,0,.083,0,.058,0,.128,0,.022-.059.021-.059.021l-2.276.009-1.032.008c-.076,0-.1-.024-.1-.1v-.034C24.083,45.222,24.116,45.218,24.148,45.219Z"/><path class="cls-24" d="M27.537,44.5a.016.016,0,0,0-.027.006c-.06.294-1.185.288-1.23,0a.089.089,0,0,1,.006-.059c.049-.077,0-.121-.057-.18a.517.517,0,0,0-.146-.071c-.021,0-.071.034-.083.038a9.43,9.43,0,0,1-1.819.681.22.22,0,0,0-.112.236c.008.024.022.079.044.09a23.322,23.322,0,0,0,3.226-.024c.263,0,.247-.124.247-.259,0-.106-.036-.415-.036-.415A.061.061,0,0,0,27.537,44.5Z"/><polygon class="cls-23" points="21.663 28.64 21.487 29.221 21.568 29.455 21.634 29.788 21.449 30.482 21.278 30.488 21.321 30.061 21.256 30.066 21.146 30.859 20.592 30.521 20.515 29.8 20.596 29.493 20.838 29.019 20.953 28.467 21.663 28.64"/><path class="cls-16" d="M21.848,26.478h0A.663.663,0,0,1,21.4,25.7c.22-1.048.493-3.158.682-4.212a.688.688,0,0,1,.886-.584l.053.012a.623.623,0,0,1,.449.73c-.174,1.135-.86,4.4-.86,4.4A.618.618,0,0,1,21.848,26.478Z"/><path class="cls-16" d="M20.783,28.82l.956.265.829-2.949a.62.62,0,0,0-.386-.786h0a.606.606,0,0,0-.786.386C21.135,26.685,20.783,28.82,20.783,28.82Z"/><polygon class="cls-6" points="28.042 27.731 22.413 27.731 22.413 30.633 22.418 30.633 22.767 37.489 22.697 44.05 24.226 44.307 24.688 37.512 25.209 30.633 25.551 30.633 25.915 37.332 26.084 44.05 27.651 44.265 27.718 37.257 28.007 30.633 28.015 30.397 28.042 27.731"/><path class="cls-23" d="M24.672,20.023h.333a.763.763,0,0,0,.76-.845l.108-1.217a1.081,1.081,0,0,0-1.082-1.082h-.119a1.082,1.082,0,0,0-1.082,1.082l.137.943C23.812,19.525,24.075,20.023,24.672,20.023Z"/><rect class="cls-23" x="24.75" y="19.53" width="0.947" height="1.826"/><path class="cls-25" d="M24.433,20.456h2.211a1.172,1.172,0,0,1,1.172,1.172V28.9a0,0,0,0,1,0,0H22.6a0,0,0,0,1,0,0V22.288A1.832,1.832,0,0,1,24.433,20.456Z"/><path class="cls-24" d="M25.961,18.037a1.13,1.13,0,0,0,.046-.707c-.078-.286-.2-.451-.411-.4s-.2-.222-.329-.357c-.2-.213-.36-.148-.585-.139a1.139,1.139,0,0,0-.517.161c-.156.078-.3.148-.383.026s-.27-.061-.377.214a1.122,1.122,0,0,0-.089.6.531.531,0,0,0,.5.52c.293.027.323-.2.592-.378s.557.4,1.014-.048c.065-.063.14-.047.192.083a1.789,1.789,0,0,1,.036.484l.08.022s.012-.155.063-.148c.1.015.028.232.041.358,0,.042.05-.061.055-.071A2.2,2.2,0,0,0,25.961,18.037Z"/><path class="cls-9" d="M22.239,24.953h-.03l.165,2.315A12.883,12.883,0,0,0,22.239,24.953Z"/><polygon class="cls-10" points="22.374 27.268 22.374 27.27 22.374 27.27 22.374 27.268"/><path class="cls-16" d="M28.213,26.574V25.428l.4-4.017a.827.827,0,0,0-.7-.819c-.259-.04-.546-.1-.879-.136-.234-.017-.388-.032-.518-.032h-.76l-.443.333h-.174l-.421-.334h-.283a1.87,1.87,0,0,0-.328.03,10.241,10.241,0,0,0-1.1.135,1.194,1.194,0,0,0-.959,1.173l.166,3.272v.973l-.074,2.684.239.441,5.64.085.4-.263Z"/><polygon class="cls-26" points="25.209 20.456 25.194 20.881 24.937 20.881 25.209 20.456"/><polygon class="cls-26" points="25.296 20.456 25.309 20.881 25.607 20.881 25.296 20.456"/><polygon class="cls-27" points="25.794 28.375 25.401 21.125 25.492 20.928 25.492 20.86 25.42 20.632 25.107 20.632 25.035 20.86 25.035 20.933 25.123 21.125 24.687 28.375 25.174 28.695 25.794 28.375"/><polygon class="cls-15" points="24.602 20.424 24.689 20.188 25.209 20.456 24.854 21.049 24.602 20.424"/><polygon class="cls-15" points="25.818 20.424 25.743 20.188 25.296 20.456 25.717 21.092 25.818 20.424"/><polygon class="cls-28" points="22.1 22.863 22.043 25.699 22.057 27.955 22.166 27.567 22.209 25.964 22.209 25.145 22.1 22.863"/><polygon class="cls-28" points="23.046 25.145 24.405 25.988 25.393 25.997 28.213 26.547 28.213 25.993 24.606 25.286 23.539 25.079 23.046 25.145"/><path class="cls-16" d="M28.644,26.315h0a.619.619,0,0,1-.662-.574s-.594-3.158-.762-4.216a.689.689,0,0,1,.645-.843l.054-.006a.624.624,0,0,1,.665.542c.208,1.129.633,4.435.633,4.435A.619.619,0,0,1,28.644,26.315Z"/><path class="cls-22" d="M24.658,24.827H20.832l-.712-2.059a.234.234,0,0,1,.223-.308h3.332a.235.235,0,0,1,.223.161Z"/><path class="cls-29" d="M20.832,24.827H26.5a0,0,0,0,1,0,0v.052a.244.244,0,0,1-.244.244H20.987a.155.155,0,0,1-.155-.155v-.141A0,0,0,0,1,20.832,24.827Z"/><polygon class="cls-23" points="25.316 25.127 25.161 24.923 24.833 24.595 24.791 24.742 24.918 24.951 24.983 25.096 24.874 25.149 24.458 25.146 24.041 25.105 23.539 25.079 23.569 25.151 23.825 25.259 24.153 25.39 24.615 25.659 25.274 25.634 26.104 25.809 26.118 25.143 25.316 25.127"/><path class="cls-16" d="M25.879,25.858l-.252-.762,2.943-.017a.619.619,0,0,1,.648.589h0a.6.6,0,0,1-.666.648C27.876,26.259,25.879,25.858,25.879,25.858Z"/><polygon class="cls-28" points="27.365 22.375 27.666 25.079 27.858 25.079 27.365 22.375"/><path class="cls-30" d="M36.349,41.154l.17,3.17,2.214.832-.043.215-3.164-.015a.315.315,0,0,1-.3-.266l.151-.653-.218-3.317Z"/><path class="cls-16" d="M35.324,44.5l.2.166,1.458.28.153-.055-.148-.349a.066.066,0,0,1,.085-.087l.973.388.8.241.049.316-3.546.041c-.1,0-.066-.06-.1-.153l-.041-.109a.234.234,0,0,1,.007-.187Z"/><path class="cls-31" d="M33.421,21.3l.835-.1s.129.017.175-.237.073-.3,0-.5-.019-.043-.12-.311-.147-.267-.147-.45.293-.3.312-.355a1.4,1.4,0,0,1,.252-.218,1.546,1.546,0,0,0,0-1.021c-.215-.365-.031-.467-.27-.538s-.147-.132-.422,0-.432.487-.579.63-.016.142-.283.2a.707.707,0,0,0-.552.361c-.22.288-.227.233-.21.631a3.289,3.289,0,0,0,.072.8c.1.63.01.684.075.853s-.207.075.066.17a5.16,5.16,0,0,0,.612.076A.21.21,0,0,0,33.421,21.3Z"/><path class="cls-30" d="M32.175,41.01l-.053,3.314,2.214.832-.043.215-3.164-.015a.315.315,0,0,1-.3-.266l.151-.653.005-3.461Z"/><polygon class="cls-32" points="30.402 28.272 35.726 28.272 35.909 31.111 35.905 31.111 36.338 37.355 36.514 42.308 35.11 42.373 34.577 37.62 33.299 31.236 32.964 31.236 32.483 37.667 32.24 42.271 30.886 42.246 30.844 37.473 30.435 31.111 30.428 30.881 30.402 28.272"/><path class="cls-30" d="M33.627,20.357h-.363a.833.833,0,0,1-.832-.922L32.314,18.1A1.183,1.183,0,0,1,33.5,16.922h.13A1.182,1.182,0,0,1,34.809,18.1l-.15,1.031C34.566,19.813,34.28,20.357,33.627,20.357Z"/><rect class="cls-30" x="32.695" y="19.894" width="0.927" height="1.787" transform="translate(66.318 41.576) rotate(180)"/><path class="cls-30" d="M30.622,29.42h5.1l-.418-3.069-.086-1.766.185-1.714c0-.99-.484-1.719-1.474-1.719H31.769A1.148,1.148,0,0,0,30.622,22.3Z"/><polygon class="cls-10" points="35.948 27.818 35.948 27.82 35.948 27.82 35.948 27.818"/><polygon class="cls-16" points="32.695 22.925 34.284 22.896 33.926 24.521 32.695 22.925"/><path class="cls-33" d="M31.417,21.152h1.1l.756,1.482L33.828,24l.036-1.366-.048-1.482h.667c1.132.092.921,2.065.921,2.065a9.924,9.924,0,0,0-.1,2.58,32.379,32.379,0,0,0,.947,4.066H29.807s.3-1.854.6-3.239a11.193,11.193,0,0,0-.121-4.343A1.075,1.075,0,0,1,31.417,21.152Z"/><path class="cls-34" d="M34.1,16.918a1.529,1.529,0,0,0-2.325,1.3c-.094.794-.011.993-.52,1.448a1.086,1.086,0,0,0-.035,1.4c.11.158.045.072.643.12.1.009.063.047.144.047.059-.007.3.119.369.092a.638.638,0,0,0,.383-.728c-.126-.275.365-.222-.054-.639-.231-.23.03-.408.006-.528S32.5,19.093,32.53,19c.062-.2.057-.268.332-.2.591.145.729-.492.929-.76a1.311,1.311,0,0,1,.457-.229.47.47,0,0,1,.264.279,4.783,4.783,0,0,0,.11.688,1.009,1.009,0,0,1,.023.431,1.631,1.631,0,0,0,.26-1.319C34.837,17.448,34.727,17.287,34.1,16.918Z"/><path class="cls-16" d="M30.927,44.5l.2.166,1.458.28.153-.055-.148-.349a.066.066,0,0,1,.085-.087l.973.388.8.241.049.316-3.545.041c-.1,0-.067-.06-.1-.153l-.041-.109a.234.234,0,0,1,.007-.187Z"/><path class="cls-28" d="M30.368,22.568l1.163,3.176a.962.962,0,0,0,.069.149l.027.047a.97.97,0,0,0,.533.438h0a1,1,0,0,0,.339.05l1.637-.051.065-.131.843.07-1.185-.277L32.533,25.7l-.491-.6Z"/><path class="cls-30" d="M36.523,23.812l1.219-1.343.789-.188.521-.253.57-.384.019.1a.1.1,0,0,1-.047.106l-.113.067-.041.14-.308.574-.843.377-1.148,1.46Z"/><path class="cls-8" d="M39.111,20.923l.8,0a.062.062,0,0,1,.055.093l-1.006,1.771a.118.118,0,0,1-.122.058l-.778-.139a.063.063,0,0,1-.043-.1l1-1.629A.116.116,0,0,1,39.111,20.923Z"/><polygon class="cls-16" points="39.047 21.014 39.872 21.01 38.935 22.658 38.933 22.659 38.126 22.515 39.047 21.014"/><path class="cls-30" d="M37.742,22.469l.473-.458.574-.094-.093.173-.361.108h0a.393.393,0,0,1-.414.287Z"/><polygon class="cls-28" points="31.608 21.778 33.002 24.846 34.478 25.346 34.501 25.407 34.992 25.594 34.361 25.473 32.871 25.014 31.503 21.8 31.608 21.778"/><path class="cls-35" d="M32.712,26.068h0a.649.649,0,0,0,.31-.864l-1.447-3.5a.649.649,0,0,0-.864-.31h0a.912.912,0,0,0-.4.992,23.587,23.587,0,0,0,1.536,3.376A.648.648,0,0,0,32.712,26.068Z"/><path class="cls-30" d="M35.408,25.7,36,25.97l0,.438-.076.228-.064.143-.344.2-.083-.168-.388-.5s-2.095-.276-2.478-.322l.458-.9Z"/><path class="cls-35" d="M34.148,26.27l.292-.863-1.917-.558a.65.65,0,0,0-.71.583h0a.649.649,0,0,0,.583.709Z"/><path class="cls-33" d="M35.889,26.246h0a.649.649,0,0,0,.4-.825s-.767-2.738-1.053-3.641a.643.643,0,0,0-.825-.4h0a.65.65,0,0,0-.4.825l1.053,3.641A.649.649,0,0,0,35.889,26.246Z"/><path class="cls-33" d="M37.429,24.236l-.61-.838S35.7,24.6,35.17,25.213a.641.641,0,0,0,.1.913h0a.645.645,0,0,0,.913-.1C36.624,25.446,37.429,24.236,37.429,24.236Z"/><path class="cls-2" d="M46.186,6.936H41.238a1.09,1.09,0,0,0-1.089,1.089v3.566a1.089,1.089,0,0,0,1.089,1.089h3.1l1.847,1.847V12.68h0a1.089,1.089,0,0,0,1.089-1.089V8.025A1.09,1.09,0,0,0,46.186,6.936Z"/><path class="cls-16" d="M44.323,7.74H44.1a.176.176,0,0,1,0-.352h.228a.176.176,0,0,1,0,.352Z"/><path class="cls-16" d="M46.657,10.359a.175.175,0,0,1-.176-.175V8.62a.882.882,0,0,0-.881-.88h-.676a.176.176,0,0,1,0-.352H45.6A1.233,1.233,0,0,1,46.832,8.62v1.564A.175.175,0,0,1,46.657,10.359Z"/></svg>