<svg id="Layer_1" data-name="Layer 1" xmlns="http://www.w3.org/2000/svg" viewBox="0 0 30 30.01"><defs><style>.cls-1{fill:#2f3ca6;}</style></defs><title>graphic-2</title><path class="cls-1" d="M14.19,29c.93-.58,1.93-1.29,2.81-1.94.17-.13.25-.13.38.05a14.77,14.77,0,0,0,1.51,1.84,7.63,7.63,0,0,0,2.31,1.71,3.75,3.75,0,0,0,4.47-1,8.06,8.06,0,0,0,1.61-3.54c.38-1.4.72-2.82,1.07-4.23.29-1.21.59-2.42.88-3.62.24-1,.48-2,.67-3.06.06-.26.18-.8.21-1,.36-1.73.65-3.46.85-5.21a6.64,6.64,0,0,0-.2-2.51,7.8,7.8,0,0,0-8.29-5.41c-.92.09-1.8.38-2.71.53a23.83,23.83,0,0,1-6.48,0c-.76-.09-1.52-.19-2.27-.31A19.2,19.2,0,0,0,8.75,1a7.07,7.07,0,0,0-2.54.39,7.49,7.49,0,0,0-4,3.1,2.38,2.38,0,0,0-.18.3,7.51,7.51,0,0,0-.94,2.89A6.34,6.34,0,0,0,1,8.75c0,.53,0,1.06.08,1.6s.1,1.09.18,1.63.2,1.33.33,2c.63,3.27,1.57,6.46,2.46,9.67l.22.83,0,.09c.1.42.22.9.37,1.48a10.82,10.82,0,0,0,1.17,3,3.83,3.83,0,0,0,4.29,1.88A12.65,12.65,0,0,0,14.19,29" transform="translate(-1 -1)"/></svg>