<svg id="Layer_1" data-name="Layer 1" xmlns="http://www.w3.org/2000/svg" viewBox="0 0 31.52 31.53"><defs><style>.cls-1{fill:#34aae7;}</style></defs><title>graphic-1</title><path class="cls-1" d="M14.1,29.65c1-.61,2-1.35,3-2,.18-.13.26-.14.4.05A15.47,15.47,0,0,0,19,29.6a7.67,7.67,0,0,0,2.43,1.79,3.93,3.93,0,0,0,4.69-1,8.84,8.84,0,0,0,1.7-3.72c.39-1.48.75-3,1.11-4.45l.93-3.81c.26-1.07.51-2.14.71-3.21.06-.28.18-.84.22-1,.37-1.81.68-3.63.89-5.47A6.9,6.9,0,0,0,31.51,6,8.19,8.19,0,0,0,22.8.36c-1,.09-1.9.39-2.85.55a25.05,25.05,0,0,1-6.81,0c-.39,0-.78-.1-1.17-.15S11.09.64,10.65.56A15.9,15.9,0,0,0,8.38.24,7.35,7.35,0,0,0,5.71.65,7.94,7.94,0,0,0,1.48,3.91l-.18.31a8,8,0,0,0-1,3A7.15,7.15,0,0,0,.24,8.38c0,.56,0,1.12.08,1.68s.11,1.15.19,1.72.21,1.4.34,2.09c.67,3.44,1.66,6.8,2.59,10.17l.24.87V25c.11.45.23.95.4,1.56a11.44,11.44,0,0,0,1.22,3.12,4,4,0,0,0,4.51,2,13.43,13.43,0,0,0,4.28-2m13.7-11c-.39,1.47-.82,2.94-1.19,4.42-.18.74-.38,1.46-.58,2.19s-.35,1.38-.6,2a6,6,0,0,1-.6,1.22,3.2,3.2,0,0,1-.56.65,1.78,1.78,0,0,1-2,.21,6.39,6.39,0,0,1-1.91-1.55,18.9,18.9,0,0,1-1.21-1.5c-.13-.17-.13-.27.05-.41q.7-.57,1.38-1.17c1.14-1,2.19-2.12,3.27-3.2.42-.41.81-.86,1.21-1.29s.88-1,1.33-1.46a16.23,16.23,0,0,0,1.22-1.52c.28-.36.54-.73.84-1.08C28.21,17,28,17.86,27.8,18.67ZM8.85,2.39c.43,0,.86.14,1.29.21.59.11,1.19.2,1.79.28L13.08,3l1.17.11c.38,0,.77.06,1.16.09l.45,0s.05,0,.06,0a.07.07,0,0,1,0,.06.71.71,0,0,1-.18.12l-.22.15L15,3.92l-.54.36A4.09,4.09,0,0,1,11,4.85a1,1,0,0,0-1.29.79,1,1,0,0,0,.69,1.22,5.67,5.67,0,0,0,4.22-.27,13.91,13.91,0,0,0,1.73-1,27.37,27.37,0,0,1,3-1.86c.39-.17.76-.35,1.15-.5a7.68,7.68,0,0,1,3.56-.72A5.79,5.79,0,0,1,29.2,5.86a5.28,5.28,0,0,1,.32,2.89A12.12,12.12,0,0,1,28,12.87c-.05.08-.08.17-.12.25-.31.48-.61,1-.93,1.45a23.39,23.39,0,0,1-1.64,2.21c-.16.21-1.07,1.37-1.37,1.74-.47.56-1,1.09-1.48,1.61A18.64,18.64,0,0,1,21,21.56c-.78.64-1.52,1.33-2.28,2a62.69,62.69,0,0,1-5.44,4.17l-.45.32c-.44.26-.88.52-1.33.77a5.07,5.07,0,0,1-2.3.77,2.1,2.1,0,0,1-2-.94,8.21,8.21,0,0,1-.44-.83,12.31,12.31,0,0,1-.67-2.08c-.2-.75-.4-1.5-.61-2.25,0-.19-.09-.37-.14-.55-.83-3-1.68-6.07-2.31-9.16a31.19,31.19,0,0,1-.64-4.51c0-.41,0-.84,0-1.25A6.22,6.22,0,0,1,3.52,4.67,5.87,5.87,0,0,1,6,2.81a5.82,5.82,0,0,1,2-.46A5.56,5.56,0,0,1,8.85,2.39Z" transform="translate(-0.24 -0.23)"/></svg>