<svg xmlns="http://www.w3.org/2000/svg" xmlns:xlink="http://www.w3.org/1999/xlink" viewBox="0 0 172.89 173.35"><defs><style>.cls-1{fill:url(#linear-gradient);}</style><linearGradient id="linear-gradient" x1="-77.48" y1="222.19" x2="282.52" y2="-55.81" gradientUnits="userSpaceOnUse"><stop offset="0" stop-color="#4ac7b3"/><stop offset="1" stop-color="#0091fc"/></linearGradient></defs><title>tooth-logo2</title><g id="graphics"><path class="cls-1" d="M119.51,10.69c-3.19,1-17.38,2.05-18.94,2.05A226.84,226.84,0,0,1,59.75,8.53a44,44,0,0,0-38.5,10.76c-9.92,9-14.31,21.67-14,34.08.75,31.23,12,62.81,21,98.65,2.61,10.49,6.61,20,13.87,25.13,5.83,4.1,13.34,5.26,22.57,1.87,11.54-4.23,26.28-14.43,36-21.82,11.41,16.17,22.07,24,32.48,23.7,16.71-.38,22.7-16.66,25.75-28.88,6.77-27.09,18.46-71.64,21-98.64C182.68,24.21,152.3.29,119.51,10.69Zm-32,141.8c-3.17,2.26-12.53,9.24-20.42,13.32-10.58,5.46-17.9,3.26-21.15-1-2.19-2.89-4.47-7.67-6.44-15.58C34.4,128.76,25,98.29,20.88,73.81c-2.38-14.14-2-19.1-2.05-21.28A32,32,0,0,1,29.06,27.9a32.5,32.5,0,0,1,28.42-8,248.81,248.81,0,0,0,36.39,4.29C83.62,31.37,78,36,66.47,33a5.81,5.81,0,1,0-2.88,11.26c28,7.17,31.39-16.07,67.6-24.21,16.57-1.71,30.81,7.11,35.32,19.54C178.93,73.82,119.48,129.69,87.52,152.49Zm60.15-3.28c-7.12,28.51-21,24.73-37.81.77,18.68-15.33,38.39-35,52.08-55.15C157.36,114.21,151.45,134.06,147.67,149.21Z" transform="translate(-7.22 -7.66)"/></g></svg>