<svg xmlns="http://www.w3.org/2000/svg" xmlns:xlink="http://www.w3.org/1999/xlink" viewBox="0 0 124.86 124.86"><defs><style>.cls-1{isolation:isolate;}.cls-2{fill:url(#linear-gradient);}.cls-3{mix-blend-mode:multiply;fill:url(#linear-gradient-2);}.cls-4{fill:url(#linear-gradient-3);}.cls-5{fill:url(#linear-gradient-4);}</style><linearGradient id="linear-gradient" x1="31.17" y1="93.69" x2="71.34" y2="53.52" gradientUnits="userSpaceOnUse"><stop offset="0" stop-color="#4de5e8"/><stop offset="1" stop-color="#423fff"/></linearGradient><linearGradient id="linear-gradient-2" x1="87.68" y1="100.65" x2="63.64" y2="48.7" gradientUnits="userSpaceOnUse"><stop offset="0" stop-color="#fff"/><stop offset="1" stop-color="#3f003c"/></linearGradient><linearGradient id="linear-gradient-3" x1="29.13" y1="28.63" x2="86.68" y2="86.17" gradientUnits="userSpaceOnUse"><stop offset="0" stop-color="#49d3ea"/><stop offset="1" stop-color="#423fff"/></linearGradient><linearGradient id="linear-gradient-4" x1="32.87" y1="30.33" x2="91.51" y2="88.97" gradientUnits="userSpaceOnUse"><stop offset="0" stop-color="#fcfcfc"/><stop offset="1" stop-color="#ddd"/></linearGradient></defs><title>tooth-logo3</title><g class="cls-1"><g id="OBJECTS"><circle class="cls-2" cx="62.43" cy="62.43" r="62.43"/><path class="cls-3" d="M129.43,66.5a62.43,62.43,0,0,1-97.28,51.8c18.28-2,22.92-20.18,22.92-20.18v-.4C58.76,89.35,57.9,72.85,66.94,73h.25c12.21,0,6.11,30.78,18.43,29.4s2.8-23.61,10.77-37.33h0c7.12-11.27,21.15-17.42,29.18-20.15A62.36,62.36,0,0,1,129.43,66.5Z" transform="translate(-4.57 -4.07)"/><path class="cls-4" d="M125.61,44.94c-8,2.73-22.06,8.88-29.18,20.15h0c.26-.44.54-.88.84-1.31,6.13-8.79,7.56-23.18-2.51-30.1-8.47-5.81-16.72-2.48-22,1.15a10.05,10.05,0,0,1-11.46,0c-5.27-3.63-13.52-7-22-1.15C29.21,40.6,30.65,55,36.78,63.78c9.45,13.56-1.27,37.2,11.61,38.64,3.34.38,5.32-1.61,6.68-4.71v.41s-4.64,18.2-22.92,20.18a62.44,62.44,0,1,1,93.46-73.36Z" transform="translate(-4.57 -4.07)"/><path class="cls-5" d="M94.72,33.69c-8.47-5.82-16.71-2.49-22,1.15a10.09,10.09,0,0,1-11.46,0c-5.27-3.64-13.52-7-22-1.15C29.21,40.6,30.65,55,36.77,63.78c9.46,13.56-1.26,37.2,11.62,38.64C60.75,103.81,54.55,72.8,66.94,73h.12c12.39-.22,6.19,30.79,18.55,29.4C98.49,101,87.77,77.34,97.23,63.78,103.35,55,104.79,40.6,94.72,33.69Z" transform="translate(-4.57 -4.07)"/></g></g></svg>